<svg id="Capa_1" enable-background="new 0 0 512 512" height="512" viewBox="0 0 512 512" width="512" xmlns="http://www.w3.org/2000/svg"><g><g><g><path d="m476.686 504.5h-301.171c-1.657 0-3-1.343-3-3v-400.165c0-1.657 1.343-3 3-3h301.171c1.657 0 3 1.343 3 3v400.165c0 1.657-1.343 3-3 3z" fill="#f9f7f8"/><path d="m477.686 98.335h-40c1.105 0 2 .896 2 2v394.127c0 5.543-4.494 10.038-10.038 10.038h47.038c1.657 0 3-1.343 3-3v-401.165c0-1.105-.895-2-2-2z" fill="#e5eef9"/><path d="m285.613 504.5h-111.098c-1.105 0-2-.895-2-2v-394.127c0-5.544 4.494-10.038 10.038-10.038h103.06z" fill="#ffe177"/></g><g><path d="m406.586 458.832h-302.172c-1.105 0-2-.895-2-2v-394.128c0-5.544 4.494-10.038 10.038-10.038h295.133c1.105 0 2 .895 2 2v401.165c.001 1.657-1.343 3.001-2.999 3.001z" fill="#f9f7f8"/><path d="m407.586 52.667h-40c1.105 0 2 .896 2 2v394.127c0 5.543-4.494 10.038-10.038 10.038h47.038c1.657 0 3-1.343 3-3v-401.165c0-1.105-.896-2-2-2z" fill="#e5eef9"/><path d="m215.512 458.832h-111.098c-1.105 0-2-.895-2-2v-394.128c0-5.544 4.494-10.038 10.038-10.038h103.06z" fill="#fd8087"/></g><g><g><path d="m338.015 348.054-64.149 64.141c-.941.941-2.218 1.47-3.549 1.47h-235.995c-1.109 0-2.008-.899-2.008-2.007v-402.151c0-1.109.899-2.007 2.008-2.007h303.156c1.109 0 2.008.899 2.008 2.007v334.998c-.001 1.331-.53 2.608-1.471 3.549z" fill="#f9f7f8"/><g><path d="m337.477 7.5h-40c1.109 0 2.008.899 2.008 2.007v377.072l38.53-38.525c.941-.941 1.47-2.218 1.47-3.549v-334.998c0-1.108-.899-2.007-2.008-2.007z" fill="#e5eef9"/></g><path d="m145.412 413.665h-111.098c-1.105 0-2-.895-2-2v-309.319l56.549-14.243 56.549 14.243z" fill="#6c7fd8"/><path d="m32.314 102.346h113.098v-94.846h-111.098c-1.105 0-2 .895-2 2z" fill="#d5e3f4"/><path d="m120.879 102.346c.001-13.932-8.898-25.773-21.32-30.172-1.582-.56-1.881-2.686-.459-3.579 8.289-5.206 12.332-16.539 5.728-27.669-1.103-1.858-2.654-3.43-4.508-4.541-15.118-9.058-30.718 1.604-30.718 15.909 0 6.872 3.603 12.894 9.021 16.298 1.423.894 1.13 3.02-.455 3.581-12.422 4.4-21.322 16.24-21.321 30.173z" fill="#f9f7f8"/></g><path d="m274.109 411.952 63.628-63.62c.632-.632.184-1.713-.71-1.713h-54.594c-5.544 0-10.038 4.494-10.038 10.037v54.587c0 .893 1.082 1.341 1.714.709z" fill="#d5e3f4"/></g></g><g><path d="m479.686 416.085c4.142 0 7.5-3.358 7.5-7.5v-308.25c0-5.238-4.262-9.5-9.5-9.5h-60.601v-36.168c0-5.238-4.262-9.5-9.5-9.5h-60.601v-35.66c0-5.242-4.265-9.507-9.507-9.507h-303.156c-5.242 0-9.507 4.265-9.507 9.507v28.56c0 4.142 3.358 7.5 7.5 7.5s7.5-3.358 7.5-7.5v-23.067h98.098v79.846h-10.255c-2.081-10.728-8.548-20.15-17.77-25.954 8.915-11.215 7.102-31.26-5.712-38.94-9.182-5.501-19.832-5.857-28.491-.95-13.895 7.873-17.879 27.216-7.829 39.881-9.232 5.803-15.703 15.229-17.785 25.963h-10.256v-26.917c0-4.142-3.358-7.5-7.5-7.5s-7.5 3.358-7.5 7.5v343.729c0 5.243 4.265 9.508 9.507 9.508h60.593v35.667c0 5.238 4.262 9.5 9.5 9.5h60.601v36.167c0 5.238 4.262 9.5 9.5 9.5h303.171c5.238 0 9.5-4.262 9.5-9.5v-62.251c0-4.142-3.358-7.5-7.5-7.5s-7.5 3.358-7.5 7.5v56.751h-179.073v-30.668h106.435c9.67 0 17.538-7.867 17.538-17.538v-15.584h20.105c4.142 0 7.5-3.358 7.5-7.5s-3.358-7.5-7.5-7.5h-20.105v-18.457h20.105c4.142 0 7.5-3.358 7.5-7.5s-3.358-7.5-7.5-7.5h-20.105v-70.649h20.105c4.142 0 7.5-3.358 7.5-7.5s-3.358-7.5-7.5-7.5h-20.105v-51.914h20.105c4.142 0 7.5-3.358 7.5-7.5s-3.358-7.5-7.5-7.5h-20.105v-87.378h20.105c4.142 0 7.5-3.358 7.5-7.5s-3.358-7.5-7.5-7.5h-20.105v-23.977h55.101v302.75c-.001 4.142 3.357 7.5 7.499 7.5zm-199.79-61.967h41.447l-41.447 41.442zm52.089-339.118v324.118h-57.589c-5.238 0-9.5 4.262-9.5 9.5v12.213h-44.866c-4.142 0-7.5 3.358-7.5 7.5s3.358 7.5 7.5 7.5h44.866v30.334h-111.984v-391.165zm-251.314 64.243c7.345-2.601 8.575-12.833 1.942-17.001-7.404-4.652-7.178-15.859.465-20.189 2.324-1.316 7.153-2.969 13.386.766 6.991 4.189 4.585 15.696-1.354 19.426-6.634 4.168-5.394 14.399 1.945 17 7.322 2.593 12.842 8.461 15.145 15.603h-46.674c2.303-7.143 7.823-13.012 15.145-15.605zm-40.857 30.603h17.033 64.032 17.033v296.319h-98.098zm70.101 311.319h98.098v30.166h-98.098zm168.198 75.835h-98.098v-30.668h35.497 62.601zm123.972-48.206c0 1.399-1.138 2.538-2.538 2.538h-176.535v-30.166h47.304c3.657 0 6.502-1.42 9.095-3.91l29.719-29.715h57.96c4.142 0 7.5-3.358 7.5-7.5s-3.358-7.5-7.5-7.5h-42.958l18.459-18.457h24.499c4.142 0 7.5-3.358 7.5-7.5s-3.358-7.5-7.5-7.5h-20.105v-104.106h20.105c4.142 0 7.5-3.358 7.5-7.5s-3.358-7.5-7.5-7.5h-20.105v-18.457h20.105c4.142 0 7.5-3.358 7.5-7.5s-3.358-7.5-7.5-7.5h-20.105v-53.251h20.105c4.142 0 7.5-3.358 7.5-7.5s-3.358-7.5-7.5-7.5h-20.105v-19.126h20.105c4.142 0 7.5-3.358 7.5-7.5s-3.358-7.5-7.5-7.5h-20.105v-23.977h55.101v388.627z"/><path d="m63.433 156.355h50.86c4.142 0 7.5-3.358 7.5-7.5s-3.358-7.5-7.5-7.5h-50.86c-4.142 0-7.5 3.358-7.5 7.5s3.358 7.5 7.5 7.5z"/><path d="m114.293 174.812h-50.86c-4.142 0-7.5 3.358-7.5 7.5s3.358 7.5 7.5 7.5h50.86c4.142 0 7.5-3.358 7.5-7.5s-3.358-7.5-7.5-7.5z"/><path d="m63.433 223.268h27.772c4.142 0 7.5-3.358 7.5-7.5s-3.358-7.5-7.5-7.5h-27.772c-4.142 0-7.5 3.358-7.5 7.5s3.358 7.5 7.5 7.5z"/><path d="m114.293 293.917h-50.86c-4.142 0-7.5 3.358-7.5 7.5s3.358 7.5 7.5 7.5h50.86c4.142 0 7.5-3.358 7.5-7.5s-3.358-7.5-7.5-7.5z"/><path d="m114.293 327.375h-50.86c-4.142 0-7.5 3.358-7.5 7.5s3.358 7.5 7.5 7.5h50.86c4.142 0 7.5-3.358 7.5-7.5s-3.358-7.5-7.5-7.5z"/><path d="m114.293 360.831h-50.86c-4.142 0-7.5 3.358-7.5 7.5s3.358 7.5 7.5 7.5h50.86c4.142 0 7.5-3.358 7.5-7.5s-3.358-7.5-7.5-7.5z"/><path d="m185.899 156.355h111.09c4.142 0 7.5-3.358 7.5-7.5s-3.358-7.5-7.5-7.5h-111.09c-4.142 0-7.5 3.358-7.5 7.5s3.358 7.5 7.5 7.5z"/><path d="m185.899 88.103h68.26c4.142 0 7.5-3.358 7.5-7.5s-3.358-7.5-7.5-7.5h-68.26c-4.142 0-7.5 3.358-7.5 7.5s3.358 7.5 7.5 7.5z"/><path d="m185.899 53.977h111.09c4.142 0 7.5-3.358 7.5-7.5s-3.358-7.5-7.5-7.5h-111.09c-4.142 0-7.5 3.358-7.5 7.5s3.358 7.5 7.5 7.5z"/><path d="m185.899 189.812h111.09c4.142 0 7.5-3.358 7.5-7.5s-3.358-7.5-7.5-7.5h-111.09c-4.142 0-7.5 3.358-7.5 7.5s3.358 7.5 7.5 7.5z"/><path d="m185.899 223.268h111.09c4.142 0 7.5-3.358 7.5-7.5s-3.358-7.5-7.5-7.5h-111.09c-4.142 0-7.5 3.358-7.5 7.5s3.358 7.5 7.5 7.5z"/><path d="m296.99 293.917h-76.96c-4.142 0-7.5 3.358-7.5 7.5s3.358 7.5 7.5 7.5h76.96c4.142 0 7.5-3.358 7.5-7.5s-3.358-7.5-7.5-7.5z"/><path d="m254.16 327.375h-34.13c-4.142 0-7.5 3.358-7.5 7.5s3.358 7.5 7.5 7.5h34.13c4.142 0 7.5-3.358 7.5-7.5s-3.358-7.5-7.5-7.5z"/><path d="m185.899 257.394h80.976c4.142 0 7.5-3.358 7.5-7.5s-3.358-7.5-7.5-7.5h-80.976c-4.142 0-7.5 3.358-7.5 7.5s3.358 7.5 7.5 7.5z"/><path d="m192.83 298.55c-1.63-3.85-6.198-5.696-10.023-3.958-3.797 1.725-5.491 6.392-3.634 10.142 1.692 3.417 5.815 5.051 9.384 3.695 3.927-1.492 5.819-6.007 4.273-9.879z"/><path d="m192.83 332.01c-1.562-3.773-6.029-5.628-9.8-4.06-3.781 1.572-5.603 6.006-4.06 9.79 1.541 3.78 6.043 5.62 9.8 4.06 3.8-1.578 5.574-5.998 4.06-9.79z"/><path d="m192.83 365.46c-1.634-3.862-6.197-5.67-10.023-3.952-3.802 1.707-5.487 6.4-3.634 10.138 1.694 3.417 5.815 5.049 9.384 3.693 3.949-1.501 5.791-5.994 4.273-9.879z"/></g></g></svg>