<svg id="Capa_1" enable-background="new 0 0 511.994 511.994" height="512" viewBox="0 0 511.994 511.994" width="512" xmlns="http://www.w3.org/2000/svg"><g><g><g><g><path d="m402.705 268.523h37.941v95.707h-37.941z" fill="#d5e3f4" transform="matrix(.853 -.522 .522 .853 -103.142 266.667)"/><g><path d="m247.47 279.207c-19.822-11.742-37.147-28.359-50.011-49.377-42.113-68.804-20.475-158.719 48.328-200.832s158.719-20.475 200.832 48.329 20.475 158.719-48.328 200.832z" fill="#b3dafe"/><path d="m446.619 77.327c-31.273-51.093-88.905-76.166-144.679-68.449 41.864 5.782 80.895 29.591 104.678 68.449 42.113 68.804 20.475 158.719-48.328 200.832 0 0 30.693 1.176 38.312 1.004 0 0 1.623-.964 1.688-1.004 68.804-42.113 90.442-132.028 48.329-200.832z" fill="#8ac9fe"/><g><path d="m322.039 185.455c-41.18 0-74.563 33.383-74.563 74.563v19.181c17.968 10.645 37.984 17.285 58.591 19.566 10.636 1.177 21.427 1.192 32.175 0 20.044-2.223 39.93-8.653 58.359-19.602v-19.145c.001-41.181-33.382-74.563-74.562-74.563z" fill="#fff"/><g><path d="m395.29 246.127c-10.812 13.443-40.156 43.962-89.223 52.637h32.175c20.044-2.223 39.93-8.653 58.359-19.602v-19.145c.001-4.749-.462-9.387-1.311-13.89z" fill="#f9f7f8"/></g><g fill="#fd8087"><path d="m313.937 223.991-14.041 54.223c-.261 1.007-.218 2.068.122 3.051l6.059 17.5s7.088.898 16.078.898c9.522 0 15.846-.898 15.846-.898l6.071-17.532c.333-.962.381-2 .138-2.989l-13.354-54.252h-16.919z"/><path d="m327.687 234.55h-10.582c-5.832 0-10.559-4.728-10.559-10.559v-21.141h31.701v21.141c-.001 5.831-4.728 10.559-10.56 10.559z"/></g><path d="m322.039 207.682c-27.068 0-49.011-21.943-49.011-49.011v-25.791c0-27.068 21.943-49.011 49.011-49.011h49.011v74.801c0 27.07-21.943 49.012-49.011 49.012z" fill="#ffdfcf"/><path d="m331.05 83.871v74.801c0 19.941-11.916 37.088-29.011 44.742 6.109 2.735 12.873 4.269 20 4.269 27.068 0 49.011-21.943 49.011-49.01v-74.802z" fill="#ffcebf"/><path d="m273.028 133.784h50.15c29.556 0 53.515-23.96 53.515-53.515 0-12.583-10.201-22.784-22.784-22.784h-30.425c-27.866 0-50.457 22.59-50.457 50.457v25.842z" fill="#bc7c63"/></g><path d="m489.708 427.639c-14.629 8.954-33.746 4.353-42.7-10.275l-39.923-65.337c-8.954-14.629-4.353-33.746 10.275-42.7 14.629-8.954 33.746-4.353 42.7 10.275l39.923 65.337c8.954 14.629 4.354 33.746-10.275 42.7z" fill="#fd8087"/><path d="m499.983 384.939-39.923-65.337c-8.954-14.628-28.071-19.229-42.7-10.275-5.497 3.365-9.577 8.165-12.055 13.622 11.274-.882 22.627 4.437 28.936 14.744l39.923 65.337c5.589 9.132 5.896 20.012 1.78 29.077 4.728-.37 9.442-1.823 13.764-4.469 14.629-8.953 19.229-28.07 10.275-42.699z" fill="#fe646f"/></g></g><g><path d="m82.119 158.645c-38.766 0-70.191 31.426-70.191 70.191v96.674c0 25.84 20.947 46.787 46.787 46.787h46.808c25.84 0 46.787-20.947 46.787-46.787v-96.674c0-38.765-31.426-70.191-70.191-70.191z" fill="#bc7c63"/><g><path d="m136.703 400.957h-109.169c-11.034 0-19.979-8.945-19.979-19.979v-18.768c0-41.18 33.383-74.563 74.563-74.563 41.18 0 74.563 33.383 74.563 74.563v18.768c.001 11.034-8.944 19.979-19.978 19.979z" fill="#685e68"/><path d="m52.706 289.515-.133 46.691c-.016 5.698 6.418 9.027 11.06 5.722l14.426-10.271c2.43-1.73 5.69-1.73 8.12 0l14.426 10.271c4.642 3.305 11.076-.024 11.06-5.722l-.133-46.691z" fill="#f9f7f8"/><g><path d="m82.119 217.849c-4.955 6.82-12.989 11.257-22.064 11.257h-12.047c-5.173 0-9.367 4.194-9.367 9.367v28.844c0 24.012 19.466 43.478 43.478 43.478 24.012 0 43.478-19.466 43.478-43.478v-28.844c0-5.173-4.194-9.367-9.367-9.367h-12.046c-9.076 0-17.11-4.438-22.065-11.257z" fill="#ffdfcf"/></g><g><path d="m116.229 229.106h-12.046c-7.188 0-13.717-2.792-18.586-7.339v45.55c0 16.798-9.533 31.361-23.478 38.601 5.989 3.109 12.786 4.877 20 4.877 24.012 0 43.478-19.466 43.478-43.478v-28.844c-.001-5.173-4.195-9.367-9.368-9.367z" fill="#ffcebf"/></g></g></g><g><path d="m290.64 504.494h-109.169c-11.034 0-19.979-8.945-19.979-19.979v-18.768c0-41.18 33.383-74.563 74.563-74.563 41.18 0 74.563 33.383 74.563 74.563v18.768c0 11.035-8.944 19.979-19.978 19.979z" fill="#f9f7f8"/><path d="m227.597 429.721-14.041 54.223c-.261 1.007-.218 2.068.122 3.051l6.059 17.5h31.923l6.071-17.532c.333-.962.381-2 .138-2.989l-13.354-54.252h-16.918z" fill="#b3dafe"/><path d="m241.346 440.28h-10.582c-5.832 0-10.559-4.728-10.559-10.559v-21.141h31.701v21.141c0 5.831-4.728 10.559-10.56 10.559z" fill="#b3dafe"/><path d="m236.055 413.412c-27.068 0-49.011-21.943-49.011-49.011v-25.791c0-27.068 21.943-49.011 49.011-49.011 27.068 0 49.011 21.943 49.011 49.011v25.791c0 27.069-21.943 49.011-49.011 49.011z" fill="#ffdfcf"/><path d="m236.055 289.601c-7.127 0-13.891 1.533-20 4.269 17.094 7.654 29.011.287 29.011 20.229v50.304c0 19.941-11.916 37.088-29.011 44.742 6.109 2.735 12.873 4.269 20 4.269 27.068 0 49.01-21.943 49.01-49.01v-25.791c.001-27.07-21.942-49.012-49.01-49.012z" fill="#ffcebf"/><path d="m187.045 339.514 10.362-16.743c5.192-8.389 16.019-11.285 24.706-6.606 8.081 3.277 19.805 3.277 27.887 0 8.686-4.679 19.514-1.783 24.706 6.606l10.362 16.743v-27.289c0-27.068-21.943-49.011-49.011-49.011-27.068 0-49.011 21.943-49.011 49.011v27.289z" fill="#685e68"/></g></g></g><g><path d="m322.155 299.663c9.522 0 15.846-.898 15.846-.898l3.845-11.105c-4.501 2.295-19.228 9.251-35.768 11.105-.001-.001 7.087.898 16.077.898z" fill="#fe646f"/></g><g><path d="m506.383 381.028-39.926-65.342c-5.751-9.396-14.909-15.448-24.92-17.566l-17.937-29.306c23.608-20.718 40.241-48.142 47.741-79.307 9.597-39.88 3.089-81.11-18.325-116.095-10.099-16.5-22.977-30.734-38.274-42.307-3.303-2.5-8.006-1.846-10.506 1.457-2.499 3.303-1.847 8.007 1.457 10.506 13.796 10.437 25.414 23.281 34.53 38.175 37.828 61.802 21.275 141.856-36.12 183.98.867-29.116-11.83-56.957-36.359-73.372 6.788-9.324 10.806-20.788 10.806-33.178v-52.817c3.613-7.788 5.645-16.452 5.645-25.587 0-16.698-13.585-30.283-30.284-30.283h-30.425c-31.958 0-57.957 25.999-57.957 57.957v50.73c0 12.39 4.018 23.854 10.806 33.178-21.497 14.386-34.948 37.98-36.244 64.025-3.737-.289-7.469-.186-11.195.31-9.699-8.813-18.127-18.976-25.039-30.27-39.887-65.166-19.32-150.632 45.847-190.519 39.323-24.067 87.882-27.011 129.898-7.875 3.771 1.718 8.217.054 9.934-3.716s.053-8.217-3.716-9.934c-46.559-21.207-100.37-17.944-143.948 8.729-72.221 44.205-95.014 138.923-50.81 211.144 6.058 9.898 13.16 19.026 21.188 27.246-19.295 9.001-32.706 28.576-32.706 51.234v52.177c0 12.39 4.019 23.854 10.806 33.178-22.632 15.146-36.359 40.496-36.359 68.167v18.768c0 15.152 12.327 27.479 27.479 27.479h109.169c15.152 0 27.479-12.327 27.479-27.479v-18.768c0-27.671-13.727-53.021-36.359-68.167 6.788-9.324 10.807-20.788 10.807-33.178 0-17.392 0-34.785 0-52.177 0-2.745-.207-5.442-.587-8.083 28.785 5.725 59.117 3.017 86.436-7.74l17.967 29.354c-2.669 9.878-1.446 20.787 4.304 30.18l39.926 65.342c10.967 17.918 35.104 23.717 53.012 12.756 17.924-10.97 23.731-35.08 12.759-53.006zm-117.281-121.011v14.794c-12.559 6.942-26.041 11.834-39.926 14.602l1.984-5.729c.808-2.335.922-4.838.332-7.234l-10.041-40.795c2.674-3.15 4.296-7.219 4.296-11.665v-14.04c4.099-1.903 7.93-4.282 11.427-7.067 19.813 12.175 31.928 33.632 31.928 57.134zm-108.573-101.345v-17.388h42.65c15.47 0 29.605-5.798 40.371-15.321v32.709c0 22.889-18.622 41.51-41.511 41.51s-41.51-18.621-41.51-41.51zm36.576 68.378c-1.687 0-3.059-1.373-3.059-3.06v-9.384c2.613.372 5.279.576 7.994.576 2.961 0 5.868-.231 8.707-.673v9.481c0 1.687-1.373 3.06-3.06 3.06zm-36.576-119.108c0-23.687 19.27-42.957 42.957-42.957h30.425c8.427 0 15.284 6.856 15.284 15.284 0 25.373-20.643 46.015-46.016 46.015h-42.65zm-85.984 204.283c0-22.889 18.622-41.51 41.511-41.51 23.832 0 41.959 20.338 41.511 43.609-7.872-8.068-20.338-10.327-30.703-4.985-6.141 2.363-15.475 2.363-21.615 0-10.364-5.343-22.832-3.084-30.703 4.985v-2.099zm41.51 93.687c-22.889 0-41.511-18.622-41.511-41.51v-22.755l9.239-14.929c3.099-5.007 9.587-6.741 14.771-3.95 9.12 4.904 25.831 4.94 35 0 5.183-2.792 11.672-1.059 14.771 3.95l9.239 14.929v22.755c.002 22.889-18.619 41.51-41.509 41.51zm8.35 23.808c0 1.687-1.372 3.06-3.059 3.06h-10.582c-1.606 0-3.059-1.298-3.059-3.06v-9.429c5.567.828 11.133.828 16.7 0zm-75.413 54.795v-18.768c0-23.502 12.115-44.959 31.928-57.134 3.599 2.866 7.552 5.299 11.785 7.229v13.878c0 4.374 1.565 8.388 4.161 11.517l-10.572 40.826c-.633 2.445-.531 4.999.295 7.386l2.613 7.545h-27.732c-6.88 0-12.478-5.598-12.478-12.479zm56.085 12.479-4.093-11.82 9.685-37.399c.032 0 .063.005.096.005h10.471l9.193 37.348-4.108 11.866zm78.041-31.247v18.768c0 6.881-5.598 12.479-12.479 12.479h-28.446l2.624-7.58c.807-2.334.922-4.835.333-7.234l-10.042-40.795c2.674-3.15 4.296-7.219 4.296-11.665v-13.878c4.233-1.929 8.186-4.363 11.784-7.228 19.815 12.175 31.93 33.631 31.93 57.133zm-48.125-206.757c.348-23.098 12.387-44.109 31.911-56.106 3.699 2.946 7.774 5.436 12.141 7.39v13.717c0 4.374 1.565 8.389 4.162 11.517l-10.571 40.826c-.633 2.445-.531 4.999.295 7.386l1.979 5.714c-2.68-.533-5.348-1.144-8.003-1.839-6.443-13.248-17.914-23.61-31.914-28.605zm56.581 32.725-4.249-12.271 9.685-37.399c.032 0 .063.005.095.005h10.471l9.193 37.349-4.259 12.3c-3.512.267-7.034.415-10.562.415-3.456 0-6.917-.14-10.374-.399zm80.611-1.548c6.797-3.486 13.376-7.502 19.58-11.954l12.372 20.214c-3.683.927-7.288 2.417-10.693 4.502-3.405 2.084-6.373 4.617-8.874 7.474zm104.212 116.495c-1.473 6.122-5.299 11.241-10.605 14.579-10.884 6.662-25.792 2.981-32.384-7.789l-39.926-65.342c-6.78-11.078-3.284-25.606 7.793-32.387 10.735-6.57 25.788-2.99 32.385 7.789l39.926 65.342c3.285 5.366 4.283 11.691 2.811 17.808z"/><path d="m164.182 380.978v-18.768c0-9.907-1.746-19.493-5.014-28.415.418-2.73.642-5.51.642-8.284v-96.674c0-42.839-34.852-77.691-77.691-77.691s-77.691 34.852-77.691 77.691v96.674c0 2.776.221 5.56.64 8.29-3.267 8.921-5.012 18.505-5.012 28.409v18.768c0 15.152 12.327 27.479 27.479 27.479h20.281c4.142 0 7.5-3.358 7.5-7.5s-3.358-7.5-7.5-7.5h-20.282c-6.881 0-12.479-5.598-12.479-12.479v-18.768c0-22.873 11.367-43.66 30.132-55.991l-.115 29.966c-.033 11.598 13.463 18.578 22.91 11.853l14.136-10.065 14.135 10.064c9.517 6.776 22.945-.285 22.911-11.86l-.115-29.959c18.765 12.332 30.133 33.118 30.133 55.992v18.768c0 6.881-5.598 12.479-12.479 12.479h-54.585c-4.142 0-7.5 3.358-7.5 7.5s3.358 7.5 7.5 7.5h54.584c15.153 0 27.48-12.327 27.48-27.479zm-46.086-113.661c0 19.838-16.14 35.978-35.978 35.978s-35.978-16.14-35.978-35.978v-28.844c0-1.03.837-1.867 1.867-1.867h12.046c8.105 0 15.904-2.866 22.064-7.918 6.16 5.052 13.959 7.918 22.064 7.918h12.046c1.03 0 1.867.837 1.867 1.867v28.844zm-27.567 58.23c-5.031-3.583-11.791-3.582-16.821 0l-13.632 9.706.084-21.937c6.654 3.189 14.1 4.979 21.958 4.979s15.304-1.79 21.958-4.979l.084 21.937zm35.63-32.605c4.401-7.535 6.937-16.287 6.937-25.625v-28.844c0-9.301-7.566-16.867-16.867-16.867h-12.046c-6.301 0-12.281-3.053-15.997-8.166-4.045-4.122-8.09-4.122-12.135 0-3.715 5.113-9.695 8.166-15.997 8.166h-12.046c-9.301 0-16.867 7.566-16.867 16.867v28.844c0 9.338 2.536 18.09 6.937 25.625-7.102 4.5-13.36 9.982-18.65 16.214v-80.32c0-34.568 28.123-62.691 62.691-62.691s62.691 28.123 62.691 62.691v80.32c-5.291-6.232-11.549-11.715-18.651-16.214z"/></g></g></svg>