<svg id="Capa_1" enable-background="new 0 0 512.003 512.003" height="512" viewBox="0 0 512.003 512.003" width="512" xmlns="http://www.w3.org/2000/svg"><g><g><g><path d="m173.263 7.503 57.518 147.57c1.497 3.84 5.196 6.368 9.317 6.368h32.53c7.037 0 11.873-7.075 9.317-13.632l-54.686-140.306z" fill="#4f66d0"/></g><path d="m464.501 504.503h-417c-22.091 0-40-17.909-40-40v-268.041c0-22.091 17.909-40 40-40h417c22.091 0 40 17.909 40 40v268.041c0 22.091-17.908 40-40 40z" fill="#f9f7f8"/><path d="m464.501 156.462h-40c22.091 0 40 17.909 40 40v268.041c0 22.091-17.909 40-40 40h40c22.091 0 40-17.909 40-40v-268.041c0-22.091-17.908-40-40-40z" fill="#e5eef9"/><path d="m504.501 247.003h-497v-50.541c0-22.091 17.909-40 40-40h417c22.091 0 40 17.909 40 40z" fill="#6fd7a3"/><path d="m464.501 156.462h-40c22.091 0 40 17.909 40 40v50.541h40v-50.541c0-22.091-17.908-40-40-40z" fill="#3ec3a4"/><g><path d="m316.12 176.825-20.126 23.676c-1.9 2.235-4.686 3.523-7.619 3.523h-64.747c-2.934 0-5.719-1.288-7.619-3.523l-20.126-23.676c-1.537-1.808-2.381-4.104-2.381-6.477v-26.556c0-5.523 4.477-10 10-10h105c5.523 0 10 4.477 10 10v26.556c-.001 2.373-.845 4.669-2.382 6.477z" fill="#ffe177"/></g><g><path d="m338.739 7.503-57.518 147.57c-1.497 3.84-5.196 6.368-9.317 6.368h-36.919c-4.926 0-8.311-4.953-6.522-9.542l56.28-144.396z" fill="#6c7fd8"/></g><g><path d="m190.104 462.838h-127.908c-6.279 0-11.37-5.09-11.37-11.37v-152.387c0-6.279 5.09-11.37 11.37-11.37h127.909c6.279 0 11.37 5.09 11.37 11.37v152.387c-.001 6.28-5.091 11.37-11.371 11.37z" fill="#6c7fd8"/><g><g><path d="m176.64 462.838c0-27.885-22.605-50.49-50.49-50.49-27.885 0-50.49 22.605-50.49 50.49z" fill="#b3dafe"/></g><path d="m126.15 427.4c-18.329 0-33.187-14.858-33.187-33.187v-17.464c0-18.329 14.858-33.187 33.187-33.187h33.187v50.652c0 18.327-14.858 33.186-33.187 33.186z" fill="#ffdfcf"/><path d="m92.963 377.359h33.959c20.014 0 36.238-16.224 36.238-36.238 0-8.521-6.907-15.428-15.428-15.428h-20.602c-18.87 0-34.167 15.297-34.167 34.167z" fill="#bc7c63"/></g></g></g><g><path d="m464.501 148.962h-30.85c-4.143 0-7.5 3.358-7.5 7.5s3.357 7.5 7.5 7.5h30.85c17.921 0 32.5 14.58 32.5 32.5v43.041h-482v-43.041c0-17.92 14.58-32.5 32.5-32.5h138.5v6.386c0 4.149 1.479 8.174 4.167 11.334l20.126 23.675c3.331 3.919 8.191 6.167 13.334 6.167h64.748c5.143 0 10.002-2.247 13.334-6.166l20.125-23.675c2.688-3.161 4.167-7.186 4.167-11.335v-6.386h74.519c4.143 0 7.5-3.358 7.5-7.5s-3.357-7.5-7.5-7.5h-74.519v-5.17c0-9.649-7.851-17.5-17.5-17.5h-8.013l45.239-116.066c1.504-3.859-.405-8.208-4.265-9.711-3.857-1.506-8.207.404-9.712 4.264l-57.518 147.571c-.377.966-1.291 1.591-2.329 1.591h-36.188l56.016-143.714c1.504-3.859-.405-8.208-4.265-9.711-3.859-1.506-8.207.406-9.712 4.264l-21.754 55.813-21.754-55.814c-1.503-3.859-5.853-5.767-9.711-4.264-3.859 1.504-5.769 5.852-4.264 9.711l27.681 71.018-18.949 48.615-48.753-125.08c-1.503-3.859-5.853-5.767-9.711-4.264-3.859 1.504-5.769 5.852-4.264 9.711l45.239 116.066h-8.013c-9.649 0-17.5 7.851-17.5 17.5v5.17h-138.5c-26.191 0-47.5 21.309-47.5 47.5v50.541 217.5c0 26.191 21.309 47.5 47.5 47.5h417c26.191 0 47.5-21.309 47.5-47.5v-217.5-50.541c-.001-26.191-21.309-47.5-47.501-47.5zm-263.5-5.17c0-1.378 1.122-2.5 2.5-2.5h21.007l-3.504 9.349c-1.108 4.074-.403 8.452 2.009 11.981 2.704 3.957 7.179 6.318 11.971 6.318h36.919c7.268 0 13.668-4.375 16.306-11.145l6.433-16.504h13.859c1.379 0 2.5 1.122 2.5 2.5v26.556c0 .593-.211 1.168-.596 1.62l-20.125 23.675c-.477.56-1.171.881-1.905.881h-64.748c-.735 0-1.429-.321-1.905-.881l-20.126-23.676c-.384-.451-.595-1.026-.595-1.619zm263.5 353.211h-417c-17.92 0-32.5-14.58-32.5-32.5v-210h482v210c0 17.92-14.579 32.5-32.5 32.5z"/><path d="m190.104 280.212h-127.908c-10.405 0-18.87 8.465-18.87 18.87v152.387c0 10.405 8.465 18.87 18.87 18.87h36.808c4.142 0 7.5-3.358 7.5-7.5s-3.358-7.5-7.5-7.5c-5.053 0-10.105 0-15.158 0 2.083-11.364 8.797-21.723 18.416-28.219 6.714 4.887 14.968 7.781 23.889 7.781 8.926 0 17.184-2.896 23.9-7.789 9.649 6.509 16.34 16.827 18.41 28.228h-39.474c-4.142 0-7.5 3.358-7.5 7.5s3.358 7.5 7.5 7.5c20.373.026 40.745 0 61.118 0 10.405 0 18.87-8.465 18.87-18.87v-152.389c-.001-10.405-8.466-18.869-18.871-18.869zm-63.954 139.688c-14.164 0-25.687-11.523-25.687-25.688v-9.353h26.459c9.254 0 17.84-2.897 24.916-7.82v17.173c-.001 14.164-11.524 25.688-25.688 25.688zm.772-50.04h-26.459v-10c0-14.704 11.962-26.667 26.667-26.667h20.603c4.372 0 7.928 3.557 7.928 7.928-.001 15.847-12.893 28.739-28.739 28.739zm67.052 81.608c0 2.134-1.736 3.87-3.87 3.87h-6.067c-.07-1.354-.286-3.175-1.252-4.8-3.039-13.7-11.043-26.067-22.362-34.442 4.052-6.324 6.413-13.831 6.413-21.884v-35.243c2.448-5.454 3.822-11.492 3.822-17.847 0-12.643-10.285-22.928-22.928-22.928h-20.603c-22.975 0-41.667 18.691-41.667 41.667v34.352c0 8.042 2.355 15.54 6.398 21.859-12.769 9.371-21.164 23.573-23.21 39.267h-6.455c-2.134 0-3.87-1.736-3.87-3.87v-152.388c0-2.134 1.736-3.87 3.87-3.87h127.909c2.134 0 3.87 1.736 3.87 3.87v152.387z"/><path d="m443.666 392.292h-13.015c-4.578.431-7.078 2.936-7.5 7.515l.093 45.952c.009 4.116 3.333 7.457 7.449 7.485 4.493.025 8.992.077 13.484-.001 14.802-.259 25.545-13.075 25.545-30.475.001-18.229-10.471-30.476-26.056-30.476zm.25 45.952c-1.339.024-3.508.032-5.687.027l-.062-30.98h5.499c10.26 0 11.057 11.845 11.057 15.476 0 10.561-5.428 15.384-10.807 15.477z"/><path d="m402.213 392.292c-4.143 0-7.5 3.358-7.5 7.5v45.98c0 4.142 3.357 7.5 7.5 7.5s7.5-3.358 7.5-7.5v-45.98c0-4.142-3.357-7.5-7.5-7.5z"/><path d="m462.223 297.277h-211.222c-4.142 0-7.5 3.358-7.5 7.5s3.358 7.5 7.5 7.5h211.222c4.143 0 7.5-3.358 7.5-7.5s-3.357-7.5-7.5-7.5z"/><path d="m462.223 345.417h-211.222c-4.142 0-7.5 3.358-7.5 7.5s3.358 7.5 7.5 7.5h211.222c4.143 0 7.5-3.358 7.5-7.5s-3.357-7.5-7.5-7.5z"/><path d="m340.001 393.555h-89c-4.142 0-7.5 3.358-7.5 7.5s3.358 7.5 7.5 7.5h89c4.143 0 7.5-3.358 7.5-7.5s-3.357-7.5-7.5-7.5z"/></g></g></svg>