<svg id="Capa_1" enable-background="new 0 0 512 512" height="512" viewBox="0 0 512 512" width="512" xmlns="http://www.w3.org/2000/svg"><g><g><path d="m349.351 410.226h128v-190.624c0-18.155-14.718-32.873-32.873-32.873h-62.254l-32.873 32.873z" fill="#6c7fd8"/></g><path d="m430.122 358.865v-122.136c0-24.853-20.147-45-45-45l-45 79.771v77.726z" fill="#685e68"/><path d="m385.122 191.828v25.172l-45 54.5v-34.771c0-24.837 20.163-44.956 45-44.901z" fill="#f9f7f8"/><g><path d="m383.172 217c-23.367 0-42.309-18.942-42.309-42.309v-22.264c0-23.367 18.942-42.309 42.309-42.309 23.367 0 42.309 18.942 42.309 42.309v22.264c0 23.367-18.942 42.309-42.309 42.309z" fill="#ffdfcf"/><path d="m340.863 153.206 8.945-14.454c4.482-7.242 13.829-9.742 21.327-5.703 6.976 2.829 17.097 2.829 24.074 0 7.498-4.039 16.845-1.54 21.327 5.703l8.945 14.454v-23.557c0-23.367-18.942-42.309-42.309-42.309-23.367 0-42.309 18.942-42.309 42.309z" fill="#685e68"/></g><g><path d="m92.397 402.527h327.206v101.973h-327.206z" fill="#bc7c63"/><path d="m379.603 402.527h40v101.973h-40z" fill="#aa6a51"/><g><path d="m494.585 410.027h-477.17c-5.476 0-9.915-4.439-9.915-9.915v-75.488c0-5.476 4.439-9.915 9.915-9.915h477.17c5.476 0 9.915 4.439 9.915 9.915v75.488c0 5.476-4.439 9.915-9.915 9.915z" fill="#d1a08f"/><path d="m494.585 314.709h-40c5.476 0 9.915 4.439 9.915 9.915v75.488c0 5.476-4.439 9.915-9.915 9.915h40c5.476 0 9.915-4.439 9.915-9.915v-75.488c0-5.476-4.439-9.915-9.915-9.915z" fill="#c68d7a"/><g><path d="m337.019 286.951c-7.665 0-13.879 6.214-13.879 13.879s6.214 13.879 13.879 13.879h18.332v-27.758z" fill="#ffdfcf"/><path d="m402.364 242.435v44.517h-47.013v27.758h60.892c1.437 0 2.823-.219 4.127-.624 5.65-1.757 9.752-7.027 9.752-13.255v-58.395h-27.758z" fill="#685e68"/></g><g><g><path d="m60.961 444.14v-122.137c0-24.853 20.147-3 45-3 24.853 0 45-21.853 45 3v112.497z" fill="#f9f7f8"/><path d="m200.86 504.5v-30h-94.538c-25.052 0-45.36-5.309-45.36-30.36l90-9.64c0 2.761 2.239 5 5 5h77.982c20.091 0 36.377 16.287 36.377 36.377v28.623" fill="#685e68"/><g><path d="m56.232 474.5h161.539c8.284 0 15 6.716 15 15 0 8.284-6.716 15-15 15h-161.539c-8.284 0-15-6.716-15-15 0-8.284 6.716-15 15-15z" fill="#6c7fd8"/></g><g><path d="m230.064 382.226c7.665 0 13.879 6.214 13.879 13.879s-6.214 13.879-13.879 13.879h-18.332v-27.758z" fill="#ffdfcf"/><path d="m158.719 337.709v44.517h53.013v27.758h-66.892c-1.437 0-2.823-.219-4.127-.624-5.65-1.757-9.752-7.027-9.752-13.255v-58.395" fill="#f9f7f8"/></g><path d="m127.479 197.17h-21.746c-23.367 0-42.309 18.942-42.309 42.309v45.042c0 23.366 18.942 42.309 42.309 42.309 23.367 0 42.309-18.942 42.309-42.309v-66.788c-.001-11.357-9.207-20.563-20.563-20.563z" fill="#685e68"/></g><path d="m139.732 474.769h-68c-16.569 0-30-13.431-30-30v-130.766c0-16.569 13.431-30 30-30h68c16.569 0 30 13.431 30 30v130.766c0 16.569-13.431 30-30 30z" fill="#6c7fd8"/></g></g><g><path d="m308.344 96.779c6.098-9.118 9.659-20.077 9.659-31.87 0-31.706-25.703-57.409-57.409-57.409s-57.409 25.703-57.409 57.409 25.703 57.409 57.409 57.409c9.865 0 19.147-2.491 27.256-6.874l18.605 8.73c5.237 2.457 10.831-2.643 8.865-8.084z" fill="#ffe177"/><path d="m162.803 163.344c-8.911-6.398-16.091-15.41-20.231-26.452-11.129-29.689 3.917-62.778 33.605-73.907 29.689-11.129 62.778 3.917 73.907 33.605 11.129 29.689-3.917 62.778-33.605 73.907-9.237 3.463-18.803 4.388-27.935 3.131l-14.357 14.705c-4.041 4.139-11.069 1.326-11.139-4.458z" fill="#fd8087"/><path d="m250.085 96.59c-11.112-29.645-44.119-44.686-73.774-33.652 15.053 5.598 27.694 17.432 33.774 33.652 11.129 29.688-3.917 62.778-33.605 73.907-4.469 1.675-9.015 2.751-13.552 3.279l.121 10.099c.069 5.784 7.098 8.597 11.139 4.458l14.357-14.706c9.132 1.258 18.698.332 27.935-3.131 29.688-11.128 44.734-44.218 33.605-73.906z" fill="#fe646f"/></g><path d="m119.701 474.769h-27.937v-113.801c0-7.714 6.254-13.968 13.968-13.968 7.714 0 13.968 6.254 13.968 13.968v113.801z" fill="#e5eef9"/><g><g><path d="" fill="#fff"/></g></g></g><g><path d="m494.585 307.209h-9.734v-87.607c0-22.262-18.111-40.373-40.373-40.373h-11.712c.136-1.496.216-3.007.216-4.538 0-15.014 0-30.028 0-45.042 0-10.313-3.137-20.218-9.07-28.644-2.384-3.386-7.062-4.2-10.45-1.813-3.387 2.385-4.198 7.063-1.813 10.45 4.041 5.738 6.224 12.46 6.33 19.471-7.099-5.918-17.295-7.301-25.895-2.893-5.076 1.934-12.747 1.935-17.821 0-8.6-4.411-18.797-3.027-25.895 2.893.288-18.948 15.79-34.274 34.805-34.274 2.835 0 5.67.348 8.427 1.033 4.021 1 8.089-1.449 9.088-5.469s-1.449-8.089-5.469-9.088c-3.939-.979-7.992-1.476-12.046-1.476-27.465 0-49.809 22.345-49.809 49.81v45.042c0 11.284 3.777 21.699 10.126 30.06-7.042 9.128-10.867 20.249-10.867 31.978v43.182c-9.686 2.033-16.982 10.638-16.982 20.92 0 2.221.342 4.363.973 6.379h-140.01c-2.221-12.078-10.241-22.146-21.063-27.199v-62.277c0-15.474-12.589-28.062-28.062-28.062h-21.746c-27.465 0-49.809 22.344-49.809 49.809v40.531c-10.822 5.053-18.843 15.121-21.063 27.199h-17.446c-9.603-.002-17.415 7.81-17.415 17.413v75.488c0 9.603 7.812 17.415 17.415 17.415h16.817v27.242c0 9.898 3.862 18.907 10.149 25.616-6.387 3.974-10.649 11.054-10.649 19.114 0 12.407 10.094 22.5 22.5 22.5h17.924c4.143 0 7.5-3.358 7.5-7.5s-3.357-7.5-7.5-7.5h-17.924c-4.136 0-7.5-3.364-7.5-7.5s3.364-7.5 7.5-7.5h161.539c4.136 0 7.5 3.364 7.5 7.5s-3.364 7.5-7.5 7.5h-114.087c-4.143 0-7.5 3.358-7.5 7.5s3.357 7.5 7.5 7.5h114.088c12.406 0 22.5-10.093 22.5-22.5s-10.094-22.5-22.5-22.5h-47.862c4.184-5.664 6.811-12.542 7.251-20h56.783c15.923 0 28.877 12.955 28.877 28.877v28.624c0 4.142 3.357 7.5 7.5 7.5s7.5-3.358 7.5-7.5v-28.623c0-24.194-19.684-43.877-43.877-43.877h-56.711v-14.473h234.87v86.973c0 4.142 3.357 7.5 7.5 7.5s7.5-3.358 7.5-7.5v-86.973h67.482c9.603 0 17.415-7.812 17.415-17.415v-75.488c0-9.603-7.812-17.415-17.415-17.415zm-50.107-112.98c13.991 0 25.373 11.382 25.373 25.373v87.607h-33.2c.627-2.025.972-4.166.972-6.379v-64.102c0-12.769-4.667-25.004-12.964-34.512 1.673-2.513 3.126-5.184 4.327-7.988h15.492zm-81.627 100.222h39.514c4.143 0 7.5-3.358 7.5-7.5v-44.516c0-4.142-3.357-7.5-7.5-7.5s-7.5 3.358-7.5 7.5v37.016h-39.514-7.729v-5.255l41.318-50.041c9.602-1.113 18.378-4.962 25.527-10.752 5.234 6.586 8.155 14.789 8.155 23.326v64.102c0 3.284-3.123 6.379-6.379 6.379h-53.393v-12.759zm7.695-71.577-22.924 27.763v-13.909c0-7.789 2.364-15.202 6.738-21.446 4.831 3.44 10.294 6.047 16.186 7.592zm-14.359-80.175c2.787-4.504 7.953-4.384 12.131-2.699 8.745 3.547 20.963 3.547 29.71 0 4.176-1.691 9.347-1.798 12.132 2.699l7.822 12.639v19.353c0 19.194-15.615 34.809-34.81 34.809-19.193 0-34.809-15.615-34.809-34.809v-19.353zm-25.547 158.131c0-3.518 2.861-6.379 6.379-6.379h10.832v12.758h-10.832c-3.518 0-6.379-2.861-6.379-6.379zm-100.576 101.653h-10.832v-12.758h10.832c3.518 0 6.379 2.861 6.379 6.379s-2.861 6.379-6.379 6.379zm-25.832 0h-27v-12.758h27zm-133.308-163.004c0-19.194 15.615-34.809 34.809-34.809h21.746c7.203 0 13.062 5.86 13.062 13.062v58.791c-.27-.006-.537-.021-.809-.021h-68c-.271 0-.539.015-.809.021v-37.044zm-53.509 163.048c-1.332 0-2.415-1.083-2.415-2.415v-75.488c0-1.332 1.083-2.415 2.415-2.415h16.817v80.318zm94.785 64.473h-12.935v-106.032c0-3.566 2.901-6.468 6.468-6.468s6.468 2.902 6.468 6.468v106.032zm15 0v-106.032c0-11.837-9.631-21.468-21.468-21.468s-21.468 9.631-21.468 21.468v106.032h-16.008c-10.761-1.677-19.023-11.006-19.023-22.23v-130.767c0-12.407 10.094-22.5 22.5-22.5h68c12.406 0 22.5 10.093 22.5 22.5v130.767c0 11.224-8.262 20.554-19.023 22.23zm369.8-66.888c0 1.332-1.083 2.415-2.415 2.415h-244.131c.64-2.029.989-4.185.989-6.423 0-11.789-9.591-21.379-21.379-21.379h-18.332-34.5v-52.517h317.353c1.332 0 2.415 1.083 2.415 2.415z"/><path d="m155.348 167.082.203 16.883c.143 12.038 15.476 18.342 24.003 9.607l11.817-12.104c32.266 2.472 61.99-20.088 68.542-51.661 9.648.104 19.29-1.963 28.043-6.029l15.313 7.186c10.747 5.046 23.249-5.949 19.104-17.422l-5.736-15.88c5.812-9.918 8.865-21.162 8.865-32.753.001-35.791-29.117-64.909-64.908-64.909-16.235 0-31.774 6.024-43.755 16.964-10.206 9.318-17.091 21.522-19.824 34.888-25.412-.299-49.266 14.914-59.774 38.022-7.177 15.783-7.777 33.416-1.691 49.65 4.068 10.853 10.876 20.31 19.798 27.558zm105.246-152.082c27.52 0 49.909 22.389 49.909 49.909 0 9.912-2.902 19.491-8.394 27.701-1.325 1.981-1.63 4.476-.819 6.718l6.15 17.025-16.405-7.698c-2.153-1.012-4.657-.94-6.752.191-7.043 3.807-15.004 5.85-23.058 5.952-.885-28.733-21.41-54.077-49.291-61.03 5.066-22.491 24.974-38.768 48.66-38.768zm-109.698 81.083c7.999-17.589 26.015-29.253 45.38-29.253 28.686 0 52.216 25.408 49.817 54.048-3.792 27.806-27.502 49.319-56.524 45.321-2.354-.326-4.728.487-6.39 2.19l-12.658 12.965-.218-18.1c-.028-2.384-1.188-4.612-3.125-6.002-19.07-13.692-26.026-39.739-16.282-61.169z"/><path d="m167.59 121.66c1.625 3.842 6.179 5.687 10.001 3.966 3.735-1.682 5.44-6.201 3.747-9.928-1.567-3.451-5.634-5.235-9.232-4.003-4.023 1.376-6.187 6.019-4.516 9.965z"/><path d="m196.33 126.29c4.175 0 7.635-3.576 7.492-7.745-.146-4.247-3.954-7.625-8.192-7.212-3.801.37-6.799 3.622-6.799 7.457-.001 4.084 3.415 7.5 7.499 7.5z"/><path d="m211.22 121.66c1.514 3.794 6.05 5.604 9.79 4.06 3.785-1.562 5.602-6.026 4.06-9.8-1.544-3.78-6.048-5.611-9.8-4.05-3.756 1.563-5.638 6.021-4.05 9.79z"/></g></g></svg>