<svg id="Capa_1" enable-background="new 0 0 511.994 511.994" height="512" viewBox="0 0 511.994 511.994" width="512" xmlns="http://www.w3.org/2000/svg"><g><g><path d="m412.249 7.57h-271.761c-50.946 0-92.245 41.3-92.245 92.245 0 50.946 41.3 92.246 92.246 92.246h189.803v35.931c0 4.455 5.386 6.685 8.536 3.536l39.467-39.467h33.956c50.946 0 92.245-41.3 92.245-92.245-.002-50.947-41.301-92.246-92.247-92.246z" fill="#ffe177"/><path d="m412.249 7.57h-40c50.946 0 92.246 41.3 92.246 92.246 0 41.544-35.256 92.245-86.201 92.245h33.956c50.946 0 92.245-41.3 92.245-92.245-.001-50.946-41.3-92.246-92.246-92.246z" fill="#ffd15b"/><g><path d="m114.442 380.44 31.689 86.632c.969 2.65.846 5.577-.342 8.137l-10.774 23.202c-3.992 8.598-16.387 8.076-19.643-.826l-37.902-103.62z" fill="#685e68"/><path d="m285.424 410.407-140.216-22.115-33.548-91.713 92.854-107.368z" fill="#f9f7f8"/><path d="m242.975 403.712 42.449 6.695-80.91-221.196-28.11 32.505z" fill="#e5eef9"/><g fill="#fd8087"><path d="m57.762 420.278 87.446-31.986-33.547-91.713-87.446 31.986c-13.205 4.83-19.994 19.451-15.164 32.656l16.055 43.893c4.83 13.205 19.451 19.994 32.656 15.164z"/><path d="m310.07 424.272c-9.535 3.488-20.092-1.414-23.579-10.949l-83.043-227.027c-3.488-9.535 1.415-20.092 10.949-23.579 9.535-3.488 20.092 1.415 23.579 10.949l83.043 227.027c3.488 9.535-1.414 20.091-10.949 23.579z"/></g></g></g><g><path d="m412.248.07h-31.254c-4.143 0-7.5 3.358-7.5 7.5s3.357 7.5 7.5 7.5h31.254c46.729 0 84.746 38.017 84.746 84.746s-38.017 84.746-84.745 84.746h-33.956c-1.989 0-3.896.79-5.304 2.197l-35.198 35.199v-29.896c0-4.142-3.357-7.5-7.5-7.5h-80.344l-4.928-13.472c-4.806-13.138-20.031-20.236-33.199-15.417-11.492 4.204-18.782 16.804-16.582 28.888h-54.751c-46.729 0-84.745-38.017-84.745-84.746s38.017-84.745 84.746-84.745h208.507c4.143 0 7.5-3.358 7.5-7.5s-3.357-7.5-7.5-7.5h-208.507c-55 0-99.745 44.746-99.745 99.746s44.745 99.746 99.745 99.746h45.16l-78.389 90.643-51.295 18.762c-3.891 1.423-5.891 5.73-4.468 9.62 1.424 3.891 5.73 5.891 9.62 4.467l46.076-16.853 28.394 77.625-80.401 29.41c-9.202 3.365-19.671-1.494-23.036-10.697l-16.055-43.893c-3.402-9.3 1.396-19.634 10.696-23.036l6.5-2.377c3.891-1.423 5.891-5.729 4.468-9.62-1.424-3.89-5.731-5.891-9.62-4.467l-6.5 2.377c-17.066 6.243-25.873 25.207-19.631 42.274l16.055 43.893c6.169 16.865 25.412 25.802 42.276 19.631l18.826-6.886 29.163 79.725c5.49 15.008 26.782 15.85 33.489 1.409l10.774-23.202c2.04-4.395 2.247-9.322.583-13.872l-22.948-62.738 15.734-5.755 134.01 21.137c5.281 12.434 19.904 18.849 32.676 14.176 13.14-4.806 20.235-20.029 15.417-33.199l-72.628-198.556h67.357v28.431c0 10.902 13.822 16.354 21.339 8.839l37.27-37.27h30.85c55 0 99.745-44.746 99.745-99.746s-44.747-99.744-99.747-99.744zm-138.246 400.943-123.266-19.442-30.515-83.424 81.629-94.389c24.05 65.752 48.101 131.503 72.152 197.255zm-134.915 68.636c.288.788.252 1.64-.102 2.401l-10.774 23.202c-2.041 2.501-3.973 2.42-5.796-.244l-29.163-79.726 22.886-8.371zm174.538-58.058c-1.224 2.637-3.401 4.639-6.132 5.638-5.642 2.061-12-1.125-13.959-6.482-27.677-75.677-55.351-151.356-83.044-227.028-2.063-5.642 1.127-12 6.482-13.959 5.567-2.035 11.922.909 13.959 6.482l83.044 227.028c.999 2.729.875 5.685-.35 8.321z"/><path d="m294.906 68.405c-3.133.977-5.268 3.878-5.268 7.16v58.294c0 4.142 3.357 7.5 7.5 7.5s7.5-3.358 7.5-7.5v-34.236l25.746 37.281c2.196 3.174 5.866 4.522 9.339 3.436 3.548-1.108 5.841-4.424 5.841-8.522v-56.435c-.04-4.117-3.936-7.427-8.044-7.427-.025 0-.05 0-.074 0-4.143.04-7.468 3.43-7.428 7.572v34.939l-26.708-39.164c-1.865-2.701-5.268-3.874-8.404-2.898z"/><path d="m176.091 75.456v58.403c0 4.142 3.357 7.5 7.5 7.5s7.5-3.358 7.5-7.5v-58.403c0-4.142-3.357-7.5-7.5-7.5s-7.5 3.358-7.5 7.5z"/><path d="m262.002 75.456v58.403c0 4.142 3.357 7.5 7.5 7.5s7.5-3.358 7.5-7.5v-58.403c0-4.142-3.357-7.5-7.5-7.5s-7.5 3.358-7.5 7.5z"/><path d="m154.686 141.359c4.143 0 7.5-3.358 7.5-7.5v-58.403c0-4.142-3.357-7.5-7.5-7.5s-7.5 3.358-7.5 7.5v20.7h-25.416v-20.7c0-4.142-3.357-7.5-7.5-7.5s-7.5 3.358-7.5 7.5v58.403c0 4.142 3.357 7.5 7.5 7.5s7.5-3.358 7.5-7.5v-22.703h25.416v22.703c0 4.142 3.357 7.5 7.5 7.5z"/><path d="m391.202 82.956c4.35 0 8.544 1.28 12.129 3.702 3.433 2.319 8.095 1.415 10.413-2.017 2.318-3.433 1.416-8.095-2.017-10.413-6.074-4.103-13.172-6.272-20.525-6.272-20.237 0-36.701 16.464-36.701 36.702s16.464 36.702 36.701 36.702c19.259 0 32.709-15.092 32.709-36.702 0-4.142-3.357-7.5-7.5-7.5h-17.471c-4.143 0-7.5 3.358-7.5 7.5s3.357 7.5 7.5 7.5h9.071c-1.895 7.559-6.956 14.202-16.809 14.202-11.966 0-21.701-9.735-21.701-21.702s9.736-21.702 21.701-21.702z"/><path d="m250.368 90.634c0-12.505-10.56-22.678-23.538-22.678h-15.52c-.003 0-.006 0-.009 0s-.006 0-.009 0c-4.143 0-7.5 3.358-7.5 7.5v58.403c0 4.142 3.357 7.5 7.5 7.5s7.5-3.358 7.5-7.5v-16.003l18.446 20.958c3.436 3.151 6.964 3.376 10.585.675 3.109-2.736 3.411-7.476.675-10.585l-14.634-16.626c9.553-2.889 16.504-11.499 16.504-21.644zm-23.539 7.679c-1.881 0-5.054.013-8.038.027v-15.384h8.038c4.628 0 8.538 3.516 8.538 7.678s-3.91 7.679-8.538 7.679z"/><path d="m441.467 116.903c4.143 0 7.5-3.358 7.5-7.5v-33.947c0-4.142-3.357-7.5-7.5-7.5s-7.5 3.358-7.5 7.5v33.947c0 4.142 3.358 7.5 7.5 7.5z"/><path d="m434.115 135.32c.821 3.954 4.706 6.657 8.707 5.915 3.973-.737 6.693-4.613 6.034-8.6-.666-4.031-4.572-6.843-8.61-6.167-4.09.685-6.991 4.748-6.131 8.852z"/><path d="m54.731 368.627c.855 0 1.726-.147 2.575-.458l30.717-11.236c3.891-1.423 5.891-5.73 4.468-9.62-1.424-3.89-5.733-5.89-9.62-4.467l-30.717 11.236c-3.891 1.423-5.891 5.73-4.468 9.62 1.112 3.04 3.985 4.925 7.045 4.925z"/></g></g></svg>