<svg id="Capa_1" enable-background="new 0 0 512 512" height="512" viewBox="0 0 512 512" width="512" xmlns="http://www.w3.org/2000/svg"><g><g><g><g><path d="m255.918 290.752-.123.341v-.341s-123.098 10.22-207.596 129.944c-6.324 8.96-12.573 18.331-18.277 28.062-14.466 24.679 3.301 55.742 31.906 55.742h388.254c28.626 0 46.575-31.213 31.878-55.778-5.285-8.833-11.08-17.395-17.486-25.645-77.307-99.569-208.556-132.325-208.556-132.325z" fill="#ffdfcf"/><g fill="#6c7fd8"><path d="m111.355 446.568-63.155-25.871s71.918-118.553 207.717-129.945l2.425 167.974z"/><path d="m401.04 449.165 63.155-25.871s-71.918-118.553-207.717-129.945l-2.425 167.974z"/></g></g><g><g><path d="m100.487 245.894c-5.772 0-10.451-4.679-10.451-10.451v-186.704c0-22.348 18.117-40.465 40.465-40.465 22.348 0 40.465 18.117 40.465 40.465v126.676c0 38.924-31.554 70.479-70.479 70.479z" fill="#bc7c63"/><path d="m139.541 63.022c-8.343-8.343-8.343-21.87 0-30.213l18.65-18.65c8.343-8.343 21.87-8.343 30.213 0 8.343 8.343 8.343 21.87 0 30.213l-18.65 18.65c-8.342 8.344-21.869 8.344-30.213 0z" fill="#fd8087"/><g><path d="m385.239 178.947v-41.951c0-71.518-57.986-129.496-129.516-129.496-71.53 0-129.516 57.978-129.516 129.497v41.951h259.032z" fill="#bc7c63"/><g fill="#ffdfcf"><path d="m170.966 198.123h-25.37c-10.59 0-19.175-8.585-19.175-19.175 0-10.59 8.585-19.175 19.175-19.175h25.37z"/><path d="m340.48 198.123h25.37c10.59 0 19.175-8.585 19.175-19.175 0-10.59-8.585-19.175-19.175-19.175h-25.37z"/></g><g><g><path d="m262.514 100.483c-3.792-3.737-9.789-3.737-13.582 0-11.374 11.208-26.983 18.129-44.215 18.129h-27.847c-11.959 0-21.654 9.695-21.654 21.654v66.665c0 55.5 44.992 100.492 100.492 100.492h.031c55.5 0 100.492-44.992 100.492-100.492v-66.665c0-11.959-9.695-21.654-21.654-21.654h-27.848c-17.232-.001-32.841-6.921-44.215-18.129z" fill="#ffdfcf"/></g></g><path d="m306.728 118.611c-.027 2.194.93 4.259 2.541 5.748 4.28 3.956 6.961 9.618 6.961 15.906v66.665c0 48.657-34.582 89.234-80.507 98.502 6.459 1.303 13.142 1.99 19.985 1.99h.031c55.5 0 100.492-44.992 100.492-100.492v-66.664c0-11.959-9.695-21.654-21.654-21.654h-27.849z" fill="#ffcebf"/></g></g></g><g><g><path d="m397.196 472.585h-281.511c-9.121 0-16.881-6.647-18.282-15.66l-22.001-141.539c-1.743-11.216 6.931-21.344 18.282-21.344h325.512c11.351 0 20.026 10.127 18.282 21.344l-22.001 141.538c-1.4 9.013-9.16 15.661-18.281 15.661z" fill="#f9f7f8"/><path d="m419.196 294.043h-40c11.351 0 20.026 10.127 18.282 21.344l-22.001 141.538c-1.401 9.013-9.161 15.66-18.282 15.66h40c9.121 0 16.881-6.647 18.282-15.66l22.001-141.538c1.744-11.217-6.93-21.344-18.282-21.344z" fill="#e5eef9"/><path d="m399.201 504.5h-285.643c-8.923 0-16.156-7.233-16.156-16.156 0-8.923 7.233-16.156 16.156-16.156h285.642c8.923 0 16.156 7.233 16.156 16.156 0 8.923-7.233 16.156-16.155 16.156z" fill="#d5e3f4"/><path d="m399.201 472.188h-40c8.923 0 16.156 7.233 16.156 16.156 0 8.923-7.233 16.156-16.156 16.156h40c8.923 0 16.156-7.233 16.156-16.156-.001-8.922-7.234-16.156-16.156-16.156z" fill="#b3ceec"/></g><ellipse cx="256.44" cy="394.171" fill="#d5e3f4" rx="35.839" ry="26.569"/></g></g></g><g><path d="m488.397 444.871c-14.659-24.5-33.043-48.603-52.761-69.192l9.254-59.537c2.391-15.387-10.071-29.995-25.693-29.995h-90.123c21.911-20.383 35.342-50.453 34.657-80.524 14.916.441 29.009-11.076 29.009-26.676v-41.951c0-41.375-18.419-80.107-50.536-106.266-3.212-2.617-7.936-2.133-10.551 1.079-2.616 3.211-2.133 7.936 1.079 10.551 28.604 23.298 45.008 57.792 45.008 94.636v18.081c-4.318-2.16-9.206-3.054-14.009-2.806v-12.007c0-16.076-13.079-29.154-29.154-29.154h-27.848c-14.666 0-28.499-5.672-38.951-15.971-6.76-6.662-17.35-6.662-24.11 0-10.452 10.299-24.284 15.971-38.95 15.971h-27.848c-16.076 0-29.154 13.078-29.154 29.154v12.007c-4.803-.248-9.691.646-14.009 2.806v-18.081c0-66.411 55.58-121.996 122.016-121.996 18.219 0 35.74 3.915 52.077 11.636 3.745 1.769 8.215.169 9.985-3.576s.169-8.215-3.576-9.985c-18.356-8.676-38.033-13.075-58.486-13.075-20.914 0-40.745 4.717-58.496 13.131-9.45-14.005-29.708-16.831-42.608-5.86-7.286-4.262-15.507-6.497-24.118-6.497-26.448 0-47.965 21.517-47.965 47.965v186.703c0 9.898 8.053 17.951 17.951 17.951 18.939 0 36.807-6.726 50.823-18.816 2.431 9.203 6.068 18.073 10.852 26.345 5.427 9.383 12.256 17.884 20.175 25.224h-88.653c-15.572 0-28.092 14.558-25.693 29.995l8.84 56.868c-20.601 21.498-38.33 46.279-53.38 71.956-17.107 29.185 4.697 67.035 38.377 67.035h90.398c4.142 0 7.5-3.358 7.5-7.5s-3.358-7.5-7.5-7.5c-12.889 0-25.779 0-38.668 0-4.773 0-8.656-3.883-8.656-8.656s3.883-8.656 8.656-8.656h285.642c4.773 0 8.656 3.883 8.656 8.656s-3.882 8.656-8.655 8.656h-213.771c-4.142 0-7.5 3.358-7.5 7.5s3.358 7.5 7.5 7.5h264.652c33.621 0 55.785-37.927 38.315-67.129zm-35.548-25.034-25.714 10.533 5.56-35.766c9.241 10.388 15.997 19.352 20.154 25.233zm-86.999-252.565c6.438 0 11.676 5.237 11.676 11.675 0 7.431-6.961 12.011-13.795 11.676v-23.351zm-220.254 0h2.12v23.351h-2.12c-6.438 0-11.675-5.238-11.675-11.676s5.237-11.675 11.675-11.675zm37.506-147.81c.29.291.547.603.807.912-15.478 9.563-28.92 22.117-39.512 36.852-4.916-5.403-4.733-13.934.447-19.114l18.65-18.65c5.406-5.405 14.201-5.405 19.608 0zm-82.615 218.932c-1.627 0-2.951-1.324-2.951-2.951v-186.704c0-18.177 14.788-32.965 32.965-32.965 4.5 0 8.844.89 12.868 2.601l-9.131 9.131c-11.833 11.832-10.842 31.919 1.952 42.597-11.126 19.796-17.483 42.615-17.483 66.894v41.951c0 15.7 14.096 27.013 29.009 26.676-.02 3.647.127 7.29.44 10.929-11.994 13.909-29.198 21.841-47.669 21.841zm62.899-20.254c-.393-3.729-.67-7.456-.67-11.21 0-22.222 0-44.443 0-66.665 0-7.804 6.35-14.154 14.154-14.154h27.848c18.631 0 36.203-7.205 49.479-20.287.87-.856 2.183-.857 3.053 0 13.276 13.082 30.849 20.287 49.479 20.287h27.848c7.805 0 14.154 6.35 14.154 14.154v66.665c0 32.145-16.936 62.356-44.285 79.217h-97.449c-24.525-15.101-40.283-39.927-43.611-68.007zm-83.615 173.79 5.577 35.879-25.802-10.57c4.168-5.895 10.949-14.889 20.225-25.309zm-17.943 105.07c-22.436 0-36.773-25.108-25.437-44.449 4.12-7.029 8.905-14.481 14.525-22.636l37.123 15.207 1.952 12.559c.846 5.439 3.306 10.232 6.84 13.952-4.279 4.283-6.929 10.194-6.929 16.712 0 3.055.588 5.973 1.647 8.656h-29.721zm53.857-32.312c-5.46 0-10.033-3.916-10.871-9.312l-22.001-141.538c-1.022-6.576 4.216-12.691 10.871-12.691h325.513c6.655 0 11.893 6.115 10.871 12.691l-22.001 141.539c-.838 5.396-5.411 9.312-10.871 9.312h-281.511zm360.14 17.292c-5.333 9.405-14.957 15.02-25.743 15.02h-28.873c1.059-2.683 1.647-5.601 1.647-8.656 0-6.486-2.625-12.368-6.866-16.646 3.567-3.729 6.049-8.547 6.899-14.018l1.554-9.998 37.587-15.397c4.74 6.424 9.268 13.222 13.494 20.287 5.458 9.122 5.57 20.116.301 29.408z"/><path d="m289.866 233.644c-2.926-2.931-7.675-2.937-10.607-.011-12.978 12.951-34.095 12.951-47.072 0-2.933-2.926-7.681-2.921-10.607.011s-2.92 7.681.011 10.607c9.41 9.39 21.771 14.085 34.132 14.085s24.722-4.695 34.132-14.085c2.931-2.926 2.937-7.675.011-10.607z"/><path d="m256.44 360.102c-23.897 0-43.339 15.283-43.339 34.069s19.442 34.069 43.339 34.069 43.339-15.283 43.339-34.069c.001-18.786-19.441-34.069-43.339-34.069zm0 53.138c-15.361 0-28.339-8.732-28.339-19.069s12.978-19.069 28.339-19.069 28.339 8.733 28.339 19.069-12.977 19.069-28.339 19.069z"/></g></g></svg>