<svg id="Capa_1" enable-background="new 0 0 512 512" height="512" viewBox="0 0 512 512" width="512" xmlns="http://www.w3.org/2000/svg"><g><g><g><g><path d="m316.995 315.999h-121.99c-19.33 0-35-15.67-35-35v-238.499c0-19.33 15.67-35 35-35h121.99c19.33 0 35 15.67 35 35v238.499c0 19.33-15.67 35-35 35z" fill="#6c7fd8"/><path d="m316.995 7.5h-40c19.33 0 35 15.67 35 35v238.499c0 19.33-15.67 35-35 35h40c19.33 0 35-15.67 35-35v-238.499c0-19.33-15.67-35-35-35z" fill="#4f66d0"/><g><path d="m242.019 359.257h27.961v86.257h-27.961z" fill="#d5e3f4"/><path d="m347.932 359.257h-183.864c-11.945 0-21.629-9.684-21.629-21.629 0-11.945 9.684-21.629 21.629-21.629h183.864c11.945 0 21.629 9.684 21.629 21.629 0 11.945-9.684 21.629-21.629 21.629z" fill="#6c7fd8"/><path d="m347.932 315.999h-40c11.945 0 21.629 9.684 21.629 21.629 0 11.945-9.684 21.629-21.629 21.629h40c11.945 0 21.629-9.684 21.629-21.629 0-11.946-9.684-21.629-21.629-21.629z" fill="#4f66d0"/><path d="m295.905 386.733h-79.809c-15.175 0-27.476-12.301-27.476-27.476h134.762c-.001 15.175-12.303 27.476-27.477 27.476z" fill="#685e68"/></g><g fill="#685e68"><path d="m158.435 504.5c-7.964 0-14.419-6.456-14.419-14.419v-6.852c0-7.964 6.456-14.419 14.419-14.419 7.964 0 14.419 6.456 14.419 14.419v6.852c0 7.963-6.455 14.419-14.419 14.419z"/><path d="m353.565 504.5c-7.964 0-14.419-6.456-14.419-14.419v-6.852c0-7.964 6.456-14.419 14.419-14.419 7.964 0 14.419 6.456 14.419 14.419v6.852c0 7.963-6.455 14.419-14.419 14.419z"/><path d="m256 504.5c-7.964 0-14.419-6.456-14.419-14.419v-6.852c0-7.964 6.456-14.419 14.419-14.419 7.964 0 14.419 6.456 14.419 14.419v6.852c0 7.963-6.455 14.419-14.419 14.419z"/></g></g></g><g><g><path d="m50.5 504.5c-7.721 0-13.981-6.259-13.981-13.981v-220.081h27.961v220.081c.001 7.722-6.259 13.981-13.98 13.981z" fill="#d5e3f4"/></g><g><path d="m461.5 504.5c-7.721 0-13.981-6.259-13.981-13.981v-220.081h27.961v220.081c.001 7.722-6.259 13.981-13.98 13.981z" fill="#d5e3f4"/></g></g><path d="m499.5 271h-487c-2.761 0-5-2.239-5-5v-22.833c0-2.761 2.239-5 5-5h487c2.761 0 5 2.239 5 5v22.833c0 2.761-2.239 5-5 5z" fill="#bc7c63"/><path d="m499.5 238.167h-40c2.761 0 5 2.239 5 5v22.833c0 2.761-2.239 5-5 5h40c2.761 0 5-2.239 5-5v-22.833c0-2.761-2.239-5-5-5z" fill="#aa6a51"/><g><path d="m257.237 238.167h-75.547v-27.441h75.547c7.578 0 13.72 6.143 13.72 13.72 0 7.579-6.142 13.721-13.72 13.721z" fill="#d5e3f4"/><path d="m188.177 238.167h-135.348c-4.14 0-7.851-2.551-9.335-6.415l-32.32-84.167c-2.515-6.549 2.32-13.585 9.335-13.585h135.348c4.14 0 7.851 2.551 9.335 6.415l32.32 84.167c2.515 6.55-2.319 13.585-9.335 13.585z" fill="#f9f7f8"/><path d="m197.512 224.583-32.32-84.167c-1.484-3.865-5.196-6.415-9.335-6.415h-40c4.14 0 7.851 2.551 9.335 6.415l32.32 84.167c2.515 6.549-2.32 13.585-9.335 13.585h40c7.016-.001 11.85-7.036 9.335-13.585z" fill="#e5eef9"/></g><g><path d="m450.167 238.167h-19.167c-11.046 0-20-8.954-20-20v-29.167c0-5.523 4.477-10 10-10h39.167c5.523 0 10 4.477 10 10v29.167c0 11.046-8.954 20-20 20z" fill="#685e68"/></g></g><g><path d="m227.151 94.48c4.143 0 7.5-3.358 7.5-7.5 0-11.659 10.059-21.609 21.792-21.344 11.13.224 20.3 9.096 20.875 20.198.627 12.068-9.219 22.495-21.318 22.495-4.143 0-7.5 3.358-7.5 7.5v30.167c0 4.142 3.357 7.5 7.5 7.5s7.5-3.358 7.5-7.5v-23.458c17.304-3.679 29.715-19.819 28.799-37.481-.981-18.918-16.598-34.036-35.553-34.418-19.974-.392-37.095 16.395-37.095 36.341 0 4.142 3.358 7.5 7.5 7.5z"/><path d="m260.16 167.34c-3.5-2.36-8.399-1.231-10.576 2.359-2.045 3.37-1.041 7.934 2.256 10.112 3.51 2.318 8.397 1.259 10.576-2.359 2.035-3.379 1.05-7.931-2.256-10.112z"/><path d="m499.5 230.667h-24.851c1.924-3.753 3.018-8 3.018-12.5v-29.167c0-9.649-7.851-17.5-17.5-17.5h-.898l5.55-17.575c1.248-3.95-.943-8.163-4.893-9.41-3.952-1.247-8.163.944-9.411 4.894l-6.976 22.092h-6.039v-25.504c0-4.142-3.357-7.5-7.5-7.5s-7.5 3.358-7.5 7.5v25.503h-1.5c-9.649 0-17.5 7.851-17.5 17.5v29.167c0 4.5 1.093 8.747 3.018 12.5h-47.023v-188.167c0-23.435-19.065-42.5-42.5-42.5h-121.99c-23.435 0-42.5 19.065-42.5 42.5v84h-78.52c-4.143 0-7.5 3.358-7.5 7.5s3.357 7.5 7.5 7.5h81.872c1.027 0 1.965.644 2.333 1.604l32.32 84.167c.413 1.951-.365 3.083-2.334 3.396h-135.347c-1.027 0-1.965-.645-2.333-1.604l-32.32-84.167c-.413-1.951.365-3.083 2.334-3.396h23.58c4.143 0 7.5-3.358 7.5-7.5s-3.357-7.5-7.5-7.5h-23.58c-11.791 0-20.633 12.586-16.338 23.773l30.872 80.394h-22.544c-6.893 0-12.5 5.607-12.5 12.5v22.833c0 6.893 5.607 12.5 12.5 12.5h16.52v212.02c0 11.844 9.636 21.48 21.48 21.48s21.48-9.636 21.48-21.48v-212.02h80.524c-.519 10.793 3.149 21.807 10.165 30.034-15.415.732-27.73 13.501-27.73 29.094 0 16.062 13.067 29.129 29.129 29.129h17.869c3.443 15.692 17.447 27.476 34.158 27.476h18.424v44.113h-45.276c-15.571 0-29.401 9.405-35.303 23.428-9.937 2.079-17.424 10.908-17.424 21.454v6.853c0 12.086 9.833 21.919 21.919 21.919 12.087 0 21.92-9.833 21.92-21.919v-6.853c0-8.059-4.375-15.112-10.872-18.92 4.174-6.674 11.565-10.962 19.761-10.962h59.256v9.285c-8.404 3.07-14.42 11.144-14.42 20.597v6.853c0 12.086 9.833 21.919 21.92 21.919s21.92-9.833 21.92-21.919v-6.853c0-9.453-6.016-17.527-14.42-20.597v-9.285h59.257c8.196 0 15.587 4.288 19.761 10.962-6.497 3.808-10.872 10.861-10.872 18.92v6.853c0 12.086 9.833 21.919 21.92 21.919 12.086 0 21.919-9.833 21.919-21.919v-6.853c0-10.546-7.487-19.375-17.424-21.454-5.903-14.023-19.733-23.428-35.303-23.428h-45.278v-44.113h18.424 57.661c4.143 0 7.5-3.358 7.5-7.5s-3.357-7.5-7.5-7.5h-28.975c2.586-3.702 4.473-7.923 5.472-12.476h17.869c16.062 0 29.129-13.067 29.129-29.129 0-15.593-12.316-28.361-27.73-29.094 7.121-8.349 10.427-19.155 10.165-30.034h80.524v212.02c0 11.844 9.636 21.48 21.48 21.48s21.48-9.636 21.48-21.48v-62.602c0-4.142-3.357-7.5-7.5-7.5s-7.5 3.358-7.5 7.5v62.602c0 3.573-2.907 6.48-6.48 6.48s-6.48-2.907-6.48-6.48v-212.02h12.961v119.576c0 4.142 3.357 7.5 7.5 7.5s7.5-3.358 7.5-7.5v-119.576h16.52c6.893 0 12.5-5.607 12.5-12.5v-22.833c0-6.892-5.607-12.5-12.5-12.5zm-334.146 259.414c0 3.815-3.104 6.919-6.92 6.919s-6.919-3.104-6.919-6.919v-6.853c0-3.815 3.104-6.919 6.919-6.919s6.92 3.104 6.92 6.919zm97.566 0c0 3.815-3.104 6.919-6.92 6.919s-6.92-3.104-6.92-6.919v-6.853c0-3.815 3.104-6.919 6.92-6.919s6.92 3.104 6.92 6.919zm97.564 0c0 3.815-3.104 6.919-6.919 6.919s-6.92-3.104-6.92-6.919v-6.853c0-3.815 3.104-6.919 6.92-6.919s6.919 3.104 6.919 6.919zm58.016-271.914v-29.167c0-1.378 1.121-2.5 2.5-2.5 13.056 0 26.111.002 39.167 0 1.379 0 2.5 1.122 2.5 2.5v29.167c0 6.893-5.607 12.5-12.5 12.5h-19.167c-6.893 0-12.5-5.607-12.5-12.5zm-250.995-87.188v-88.479c0-15.164 12.337-27.5 27.5-27.5h121.99c15.163 0 27.5 12.336 27.5 27.5v188.167h-66.972c.605-1.969.934-4.057.934-6.221 0-11.701-9.52-21.22-21.22-21.22h-59.891l-25.152-65.5c-1.013-2.638-2.648-4.929-4.689-6.747zm37.01 90.915-1.408-3.667h54.131c3.43 0 6.22 2.791 6.22 6.22 0 3.43-2.79 6.221-6.22 6.221h-51.748c.422-2.919.113-5.939-.975-8.774zm-147.535 268.626c0 3.573-2.907 6.48-6.48 6.48s-6.48-2.907-6.48-6.48v-212.02h12.96zm205.5-52.506h-12.96v-43.781h12.961v43.781zm33.424-58.781h-79.809c-8.364 0-15.544-5.167-18.516-12.476h116.84c-2.971 7.309-10.15 12.476-18.515 12.476zm66.157-41.605c0 7.791-6.338 14.129-14.129 14.129-61.288 0-122.576 0-183.863 0-7.791 0-14.129-6.338-14.129-14.129s6.338-14.129 14.129-14.129h183.863c7.791 0 14.129 6.338 14.129 14.129zm-17.566-56.629c0 15.164-12.337 27.5-27.5 27.5h-121.99c-16.214 0-28.418-14.142-27.5-29.999h176.99zm152.505-17.499h-482v-17.833h482z"/></g></g></svg>