<svg id="Capa_1" enable-background="new 0 0 512 512" height="512" viewBox="0 0 512 512" width="512" xmlns="http://www.w3.org/2000/svg"><g><g><path d="m494.437 216.041-228.5-130.82c-6.156-3.524-13.718-3.524-19.874 0l-228.5 130.82c-6.224 3.563-10.063 10.185-10.063 17.356v128.603c0 11.046 8.954 20 20 20h457c11.046 0 20-8.954 20-20v-128.603c0-7.171-3.839-13.793-10.063-17.356z" fill="#d5e3f4"/><g><g><g><path d="m352.968 496.882-206.903-59.809c-4.768-1.378-7.516-6.361-6.138-11.13l112.297-388.478c1.378-4.768 6.361-7.516 11.13-6.138l206.903 59.809c4.768 1.378 7.516 6.361 6.138 11.13l-112.297 388.478c-1.378 4.768-6.361 7.516-11.13 6.138z" fill="#6fd7a3"/><g><path d="m216.504 429.221c-2.225-.643-3.553-2.892-3.131-5.195 3.623-19.739-7.593-39.811-26.136-46.878-2.199-.838-3.418-3.203-2.758-5.487l76.463-264.517c.66-2.284 2.953-3.634 5.26-3.17 19.45 3.914 39.65-7.081 47.117-25.703.871-2.172 3.194-3.366 5.419-2.723l81.08 23.438c2.225.643 3.553 2.892 3.131 5.195-3.623 19.739 7.593 39.811 26.136 46.878 2.199.838 3.418 3.203 2.758 5.487l-76.463 264.518c-.66 2.284-2.953 3.634-5.26 3.17-19.45-3.914-39.65 7.081-47.117 25.703-.871 2.172-3.194 3.366-5.419 2.723z" fill="#bbf49b"/></g><ellipse cx="308.161" cy="264.104" fill="#6fd7a3" rx="63.241" ry="62.584" transform="matrix(.278 -.961 .961 .278 -31.131 486.804)"/></g><g><path d="m159.032 496.882 206.903-59.809c4.768-1.378 7.516-6.361 6.138-11.13l-112.297-388.478c-1.378-4.768-6.361-7.516-11.13-6.138l-206.902 59.808c-4.768 1.378-7.516 6.361-6.138 11.13l112.296 388.479c1.378 4.768 6.361 7.516 11.13 6.138z" fill="#6fd7a3"/><g><path d="m295.496 429.221c2.225-.643 3.553-2.892 3.131-5.195-3.623-19.739 7.593-39.811 26.136-46.878 2.199-.838 3.418-3.203 2.758-5.487l-76.463-264.517c-.66-2.284-2.953-3.634-5.26-3.17-19.45 3.914-39.65-7.081-47.117-25.703-.871-2.172-3.194-3.366-5.419-2.723l-81.08 23.438c-2.225.643-3.553 2.892-3.131 5.195 3.623 19.739-7.593 39.811-26.136 46.878-2.199.838-3.418 3.203-2.758 5.487l76.463 264.517c.66 2.284 2.953 3.634 5.26 3.17 19.45-3.914 39.65 7.081 47.117 25.703.871 2.172 3.194 3.366 5.419 2.723z" fill="#bbf49b"/></g><ellipse cx="203.839" cy="264.104" fill="#6fd7a3" rx="62.584" ry="63.241" transform="matrix(.961 -.278 .278 .961 -65.324 66.993)"/></g></g><g><path d="m363.687 429.858h-215.374c-4.964 0-8.987-4.024-8.987-8.987v-404.384c0-4.964 4.024-8.987 8.987-8.987h215.374c4.964 0 8.987 4.024 8.987 8.987v404.383c0 4.964-4.024 8.988-8.987 8.988z" fill="#6fd7a3"/><path d="m363.687 7.5h-40c4.964 0 8.987 4.024 8.987 8.987v404.384c0 4.964-4.024 8.987-8.987 8.987h40c4.964 0 8.987-4.024 8.987-8.987v-404.384c0-4.963-4.024-8.987-8.987-8.987z" fill="#3ec3a4"/><g><path d="m213.8 402.755c-2.317 0-4.217-1.792-4.45-4.121-2.001-19.969-18.35-36.136-38.126-37.776-2.345-.194-4.173-2.128-4.173-4.506v-275.346c0-2.378 1.827-4.311 4.173-4.506 19.772-1.641 36.125-17.813 38.126-37.776.234-2.329 2.134-4.121 4.45-4.121h84.4c2.317 0 4.217 1.792 4.45 4.121 2.001 19.969 18.35 36.136 38.126 37.776 2.345.194 4.173 2.128 4.173 4.506v275.347c0 2.378-1.827 4.311-4.173 4.506-19.772 1.641-36.125 17.813-38.126 37.776-.234 2.329-2.134 4.121-4.45 4.121h-84.4z" fill="#bbf49b"/></g><ellipse cx="256" cy="218.679" fill="#6fd7a3" rx="62.584" ry="63.241"/></g></g><g><path d="m489.478 231.172-223.612 126.809c-6.12 3.47-13.612 3.47-19.732 0l-223.612-126.809c-6.707-3.803-15.022 1.043-15.022 8.755v254.509c0 5.558 4.506 10.064 10.064 10.064h476.875c5.556 0 10.061-4.504 10.061-10.061v-254.512c0-7.712-8.316-12.558-15.022-8.755z" fill="#f9f7f8"/><g><path d="m489.478 231.172-24.978 14.165v249.103c0 5.556-4.504 10.061-10.061 10.061h40c5.556 0 10.061-4.504 10.061-10.061v-254.513c0-7.712-8.315-12.558-15.022-8.755z" fill="#e5eef9"/></g></g></g><g><path d="m498.164 209.532-38.585-22.09 24.02-83.095c2.523-8.733-2.528-17.893-11.261-20.417l-92.165-26.642v-40.801c.001-9.091-7.396-16.487-16.486-16.487h-143.687c-4.143 0-7.5 3.358-7.5 7.5s3.357 7.5 7.5 7.5h143.687c.82 0 1.487.667 1.487 1.487v276.555l-12.725 7.216v-219.252c0-6.307-4.751-11.457-11.053-11.98-16.195-1.343-29.645-14.691-31.283-31.05-.621-6.199-5.743-10.873-11.913-10.873h-84.4c-6.17 0-11.292 4.674-11.913 10.873-1.64 16.357-15.089 29.706-31.284 31.05-6.301.523-11.052 5.673-11.052 11.98v219.252l-12.725-7.216v-276.555c0-.82.667-1.487 1.487-1.487h40.478c4.143 0 7.5-3.358 7.5-7.5s-3.357-7.5-7.5-7.5h-40.478c-9.091 0-16.487 7.396-16.487 16.487v40.801l-92.165 26.642c-8.732 2.524-13.784 11.684-11.261 20.417l24.02 83.094-38.585 22.09c-8.533 4.888-13.835 14.033-13.835 23.866v261.039c0 9.685 7.88 17.564 17.564 17.564h358.442c4.143 0 7.5-3.358 7.5-7.5s-3.357-7.5-7.5-7.5h-358.442c-1.414 0-2.564-1.15-2.564-2.564v-254.509c.42-2.209 1.694-2.953 3.822-2.231l223.612 126.81c8.367 4.744 18.764 4.746 27.131 0l223.611-126.81c2.129-.722 3.403.021 3.823 2.231v254.513c0 1.412-1.148 2.561-2.561 2.561h-88.484c-4.143 0-7.5 3.358-7.5 7.5s3.357 7.5 7.5 7.5h88.484c9.683 0 17.561-7.877 17.561-17.561v-261.043c.001-9.833-5.301-18.978-13.835-23.865zm-29.991-111.192c.788.228 1.244 1.055 1.017 1.842l-46.287 160.122-15.843 8.984 31.987-110.657c1.754-6.06-1.38-12.328-7.29-14.581-15.186-5.788-24.398-22.346-21.431-38.515 1.125-6.128-2.497-12.042-8.425-13.754l-21.728-6.281v-12.597zm-87.999 2.776 14.992 4.333c-2.719 21.412 9.202 42.802 28.731 51.575l-35.513 122.856-8.21 4.656zm-256.558 178.764-35.513-122.856c19.53-8.772 31.45-30.163 28.731-51.575l14.992-4.333v183.42zm-79.789-181.54 87.999-25.438v12.599l-21.726 6.281c-5.929 1.713-9.551 7.626-8.426 13.753 2.968 16.17-6.245 32.728-21.432 38.516-5.909 2.253-9.043 8.521-7.29 14.578l31.988 110.659-15.844-8.985-46.285-160.12c-.228-.788.228-1.615 1.016-1.843zm-22.768 124.362c.079-.048.149-.107.23-.153l35.418-20.277 13.714 47.441-44.199-25.065c-1.646-.934-3.386-1.578-5.163-1.946zm241.108 128.755c-3.805 2.156-8.53 2.157-12.333 0l-75.283-42.693v-225.094c21.196-3.005 38.588-20.245 41.924-41.567h79.051c3.332 21.326 20.726 38.564 41.924 41.567v225.094zm179.412-101.744 13.714-47.441c11.876 6.799 23.93 13.363 35.648 20.43-1.776.368-3.516 1.012-5.162 1.946z"/><path d="m256 147.938c-38.645 0-70.084 31.734-70.084 70.741s31.439 70.741 70.084 70.741 70.084-31.734 70.084-70.741-31.439-70.741-70.084-70.741zm0 126.482c-30.373 0-55.084-25.005-55.084-55.741s24.711-55.741 55.084-55.741 55.084 25.005 55.084 55.741-24.711 55.741-55.084 55.741z"/><path d="m207.436 382.906-132.92 75.378c-3.603 2.043-4.867 6.621-2.824 10.224 3.02 3.82 6.428 4.761 10.225 2.824l132.92-75.378c3.603-2.043 4.867-6.621 2.824-10.224-2.045-3.604-6.622-4.867-10.225-2.824z"/><path d="m433.777 472.31c2.612 0 5.15-1.367 6.531-3.802 2.043-3.603.778-8.18-2.824-10.224l-132.92-75.378c-3.605-2.043-8.181-.779-10.225 2.824-2.043 3.603-.778 8.18 2.824 10.224l132.92 75.378c1.17.663 2.44.978 3.694.978z"/></g></g></svg>