<svg id="Capa_1" enable-background="new 0 0 512 512" height="512" viewBox="0 0 512 512" width="512" xmlns="http://www.w3.org/2000/svg"><g><g><path d="m349.275 7.603c85.728 0 155.225 69.492 155.225 155.215 0 52.877-26.449 99.57-66.833 127.595v56.346c0 8.909-10.771 13.371-17.071 7.071l-39.145-39.145c-10.382 2.188-21.143 3.348-32.175 3.348-85.728 0-155.224-69.492-155.224-155.215s69.495-155.215 155.223-155.215z" fill="#ffe177"/><path d="m349.275 7.603c-6.777 0-13.452.437-20 1.279 76.281 9.812 135.225 74.989 135.225 153.936 0 76.617-60.892 143.711-135.617 153.881 6.674.876 13.48 1.334 20.393 1.334 11.033 0 21.794-1.159 32.175-3.348l39.145 39.145c6.3 6.3 17.071 1.838 17.071-7.071v-56.346c40.384-28.026 66.833-74.718 66.833-127.595 0-85.723-69.496-155.215-155.225-155.215z" fill="#ffd15b"/><path d="m162.725 155.427c-85.729 0-155.225 69.492-155.225 155.215 0 52.877 26.449 99.57 66.833 127.595v56.346c0 8.909 10.771 13.371 17.071 7.071l39.145-39.145c10.382 2.188 21.143 3.348 32.175 3.348 85.728 0 155.224-69.492 155.224-155.215s-69.495-155.215-155.223-155.215z" fill="#f9f7f8"/><g><g><path d="" fill="#fff"/></g><g><path d="" fill="#fff"/></g><g><path d="" fill="#fff"/></g></g><g><path d="m236 382.103h-147c-11.046 0-20-8.954-20-20v-75.831h187v75.831c0 11.045-8.954 20-20 20z" fill="#bc7c63"/><path d="m216 293.603v68.5c0 11.046-8.954 20-20 20h40c11.046 0 20-8.954 20-20v-79.5z" fill="#aa6a51"/><path d="m162.725 349.779c-8.351 0-15.12-6.77-15.12-15.12v-39.556h30.24v39.556c0 8.35-6.77 15.12-15.12 15.12z" fill="#e5eef9"/><path d="m69 273.103v17.374c0 4.658 3.217 8.7 7.756 9.745l81.262 18.709c3.093.712 6.311.678 9.389-.1l81.044-20.487c4.439-1.122 7.549-5.116 7.549-9.695v-15.547c0-11.046-8.954-20-20-20h-147c-11.046.001-20 8.955-20 20.001z" fill="#d1a08f"/><path d="m236 253.103h-40c11.046 0 20 8.954 20 20v33.445l32.451-8.203c4.439-1.122 7.549-5.116 7.549-9.695v-15.547c0-11.046-8.954-20-20-20z" fill="#c68d7a"/></g></g><g><path d="m461.721 45.201c-2.994-2.862-7.741-2.757-10.604.238-2.862 2.994-2.756 7.741.238 10.604 29.435 28.145 45.645 66.064 45.645 106.775 0 48.396-23.779 93.792-63.609 121.434-2.02 1.401-3.224 3.704-3.224 6.162v56.346c-.635 2.49-2.058 3.079-4.268 1.768l-39.145-39.145c-1.792-1.793-4.37-2.559-6.85-2.036-17.828 3.758-36.531 4.159-54.48 1.258-.93-75.322-53.292-138.475-123.523-155.899 2.447-36.294 18.008-70.056 44.231-95.634 27.746-27.064 64.376-41.969 103.145-41.969 27.621 0 54.553 7.668 77.886 22.174 3.519 2.188 8.143 1.109 10.329-2.409 2.187-3.518 1.108-8.142-2.409-10.329-25.714-15.987-55.385-24.436-85.808-24.436-42.705 0-83.055 16.418-113.619 46.231-28.417 27.719-45.471 64.168-48.582 103.416-7.945-1.197-16.076-1.823-24.35-1.823-89.726 0-162.724 72.993-162.724 162.715 0 51.994 24.908 100.837 66.833 131.461v52.48c0 15.054 19.093 23.156 29.874 12.374l36.315-36.314c9.769 1.802 19.742 2.714 29.702 2.714 85.327 0 155.519-66.012 162.199-149.646 17.834 2.666 36.282 2.386 54.054-.893l36.314 36.314c10.646 10.646 29.875 2.87 29.875-12.374v-52.48c41.926-30.623 66.834-79.467 66.834-131.46 0-44.844-17.856-86.615-50.279-117.617zm-298.996 413.155c-10.293 0-20.599-1.072-30.629-3.187-2.48-.524-5.058.242-6.85 2.036l-39.145 39.145c-2.21 1.312-3.632.723-4.267-1.768v-56.346c0-2.458-1.205-4.76-3.224-6.162-39.831-27.64-63.61-73.035-63.61-121.432 0-81.45 66.269-147.715 147.725-147.715 80.42 0 147.725 67.265 147.725 147.715-.001 81.45-66.27 147.714-147.725 147.714z"/><path d="m299.83 159.942c-2.193-3.21-6.587-4.306-9.988-2.337-3.663 2.121-4.835 7.012-2.546 10.563 2.219 3.441 6.931 4.439 10.365 2.228 3.452-2.222 4.473-7.035 2.169-10.454z"/><path d="m355.51 159.942c-2.296-3.488-7.221-4.361-10.6-1.935-3.276 2.352-4.095 7.03-1.805 10.351 2.289 3.32 6.974 4.229 10.336 1.984 3.376-2.255 4.349-7.022 2.069-10.4z"/><path d="m411.19 159.942c-2.225-3.379-6.916-4.318-10.298-2.134-3.496 2.258-4.482 7.125-2.103 10.551 2.233 3.216 6.688 4.184 10.047 2.159 3.598-2.17 4.714-7.08 2.354-10.576z"/><path d="m236 245.603h-34.141v-9.167c0-9.649-7.851-17.5-17.5-17.5h-43.718c-9.649 0-17.5 7.851-17.5 17.5v9.167h-34.141c-15.164 0-27.5 12.336-27.5 27.5v89c0 15.164 12.336 27.5 27.5 27.5h21c4.142 0 7.5-3.358 7.5-7.5s-3.358-7.5-7.5-7.5h-21c-6.893 0-12.5-5.607-12.5-12.5v-54.244l63.604 14.644v12.156c0 12.473 10.147 22.62 22.62 22.62s22.62-10.147 22.62-22.62v-12.625l63.155-15.965v56.035c0 6.893-5.607 12.5-12.5 12.5h-96c-4.142 0-7.5 3.358-7.5 7.5s3.358 7.5 7.5 7.5h96c15.164 0 27.5-12.336 27.5-27.5v-89c.001-15.165-12.335-27.501-27.499-27.501zm-97.859-9.167c0-1.378 1.122-2.5 2.5-2.5h43.718c1.378 0 2.5 1.122 2.5 2.5v9.167h-48.718zm32.204 98.222c0 4.202-3.418 7.62-7.62 7.62s-7.62-3.418-7.62-7.62v-8.702c4.996 1.329 10.262 1.287 15.24-.132zm76.268-43.585-81.044 20.487c-1.915.484-3.943.505-5.868.062l-81.261-18.709c-1.142-.263-1.939-1.265-1.939-2.437v-17.374c0-6.893 5.607-12.5 12.5-12.5h147c6.893 0 12.5 5.607 12.5 12.5v15.546c-.001 1.147-.777 2.144-1.888 2.425z"/></g></g></svg>