<svg id="Capa_1" enable-background="new 0 0 512 512" height="512" viewBox="0 0 512 512" width="512" xmlns="http://www.w3.org/2000/svg"><g><g><ellipse cx="256" cy="475.25" fill="#6fd7a3" rx="100.507" ry="29.25"/><g><g><path d="m447.576 199.076c0-105.827-86.253-191.888-192.152-191.575-104.511.309-190.027 85.269-190.992 189.776-.736 79.675 47.432 148.398 116.248 177.936 5.658 2.429 10.412 6.569 13.49 11.901l45.524 78.85c7.247 12.552 25.364 12.552 32.611 0l45.529-78.858c3.052-5.286 7.738-9.432 13.348-11.835 68.371-29.283 116.394-97.233 116.394-176.195z" fill="#fd8087"/><circle cx="256" cy="199.076" fill="#f9f7f8" r="153.92"/><path d="m256 45.156c-6.778 0-13.453.443-20 1.292 75.558 9.805 133.92 74.399 133.92 152.628s-58.362 142.823-133.92 152.628c6.547.849 13.222 1.292 20 1.292 85.008 0 153.92-68.912 153.92-153.92s-68.913-153.92-153.92-153.92z" fill="#e5eef9"/></g></g></g><g><path d="m334.135 382.166c73.469-31.468 120.941-103.334 120.941-183.09 0-53.205-20.805-103.249-58.582-140.915-37.633-37.522-87.5-58.161-140.489-58.161-.198 0-.405 0-.603.001-33.789.1-67.209 8.92-96.649 25.508-3.609 2.033-4.886 6.607-2.853 10.216 2.035 3.61 6.609 4.886 10.216 2.853 27.21-15.332 58.1-23.484 89.33-23.577.187 0 .372-.001.558-.001 48.988 0 95.101 19.088 129.9 53.784 34.934 34.831 54.172 81.103 54.172 130.292 0 73.745-43.902 140.2-111.846 169.302-7.062 3.024-13.06 8.344-16.891 14.979l-45.529 78.858c-4.293 7.434-15.328 7.434-19.621 0l-45.524-78.85c-3.883-6.727-9.771-11.929-17.027-15.044-67.523-28.983-112.384-97.463-111.707-170.975.518-56.056 26.295-108.209 70.721-143.088 3.258-2.558 3.826-7.273 1.268-10.531-2.559-3.259-7.274-3.826-10.531-1.268-48.029 37.708-75.897 94.111-76.457 154.748-.734 79.496 47.764 153.553 120.789 184.897 4.258 1.828 7.7 4.857 9.953 8.76l28.823 49.923c-16.779 2.024-31.438 5.307-42.867 9.631-17.012 6.437-25.638 14.791-25.638 24.832 0 11.774 11.723 21.156 34.842 27.884 19.646 5.718 45.63 8.866 73.166 8.866 4.142 0 7.5-3.358 7.5-7.5s-3.358-7.5-7.5-7.5c-26.157 0-50.652-2.937-68.974-8.269-19.618-5.709-24.034-11.798-24.034-13.481 0-4.341 17.842-15.999 61.701-20.267l8.505 14.732c9.965 17.258 35.637 17.258 45.602 0l8.506-14.733c43.863 4.27 61.701 15.932 61.701 20.268 0 1.248-2.635 5.532-14.67 10.308-11.625 4.613-28.433 8.161-47.329 9.989-4.123.399-7.142 4.065-6.743 8.188.375 3.877 3.64 6.778 7.457 6.778.241 0 .486-.012.731-.035 17.724-1.715 75.554-9.324 75.554-35.228 0-10.031-8.609-18.379-25.589-24.813-11.433-4.333-26.112-7.622-42.916-9.649l28.828-49.931c2.221-3.848 5.703-6.934 9.805-8.691z"/><path d="m94.58 199.076c0 89.007 72.413 161.42 161.42 161.42s161.42-72.413 161.42-161.42-72.413-161.42-161.42-161.42-161.42 72.413-161.42 161.42zm161.42-146.42c80.736 0 146.42 65.684 146.42 146.42s-65.684 146.42-146.42 146.42-146.42-65.684-146.42-146.42 65.683-146.42 146.42-146.42z"/><path d="m196.424 285.416c17.577 12.166 38.178 18.596 59.576 18.596 20.987 0 41.258-6.205 58.623-17.944 3.431-2.32 4.333-6.982 2.013-10.414-2.32-3.431-6.982-4.331-10.414-2.013-14.874 10.056-32.24 15.371-50.221 15.371-18.333 0-35.982-5.508-51.039-15.93-3.408-2.358-8.078-1.507-10.436 1.898-2.358 3.406-1.508 8.078 1.898 10.436z"/><path d="m205.803 124.495c14.869-10.045 32.227-15.354 50.197-15.354 18.485 0 36.255 5.593 51.389 16.174 3.735 2.291 7.217 1.675 10.444-1.849 2.374-3.395 1.546-8.071-1.849-10.444-17.667-12.353-38.41-18.881-59.984-18.881-20.974 0-41.235 6.198-58.593 17.925-3.433 2.319-4.335 6.981-2.017 10.413 2.319 3.432 6.982 4.334 10.413 2.016z"/><path d="m146.466 236.486c3.363 3.384 9.87 7.566 17.45 7.566 3.252 0 6.703-.771 10.186-2.704 7.133-3.959 11.563-11.57 11.563-19.863v-59.853c0-4.142-3.358-7.5-7.5-7.5s-7.5 3.358-7.5 7.5v59.853c0 2.846-1.473 5.432-3.844 6.748-4.545 2.525-9.468-2.084-9.761-2.366-2.924-2.894-7.639-2.894-10.562.012-2.937 2.92-2.952 7.668-.032 10.607z"/><path d="m307.005 161.633v74.887c0 3.725 3.728 7.5 7.526 7.5h25.525c15.25 0 27.657-12.496 27.657-27.746 0-9.306-4.624-17.547-11.691-22.562 3.116-4.138 4.966-9.28 4.966-14.847 0-13.637-11.094-24.731-24.731-24.731h-21.752c-4.142-.001-7.5 3.357-7.5 7.499zm33.025 67.298-18.025.062v-25.347c6.017-.029 12.034-.039 18.051-.03 6.979 0 12.657 5.678 12.657 12.657s-5.678 12.658-12.683 12.658zm-3.772-59.798c5.366 0 9.731 4.366 9.731 9.731s-4.366 9.731-9.758 9.731c-4.742.02-9.484.027-14.226.021v-19.483z"/><path d="m200.965 199.076c0 24.782 20.162 44.943 44.943 44.943s44.943-20.162 44.943-44.943-20.161-44.943-44.943-44.943-44.943 20.161-44.943 44.943zm74.886 0c0 16.511-13.432 29.943-29.943 29.943s-29.943-13.433-29.943-29.943 13.433-29.943 29.943-29.943 29.943 13.432 29.943 29.943z"/></g></g></svg>