<svg id="Capa_1" enable-background="new 0 0 512 512" height="512" viewBox="0 0 512 512" width="512" xmlns="http://www.w3.org/2000/svg"><g><g><g><path d="m328.376 101.751h-39.354v-85.182c0-5.008-4.06-9.069-9.069-9.069h-47.907c-5.008 0-9.069 4.06-9.069 9.069v85.182h-39.354c-7.864 0-12.001 9.326-6.722 15.156l65.654 72.501c7.2 7.95 19.689 7.95 26.888 0l65.654-72.501c5.28-5.83 1.143-15.156-6.721-15.156z" fill="#6fd7a3"/><path d="m288.376 101.751c7.864 0 12.001 9.326 6.722 15.156l-59.098 65.261 6.556 7.24c7.2 7.95 19.688 7.95 26.888 0l65.654-72.501c5.279-5.83 1.142-15.156-6.722-15.156h-39.354z" fill="#3ec3a4"/><g><g><path d="m256 233.649c-43.065 0-77.977 35.127-77.977 78.458v108.061c0 28.883 23.271 52.298 51.977 52.298h52c28.706 0 51.977-23.415 51.977-52.298v-108.061c-.001-43.331-34.912-78.458-77.977-78.458z" fill="#bc7c63"/><g><path d="m316.639 504.5h-121.278c-12.258 0-22.195-9.937-22.195-22.195v-21.628c0-45.748 37.086-82.833 82.833-82.833 45.748 0 82.833 37.086 82.833 82.833v21.628c.001 12.258-9.936 22.195-22.193 22.195z" fill="#685e68"/><g><path d="m222.347 377.844-.153 53.422c-.019 6.519 7.344 10.328 12.654 6.547l16.505-11.752c2.781-1.98 6.51-1.98 9.291 0l16.505 11.752c5.311 3.781 12.673-.028 12.654-6.547l-.153-53.421h-67.303z" fill="#f9f7f8"/></g><g><path d="m256 299.825c-5.505 7.623-14.43 12.583-24.511 12.583h-13.383c-5.747 0-10.406 4.688-10.406 10.47v32.241c0 26.84 21.625 48.598 48.3 48.598 26.675 0 48.3-21.758 48.3-48.598v-32.241c0-5.783-4.659-10.47-10.406-10.47h-13.383c-10.081 0-19.006-4.96-24.511-12.583z" fill="#ffdfcf"/></g><g><path d="m293.894 312.408h-13.383c-5.968 0-11.523-1.749-16.211-4.749v47.46c0 19.66-11.609 36.581-28.3 44.234 6.096 2.795 12.864 4.365 20 4.365 26.675 0 48.3-21.758 48.3-48.598v-32.241c0-5.783-4.659-10.471-10.406-10.471z" fill="#ffcebf"/></g></g></g><g><path d="m150.972 504.5h-121.277c-12.258 0-22.195-9.937-22.195-22.195v-21.628c0-45.748 37.086-82.833 82.833-82.833 45.748 0 82.833 37.086 82.833 82.833v21.628c.001 12.258-9.936 22.195-22.194 22.195z" fill="#f9f7f8"/><path d="m80.936 420.919-15.598 60.61c-.29 1.125-.242 2.312.136 3.41l6.731 19.561h35.464l6.744-19.597c.37-1.076.423-2.236.153-3.341l-14.836-60.643z" fill="#b3dafe"/><path d="m96.175 432.722h-11.683c-6.499 0-11.767-5.268-11.767-11.767v-23.668h35.217v23.668c0 6.499-5.268 11.767-11.767 11.767z" fill="#b3dafe"/><path d="m90.333 402.69c-30.07 0-54.447-24.377-54.447-54.447v-29.502c0-30.07 24.377-54.447 54.447-54.447 30.07 0 54.447 24.377 54.447 54.447v29.502c0 30.071-24.377 54.447-54.447 54.447z" fill="#ffdfcf"/><path d="m102.682 265.719c1.366 2.721 2.098 6.518 2.098 11.726v70.799c0 23.006-14.276 42.665-34.447 50.638 6.193 2.448 12.936 3.808 20 3.808 30.07 0 54.447-24.377 54.447-54.447v-29.501c0-25.82-17.98-47.427-42.098-53.023z" fill="#ffcebf"/><path d="m35.887 320.088 11.511-18.715c5.768-9.378 17.796-12.614 27.446-7.384 8.978 3.663 22.002 3.663 30.98 0 9.65-5.23 21.678-1.994 27.446 7.384l11.511 18.715v-30.503c0-30.256-24.377-54.783-54.447-54.783-30.07 0-54.447 24.527-54.447 54.783z" fill="#685e68"/></g><g><path d="m482.305 504.5h-121.277c-12.258 0-22.195-9.937-22.195-22.195v-21.628c0-45.748 37.086-82.833 82.833-82.833 45.748 0 82.833 37.086 82.833 82.833v21.628c.001 12.258-9.936 22.195-22.194 22.195z" fill="#f9f7f8"/><path d="m412.27 420.919-15.598 60.61c-.29 1.125-.242 2.312.136 3.41l6.731 19.561h35.464l6.744-19.597c.37-1.076.423-2.236.153-3.341l-14.835-60.642h-18.795z" fill="#fd8087"/><path d="m427.508 432.722h-11.683c-6.499 0-11.767-5.268-11.767-11.767v-23.668h35.217v23.668c0 6.499-5.268 11.767-11.767 11.767z" fill="#fd8087"/><g><path d="m421.667 402.69c-30.07 0-54.447-24.377-54.447-54.447v-29.502c0-30.07 24.377-54.447 54.447-54.447h54.447v83.948c-.001 30.072-24.377 54.448-54.447 54.448z" fill="#ffdfcf"/><path d="m436.113 264.296v83.948c0 23.006-14.276 42.665-34.447 50.638 6.193 2.448 12.936 3.808 20 3.808 30.07 0 54.447-24.377 54.447-54.447v-83.948h-40z" fill="#ffcebf"/><path d="m367.22 320.088h55.713c32.834 0 59.451-26.782 59.451-59.818 0-14.065-11.332-25.467-25.311-25.467h-33.8c-30.957 0-56.053 25.251-56.053 56.4z" fill="#bc7c63"/></g></g></g></g></g><g><path d="m236.997 194.442c4.848 5.353 11.797 8.386 19.003 8.429 7.226 0 14.153-3.072 19.004-8.429l65.652-72.501c9.341-10.312 1.786-27.69-12.28-27.69h-31.854v-77.683c-.001-9.135-7.433-16.568-16.569-16.568h-47.906c-9.136 0-16.569 7.433-16.569 16.568v24.798c0 4.142 3.358 7.5 7.5 7.5s7.5-3.358 7.5-7.5v-24.798c0-.865.704-1.568 1.569-1.568h47.906c.865 0 1.568.704 1.568 1.568v85.183c0 4.142 3.357 7.5 7.5 7.5h39.354c1.524.37 1.911 1.243 1.162 2.621l-65.652 72.501c-4.172 4.605-11.599 4.608-15.77 0l-65.654-72.502c-.749-1.377-.361-2.251 1.163-2.621h39.354c4.142 0 7.5-3.358 7.5-7.5v-30.452c0-4.142-3.358-7.5-7.5-7.5s-7.5 3.358-7.5 7.5v22.953h-31.854c-13.913 0-21.724 17.262-12.281 27.689z"/><path d="m471.343 385.21c7.704-10.326 12.27-23.122 12.27-36.966v-59.574c4.014-8.636 6.271-18.256 6.271-28.401 0-18.178-14.719-32.967-32.811-32.967h-33.8c-35.044 0-63.554 28.665-63.554 63.899v57.042c0 13.844 4.566 26.64 12.27 36.966-13.074 8.593-23.495 20.262-30.513 33.774v-106.876c0-47.397-38.345-85.958-85.477-85.958s-85.477 38.561-85.477 85.958v106.878c-7.018-13.512-17.439-25.182-30.513-33.775 7.703-10.326 12.27-23.122 12.27-36.966v-28.156-1.346-29.157c0-34.343-27.789-62.283-61.946-62.283-34.158 0-61.947 27.94-61.947 62.283v29.157 1.346 28.156c0 13.844 4.566 26.64 12.27 36.966-25.291 16.622-40.656 44.758-40.656 75.468v21.627c0 16.374 13.321 29.695 29.695 29.695h121.277c8.821 0 16.751-3.87 22.195-9.997 5.444 6.127 13.374 9.997 22.195 9.997h73.734c4.143 0 7.5-3.358 7.5-7.5s-3.357-7.5-7.5-7.5h-73.734c-8.103 0-14.695-6.592-14.695-14.695v-21.627c0-25.833 12.89-49.276 34.156-63.1l-.127 33.666c-.034 12.049 14.345 19.914 24.504 12.678l16.505-11.752c.177-.126.414-.126.591 0l16.505 11.752c10.085 7.18 24.539-.595 24.505-12.686l-.128-33.659c21.262 13.827 34.155 37.282 34.155 63.099v21.627c0 8.103-6.592 14.695-14.694 14.695h-14.306c-4.143 0-7.5 3.358-7.5 7.5s3.357 7.5 7.5 7.5h14.306c8.821 0 16.751-3.87 22.194-9.997 5.444 6.127 13.374 9.997 22.195 9.997h121.277c16.374.002 29.695-13.319 29.695-29.693v-21.627c0-30.709-15.365-58.846-40.657-75.468zm-39.568 35.746c0 2.353-1.914 4.267-4.267 4.267h-11.684c-2.353 0-4.267-1.914-4.267-4.267v-11.603c6.739 1.118 13.478 1.118 20.217 0v11.603zm-10.108-25.766c-25.887 0-46.947-21.06-46.947-46.947v-20.656h48.213c17.646 0 33.708-6.911 45.681-18.168v38.824c-.001 25.887-21.06 46.947-46.947 46.947zm-46.947-103.988c0-26.963 21.781-48.899 48.554-48.899h33.8c9.82 0 17.811 8.06 17.811 17.967 0 28.849-23.306 52.318-51.951 52.318h-48.214zm-274.278 129.754c0 2.353-1.914 4.267-4.267 4.267h-11.683c-2.353 0-4.267-1.914-4.267-4.267v-11.603c6.739 1.118 13.478 1.118 20.217 0zm-10.109-25.766c-25.887 0-46.947-21.06-46.947-46.947v-26.034l10.399-16.907c3.671-5.97 11.352-8.042 17.484-4.72 9.746 5.289 28.382 5.299 38.127 0 6.131-3.324 13.812-1.25 17.484 4.72l10.399 16.907v26.034c.001 25.887-21.059 46.947-46.946 46.947zm-46.946-105.605c0-26.072 21.06-47.283 46.947-47.283 25.886 0 46.946 21.211 46.946 47.283v4.548c-8.368-10.039-22.769-13.129-34.615-6.959-7.104 2.771-17.559 2.771-24.664 0-11.847-6.169-26.247-3.08-34.615 6.96v-4.549zm-28.387 192.72v-21.627c0-26.544 13.767-50.782 36.25-64.417 4.231 3.45 8.928 6.344 13.975 8.592v16.102c0 4.814 1.787 9.211 4.717 12.591l-11.868 46.114c-.657 2.555-.551 5.224.308 7.72l3.311 9.62h-31.998c-8.103 0-14.695-6.592-14.695-14.695zm62.556 14.695-4.837-14.057 11.004-42.76c.257.01.509.039.769.039h11.683c.186 0 .365-.023.55-.028l10.446 42.703-4.853 14.103zm73.416 0h-32.79l3.322-9.654c.841-2.441.961-5.058.347-7.567l-11.271-46.072c3.015-3.401 4.862-7.859 4.862-12.751v-16.102c5.047-2.248 9.744-5.142 13.975-8.592 22.482 13.634 36.25 37.873 36.25 64.417v21.627c0 8.102-6.593 14.694-14.695 14.694zm145.828-141.881c0 22.662-18.303 41.099-40.8 41.099-22.364 0-40.8-18.821-40.8-41.099v-32.241c0-1.638 1.304-2.97 2.906-2.97h13.382c9.043 0 17.736-3.299 24.511-9.093 6.774 5.793 15.468 9.093 24.511 9.093h13.383c1.603 0 2.906 1.333 2.906 2.97v32.241zm-14.77 76.622c-.276.144-.417.043-.529-.037l-16.505-11.752c-5.38-3.832-12.611-3.832-17.992 0l-16.505 11.752c-.434.187-.702.051-.804-.41l.101-26.666c7.819 4.2 16.738 6.589 26.204 6.589 9.467 0 18.386-2.39 26.205-6.589l.101 26.659c0 .138.001.311-.276.454zm21.776-47.722c5.07-8.446 7.994-18.335 7.994-28.899v-32.241c0-9.909-8.032-17.97-17.906-17.97h-13.383c-7.257 0-14.146-3.542-18.431-9.474-4.053-4.145-8.107-4.145-12.16 0-4.284 5.933-11.174 9.474-18.431 9.474h-13.382c-9.874 0-17.906 8.062-17.906 17.97v32.241c0 10.563 2.923 20.451 7.992 28.897-8.766 5.447-16.389 12.236-22.669 20.031v-91.94c0-39.126 31.616-70.958 70.477-70.958s70.477 31.832 70.477 70.958v91.949c-6.282-7.799-13.907-14.59-22.672-20.038zm42.527 98.286v-21.627c0-26.544 13.767-50.782 36.25-64.417 4.231 3.45 8.928 6.345 13.976 8.593v16.102c0 4.814 1.787 9.211 4.717 12.591l-11.869 46.116c-.656 2.555-.549 5.223.309 7.717l3.311 9.62h-31.997c-8.105 0-14.697-6.592-14.697-14.695zm62.556 14.695-4.837-14.057 11.005-42.76c.257.01.509.039.768.039h11.684c.228 0 .45-.026.676-.034l10.321 42.706-4.855 14.106zm88.111-14.695c0 8.103-6.592 14.695-14.694 14.695h-32.791l3.323-9.657c.839-2.438.959-5.051.352-7.543l-11.168-46.212c2.951-3.386 4.754-7.798 4.754-12.632v-16.102c5.047-2.248 9.744-5.142 13.975-8.592 22.482 13.634 36.25 37.873 36.25 64.416v21.627z"/><path d="m379.084 158.043 23.039 13.302c1.182.682 2.471 1.006 3.743 1.006 2.592 0 5.113-1.345 6.502-3.751 2.071-3.587.842-8.174-2.745-10.245l-23.039-13.302c-3.589-2.072-8.175-.843-10.245 2.745-2.071 3.587-.842 8.174 2.745 10.245z"/><path d="m388.542 102.254c0 4.142 3.357 7.5 7.5 7.5h26.604c4.143 0 7.5-3.358 7.5-7.5s-3.357-7.5-7.5-7.5h-26.604c-4.143 0-7.5 3.358-7.5 7.5z"/><path d="m382.841 60.461c1.272 0 2.562-.324 3.743-1.006l23.039-13.301c3.587-2.071 4.816-6.658 2.745-10.245-2.07-3.587-6.659-4.816-10.245-2.745l-23.039 13.301c-3.587 2.071-4.816 6.658-2.745 10.245 1.389 2.406 3.91 3.751 6.502 3.751z"/><path d="m102.377 46.154 23.039 13.301c1.181.682 2.471 1.006 3.743 1.006 2.592 0 5.113-1.346 6.502-3.751 2.071-3.587.842-8.174-2.745-10.245l-23.039-13.301c-3.588-2.072-8.174-.842-10.245 2.745s-.842 8.174 2.745 10.245z"/><path d="m89.354 109.754h26.603c4.142 0 7.5-3.358 7.5-7.5s-3.358-7.5-7.5-7.5h-26.603c-4.142 0-7.5 3.358-7.5 7.5s3.358 7.5 7.5 7.5z"/><path d="m125.416 145.053-23.039 13.302c-3.587 2.071-4.816 6.658-2.745 10.245 1.389 2.406 3.91 3.751 6.502 3.751 1.272 0 2.562-.324 3.743-1.006l23.039-13.302c3.587-2.071 4.816-6.658 2.745-10.245-2.071-3.588-6.658-4.817-10.245-2.745z"/></g></g></svg>