<svg id="Capa_1" enable-background="new 0 0 512 512" height="512" viewBox="0 0 512 512" width="512" xmlns="http://www.w3.org/2000/svg"><g><g><g><g><g><path d="m272.661 377.12h-33.083c10.936 1.211 22.031 1.226 33.083 0z" fill="#b3dafe"/><path d="m256 265.494c-42.342 0-76.667 34.325-76.667 76.666.077 9.253 2.816 16.952 13.721 22.04 14.688 6.853 30.447 11.14 46.523 12.92h33.083c15.723-1.744 31.718-5.261 46.291-12.926 10.898-5.733 13.492-12.754 13.715-22.034 0-42.341-34.324-76.666-76.666-76.666z" fill="#f9f7f8"/></g><g fill="#fd8087"><path d="m247.67 305.117-14.437 50.873c-.268 1.035-.224 2.127.125 3.137l6.23 17.993c10.845 1.185 21.985 1.385 32.824 0l6.242-18.027c.343-.989.392-2.057.141-3.074l-13.731-50.902z"/><path d="m261.807 315.974h-10.881c-5.996 0-10.857-4.861-10.857-10.857v-21.737h32.595v21.738c0 5.995-4.861 10.856-10.857 10.856z"/></g><path d="m256 288.349c-27.831 0-50.393-22.562-50.393-50.393v-26.518c0-27.831 22.562-50.393 50.393-50.393h50.393v76.911c0 27.831-22.562 50.393-50.393 50.393z" fill="#ffdfcf"/><path d="m266.393 161.045v76.911c0 20.724-12.513 38.518-30.393 46.259 6.132 2.655 12.892 4.134 20 4.134 27.831 0 50.393-22.562 50.393-50.393v-76.911z" fill="#ffcebf"/><path d="m205.607 212.366h51.565c30.389 0 55.025-24.635 55.025-55.025 0-12.938-10.488-23.426-23.426-23.426h-31.284c-28.652 0-51.88 23.227-51.88 51.88z" fill="#bc7c63"/></g><g><g fill="#6c7fd8"><path d="m420.764 256.011v-.022c0-9.307 7.545-16.851 16.851-16.851h50.033c9.307 0 16.851 7.545 16.851 16.851v.022c0 9.307-7.545 16.851-16.851 16.851h-50.033c-9.306.001-16.851-7.544-16.851-16.851z"/><path d="m7.5 256.011v-.022c0-9.307 7.545-16.851 16.851-16.851h50.033c9.307 0 16.851 7.545 16.851 16.851v.022c0 9.307-7.545 16.851-16.851 16.851h-50.033c-9.306.001-16.851-7.544-16.851-16.851z"/></g></g><g><g fill="#6c7fd8"><path d="m256.011 91.236h-.022c-9.307 0-16.851-7.545-16.851-16.851v-50.034c0-9.307 7.545-16.851 16.851-16.851h.022c9.307 0 16.851 7.545 16.851 16.851v50.033c.001 9.307-7.544 16.852-16.851 16.852z"/><path d="m256.011 504.5h-.022c-9.307 0-16.851-7.545-16.851-16.851v-50.033c0-9.307 7.545-16.851 16.851-16.851h.022c9.307 0 16.851 7.545 16.851 16.851v50.033c.001 9.306-7.544 16.851-16.851 16.851z"/></g></g></g></g><g fill="#b3dafe"><path d="m94.091 354.715c-9.411-15.375-16.358-31.577-20.965-48.141-.598-2.15-2.573-3.624-4.804-3.624h-21.76c-3.248 0-5.647 3.05-4.863 6.201 5.299 21.275 13.871 42.105 25.909 61.773 30.576 49.955 80.454 85.48 136.516 99.261 3.144.773 6.179-1.628 6.179-4.866v-21.714c0-2.238-1.482-4.222-3.641-4.811-46.266-12.61-87.109-42.479-112.571-84.079z"/><path d="m156.9 93.708c15.436-9.448 32.188-16.521 49.705-21.083 2.187-.569 3.698-2.566 3.698-4.826v-21.687c0-3.213-2.99-5.609-6.119-4.88-21.979 5.12-43.423 13.709-63.493 25.994-52.401 32.073-86.697 82.638-99.672 138.209-.731 3.13 1.665 6.123 4.879 6.123h21.648c2.261 0 4.258-1.512 4.827-3.701 11.937-45.929 40.952-87.477 84.527-114.149z"/><path d="m355.1 417.525c-15.577 9.534-32.335 16.718-49.747 21.415-2.166.584-3.656 2.571-3.656 4.815v21.726c0 3.231 3.022 5.63 6.162 4.87 22.26-5.385 43.675-14.239 63.45-26.343 51.349-31.429 85.318-80.613 98.871-134.864.786-3.147-1.617-6.193-4.861-6.193h-21.755c-2.229 0-4.206 1.471-4.804 3.619-12.434 44.657-41.098 84.904-83.66 110.955z"/><path d="m417.909 156.518c10.015 16.363 17.236 33.661 21.819 51.337.568 2.189 2.566 3.702 4.827 3.702h21.682c3.213 0 5.608-2.99 4.881-6.119-5.216-22.441-14.055-44.428-26.726-65.13-31.282-51.108-81.411-85.032-136.532-98.407-3.14-.762-6.163 1.638-6.163 4.869v21.745c0 2.242 1.487 4.229 3.65 4.814 46.617 12.609 87.437 42.141 112.562 83.189z"/></g><g><path d="m198.107 185.794v52.162c0 12.771 4.165 24.583 11.197 34.167-23.32 15.52-37.47 41.588-37.47 70.098.072 8.771 2.022 21.296 18.05 28.775 40.081 18.704 92.747 20.776 132.559-.165 8.534-4.489 17.312-11.385 17.722-28.493.001-.06.002-.12.002-.179 0-28.298-14.193-54.491-37.477-70.027 7.036-9.586 11.203-21.401 11.203-34.177v-54.352c3.715-7.991 5.804-16.886 5.804-26.263 0-17.053-13.873-30.926-30.926-30.926h-31.283c-32.743.001-59.381 26.638-59.381 59.38zm57.893 95.055c-23.651 0-42.893-19.242-42.893-42.893v-18.09h44.064c16.02 0 30.646-6.062 41.721-16.004v34.094c.001 23.651-19.241 42.893-42.892 42.893zm9.164 24.268c0 1.932-1.595 3.357-3.356 3.357h-10.881c-1.763 0-3.357-1.422-3.357-3.357v-9.889c2.754.404 5.567.621 8.431.621 3.119 0 6.178-.256 9.164-.733v10.001zm-78.33 37.043c0-24.289 12.545-46.461 33.053-59.004 3.857 3.087 8.114 5.69 12.682 7.72v14.24c0 4.34 1.522 8.326 4.049 11.472l-10.601 37.353c-1.176 4.048.623 10.043 2.419 13.891-11.239-2.194-22.033-5.68-32.21-10.429-6.868-3.204-9.326-7.209-9.392-15.243zm58.264 27.949-4.438-12.819 9.607-33.85c3.977.14 7.997.105 11.976.011l9.115 33.792-4.474 12.92c-6.831.576-14.127.558-21.786-.054zm80.068-28.039c-.182 7.129-1.699 11.274-9.706 15.487-9.202 4.84-19.549 8.23-31.952 10.438 1.808-3.875 3.615-9.814 2.528-13.928l-10.059-37.292c2.615-3.173 4.187-7.235 4.187-11.657v-14.573c4.288-1.978 8.293-4.463 11.94-7.382 20.449 12.533 33.029 34.785 33.062 58.907zm-20.47-184.729c0 26.205-21.319 47.525-47.524 47.525h-44.064v-19.072c0-24.471 19.909-44.38 44.38-44.38h31.283c8.781.001 15.925 7.145 15.925 15.927z"/><path d="m487.648 231.638h-50.032c-13.428 0-24.352 10.924-24.352 24.351v.022c0 13.427 10.924 24.351 24.352 24.351h50.032c13.428 0 24.352-10.924 24.352-24.374 0-13.426-10.924-24.35-24.352-24.35zm0 33.724h-50.032c-5.156 0-9.352-4.195-9.352-9.351v-.022c0-5.156 4.195-9.351 9.352-9.351h50.032c5.156 0 9.352 4.195 9.352 9.374 0 5.155-4.195 9.35-9.352 9.35z"/><path d="m98.735 255.989c0-13.427-10.924-24.351-24.352-24.351h-50.031c-13.428 0-24.352 10.924-24.352 24.351v.022c0 13.427 10.924 24.351 24.352 24.351h50.032c13.428 0 24.351-10.924 24.351-24.373zm-83.735.022v-.022c0-5.156 4.195-9.351 9.352-9.351h50.032c5.156 0 9.352 4.195 9.352 9.374 0 5.156-4.195 9.351-9.352 9.351h-50.032c-5.157-.001-9.352-4.196-9.352-9.352z"/><path d="m255.989 98.735h.021c13.428 0 24.352-10.924 24.352-24.351v-50.032c0-13.428-10.924-24.352-24.373-24.352-13.428 0-24.352 10.924-24.352 24.352v50.033c.001 13.427 10.925 24.35 24.352 24.35zm-9.351-74.383c0-5.156 4.195-9.352 9.373-9.352 5.156 0 9.352 4.195 9.352 9.352v50.033c0 5.156-4.195 9.351-9.352 9.351h-.021c-5.156 0-9.352-4.195-9.352-9.351z"/><path d="m255.989 413.265c-13.428 0-24.352 10.924-24.352 24.351v50.033c0 13.428 10.924 24.352 24.352 24.352h.021c13.428 0 24.352-10.924 24.352-24.352v-50.033c0-13.428-10.924-24.351-24.373-24.351zm9.373 74.383c0 5.156-4.195 9.352-9.352 9.352h-.021c-5.156 0-9.352-4.195-9.352-9.352v-50.033c0-5.156 4.195-9.351 9.373-9.351 5.156 0 9.352 4.195 9.352 9.351z"/><path d="m208.636 431.559c-44.788-12.208-84.206-41.643-108.147-80.758-8.85-14.459-15.625-30.015-20.137-46.235-1.492-5.367-6.439-9.115-12.03-9.115h-21.76c-8.009 0-14.077 7.736-12.141 15.514 5.603 22.495 14.616 43.986 26.79 63.875 31.106 50.823 82.544 88.229 141.122 102.629 7.78 1.911 15.47-4.225 15.47-12.149v-21.714c.001-5.623-3.77-10.577-9.167-12.047zm-5.832 30.554c-53.477-14.005-100.29-48.527-128.799-95.104-10.812-17.665-18.955-36.678-24.229-56.559h16.654c4.879 16.889 12.028 33.089 21.266 48.181 25.578 41.792 67.451 73.368 115.108 86.875z"/><path d="m45.898 219.058h21.647c5.691 0 10.661-3.831 12.086-9.314 11.947-45.97 40.779-84.907 81.184-109.638 14.729-9.015 30.771-15.819 47.68-20.222 5.48-1.427 9.309-6.396 9.309-12.084v-21.688c0-7.929-7.592-13.981-15.32-12.185-23.305 5.428-45.411 14.479-65.707 26.901-10.075 6.167-19.729 13.152-28.691 20.762-3.157 2.681-3.544 7.414-.863 10.571 2.682 3.158 7.415 3.545 10.572.863 8.374-7.11 17.396-13.638 26.812-19.402 18.028-11.034 37.591-19.216 58.197-24.344v16.597c-17.637 4.784-34.387 11.99-49.818 21.436-43.175 26.426-74.139 67.828-87.364 116.746h-16.555c8.426-33.815 25.043-65.227 48.18-91.021 2.766-3.083 2.509-7.825-.575-10.591-3.082-2.766-7.824-2.507-10.591.575-25.518 28.447-43.625 63.271-52.365 100.708-1.804 7.732 4.253 15.33 12.182 15.33z"/><path d="m465.318 295.45h-21.756c-5.59 0-10.535 3.746-12.028 9.107-6.659 23.918-17.862 45.83-33.299 65.124-2.588 3.234-2.063 7.954 1.171 10.542 3.233 2.587 7.953 2.062 10.542-1.171 16.304-20.379 28.244-43.449 35.507-68.602h16.644c-14.156 53.316-47.689 98.384-94.705 127.161-18.128 11.095-37.692 19.389-58.197 24.675v-16.625c17.519-4.913 34.27-12.222 49.818-21.739 10.581-6.477 20.588-13.978 29.741-22.297 3.065-2.786 3.292-7.529.507-10.594-2.786-3.065-7.529-3.292-10.595-.506-8.458 7.686-17.705 14.618-27.483 20.604-14.887 9.112-30.964 16.033-47.784 20.571-5.419 1.461-9.204 6.418-9.204 12.056v21.726c0 7.901 7.654 14.043 15.426 12.16 23.155-5.602 45.227-14.765 65.602-27.235 51.307-31.403 87.614-80.925 102.232-139.444 1.942-7.779-4.133-15.513-12.139-15.513z"/><path d="m303.389 80.569c45.117 12.204 84.526 41.313 108.123 79.865 9.408 15.371 16.459 31.958 20.956 49.303 1.422 5.488 6.393 9.321 12.087 9.321h21.682c7.925 0 13.983-7.589 12.187-15.317-5.521-23.748-14.817-46.407-27.635-67.347-15.811-25.833-36.464-47.89-61.385-65.557-24.002-17.016-50.843-29.204-79.775-36.224-7.757-1.881-15.432 4.184-15.432 12.158v21.746c-.001 5.632 3.78 10.589 9.192 12.052zm5.807-30.603c54.473 14.034 100.127 47.413 128.799 94.258 11.42 18.659 19.849 38.773 25.077 59.833h-16.592c-4.885-18.085-12.341-35.387-22.176-51.455-25.621-41.86-66.443-72.339-115.108-85.992z"/></g></g></svg>