<svg id="Capa_1" enable-background="new 0 0 511.979 511.979" height="512" viewBox="0 0 511.979 511.979" width="512" xmlns="http://www.w3.org/2000/svg"><g><g><g><g><circle cx="255.99" cy="102.081" fill="#6fd7a3" r="94.5"/><path d="m255.99 7.581c-6.863 0-13.552.738-20 2.128 42.584 9.177 74.5 47.044 74.5 92.372s-31.916 83.195-74.5 92.372c6.448 1.389 13.137 2.128 20 2.128 52.191 0 94.5-42.309 94.5-94.5s-42.309-94.5-94.5-94.5z" fill="#3ec3a4"/></g><g><g><g><g><path d="m285.295 308.617 84.745 85.32c7.24 7.285 7.24 19.042 0 26.326-7.21 7.255-18.891 7.27-26.119.044-.002-.002-.003-.001-.001.001 6.866 7.263 7.15 19.044-.042 26.282-7.21 7.255-18.891 7.27-26.119.044-.002-.002-.003-.001-.001.001 6.866 7.263 7.15 19.044-.042 26.282-7.225 7.271-18.941 7.27-26.165-.003 7.252 7.619 7.224 20.259-1.125 27.374-7.396 6.302-18.515 5.516-25.364-1.376l-136.438-137.338c-17.187-17.295-43.701-44.709-43.701-44.709l-54.521-54.864 79.579-80.079 51.763 52.088c1.703 1.714 4.178 2.397 6.527 1.825 30.287-7.367 63.552.841 87.198 24.636l39.263 39.509z" fill="#d1a08f"/><path d="m102.96 160.702-93.649 94.238c-2.428 2.443-2.428 6.403 0 8.846l41.331 41.591c2.429 2.444 6.368 2.444 8.798 0l93.65-94.238c2.428-2.443 2.428-6.403 0-8.846l-41.331-41.591c-2.43-2.444-6.37-2.444-8.799 0z" fill="#f9f7f8"/></g><g><path d="m197.211 346.478c7.209 7.255 18.953 7.255 26.162 0l35.555-35.778c7.647-7.695 20.095-7.719 27.771-.054l74.408 74.298 109.36-111.761-79.58-80.08-39.5 39.748c-2.36 2.375-5.776 3.407-9.043 2.665-29.919-6.797-62.543 1.518-85.834 24.956l1.165-1.088-.039-.039-60.427 60.806c-7.238 7.285-7.238 19.042.002 26.327z" fill="#ffdfcf"/><g><path d="m390.888 193.103-20 20.126 59.58 59.953-89.593 91.559 20.232 20.202 109.361-111.761z" fill="#ffcebf"/></g><path d="m409.019 160.702 93.65 94.238c2.428 2.443 2.428 6.403 0 8.846l-41.331 41.591c-2.429 2.444-6.368 2.444-8.798 0l-93.65-94.238c-2.428-2.443-2.428-6.403 0-8.846l41.331-41.591c2.43-2.444 6.369-2.444 8.798 0z" fill="#b3dafe"/><g fill="#8ac9fe"><path d="m432.601 285.317c.012.012.025.022.037.033l-.366-.369z"/><path d="m502.669 254.94-18.113-18.227c.823 2.224.353 4.822-1.424 6.61l-41.734 41.994c-2.417 2.432-6.329 2.442-8.761.033l19.902 20.027c2.429 2.444 6.368 2.444 8.798 0l41.331-41.591c2.429-2.442 2.429-6.403.001-8.846z"/></g></g></g></g></g></g><g><path d="m180.024 381.709c-7.226-7.272-18.945-7.272-26.172 0l-11.805 11.824c-7.223 7.268-7.223 19.049 0 26.317 7.226 7.272 18.945 7.272 26.172 0l11.805-11.824c7.223-7.268 7.223-19.049 0-26.317z" fill="#ffdfcf"/><g><path d="m218.678 395.555c-7.226-7.272-18.945-7.272-26.172 0l-24.296 24.305c-7.223 7.268-7.223 19.049 0 26.317 7.226 7.272 18.945 7.272 26.172 0l24.296-24.305c7.222-7.268 7.222-19.049 0-26.317z" fill="#ffdfcf"/><path d="m271.178 448.011c-7.226-7.272-18.945-7.272-26.172 0l-24.296 24.305c-7.223 7.268-7.223 19.049 0 26.317 7.226 7.272 18.945 7.272 26.172 0l24.296-24.305c7.223-7.268 7.223-19.049 0-26.317z" fill="#ffcebf"/><path d="m252.43 414.298c-7.226-7.272-18.945-7.272-26.172 0l-31.886 31.888c-7.223 7.268-7.223 19.049 0 26.317 7.226 7.272 18.945 7.272 26.172 0l31.886-31.888c7.223-7.268 7.223-19.049 0-26.317z" fill="#ffdfcf"/></g></g></g><g><path d="m255.99 204.081c56.243 0 102-45.757 102-102s-45.757-102-102-102-102 45.757-102 102 45.757 102 102 102zm0-189c47.972 0 87 39.028 87 87s-39.028 87-87 87-87-39.028-87-87 39.028-87 87-87z"/><path d="m230.14 134.089c6.495 6.495 17.31 6.495 23.806 0l53.076-53.076c2.929-2.929 2.929-7.678 0-10.606s-7.677-2.93-10.607 0l-53.076 53.076c-.864.716-1.727.715-2.591 0l-25.183-25.182c-2.93-2.929-7.678-2.929-10.607 0s-2.929 7.678 0 10.606z"/><path d="m507.99 249.653-60.547-60.926c-2.922-2.938-7.67-2.952-10.607-.033-2.938 2.92-2.952 7.668-.033 10.606l59.689 60.063-39.553 39.8c-30.621-30.818-61.247-61.632-91.871-92.447l39.553-39.8 11.168 11.237c2.92 2.938 7.668 2.952 10.606.033 2.938-2.92 2.952-7.668.032-10.606l-12.087-12.163c-5.296-5.33-14.142-5.331-19.438-.001l-41.331 41.591c-6.159 6.197-4.167 15.797 1.782 21.214l-9.284 9.343c-.554.557-1.342.8-2.062.638-31.561-7.17-63.976 1.221-88.006 22.463-24.385-21.582-57.227-29.859-89.186-22.193l-10.188-10.252c5.836-5.457 8.061-14.897 1.783-21.214l-41.33-41.59c-5.296-5.33-14.142-5.331-19.438-.001l-57.494 57.854c-2.919 2.938-2.904 7.687.033 10.606 2.939 2.92 7.688 2.906 10.607-.033l56.572-56.927 39.553 39.8c-30.624 30.815-61.247 61.631-91.871 92.447l-39.552-39.8 14.392-14.481c2.919-2.938 2.904-7.687-.033-10.606-2.938-2.919-7.686-2.905-10.607.033l-15.25 15.345c-5.322 5.354-5.322 14.066-.001 19.42l41.331 41.59c6.12 6.161 15.745 4.204 21.128-1.701l74.22 75.335-3.943 3.949c-10.106 10.17-10.106 26.72 0 36.89 4.914 4.944 11.45 7.667 18.406 7.667.061 0 .121-.004.181-.004-.056 6.753 2.466 13.523 7.575 18.664 4.914 4.944 11.45 7.667 18.406 7.667.061 0 .121-.004.182-.004-.056 6.752 2.466 13.523 7.575 18.664 4.952 4.983 11.737 7.753 18.759 7.658-.006 6.688 2.52 13.379 7.58 18.471 9.928 9.991 26.839 10.034 36.796.016l3.658-3.659 3.898 3.923c9.286 9.344 25.37 10.471 35.548 1.797 5.875-5.006 9.156-12.436 9.054-20.128 7.015.035 13.737-2.678 18.691-7.665 5.042-5.073 7.526-11.86 7.443-18.663 7.003.086 13.784-2.697 18.719-7.664 5.042-5.073 7.526-11.86 7.443-18.663 7.003.086 13.784-2.697 18.72-7.664 10.082-10.145 10.109-26.636.082-36.816l-3.697-3.94 73.994-75.619c5.428 6.016 14.712 7.734 20.917 1.489l41.332-41.591c5.32-5.353 5.32-14.064.001-19.419zm-360.622 164.911c-4.313-4.34-4.313-11.403-.013-15.731l11.817-11.836c5.177-4.321 10.354-4.321 15.531 0 4.313 4.34 4.313 11.403.013 15.731l-11.814 11.833-.003.003c-2.076 2.09-4.834 3.241-7.766 3.241s-5.689-1.152-7.765-3.241zm26.162 26.326c-4.313-4.34-4.313-11.403-.016-15.728l24.311-24.321c4.606-4.633 10.947-3.368 15.533 0 4.313 4.34 4.312 11.403.015 15.728l-24.312 24.32c-2.076 2.09-4.834 3.241-7.766 3.241s-5.689-1.15-7.765-3.24zm33.928 29.567c-2.931 0-5.688-1.151-7.765-3.24-4.313-4.341-4.314-11.403-.017-15.727l31.902-31.905c5.177-4.321 10.354-4.321 15.531 0 4.313 4.34 4.313 11.403.017 15.727-10.578 10.573-21.163 21.139-31.736 31.717-1.957 2.142-4.601 3.285-7.932 3.428zm26.339 26.129c-2.932 0-5.689-1.151-7.766-3.24-4.248-4.275-4.303-11.185-.198-15.525.005-.005.01-.009.015-.014l24.819-24.82c5.104-4.007 10.168-3.904 15.192.31 4.314 4.341 4.314 11.403.016 15.729l-24.311 24.32c-2.078 2.089-4.836 3.24-7.767 3.24zm55.534-9.739c-.159 3.05-1.497 5.796-3.769 7.732-4.321 3.681-10.987 3.263-15.18-.953l-3.933-3.959 10.049-10.052c1.934-1.947 3.495-4.128 4.689-6.453l4.949 4.945c2.199 2.32 3.364 5.504 3.195 8.74zm75.389-71.87c-3.842 3.868-9.783 4.269-14.071 1.219l-22.537-22.517c-2.93-2.927-7.679-2.927-10.606.005-2.928 2.93-2.926 7.679.005 10.606 7.022 7.016 14.153 13.966 20.959 21.171 4.256 4.502 4.296 11.609.088 15.843-3.884 3.91-11.603 3.92-15.498.025l-21.291-21.273c-2.93-2.927-7.679-2.927-10.606.004-2.928 2.93-2.926 7.679.005 10.607l21.153 21.135c4.243 4.503 4.279 11.599.075 15.828-5.184 4.326-10.366 4.319-15.544-.021l-13.824-13.812c-1.18-4.056-3.356-7.879-6.529-11.072h-.001c-3.492-3.514-7.805-5.899-12.504-6.988 3.005-9.082.928-19.508-6.243-26.724-6.954-6.997-17.488-9.48-26.858-6.258-1.061-4.578-3.356-8.923-6.896-12.484-8.726-8.236-21.998-10.25-32.378-3.581-1.226-3.755-3.313-7.285-6.274-10.265-8.841-8.895-23.785-10.091-33.884-2.546l-74.436-75.554 69.028-69.462 10.371 10.437c3.524 3.545 8.741 5.013 13.62 3.827 26.864-6.534 54.489.218 75.187 18.066l-53.34 53.675c-10.109 10.173-10.109 26.727 0 36.9 9.927 9.99 26.853 10.012 36.803 0l35.554-35.778c4.627-4.654 12.508-4.673 17.152-.034 27.781 27.74 55.592 55.542 83.321 83.271 4.316 4.34 4.316 11.406-.001 15.75zm-3.674-40.695-69.047-68.944c-10.526-10.51-27.905-10.476-38.392.075l-35.555 35.778c-5.174 4.303-10.348 4.303-15.521 0-4.316-4.343-4.316-11.41 0-15.753l59.285-59.658c20.477-20.549 50.536-29.387 78.869-22.95 5.8 1.317 11.794-.437 16.023-4.692l9.219-9.277 69.239 69.673z"/><path d="m413.03 204.941c-2.356-3.573-7.421-4.36-10.8-1.784-3.073 2.342-3.818 6.78-1.733 10.016 2.244 3.483 7.018 4.444 10.463 2.168 3.418-2.258 4.303-7.002 2.07-10.4z"/><path d="m109.059 213.271c2.179 3.303 6.731 4.291 10.106 2.256 3.532-2.129 4.66-6.876 2.493-10.376-2.09-3.376-6.595-4.502-10.047-2.569-3.775 2.113-4.91 7.1-2.552 10.689z"/></g></g></svg>