<svg id="Capa_1" enable-background="new 0 0 512 512" height="512" viewBox="0 0 512 512" width="512" xmlns="http://www.w3.org/2000/svg"><g><g><path d="m444.5 463.091-189.016 20.705-187.984-20.705c-11.046 0-20-8.954-20-20v-241.091c0-11.046 8.954-20 20-20h377c11.046 0 20 8.954 20 20v241.091c0 11.046-8.954 20-20 20z" fill="#f9f7f8"/><path d="m483.795 504.5h-455.59c-11.435 0-20.705-9.27-20.705-20.705 0-11.435 9.27-20.705 20.705-20.705h455.591c11.435 0 20.705 9.27 20.705 20.705-.001 11.435-9.271 20.705-20.706 20.705z" fill="#d5e3f4"/><path d="m483.795 463.091h-40c11.435 0 20.705 9.27 20.705 20.705 0 11.435-9.27 20.705-20.705 20.705h40c11.435 0 20.705-9.27 20.705-20.705 0-11.435-9.27-20.705-20.705-20.705z" fill="#b3ceec"/><path d="m444.5 182h-40c11.046 0 20 8.954 20 20v241.091c0 11.046-8.954 20-20 20h40c11.046 0 20-8.954 20-20v-241.091c0-11.046-8.954-20-20-20z" fill="#e5eef9"/><g><path d="m77.5 428.091v-211.091c0-2.761 2.239-5 5-5h347c2.761 0 5 2.239 5 5v211.091c0 2.761-2.239 5-5 5h-347c-2.761 0-5-2.239-5-5z" fill="#6c7fd8"/><g><path d="m343.667 300.281h-201.46c-9.303 0-16.844-7.542-16.844-16.844 0-9.303 7.542-16.844 16.844-16.844h201.46z" fill="#f9f7f8"/><g><path d="m369.389 266.592h-27.75c-9.303 0-16.844 7.542-16.844 16.844 0 9.303 7.542 16.844 16.844 16.844h28.154c9.507 0 17.174-7.876 16.834-17.459-.325-9.126-8.104-16.229-17.238-16.229z" fill="#fd8087"/></g></g></g><g><path d="m371.786 230.664h-231.572c-11.046 0-20-8.954-20-20v-119.171h271.573v119.171c-.001 11.046-8.955 20-20.001 20z" fill="#bc7c63"/><path d="m331.786 75.5c11.046 0 20 8.954 20 20v115.164c0 11.046-8.954 20-20 20h40c11.046 0 20-8.954 20-20v-135.164z" fill="#aa6a51"/><path d="m256.326 183.721c-12.127 0-21.958-9.831-21.958-21.958v-57.445h43.917v57.445c-.001 12.127-9.832 21.958-21.959 21.958z" fill="#e5eef9"/><path d="m120.214 63.322v34.277c0 6.765 4.671 12.634 11.264 14.152l118.013 27.171c4.492 1.034 9.166.984 13.635-.145l117.697-29.752c6.447-1.63 10.963-7.43 10.963-14.08v-31.623c0-11.046-8.954-20-20-20h-231.572c-11.046 0-20 8.955-20 20z" fill="#d1a08f"/><path d="m371.786 43.323h-40c11.046 0 20 8.954 20 20v53.043l29.037-7.34c6.447-1.63 10.964-7.43 10.964-14.08v-31.623c-.001-11.046-8.955-20-20.001-20z" fill="#c68d7a"/></g></g><g><path d="m483.795 455.591h-14.813c1.924-3.753 3.018-8 3.018-12.5v-241.091c0-15.164-12.336-27.5-27.5-27.5h-45.214v-111.178c0-15.164-12.336-27.5-27.5-27.5h-13.847c-4.142 0-7.5 3.358-7.5 7.5s3.358 7.5 7.5 7.5h13.847c6.893 0 12.5 5.607 12.5 12.5v31.623c0 3.22-2.18 6.02-5.301 6.808l-117.697 29.752c-3.3.834-6.797.871-10.114.108-39.338-9.057-78.675-18.114-118.013-27.171-3.207-.738-5.447-3.552-5.447-6.843v-34.277c0-6.893 5.607-12.5 12.5-12.5h187.796c4.142 0 7.5-3.358 7.5-7.5s-3.358-7.5-7.5-7.5h-18.243v-13.8c0-12.143-9.879-22.022-22.022-22.022h-63.489c-12.143 0-22.022 9.879-22.022 22.022v13.8h-62.019c-15.164 0-27.5 12.336-27.5 27.5v111.178h-45.215c-15.164 0-27.5 12.336-27.5 27.5v241.091c0 4.5 1.093 8.747 3.018 12.5h-14.813c-15.553 0-28.205 12.652-28.205 28.204s12.652 28.205 28.205 28.205h64.84c4.142 0 7.5-3.358 7.5-7.5s-3.358-7.5-7.5-7.5h-64.84c-7.282 0-13.205-5.924-13.205-13.205s5.923-13.205 13.205-13.205h455.591c7.281 0 13.205 5.924 13.205 13.205s-5.924 13.205-13.206 13.205h-360.802c-4.142 0-7.5 3.358-7.5 7.5s3.358 7.5 7.5 7.5h360.803c15.552 0 28.204-12.652 28.204-28.205s-12.652-28.204-28.205-28.204zm-266.562-433.569c0-3.872 3.15-7.022 7.022-7.022h63.489c3.872 0 7.022 3.15 7.022 7.022v13.8h-77.534v-13.8zm-103.054 197.478c3.689 10.841 13.963 18.664 26.035 18.664h231.572c12.073 0 22.346-7.823 26.035-18.664h29.179v206.091h-342v-206.091zm141.824-72.342c4.662 0 10.154-1.227 14.781-2.581v17.186c0 7.973-6.486 14.458-14.458 14.458s-14.458-6.486-14.458-14.458v-16.9c4.442 1.191 9.665 2.295 14.135 2.295zm-126.208-28.098 97.072 22.35v20.353c0 16.244 13.215 29.458 29.458 29.458s29.458-13.215 29.458-29.458v-20.978l96.876-24.489c.553-.14 1.092-.306 1.625-.485v94.852c0 6.893-5.607 12.5-12.5 12.5h-231.57c-6.893 0-12.5-5.607-12.5-12.5v-92.199c.679.228 1.37.432 2.081.596zm-62.295 336.531c-6.893 0-12.5-5.607-12.5-12.5v-241.091c0-6.893 5.607-12.5 12.5-12.5h45.214v15h-30.214c-6.893 0-12.5 5.607-12.5 12.5v211.091c0 6.893 5.607 12.5 12.5 12.5h347c6.893 0 12.5-5.607 12.5-12.5v-211.091c0-6.893-5.607-12.5-12.5-12.5h-30.214v-15h45.214c6.893 0 12.5 5.607 12.5 12.5v241.091c0 6.893-5.607 12.5-12.5 12.5z"/><path d="m142.207 307.781h227.586c13.367 0 24.56-11.502 24.334-24.764-.223-13.052-11.16-24.016-24.737-23.925-75.728 0-151.455 0-227.183 0-13.424 0-24.345 10.921-24.345 24.345 0 13.423 10.921 24.344 24.345 24.344zm227.183-33.689c4.161 0 9.142 3.828 9.673 8.215.67 5.313-3.485 10.474-9.27 10.474h-28.154c-5.152 0-9.344-4.192-9.344-9.345 0-5.152 4.192-9.344 9.344-9.344zm-227.183 0h176.956c-1.201 2.879-1.868 6.035-1.868 9.345 0 3.309.666 6.465 1.868 9.344h-176.956c-5.153 0-9.345-4.192-9.345-9.345 0-5.152 4.192-9.344 9.345-9.344z"/><path d="m368.942 323.521h-226.814c-4.142 0-7.5 3.358-7.5 7.5s3.358 7.5 7.5 7.5h226.814c4.142 0 7.5-3.358 7.5-7.5s-3.358-7.5-7.5-7.5z"/><path d="m142.128 369.259h142.443c4.142 0 7.5-3.358 7.5-7.5s-3.358-7.5-7.5-7.5h-142.443c-4.142 0-7.5 3.358-7.5 7.5s3.358 7.5 7.5 7.5z"/><path d="m347.101 384.999h-204.973c-4.142 0-7.5 3.358-7.5 7.5s3.358 7.5 7.5 7.5h204.973c4.142 0 7.5-3.358 7.5-7.5s-3.358-7.5-7.5-7.5z"/></g></g></svg>