<svg id="Capa_1" enable-background="new 0 0 512 512" height="512" viewBox="0 0 512 512" width="512" xmlns="http://www.w3.org/2000/svg"><g><g><circle cx="120.098" cy="78.703" fill="#fd8087" r="71.203"/><g><circle cx="391.902" cy="78.703" fill="#6fd7a3" r="71.203"/></g><g><g><path d="m207.697 504.5h-175.197c-13.807 0-25-11.193-25-25v-34.569c0-62.186 50.412-112.598 112.598-112.598 62.186 0 112.598 50.412 112.598 112.598v34.569c.001 13.807-11.192 25-24.999 25z" fill="#f9f7f8"/><path d="m107.325 390.886-21.203 82.389c-.394 1.53-.33 3.142.184 4.636l9.15 26.59h48.208l9.167-26.639c.503-1.462.575-3.04.208-4.542l-20.166-82.433h-25.548z" fill="#b3dafe"/><path d="m128.039 406.93h-15.882c-8.834 0-15.995-7.161-15.995-15.995v-32.172h47.871v32.172c.001 8.834-7.16 15.995-15.994 15.995z" fill="#b3dafe"/><path d="m120.098 366.106c-40.875 0-74.011-33.136-74.011-74.011v-40.102c0-40.875 33.136-74.011 74.011-74.011 40.875 0 74.011 33.136 74.011 74.011v40.102c.001 40.875-33.135 74.011-74.011 74.011z" fill="#ffdfcf"/><path d="m154.11 186.265v105.83c0 33.942-22.857 62.526-54.011 71.254 6.364 1.783 13.066 2.757 20 2.757 40.875 0 74.011-33.136 74.011-74.011v-40.103c0-28.608-16.243-53.408-40-65.727z" fill="#ffcebf"/><path d="m46.087 253.822 15.647-25.44c7.84-12.747 24.191-17.146 37.308-10.037 12.204 4.98 29.908 4.98 42.112 0 13.117-7.109 29.468-2.71 37.308 10.037l15.647 25.44v-41.463c0-41.128-33.136-74.469-74.011-74.469-40.875 0-74.011 33.341-74.011 74.469z" fill="#685e68"/></g><g><path d="m479.5 504.5h-175.197c-13.807 0-25-11.193-25-25v-34.569c0-62.186 50.412-112.598 112.598-112.598 62.186 0 112.598 50.412 112.598 112.598v34.569c.001 13.807-11.192 25-24.999 25z" fill="#f9f7f8"/><path d="m379.128 390.886-21.203 82.389c-.394 1.53-.33 3.142.184 4.636l9.15 26.59h48.208l9.167-26.639c.503-1.462.575-3.04.208-4.542l-20.166-82.433h-25.548z" fill="#fd8087"/><path d="m399.842 406.93h-15.882c-8.834 0-15.995-7.161-15.995-15.995v-32.172h47.871v32.172c.001 8.834-7.16 15.995-15.994 15.995z" fill="#fd8087"/><g><path d="m391.902 366.106c-40.875 0-74.011-33.136-74.011-74.011v-40.102c0-40.875 33.136-74.011 74.011-74.011h74.011v114.114c0 40.874-33.136 74.01-74.011 74.01z" fill="#ffdfcf"/><path d="m425.913 177.982v114.114c0 33.942-22.857 62.526-54.011 71.254 6.364 1.783 13.066 2.757 20 2.757 40.875 0 74.011-33.136 74.011-74.011v-114.114z" fill="#ffcebf"/><path d="m317.89 253.822h75.732c44.632 0 80.814-36.405 80.814-81.313 0-19.119-15.404-34.618-34.406-34.618h-45.945c-42.081 0-76.195 34.324-76.195 76.666z" fill="#bc7c63"/></g></g></g></g><g><path d="m90.191 108.611c3.535 2.929 7.071 2.929 10.606 0l19.301-19.301 19.301 19.301c3.535 2.929 7.071 2.929 10.606 0 2.929-2.929 2.929-7.678 0-10.606l-19.301-19.301 19.301-19.301c2.929-2.929 2.929-7.678 0-10.606-2.929-2.929-7.678-2.929-10.606 0l-19.301 19.301-19.301-19.301c-2.929-2.929-7.678-2.929-10.606 0-2.929 2.929-2.929 7.678 0 10.606l19.301 19.301-19.301 19.3c-2.929 2.929-2.929 7.678 0 10.607z"/><path d="m431.66 53.531c-2.929-2.929-7.678-2.929-10.606 0l-39.66 39.66-18.644-18.644c-2.929-2.929-7.678-2.929-10.606 0-2.929 2.929-2.929 7.678 0 10.606l18.974 18.974c5.606 5.607 14.945 5.608 20.552 0l39.991-39.991c2.928-2.928 2.928-7.677-.001-10.605z"/><path d="m183.67 343.028c11.211-13.964 17.94-31.673 17.94-50.933 0-26.579 0-53.158 0-79.736 0-28.728-14.785-54.034-37.092-68.675 21.186-14.504 34.283-38.731 34.283-64.981 0-43.397-35.306-78.703-78.703-78.703-12.11 0-23.73 2.68-34.535 7.964-3.721 1.82-5.262 6.312-3.442 10.032 1.819 3.721 6.312 5.261 10.032 3.442 8.736-4.271 18.138-6.438 27.945-6.438 35.126 0 63.703 28.577 63.703 63.703 0 24.127-13.673 46.138-35.079 56.918-8.911-3.373-18.555-5.231-28.624-5.231-10.07 0-19.713 1.858-28.624 5.231-21.405-10.78-35.079-32.791-35.079-56.918 0-14.597 4.802-28.328 13.887-39.708 2.584-3.237 2.055-7.957-1.182-10.541-3.238-2.584-7.956-2.055-10.541 1.182-11.068 13.866-17.164 31.292-17.164 49.067 0 26.25 13.097 50.477 34.284 64.981-22.307 14.641-37.092 39.947-37.092 68.675v79.736c0 19.259 6.729 36.968 17.94 50.933-35.09 21.868-56.527 60.087-56.527 101.903v34.569c0 17.92 14.58 32.5 32.5 32.5h175.197c17.92 0 32.5-14.58 32.5-32.5v-34.569c0-41.816-21.438-80.035-56.527-101.903zm-130.083-130.669c0-36.927 29.837-66.969 66.512-66.969 36.674 0 66.511 30.042 66.511 66.969v14.954c-9.609-17.063-30.693-25.205-48.627-15.776-10.274 4.059-25.494 4.058-35.768 0-17.863-9.392-39.11-1.27-48.627 15.776v-14.954zm0 43.584 14.536-23.632c6.355-10.332 17.889-11.177 28.086-7.023 14.065 5.741 33.713 5.74 47.779 0 10.232-4.168 21.643-3.453 28.086 7.023l14.536 23.632v36.152c0 36.674-29.837 66.511-66.512 66.511-36.674 0-66.511-29.837-66.511-66.511zm92.152 219.477-7.427 21.58h-37.506l-7.409-21.532c-.036-.104-.04-.217-.013-.325l15.679-60.924c6.79.898 15.005.854 21.804.034l14.885 60.847c.027.107.022.218-.013.32zm-9.205-84.485c0 4.684-3.811 8.495-8.495 8.495h-15.881c-4.684 0-8.495-3.811-8.495-8.495v-18.994c5.31 1.092 10.807 1.666 16.436 1.666 5.628 0 11.125-.574 16.436-1.666v18.994zm-121.534 88.565v-34.569c0-37.685 19.897-72.031 52.251-90.852 6.371 5.44 13.577 9.928 21.412 13.215v23.641c0 6.372 2.554 12.156 6.686 16.393l-16.492 64.078c-.762 2.962-.639 6.056.356 8.945l5.73 16.649h-52.443c-9.649 0-17.5-7.851-17.5-17.5zm210.197 0c0 9.649-7.851 17.5-17.5 17.5h-53.521l5.747-16.7c.973-2.828 1.111-5.858.4-8.764l-15.66-64.014c4.243-4.253 6.871-10.119 6.871-16.587v-23.641c7.835-3.288 15.041-7.775 21.412-13.215 32.353 18.821 52.251 53.168 52.251 90.852z"/><path d="m455.473 343.028c11.211-13.964 17.94-31.673 17.94-50.933v-81.544c5.461-11.538 8.523-24.437 8.523-38.043 0-19.72-13.557-36.311-31.794-40.871 13.029-14.33 20.462-33.117 20.462-52.934.001-43.397-35.305-78.703-78.702-78.703s-78.703 35.306-78.703 78.703c0 26.653 13.384 51.072 35.031 65.496-22.768 15.057-37.839 40.964-37.839 70.357v77.54c0 19.26 6.729 36.968 17.94 50.933-35.09 21.868-56.527 60.087-56.527 101.903v34.568c0 17.92 14.58 32.5 32.5 32.5h133.697c4.142 0 7.5-3.358 7.5-7.5s-3.358-7.5-7.5-7.5h-12.021l5.747-16.7c.973-2.828 1.111-5.858.4-8.764l-15.66-64.014c4.243-4.253 6.871-10.119 6.871-16.587v-23.641c7.835-3.287 15.04-7.775 21.412-13.215 32.352 18.821 52.25 53.167 52.25 90.852v34.569c0 9.649-7.851 17.5-17.5 17.5h-8.587c-4.142 0-7.5 3.358-7.5 7.5s3.358 7.5 7.5 7.5h8.587c17.92 0 32.5-14.58 32.5-32.5v-34.569c0-41.816-21.437-80.035-56.527-101.903zm-127.274-264.325c0-35.126 28.577-63.703 63.703-63.703s63.703 28.577 63.703 63.703c0 20.531-9.853 39.705-26.458 51.687h-35.062c-10.579 0-20.696 2.004-30.022 5.622-21.882-10.633-35.864-32.801-35.864-57.309zm-2.809 135.853c0-38.138 30.816-69.166 68.695-69.166h45.945c14.836 0 26.906 12.166 26.906 27.119 0 40.701-32.889 73.813-73.314 73.813h-68.232zm0 46.766h68.232c25.578 0 48.648-10.996 64.791-28.53v59.304c0 36.674-29.837 66.511-66.512 66.511-36.674 0-66.511-29.837-66.511-66.511zm-38.587 218.178v-34.569c0-37.684 19.898-72.031 52.251-90.852 6.371 5.44 13.577 9.928 21.412 13.215v23.641c0 6.372 2.553 12.156 6.686 16.393l-16.491 64.078c-.762 2.962-.639 6.056.356 8.945l5.729 16.649h-52.443c-9.649 0-17.5-7.851-17.5-17.5zm130.739-4.08-7.426 21.58h-37.506l-7.409-21.532c-.036-.104-.04-.217-.013-.325l15.679-60.924c6.79.898 15.005.854 21.804.034l14.885 60.847c.026.107.021.218-.014.32zm-9.205-84.485c0 4.684-3.811 8.495-8.495 8.495h-15.881c-4.684 0-8.495-3.811-8.495-8.495v-18.994c5.31 1.092 10.807 1.666 16.436 1.666 5.628 0 11.125-.574 16.436-1.666v18.994z"/></g></g></svg>