<svg id="Capa_1" enable-background="new 0 0 511.866 511.866" height="512" viewBox="0 0 511.866 511.866" width="512" xmlns="http://www.w3.org/2000/svg"><g><g><path d="m72.396 373.78 11.363 23.023c1.087 2.202 3.188 3.728 5.618 4.081l25.409 3.692c6.12.889 8.563 8.409 4.135 12.725l-18.386 17.921c-1.758 1.714-2.561 4.183-2.146 6.603l4.34 25.304c1.045 6.094-5.352 10.742-10.826 7.865l-22.727-11.947c-2.174-1.143-4.77-1.143-6.944 0l-22.727 11.947c-5.474 2.877-11.871-1.77-10.826-7.865l4.34-25.304c.415-2.42-.387-4.889-2.146-6.603l-18.383-17.921c-4.428-4.316-1.985-11.836 4.135-12.725l25.409-3.692c2.43-.353 4.531-1.879 5.618-4.081l11.363-23.023c2.737-5.544 10.644-5.544 13.381 0z" fill="#ffe177"/><g><path d="m118.921 417.301c4.428-4.316 1.985-11.836-4.135-12.725l-25.409-3.692c-2.43-.353-4.531-1.879-5.618-4.081l-11.363-23.023c-2.737-5.545-10.644-5.545-13.381 0l-11.363 23.023c-.533 1.079-1.311 1.993-2.251 2.689 16.132 15.427 26.708 31.427 17.461 63.272 2.034-.84 4.347-.752 6.316.283l22.727 11.947c5.474 2.877 11.871-1.77 10.826-7.865l-4.34-25.304c-.415-2.42.387-4.89 2.146-6.603z" fill="#ffd15b"/></g><g><path d="m98.075 139.712c8.887-6.38 16.049-15.367 20.177-26.38 11.099-29.607-3.906-62.606-33.516-73.704s-62.611 3.906-73.711 33.513c-11.099 29.607 3.906 62.606 33.516 73.704 9.213 3.453 18.753 4.376 27.86 3.122l14.319 14.665c4.03 4.128 11.04 1.323 11.109-4.446z" fill="#f9f7f8"/><path d="m84.736 39.628c-13.452-5.042-27.598-4.682-40.078-.027.026.01.052.017.078.027 29.61 11.098 44.616 44.097 33.516 73.704-4.128 11.012-10.397 19.012-20.177 26.38-4.511 3.398-9.191 5.683-13.303 7.216 9.141 3.382 18.598 4.283 27.629 3.04l14.319 14.665c4.03 4.128 11.04 1.323 11.109-4.446l.245-20.475c8.887-6.38 16.049-15.367 20.177-26.38 11.1-29.607-3.905-62.605-33.515-73.704z" fill="#e5eef9"/></g><path d="m103.445 258.268h7.307c3.094 0 5.603-2.508 5.603-5.602v-6.984c0-10.737-8.705-19.441-19.443-19.441h-12.588v-6.96c0-10.744-8.793-19.868-19.536-19.667-10.418.195-18.803 8.7-18.803 19.164v7.463h-12.588c-10.738 0-19.443 8.704-19.443 19.441v63.508c0 10.737 8.705 19.441 19.443 19.441h63.514c10.738 0 19.443-8.704 19.443-19.441v-6.984c0-3.094-2.509-5.602-5.603-5.602h-7.809c-10.465 0-18.971-8.385-19.166-18.802-.201-10.742 8.924-19.534 19.669-19.534z" fill="#fd8087"/><path d="m103.445 258.268h7.307c3.094 0 5.603-2.508 5.603-5.603v-6.984c0-10.737-8.705-19.441-19.443-19.441h-12.588v-6.96c0-10.744-8.793-19.868-19.536-19.667-10.418.195-18.803 8.7-18.803 19.164v7.463h10.927c10.738 0 19.443 8.704 19.443 19.441v6.984c0 3.094-2.509 5.603-5.603 5.603h-7.307c-10.745 0-19.87 8.792-19.668 19.534.195 10.417 8.701 18.802 19.166 18.802h7.809c3.094 0 5.603 2.508 5.603 5.602v6.984c0 10.737-8.705 19.441-19.443 19.441h40c10.738 0 19.443-8.704 19.443-19.441v-6.984c0-3.094-2.509-5.602-5.603-5.602h-7.809c-10.465 0-18.971-8.385-19.166-18.802-.202-10.742 8.923-19.534 19.668-19.534z" fill="#fe646f"/><g><g><path d="m470.041 474.023h-38.04v-68.65h38.04c18.957 0 34.325 15.368 34.325 34.325 0 18.957-15.367 34.325-34.325 34.325z" fill="#918291"/></g><g><path d="m194.435 405.373c-18.959 0-34.328 15.368-34.328 34.325 0 18.957 15.369 34.325 34.328 34.325h257.198v-68.65z" fill="#6fd7a3"/></g><path d="m411.633 405.373h40v68.65h-40z" fill="#3ec3a4"/><g><path d="m470.041 148.91h-98.152v-68.65h98.152c18.957 0 34.325 15.368 34.325 34.325 0 18.957-15.367 34.325-34.325 34.325z" fill="#918291"/><path d="m194.435 80.259c-18.959 0-34.328 15.368-34.328 34.325 0 18.957 15.369 34.325 34.328 34.325h189.382v-68.65z" fill="#6fd7a3"/><path d="m343.817 80.259h40v68.65h-40z" fill="#3ec3a4"/></g><g><g><path d="m470.041 311.466h-151.162v-68.65h151.162c18.957 0 34.325 15.368 34.325 34.325 0 18.957-15.367 34.325-34.325 34.325z" fill="#918291"/></g><g><path d="m194.435 242.816c-18.959 0-34.328 15.368-34.328 34.325 0 18.957 15.369 34.325 34.328 34.325h137.802v-68.65z" fill="#6fd7a3"/></g><path d="m292.237 242.816h40v68.65h-40z" fill="#3ec3a4"/></g></g></g><g><path d="m115.865 397.154-25.38-3.67-11.363-23.023c-2.539-5.144-7.68-8.339-13.417-8.339-5.736 0-10.877 3.195-13.416 8.339l-11.334 23.001-25.409 3.692c-5.677.825-10.305 4.726-12.078 10.182-1.772 5.456-.322 11.332 3.786 15.336l18.375 17.885-4.34 25.304c-.97 5.654 1.311 11.26 5.951 14.632 4.642 3.373 10.68 3.809 15.756 1.139l22.691-11.947 22.727 11.947c10.733 5.643 23.768-3.758 21.708-15.771l-4.352-25.269 18.387-17.921c4.108-4.004 5.559-9.88 3.786-15.335-1.773-5.456-6.401-9.357-12.078-10.182zm-20.565 32.697c-3.527 3.438-5.135 8.388-4.303 13.242l4.324 25.224-22.655-11.909c-4.641-2.292-9.282-2.292-13.923 0l-22.656 11.908 4.326-25.223c.833-4.854-.776-9.805-4.303-13.242l-18.325-17.864 25.327-3.68c4.874-.708 9.084-3.767 11.265-8.184l11.33-22.95 11.328 22.95c2.18 4.417 6.391 7.476 11.264 8.183l25.328 3.683z"/><path d="m87.368 32.605c-13.836-5.186-29.171-5.469-43.181-.796-3.93 1.311-6.053 5.558-4.742 9.487 1.311 3.93 5.559 6.052 9.487 4.742 23.75-7.918 50.654 3.853 61 26.606 9.715 21.362 2.78 47.328-16.231 60.975-1.937 1.391-3.097 3.619-3.126 6.003l-.216 18.002-12.592-12.896c-1.662-1.702-4.03-2.517-6.39-2.19-21.556 2.966-43.042-8.935-52.034-28.708-7.881-17.331-4.881-38.557 7.53-53.01 2.699-3.143 2.339-7.877-.804-10.576-3.142-2.698-7.877-2.339-10.576.804-16.197 18.863-20.09 46.37-9.803 68.991 11.108 24.427 37.064 39.812 63.886 37.77l11.779 12.063c8.404 8.606 23.829 2.576 23.975-9.595l.202-16.827c22.529-18.303 30.06-50.619 18.057-77.015-7.162-15.744-20.024-27.759-36.221-33.83z"/><path d="m32.966 97.339c1.564 3.694 5.815 5.554 9.583 4.139 3.816-1.432 5.804-5.856 4.347-9.663-1.489-3.891-6.016-5.872-9.879-4.266-3.759 1.562-5.641 6.022-4.051 9.79z"/><path d="m58.406 98.639c2.301 3.495 7.217 4.339 10.6 1.927 3.284-2.34 4.086-7.036 1.805-10.349-2.296-3.335-6.968-4.208-10.335-1.978-3.422 2.267-4.315 6.993-2.07 10.4z"/><path d="m83.156 98.639c2.254 3.423 7 4.313 10.39 2.07 3.41-2.256 4.331-7.003 2.08-10.4-2.26-3.412-7.008-4.316-10.4-2.07-3.421 2.266-4.313 6.997-2.07 10.4z"/><path d="m103.445 265.768h7.307c7.225 0 13.103-5.878 13.103-13.103v-6.984c0-14.855-12.086-26.941-26.943-26.941h-5.093c-.292-14.342-12.628-26.949-27.17-26.625-14.414.27-26.143 12.21-26.163 26.625h-5.087c-14.856 0-26.943 12.086-26.943 26.941v63.508c0 14.855 12.087 26.941 26.943 26.941h63.514c14.856 0 26.943-12.086 26.943-26.941v-6.984c0-7.225-5.878-13.103-13.103-13.103h-7.809c-6.315 0-11.549-5.133-11.667-11.442-.125-6.588 6.013-11.892 12.168-11.892zm-.503 38.335h5.912v5.086c0 6.584-5.357 11.941-11.943 11.941h-63.514c-6.585 0-11.943-5.357-11.943-11.941v-63.508c0-6.584 5.358-11.941 11.943-11.941h12.587c4.142 0 7.5-3.358 7.5-7.5v-7.463c0-6.314 5.133-11.547 11.444-11.666 6.589-.124 11.895 6.014 11.895 12.168v6.96c0 4.142 3.358 7.5 7.5 7.5h12.588c6.585 0 11.943 5.357 11.943 11.941v5.086h-5.41c-14.579 0-27.443 12.435-27.167 27.174.271 14.428 12.232 26.163 26.665 26.163z"/><path d="m470.041 397.873h-275.609c-23.062 0-41.825 18.763-41.825 41.825s18.763 41.825 41.825 41.825h199.444c4.003 0 7.875-4.272 7.459-8.288-.357-3.927-4.824-7.361-8.718-6.712h-198.185c-14.791 0-26.825-12.034-26.825-26.825s12.034-26.825 26.825-26.825h249.701v53.65c-6.829 0-13.868-.473-20.683-.092-3.975.221-7.055 3.499-7.084 7.425-.058 3.828 3.695 7.667 7.498 7.667h46.177c23.062 0 41.825-18.763 41.825-41.825s-18.762-41.825-41.825-41.825zm0 68.65h-10.908v-53.65h10.908c14.791 0 26.825 12.034 26.825 26.825s-12.034 26.825-26.825 26.825z"/><path d="m194.432 156.41h275.609c23.062 0 41.825-18.763 41.825-41.825s-18.763-41.825-41.825-41.825h-275.609c-23.062 0-41.825 18.763-41.825 41.825s18.763 41.825 41.825 41.825zm302.434-41.826c0 14.792-12.034 26.825-26.825 26.825h-78.725v-53.65h78.725c14.791 0 26.825 12.034 26.825 26.825zm-302.434-26.825h181.885v53.65h-181.885c-14.791 0-26.825-12.034-26.825-26.825s12.034-26.825 26.825-26.825z"/><path d="m470.041 235.316h-275.609c-23.062 0-41.825 18.763-41.825 41.825s18.763 41.825 41.825 41.825h275.609c23.062 0 41.825-18.763 41.825-41.825s-18.762-41.825-41.825-41.825zm-302.434 41.825c0-14.791 12.034-26.825 26.825-26.825h130.305v53.65h-130.305c-14.791 0-26.825-12.033-26.825-26.825zm302.434 26.825h-130.304v-53.65h130.305c14.791 0 26.825 12.034 26.825 26.825-.001 14.792-12.035 26.825-26.826 26.825z"/><path d="m202.205 50.471h139.514c4.143 0 7.5-3.358 7.5-7.5s-3.357-7.5-7.5-7.5h-139.514c-4.142 0-7.5 3.358-7.5 7.5s3.358 7.5 7.5 7.5z"/><path d="m202.205 198.046c-4.142 0-7.5 3.358-7.5 7.5s3.358 7.5 7.5 7.5h203.529c4.143 0 7.5-3.358 7.5-7.5s-3.357-7.5-7.5-7.5z"/><path d="m373.346 375.621c4.143 0 7.5-3.358 7.5-7.5s-3.357-7.5-7.5-7.5h-171.141c-4.142 0-7.5 3.358-7.5 7.5s3.358 7.5 7.5 7.5z"/></g></g></svg>