<svg id="Capa_1" enable-background="new 0 0 512 512" height="512" viewBox="0 0 512 512" width="512" xmlns="http://www.w3.org/2000/svg"><g><g><g><g><g><path d="m399.535 46.642c0-3.152-2.569-5.707-5.738-5.707h-71.253-273.211c-1.272 0-2.304 1.026-2.304 2.291v458.982c0 1.265 1.031 2.291 2.304 2.291h347.899c1.272 0 2.304-1.026 2.304-2.291v-455.566z" fill="#d5e3f4"/></g><g><g><path d="m362.33 82.384-51.82-20.311-21.798-52.895c-1.08-1.074-2.545-1.678-4.073-1.678l-270.825.001c-1.272 0-2.304 1.026-2.304 2.291v458.982c0 1.265 1.032 2.291 2.304 2.291h347.899c1.272 0 2.304-1.026 2.304-2.291v-382.34c0-1.519-.607-2.976-1.687-4.05z" fill="#f9f7f8"/></g><g><path d="m362.33 82.384-38.313-38.099v424.476c0 1.267-1.037 2.304-2.304 2.304h40c1.272 0 2.304-1.026 2.304-2.291v-382.34c0-1.519-.607-2.976-1.687-4.05z" fill="#e5eef9"/></g><path d="m288.992 9.456 73.019 72.611c.726.722.212 1.956-.815 1.956h-62.651c-6.362 0-11.52-5.129-11.52-11.455v-62.302c0-1.021 1.241-1.532 1.967-.81z" fill="#d5e3f4"/></g></g></g><g><g><path d="m497.175 171.365c-9.43-6.865-31.537 13.441-45.45 32.553l28.438 20.701c14.322-19.675 26.442-46.39 17.012-53.254z" fill="#ffe177"/><path d="m442.716 197.082c-42.647 43.683-104.239 132.244-120.209 174.665-1.657 4.401.328 9.364 4.129 12.132l20.711 15.076c3.802 2.767 9.135 3.131 12.814.202 35.461-28.233 100.811-114.059 129.275-168.066z" fill="#ffe177"/><path d="m442.716 197.082c-.613.628-1.231 1.268-1.852 1.914l17.852 12.995c-28.464 54.007-93.814 139.833-129.275 168.066-1.418 1.129-3.082 1.764-4.81 1.966.591.688 1.262 1.316 2.005 1.857l20.711 15.076c3.802 2.767 9.135 3.131 12.814.202 35.461-28.233 100.811-114.059 129.275-168.066z" fill="#ffd15b"/></g><g fill="#6c7fd8"><path d="m326.637 383.879-17.573 24.141c-4.117 5.656-2.87 13.579 2.786 17.697 5.656 4.117 13.579 2.87 17.697-2.786l17.573-24.141z"/><path d="m427.242 325.235-.002-.002c-5.958-4.992-6.854-13.813-2.025-19.904 3.752-4.732 8.232-10.52 12.461-16.328 12.764-17.534 21.648-31.792 27.342-41.668 1.533-2.658.807-6.036-1.673-7.842l-34.441-25.071c-6.404-4.661-7.816-13.631-3.155-20.035 4.661-6.404 13.631-7.816 20.035-3.155l38.55 28.062c11.816 8.601 15.377 24.727 8.283 37.51-5.827 10.495-16.064 27.529-31.751 49.08-4.527 6.218-9.245 12.317-13.183 17.284-5.014 6.321-14.257 7.251-20.441 2.069z"/></g></g></g><g><path d="m63.263 89.5h164.76c4.143 0 7.5-3.358 7.5-7.5s-3.357-7.5-7.5-7.5h-164.76c-4.143 0-7.5 3.358-7.5 7.5s3.357 7.5 7.5 7.5z"/><path d="m63.263 177.5h249c4.143 0 7.5-3.358 7.5-7.5s-3.357-7.5-7.5-7.5h-249c-4.143 0-7.5 3.358-7.5 7.5s3.357 7.5 7.5 7.5z"/><path d="m63.263 226.783h249c4.143 0 7.5-3.358 7.5-7.5s-3.357-7.5-7.5-7.5h-249c-4.143 0-7.5 3.358-7.5 7.5s3.357 7.5 7.5 7.5z"/><path d="m63.263 276.065h249c4.143 0 7.5-3.358 7.5-7.5s-3.357-7.5-7.5-7.5h-249c-4.143 0-7.5 3.358-7.5 7.5s3.357 7.5 7.5 7.5z"/><path d="m63.263 325.348h98c4.143 0 7.5-3.358 7.5-7.5s-3.357-7.5-7.5-7.5h-98c-4.143 0-7.5 3.358-7.5 7.5s3.357 7.5 7.5 7.5z"/><path d="m229.563 426.629c3.469 2.073 6.767 1.621 9.894-1.356 6.382-7.475 26.496-26.029 42.731-22.17 4.03.958 8.073-1.533 9.031-5.563s-1.533-8.073-5.562-9.031c-11.936-2.835-23.764 1.198-33.577 6.949 5.179-15.899 14.172-47.274-7.16-55.688-39.632-15.632-50.018 48.402-49.062 72.971.16 4.139 3.63 7.352 7.786 7.203 4.139-.161 7.363-3.646 7.202-7.786-.494-12.703 3.894-68.164 28.57-58.434 14.974 5.897-8.28 55.42-12.329 63.235-1.753 3.386-.686 7.542 2.476 9.67z"/><path d="m501.589 165.3c-14.402-10.477-36.078 10.557-47.01 23.057l-4.382-3.19c-9.736-7.087-23.424-4.932-30.513 4.805-5.068 6.962-5.387 15.933-1.612 23.078-3.704 4.313-7.388 8.719-11.038 13.192v-179.6c0-7.282-5.938-13.207-13.238-13.207h-70.055l-29.74-29.575c-2.503-2.489-5.828-3.86-9.362-3.86h-270.825c-5.406 0-9.804 4.393-9.804 9.792v52.281c0 4.142 3.357 7.5 7.5 7.5s7.5-3.358 7.5-7.5v-47.073h260.516v57.567c0 10.452 8.532 18.956 19.02 18.956h57.972v203.727c-19.639 29.867-34.683 57-41.029 73.856-1.89 5.022-1.199 10.6 1.564 15.198l-14.053 19.302c-6.545 8.99-4.555 21.629 4.436 28.174 8.774 6.386 21.745 4.397 28.174-4.436l13.984-19.21c2.296.586 4.604.716 6.923.391v55.04h-337.507v-371.232c0-4.142-3.357-7.5-7.5-7.5s-7.5 3.358-7.5 7.5v376.44c0 5.399 4.397 9.791 9.804 9.791h25.715v23.644c0 5.399 4.397 9.791 9.804 9.791h347.898c5.406 0 9.805-4.393 9.805-9.792v-140.207c7.12-8.342 14.539-17.456 22.102-27.167 8.568 3.053 18.765.124 24.402-6.985 5.279-6.603 10.454-13.437 15.381-20.314 2.412-3.367 1.639-8.052-1.729-10.464-3.366-2.412-8.053-1.639-10.465 1.729-4.773 6.663-9.788 13.285-14.922 19.706-2.23 2.813-7.027 3.154-9.788.945-2.826-2.403-3.235-6.549-.926-9.462 4.719-5.951 8.974-11.527 12.647-16.574 13.375-18.374 22.487-33.164 27.777-42.336 3.452-5.989 1.837-13.578-3.758-17.651l-34.441-25.071c-2.796-2.033-3.529-6.776-1.505-9.557 2.221-3.05 6.51-3.724 9.558-1.505l37.852 27.554c8.43 6.983 12.61 17.911 6.836 28.314-3.79 6.828-8.213 14.189-13.146 21.879-2.236 3.486-1.224 8.125 2.263 10.362 3.484 2.236 8.125 1.224 10.362-2.263 5.104-7.957 9.692-15.594 13.637-22.699 7.824-14.097 5.351-31.423-5.385-42.781 8.544-14.087 22.445-41.7 7.801-52.36zm-207.063-92.733v-47.031l51.273 50.987h-47.254c-2.217-.001-4.019-1.775-4.019-3.956zm73.092 4.499-.313-.312c-.002-.002-.003-.004-.005-.006l-28.473-28.313h53.209v196.796c-7.095 9.269-13.971 18.661-20.519 27.972v-186.769c0-3.54-1.385-6.868-3.899-9.368zm-44.135 341.451c-2.092 2.372-4.499 2.751-7.219 1.137-2.304-1.677-2.813-4.916-1.137-7.219l13.159-18.078 8.355 6.082zm68.552 78.483h-337.506v-18.435h307.184c5.406 0 9.805-4.392 9.805-9.791v-69.418c6.17-5.518 13.085-12.418 20.519-20.446v118.09zm39.577-212.413c-3.553 4.881-7.683 10.292-12.274 16.083-5.79 7.303-6.202 17.025-1.75 24.582-18.586 23.897-38.289 49.082-62.097 68.037-.841.668-2.511.488-3.729-.397-6.9-5.022-13.721-10.183-20.713-15.077-1.217-.886-1.901-2.423-1.523-3.425 12.725-33.802 58.271-102.786 99.258-150.779l29.055 21.15c-5.193 8.921-13.8 22.754-26.227 39.826zm49.528-101.082c6.676-5.147 10.477-6.082 11.602-6.013.415 1.004.746 4.814-2.036 12.64-1.944 5.468-4.985 11.737-8.768 18.139l-15.18-11.05c4.843-5.439 9.808-10.188 14.382-13.716z"/></g></g></svg>