<svg id="Capa_1" enable-background="new 0 0 512 512" height="512" viewBox="0 0 512 512" width="512" xmlns="http://www.w3.org/2000/svg"><g><g><g><g><path d="m437.019 374.018h-392.761c-15.048 0-27.246-12.199-27.246-27.246v-284.7h447.254v284.699c-.001 15.048-12.199 27.247-27.247 27.247z" fill="#f9f7f8"/><path d="m424.265 62.073v284.699c0 15.048-12.198 27.246-27.246 27.246h40c15.048 0 27.246-12.199 27.246-27.246v-284.699z" fill="#e5eef9"/><g><g fill="#6c7fd8"><path d="m82.414 247.592h-.044c-12.719 0-23.031-10.311-23.031-23.031v-.011c0-12.719 10.311-23.031 23.031-23.031h.044c12.719 0 23.031 10.311 23.031 23.031v.011c0 12.72-10.311 23.031-23.031 23.031z"/><path d="m82.414 323.964h-.044c-12.719 0-23.031-10.311-23.031-23.031v-.012c0-12.719 10.311-23.031 23.031-23.031h.044c12.719 0 23.031 10.311 23.031 23.031v.012c0 12.72-10.311 23.031-23.031 23.031z"/><path d="m161.537 171.22h-.044c-12.719 0-23.031-10.311-23.031-23.031v-.011c0-12.719 10.311-23.031 23.031-23.031h.044c12.719 0 23.031 10.311 23.031 23.031v.011c0 12.72-10.311 23.031-23.031 23.031z"/><path d="m82.414 171.22h-.044c-12.719 0-23.031-10.311-23.031-23.031v-.011c0-12.719 10.311-23.031 23.031-23.031h.044c12.719 0 23.031 10.311 23.031 23.031v.011c0 12.72-10.311 23.031-23.031 23.031z"/></g><path d="m161.537 247.592h-.044c-12.719 0-23.031-10.311-23.031-23.031v-.011c0-12.719 10.311-23.031 23.031-23.031h.044c12.719 0 23.031 10.311 23.031 23.031v.011c0 12.72-10.311 23.031-23.031 23.031z" fill="#d5e3f4"/><path d="m161.537 323.964h-.044c-12.719 0-23.031-10.311-23.031-23.031v-.012c0-12.719 10.311-23.031 23.031-23.031h.044c12.719 0 23.031 10.311 23.031 23.031v.012c0 12.72-10.311 23.031-23.031 23.031z" fill="#6c7fd8"/><path d="m240.661 171.22h-.044c-12.719 0-23.031-10.311-23.031-23.031v-.011c0-12.719 10.311-23.031 23.031-23.031h.044c12.719 0 23.031 10.311 23.031 23.031v.011c-.001 12.72-10.312 23.031-23.031 23.031z" fill="#6c7fd8"/><path d="m240.661 247.592h-.044c-12.719 0-23.031-10.311-23.031-23.031v-.011c0-12.719 10.311-23.031 23.031-23.031h.044c12.719 0 23.031 10.311 23.031 23.031v.011c-.001 12.72-10.312 23.031-23.031 23.031z" fill="#d5e3f4"/><path d="m319.784 171.22h-.044c-12.719 0-23.031-10.311-23.031-23.031v-.011c0-12.719 10.311-23.031 23.031-23.031h.044c12.719 0 23.031 10.311 23.031 23.031v.011c-.001 12.72-10.312 23.031-23.031 23.031z" fill="#6c7fd8"/><path d="m319.784 247.592h-.044c-12.719 0-23.031-10.311-23.031-23.031v-.011c0-12.719 10.311-23.031 23.031-23.031h.044c12.719 0 23.031 10.311 23.031 23.031v.011c-.001 12.72-10.312 23.031-23.031 23.031z" fill="#6c7fd8"/><path d="m398.907 171.22h-.044c-12.719 0-23.031-10.311-23.031-23.031v-.011c0-12.719 10.311-23.031 23.031-23.031h.044c12.719 0 23.031 10.311 23.031 23.031v.011c0 12.72-10.312 23.031-23.031 23.031z" fill="#d5e3f4"/><path d="m398.907 247.592h-.044c-12.719 0-23.031-10.311-23.031-23.031v-.011c0-12.719 10.311-23.031 23.031-23.031h.044c12.719 0 23.031 10.311 23.031 23.031v.011c0 12.72-10.312 23.031-23.031 23.031z" fill="#6c7fd8"/></g></g><g><path d="m440.12 7.5h-25.956c-5.652 0-10.235 4.579-10.235 10.227v1.435c0 2.656 1.017 5.226 2.889 7.111 3.387 3.411 5.479 8.106 5.479 13.291 0 11.144-9.664 20.033-21.075 18.753-8.713-.977-15.714-8.054-16.603-16.771-.605-5.93 1.54-11.372 5.314-15.209 1.885-1.917 2.952-4.488 2.952-7.175v-1.435c0-5.648-4.582-10.227-10.235-10.227h-23.854c-5.652 0-10.235 4.579-10.235 10.227v1.435c0 2.656 1.017 5.225 2.889 7.111 3.386 3.411 5.479 8.106 5.479 13.291 0 11.143-9.663 20.032-21.072 18.753-8.714-.976-15.716-8.054-16.605-16.771-.605-5.93 1.54-11.372 5.314-15.209 1.885-1.917 2.952-4.488 2.952-7.175v-1.435c0-5.648-4.582-10.227-10.235-10.227h-133.291c-5.652 0-10.235 4.579-10.235 10.227v1.435c0 2.656 1.017 5.226 2.889 7.111 3.386 3.411 5.479 8.106 5.479 13.291 0 11.145-9.666 20.034-21.077 18.753-8.713-.978-15.712-8.055-16.601-16.771-.605-5.93 1.54-11.371 5.314-15.209 1.885-1.917 2.952-4.488 2.952-7.175v-1.435c0-5.648-4.582-10.227-10.235-10.227h-23.854c-5.652 0-10.235 4.579-10.235 10.227v1.435c0 2.656 1.017 5.226 2.889 7.111 3.386 3.411 5.479 8.106 5.479 13.291 0 11.145-9.666 20.034-21.077 18.753-8.713-.978-15.712-8.055-16.601-16.771-.605-5.93 1.54-11.371 5.314-15.209 1.885-1.917 2.952-4.488 2.952-7.175v-1.435c0-5.648-4.582-10.227-10.235-10.227h-25.953c-13.335 0-24.145 10.742-24.145 23.992v49.444h447.254v-49.444c-.001-13.25-10.811-23.992-24.146-23.992z" fill="#fd8087"/></g><g><path d="m440.12 7.5h-25.956c-2.001 0-3.862.583-5.439 1.575 9.084 3.445 15.54 12.18 15.54 22.417v49.444h40v-49.444c0-13.25-10.81-23.992-24.145-23.992z" fill="#fe646f"/></g></g><g><path d="m474.526 504.5h-237.02c-11.301 0-20.462-9.161-20.462-20.462v-121.873h277.945v121.873c-.001 11.301-9.162 20.462-20.463 20.462z" fill="#bc7c63"/><path d="m454.988 333.361v150.677c0 11.301-9.161 20.462-20.462 20.462h40c11.301 0 20.462-9.161 20.462-20.462v-121.873z" fill="#aa6a51"/><path d="m356.358 456.49h-.016c-12.407 0-22.466-10.058-22.466-22.466v-58.743h44.947v58.743c0 12.408-10.058 22.466-22.465 22.466z" fill="#e5eef9"/><path d="m217.044 333.354v35.056c0 6.919 4.781 12.922 11.529 14.474l120.782 27.788c4.598 1.058 9.381 1.007 13.955-.149l120.458-30.428c6.598-1.667 11.221-7.599 11.221-14.4v-32.342c0-11.297-9.164-20.455-20.469-20.455h-237.007c-11.305.001-20.469 9.159-20.469 20.456z" fill="#d1a08f"/><path d="m474.519 312.899h-39.985c11.297 0 20.455 9.158 20.455 20.455v54.011l28.779-7.27c6.598-1.667 11.221-7.599 11.221-14.4v-32.342c-.001-11.296-9.165-20.454-20.47-20.454z" fill="#c68d7a"/></g></g><g><path d="m82.37 255.092h.044c16.835 0 30.531-13.696 30.531-30.542 0-16.834-13.696-30.53-30.575-30.53-16.834 0-30.53 13.696-30.53 30.542 0 16.834 13.696 30.53 30.53 30.53zm.044-46.072c8.564 0 15.531 6.967 15.531 15.542 0 8.563-6.967 15.53-15.531 15.53h-.044c-8.563 0-15.53-6.967-15.53-15.542 0-8.564 6.967-15.53 15.574-15.53z"/><path d="m82.37 331.464h.044c16.835 0 30.531-13.696 30.531-30.542 0-16.834-13.696-30.531-30.575-30.531-16.834 0-30.53 13.696-30.53 30.542 0 16.835 13.696 30.531 30.53 30.531zm.044-46.073c8.564 0 15.531 6.967 15.531 15.542 0 8.563-6.967 15.53-15.531 15.53h-.044c-8.563 0-15.53-6.967-15.53-15.542 0-8.563 6.967-15.53 15.574-15.53z"/><path d="m161.493 178.72h.044c16.835 0 30.531-13.696 30.531-30.542 0-16.834-13.696-30.53-30.575-30.53-16.834 0-30.53 13.696-30.53 30.542 0 16.834 13.696 30.53 30.53 30.53zm.044-46.073c8.564 0 15.531 6.967 15.531 15.542 0 8.563-6.967 15.531-15.531 15.531h-.044c-8.563 0-15.53-6.967-15.53-15.542 0-8.564 6.967-15.531 15.574-15.531z"/><path d="m82.37 178.72h.044c16.835 0 30.531-13.696 30.531-30.542 0-16.834-13.696-30.53-30.575-30.53-16.834 0-30.53 13.696-30.53 30.542 0 16.834 13.696 30.53 30.53 30.53zm.044-46.073c8.564 0 15.531 6.967 15.531 15.542 0 8.563-6.967 15.531-15.531 15.531h-.044c-8.563 0-15.53-6.967-15.53-15.542 0-8.564 6.967-15.531 15.574-15.531z"/><path d="m161.493 255.092h.044c16.835 0 30.531-13.696 30.531-30.542 0-16.834-13.696-30.53-30.575-30.53-16.834 0-30.53 13.696-30.53 30.542 0 16.834 13.696 30.53 30.53 30.53zm.044-46.072c8.564 0 15.531 6.967 15.531 15.542 0 8.563-6.967 15.53-15.531 15.53h-.044c-8.563 0-15.53-6.967-15.53-15.542 0-8.564 6.967-15.53 15.574-15.53z"/><path d="m161.493 331.464h.044c16.835 0 30.531-13.696 30.531-30.542 0-16.834-13.696-30.531-30.575-30.531-16.834 0-30.53 13.696-30.53 30.542 0 16.835 13.696 30.531 30.53 30.531zm.044-46.073c8.564 0 15.531 6.967 15.531 15.542 0 8.563-6.967 15.53-15.531 15.53h-.044c-8.563 0-15.53-6.967-15.53-15.542 0-8.563 6.967-15.53 15.574-15.53z"/><path d="m240.616 178.72h.045c16.834 0 30.53-13.696 30.53-30.542 0-16.834-13.696-30.53-30.575-30.53-16.834 0-30.53 13.696-30.53 30.542 0 16.834 13.696 30.53 30.53 30.53zm.045-46.073c8.563 0 15.53 6.967 15.53 15.542 0 8.563-6.967 15.531-15.53 15.531h-.045c-8.563 0-15.53-6.967-15.53-15.542 0-8.564 6.967-15.531 15.575-15.531z"/><path d="m240.616 255.092h.045c16.834 0 30.53-13.696 30.53-30.542 0-16.834-13.696-30.53-30.575-30.53-16.834 0-30.53 13.696-30.53 30.542 0 16.834 13.696 30.53 30.53 30.53zm.045-46.072c8.563 0 15.53 6.967 15.53 15.542 0 8.563-6.967 15.53-15.53 15.53h-.045c-8.563 0-15.53-6.967-15.53-15.542 0-8.564 6.967-15.53 15.575-15.53z"/><path d="m319.739 178.72h.045c16.834 0 30.53-13.696 30.53-30.542 0-16.834-13.696-30.53-30.575-30.53-16.834 0-30.53 13.696-30.53 30.542 0 16.834 13.696 30.53 30.53 30.53zm.045-46.073c8.563 0 15.53 6.967 15.53 15.542 0 8.563-6.967 15.531-15.53 15.531h-.045c-8.563 0-15.53-6.967-15.53-15.542 0-8.564 6.967-15.531 15.575-15.531z"/><path d="m319.739 255.092h.045c16.834 0 30.53-13.696 30.53-30.542 0-16.834-13.696-30.53-30.575-30.53-16.834 0-30.53 13.696-30.53 30.542 0 16.834 13.696 30.53 30.53 30.53zm.045-46.072c8.563 0 15.53 6.967 15.53 15.542 0 8.563-6.967 15.53-15.53 15.53h-.045c-8.563 0-15.53-6.967-15.53-15.542 0-8.564 6.967-15.53 15.575-15.53z"/><path d="m398.862 178.72h.045c16.834 0 30.53-13.696 30.53-30.542 0-16.834-13.696-30.53-30.575-30.53-16.834 0-30.53 13.696-30.53 30.542 0 16.834 13.696 30.53 30.53 30.53zm.045-46.073c8.563 0 15.53 6.967 15.53 15.542 0 8.563-6.967 15.531-15.53 15.531h-.045c-8.563 0-15.53-6.967-15.53-15.542 0-8.564 6.967-15.531 15.575-15.531z"/><path d="m398.862 255.092h.045c16.834 0 30.53-13.696 30.53-30.542 0-16.834-13.696-30.53-30.575-30.53-16.834 0-30.53 13.696-30.53 30.542 0 16.834 13.696 30.53 30.53 30.53zm.045-46.072c8.563 0 15.53 6.967 15.53 15.542 0 8.563-6.967 15.53-15.53 15.53h-.045c-8.563 0-15.53-6.967-15.53-15.542 0-8.564 6.967-15.53 15.575-15.53z"/><path d="m474.526 305.399h-2.761c0-91.302 0-182.605 0-273.907.001-17.365-14.196-31.492-31.645-31.492h-25.956c-15.844 0-23.566 20.581-12.668 31.557 7.512 7.568.673 20.446-9.438 19.307-5.16-.579-9.45-4.912-9.978-10.079-.348-3.418.818-6.767 3.201-9.19 10.828-11.009 3.347-31.595-12.629-31.595h-23.854c-15.844 0-23.565 20.58-12.669 31.557 2.129 2.145 3.302 4.989 3.302 8.008 0 6.76-6.059 12.054-12.737 11.3-5.162-.578-9.452-4.911-9.979-10.078-.348-3.418.818-6.768 3.201-9.19 10.826-11.011 3.345-31.597-12.631-31.597h-133.293c-15.846 0-23.566 20.581-12.668 31.557 2.128 2.145 3.301 4.988 3.301 8.007 0 6.766-6.06 12.048-12.74 11.3-5.161-.58-9.449-4.912-9.977-10.079-.348-3.417.818-6.767 3.201-9.189 10.829-11.01 3.345-31.596-12.63-31.596h-23.854c-15.846 0-23.565 20.582-12.668 31.558 2.129 2.143 3.301 4.987 3.301 8.006 0 6.765-6.06 12.049-12.739 11.3-5.161-.579-9.45-4.913-9.978-10.079-.348-3.417.818-6.767 3.201-9.189 10.828-11.01 3.345-31.596-12.63-31.596h-25.956c-17.449 0-31.644 14.127-31.644 31.492v98.841c0 4.142 3.357 7.5 7.5 7.5s7.5-3.358 7.5-7.5v-41.896h432.254v216.963h-45.896v-14.284c0-12.325-10.032-22.353-22.363-22.353h-64.979c-12.331 0-22.363 10.027-22.363 22.353v14.284h-63.657c-15.419 0-27.963 12.543-27.963 27.962v33.156h-165.287c-10.888 0-19.746-8.858-19.746-19.746v-182.772c0-4.142-3.357-7.5-7.5-7.5s-7.5 3.358-7.5 7.5v182.771c0 19.159 15.587 34.746 34.746 34.746h165.285v102.521c0 15.418 12.544 27.962 27.963 27.962h183.178c4.143 0 7.5-3.358 7.5-7.5s-3.357-7.5-7.5-7.5h-183.178c-7.147 0-12.963-5.815-12.963-12.962v-94.535c.765.265 1.543.505 2.348.69l99.485 22.889v20.942c0 16.523 13.442 29.965 29.981 29.965 16.523 0 29.966-13.442 29.966-29.965v-21.578l99.281-25.079c.641-.162 1.269-.353 1.884-.566v97.237c0 7.147-5.814 12.962-12.962 12.962h-23.965c-4.143 0-7.5 3.358-7.5 7.5s3.357 7.5 7.5 7.5h23.965c15.418 0 27.962-12.543 27.962-27.962v-150.677c0-15.418-12.544-27.962-27.962-27.962zm-450.014-231.962v-11.365-30.58c0-9.094 7.467-16.492 16.644-16.492h25.956c3.018 0 3.44 4.547 1.935 6.079-5.523 5.618-8.23 13.355-7.428 21.229 1.247 12.225 11.016 22.092 23.226 23.463 15.293 1.713 29.413-10.731 29.413-26.206 0-7.006-2.719-13.604-7.656-18.575-1.547-1.557-.715-5.989 2.023-5.989h23.854c3.016 0 3.441 4.546 1.935 6.079-5.523 5.616-8.23 13.354-7.428 21.229 1.246 12.223 11.014 22.091 23.225 23.462 15.294 1.708 29.414-10.727 29.414-26.206 0-7.005-2.719-13.602-7.656-18.575-1.545-1.557-.72-5.989 2.023-5.989h133.293c3.015 0 3.441 4.545 1.936 6.078-5.524 5.616-8.231 13.354-7.429 21.23 1.248 12.227 11.018 22.095 23.231 23.463 15.291 1.715 29.407-10.739 29.407-26.207 0-7.004-2.719-13.601-7.656-18.576-1.548-1.556-.713-5.988 2.023-5.988h23.854c3.015 0 3.441 4.545 1.936 6.078-5.524 5.616-8.231 13.354-7.429 21.23 1.247 12.226 11.017 22.093 23.228 23.462 15.292 1.714 29.411-10.735 29.411-26.206 0-7.005-2.72-13.603-7.657-18.576-1.548-1.556-.713-5.988 2.023-5.988h25.956c9.179 0 16.646 7.398 16.646 16.492v30.58 11.364zm291.651 217.678c0-4.054 3.303-7.353 7.363-7.353h64.979c4.061 0 7.363 3.298 7.363 7.353v14.284h-79.706v-14.284zm55.16 142.909c0 8.252-6.714 14.965-14.981 14.965-8.252 0-14.966-6.713-14.966-14.965v-17.491c10.149 2.725 19.845 2.541 29.947-.298zm110.608-61.2-120.458 30.428c-3.405.86-7.013.899-10.437.111l-120.782-27.789c-3.362-.773-5.71-3.72-5.71-7.165 0-.007-.001-.013-.001-.019v-35.029c0-7.147 5.815-12.962 12.963-12.962h237.021c7.147 0 12.962 5.815 12.962 12.962v32.334c-.001 3.371-2.286 6.303-5.558 7.129z"/></g></g></svg>