<svg id="Capa_1" enable-background="new 0 0 512 512" height="512" viewBox="0 0 512 512" width="512" xmlns="http://www.w3.org/2000/svg"><g><g><g><g><path d="m296.477 408.106-126.039 14.179 28.854-87.202h73.023z" fill="#e5eef9"/><path d="m464.106 301.345h-456.606v-225.43c0-10.148 8.227-18.374 18.374-18.374h419.857c10.148 0 18.375 8.227 18.375 18.374z" fill="#f9f7f8"/><path d="m445.732 57.54h-40c10.148 0 18.374 8.227 18.374 18.375v261.362c0 10.148-8.227 18.375-18.374 18.375h40c10.148 0 18.374-8.227 18.374-18.375v-261.362c0-10.148-8.226-18.375-18.374-18.375z" fill="#e5eef9"/><g><path d="m7.5 292.14v45.136c0 10.148 8.227 18.375 18.374 18.375h419.857c10.148 0 18.375-8.227 18.375-18.375v-45.136z" fill="#d5e3f4"/></g><path d="m325.814 436.464h-180.022c-7.831 0-14.179-6.348-14.179-14.179 0-7.831 6.348-14.179 14.179-14.179h180.022c7.831 0 14.179 6.348 14.179 14.179 0 7.83-6.348 14.179-14.179 14.179z" fill="#d5e3f4"/></g><g><path d="m142.156 216.883h-92.084c-4.226 0-7.652-3.426-7.652-7.652v-102.559c0-4.226 3.426-7.652 7.652-7.652h92.084c4.226 0 7.652 3.426 7.652 7.652v102.558c0 4.227-3.426 7.653-7.652 7.653z" fill="#6c7fd8"/><g><g><path d="m130.094 216.883c0-18.767-15.214-33.98-33.98-33.98-18.767 0-33.98 15.214-33.98 33.98z" fill="#b3dafe"/></g><path d="m96.114 193.032c-12.336 0-22.336-10-22.336-22.335v-11.754c0-12.336 10-22.335 22.335-22.335h22.336v34.089c0 12.335-10 22.335-22.335 22.335z" fill="#ffdfcf"/><path d="m73.778 159.354h22.855c13.469 0 24.388-10.919 24.388-24.388 0-5.734-4.649-10.383-10.383-10.383h-13.865c-12.7 0-22.994 10.295-22.994 22.994v11.777z" fill="#bc7c63"/></g></g><path d="m194.187 57.54h82.595v234.6h-82.595z" fill="#ffe177"/></g><g><path d="m485.067 454.46h-225.096c-10.732 0-19.433-8.7-19.433-19.433v-112.528h263.962v112.529c0 10.732-8.7 19.432-19.433 19.432z" fill="#bc7c63"/><path d="m464.5 322.499v112.529c0 10.732-8.7 19.433-19.433 19.433h40c10.732 0 19.432-8.7 19.432-19.433v-112.529z" fill="#aa6a51"/><path d="m372.844 408.866h-.015c-11.783 0-21.335-9.552-21.335-21.335v-55.788h42.686v55.788c-.001 11.782-9.553 21.335-21.336 21.335z" fill="#e5eef9"/><path d="m240.539 291.925v33.292c0 6.571 4.54 12.272 10.949 13.746l114.706 26.39c4.366 1.005 8.909.956 13.253-.141l114.398-28.897c6.266-1.583 10.656-7.217 10.656-13.675v-30.715c0-10.728-8.703-19.426-19.439-19.426h-225.084c-10.736 0-19.439 8.697-19.439 19.426z" fill="#d1a08f"/><path d="m485.061 272.499h-40c10.736 0 19.44 8.703 19.44 19.439v51.789l29.344-7.412c6.266-1.583 10.656-7.217 10.656-13.675v-30.715c-.001-10.729-8.704-19.426-19.44-19.426z" fill="#c68d7a"/></g></g><g><path d="m157.308 106.673c0-8.355-6.797-15.152-15.152-15.152h-92.084c-8.355 0-15.152 6.797-15.152 15.152v102.558c0 8.355 6.797 15.152 15.152 15.152h12.062 67.961 12.062c8.355 0 15.152-6.797 15.152-15.152v-102.558zm-86.6 102.71c1.579-5.379 4.842-10.127 9.352-13.558 4.639 2.975 10.147 4.708 16.055 4.708 5.898 0 11.397-1.727 16.031-4.693 4.489 3.432 7.768 8.188 9.358 13.543zm25.925-57.529h-15.355v-4.277c0-8.544 6.951-15.495 15.495-15.495h13.866c1.589 0 2.883 1.293 2.883 2.883-.001 9.313-7.577 16.889-16.889 16.889zm0 15c5.146 0 10.008-1.233 14.316-3.408v7.25c0 8.18-6.655 14.835-14.835 14.835s-14.835-6.655-14.835-14.835v-3.842zm45.675 42.377c0 .083-.068.152-.152.152h-5.267c-1.781-9.616-6.93-18.343-14.5-24.566 2.27-4.206 3.561-9.015 3.561-14.12v-23.192c1.653-3.851 2.572-8.089 2.572-12.538 0-9.861-8.022-17.883-17.883-17.883h-13.866c-16.815 0-30.495 13.68-30.495 30.495v23.119c0 5.092 1.285 9.889 3.544 14.088-7.606 6.213-12.726 14.915-14.49 24.598h-5.26c-.084 0-.152-.068-.152-.152v-102.559c0-.083.068-.152.152-.152h92.084c.084 0 .152.068.152.152z"/><path d="m42.42 244.082c-4.142 0-7.5 3.358-7.5 7.5s3.358 7.5 7.5 7.5h107.388c4.142 0 7.5-3.358 7.5-7.5s-3.358-7.5-7.5-7.5z"/><path d="m222.984 137.771h25c4.142 0 7.5-3.358 7.5-7.5s-3.358-7.5-7.5-7.5h-25c-4.142 0-7.5 3.358-7.5 7.5s3.358 7.5 7.5 7.5z"/><path d="m222.984 166.854h25c4.142 0 7.5-3.358 7.5-7.5s-3.358-7.5-7.5-7.5h-25c-4.142 0-7.5 3.358-7.5 7.5s3.358 7.5 7.5 7.5z"/><path d="m247.984 195.938c4.142 0 7.5-3.358 7.5-7.5s-3.358-7.5-7.5-7.5h-25c-4.142 0-7.5 3.358-7.5 7.5s3.358 7.5 7.5 7.5z"/><path d="m315.898 137.59h107.508c4.142 0 7.5-3.358 7.5-7.5s-3.358-7.5-7.5-7.5h-107.508c-4.142 0-7.5 3.358-7.5 7.5s3.358 7.5 7.5 7.5z"/><path d="m315.898 166.763h107.508c4.142 0 7.5-3.358 7.5-7.5s-3.358-7.5-7.5-7.5h-107.508c-4.142 0-7.5 3.358-7.5 7.5s3.358 7.5 7.5 7.5z"/><path d="m380.873 180.938h-64.974c-4.142 0-7.5 3.358-7.5 7.5s3.358 7.5 7.5 7.5h64.974c4.142 0 7.5-3.358 7.5-7.5s-3.358-7.5-7.5-7.5z"/><path d="m315.898 108.416h107.508c4.142 0 7.5-3.358 7.5-7.5s-3.358-7.5-7.5-7.5h-107.508c-4.142 0-7.5 3.358-7.5 7.5s3.358 7.5 7.5 7.5z"/><path d="m485.067 264.999h-13.461v-189.085c0-14.267-11.607-25.875-25.875-25.875h-168.949-82.595-109.687c-4.142 0-7.5 3.358-7.5 7.5s3.358 7.5 7.5 7.5h102.187v219.601h-171.687v-208.726c0-5.996 4.878-10.875 10.875-10.875h29.125c4.142 0 7.5-3.358 7.5-7.5s-3.358-7.5-7.5-7.5h-29.125c-14.268.001-25.875 11.608-25.875 25.875v261.362c0 14.267 11.607 25.875 25.875 25.875h156.23l-12.393 37.455h-23.919c-11.954 0-21.679 9.725-21.679 21.679s9.725 21.679 21.679 21.679h88.777c3.694 10.471 13.684 17.997 25.402 17.997h176.078c4.142 0 7.5-3.358 7.5-7.5s-3.358-7.5-7.5-7.5h-176.079c-6.58 0-11.933-5.353-11.933-11.933v-89.242c.578.184 1.166.348 1.767.486l94.188 21.67v19.588c0 15.9 12.936 28.835 28.851 28.835 15.9 0 28.835-12.936 28.835-28.835v-20.199l94.001-23.745c.449-.113.884-.253 1.32-.393v91.835c0 6.58-5.353 11.933-11.933 11.933h-19.076c-4.142 0-7.5 3.358-7.5 7.5s3.358 7.5 7.5 7.5h19.076c14.851 0 26.933-12.082 26.933-26.933v-143.096c0-14.851-12.082-26.933-26.933-26.933zm-28.461-189.085v189.085h-31.616v-13.188c0-11.913-9.697-21.605-21.615-21.605h-61.71c-11.919 0-21.616 9.692-21.616 21.605v13.188h-35.767v-199.959h161.449c5.997 0 10.875 4.878 10.875 10.874zm-121.557 189.085v-13.188c0-3.642 2.968-6.605 6.616-6.605h61.71c3.647 0 6.615 2.963 6.615 6.605v13.188zm-133.362-199.959h67.595v199.959h-9.311c-12.324 0-22.733 8.323-25.921 19.641h-32.363zm-186.687 272.236v-37.636h218.039v48.51h-207.164c-5.997.001-10.875-4.878-10.875-10.874zm182.904 25.875h35.135v37.455h-47.528zm-58.791 59.133c0-3.683 2.996-6.679 6.679-6.679h87.247v13.358h-87.247c-3.683.001-6.679-2.995-6.679-6.679zm247.566-34.754c0 7.629-6.207 13.835-13.851 13.835-7.629 0-13.835-6.207-13.835-13.835v-16.137c9.364 2.5 18.366 2.306 27.686-.272zm105.328-58.487-114.398 28.897c-3.175.802-6.541.838-9.734.104l-114.706-26.39c-3.021-.695-5.13-3.342-5.13-6.437v-33.285c0-6.58 5.353-11.933 11.933-11.933h225.096c6.58 0 11.933 5.353 11.933 11.933v30.708c-.001 3.027-2.054 5.661-4.994 6.403z"/></g></g></svg>