<svg id="Capa_1" enable-background="new 0 0 512 512" height="512" viewBox="0 0 512 512" width="512" xmlns="http://www.w3.org/2000/svg"><g><g><g><g><g><path d="m203.116 77.584h-168.304v-59.968c0-5.587 4.529-10.116 10.116-10.116h148.072c5.587 0 10.116 4.529 10.116 10.116z" fill="#685e68"/><path d="m220.312 504.5h-202.696c-5.587 0-10.116-4.529-10.116-10.116v-433.243c0-5.587 4.529-10.116 10.116-10.116h202.696c5.587 0 10.116 4.529 10.116 10.116v433.243c-.001 5.587-4.53 10.116-10.116 10.116z" fill="#f9f7f8"/></g><path d="m7.555 112.429h222.92v351.845h-222.92z" fill="#b3dafe"/></g><g><g><path d="m308.884 71.025h168.304v-53.41c0-5.587-4.529-10.116-10.116-10.116h-148.072c-5.587 0-10.116 4.529-10.116 10.116z" fill="#685e68"/><path d="m291.688 504.5h202.696c5.587 0 10.116-4.529 10.116-10.116v-433.243c0-5.587-4.529-10.116-10.116-10.116h-202.696c-5.587 0-10.116 4.529-10.116 10.116v433.243c.001 5.587 4.53 10.116 10.116 10.116z" fill="#f9f7f8"/><path d="m494.384 51.025h-40c5.587 0 10.116 4.529 10.116 10.116v433.243c0 5.587-4.529 10.116-10.116 10.116h40c5.587 0 10.116-4.529 10.116-10.116v-433.243c0-5.587-4.529-10.116-10.116-10.116z" fill="#e5eef9"/></g><g><path d="m281.524 112.859h222.92v365.341h-222.92z" fill="#b3dafe" transform="matrix(-1 0 0 -1 785.969 591.059)"/><path d="m464.445 112.859h40v365.341h-40z" fill="#8ac9fe"/><path d="m220.36 51.025h-40c5.587 0 10.116 4.529 10.116 10.116v433.243c0 5.587-4.529 10.116-10.116 10.116h40c5.587 0 10.116-4.529 10.116-10.116v-433.243c0-5.587-4.529-10.116-10.116-10.116z" fill="#e5eef9"/><path d="m190.476 112.859h40v365.341h-40z" fill="#8ac9fe"/></g></g><path d="m504.5 424.554h-497v69.83c0 5.587 4.529 10.116 10.116 10.116h140.55l97.834-51 97.895 51h140.49c5.587 0 10.116-4.529 10.116-10.116v-69.83z" fill="#685e68"/><g><path d="m464.5 424.554v69.83c0 5.587-4.529 10.116-10.116 10.116h40c5.587 0 10.116-4.529 10.116-10.116v-69.83z" fill="#554e56"/></g><path d="m353.895 504.5h-195.729v-195.159c0-5.587 4.529-10.116 10.116-10.116h175.498c5.587 0 10.116 4.529 10.116 10.116v195.159z" fill="#f9f7f8"/></g><path d="m319.013 504.5h-126.026v-69.241c0-5.587 4.529-10.116 10.116-10.116h105.795c5.587 0 10.116 4.529 10.116 10.116v69.241z" fill="#b3dafe"/></g><g><path d="m158.166 147.933c-4.142 0-7.5 3.358-7.5 7.5v103.304c0 4.142 3.358 7.5 7.5 7.5s7.5-3.358 7.5-7.5v-103.304c0-4.142-3.358-7.5-7.5-7.5z"/><path d="m79.865 147.933c-4.142 0-7.5 3.358-7.5 7.5v230.409c0 4.142 3.358 7.5 7.5 7.5s7.5-3.358 7.5-7.5v-230.409c0-4.142-3.358-7.5-7.5-7.5z"/><path d="m494.385 43.525h-9.696v-25.91c-.001-9.713-7.903-17.615-17.616-17.615h-148.073c-9.713 0-17.615 7.902-17.615 17.616v25.91h-9.696c-9.714 0-17.616 7.902-17.616 17.616v230.584h-36.145v-230.585c0-9.713-7.902-17.616-17.616-17.616h-9.696v-25.91c0-9.713-7.903-17.615-17.616-17.615h-102.317c-4.142 0-7.5 3.358-7.5 7.5s3.358 7.5 7.5 7.5h102.317c1.442 0 2.616 1.173 2.616 2.616v25.91h-153.304v-25.91c0-1.442 1.173-2.616 2.616-2.616h16.229c4.142 0 7.5-3.358 7.5-7.5s-3.359-7.5-7.501-7.5h-16.229c-9.713 0-17.616 7.902-17.616 17.616v25.91h-9.696c-9.713-.001-17.615 7.902-17.615 17.615v433.243c0 9.714 7.902 17.616 17.616 17.616h402.384c4.143 0 7.5-3.358 7.5-7.5s-3.357-7.5-7.5-7.5h-58.605v-64.946h135.55l.056 62.33c0 1.442-1.173 2.616-2.615 2.616h-42.618c-4.143 0-7.5 3.358-7.5 7.5s3.357 7.5 7.5 7.5h42.618c9.713 0 17.615-7.902 17.615-17.616v-433.243c-.001-9.713-7.903-17.616-17.616-17.616zm-178-25.909c0-1.442 1.173-2.616 2.615-2.616h148.073c1.442 0 2.615 1.173 2.615 2.616v25.91h-153.303zm-24.697 40.909h202.696c1.442 0 2.615 1.173 2.615 2.616v44.218h-207.927v-44.218c0-1.442 1.174-2.616 2.616-2.616zm-123.407 233.201c-9.713 0-17.616 7.902-17.616 17.616v107.713h-135.61v-297.126h207.872v171.797zm-150.665-233.201h202.696c1.442 0 2.616 1.173 2.616 2.616v43.788h-207.928v-43.788c0-1.442 1.173-2.616 2.616-2.616zm-2.616 435.859v-29.236c.033-.287.055-.578.055-.875v-32.219h135.61v64.946h-133.049c-1.443 0-2.616-1.173-2.616-2.616zm185.487 2.616v-61.741c0-1.442 1.173-2.615 2.616-2.615h45.397v64.356c-16.004 0-32.009 0-48.013 0zm63.013 0v-64.356h45.397c1.442 0 2.615 1.173 2.615 2.615v61.741zm63.013 0v-61.741c0-9.713-7.902-17.615-17.615-17.615h-105.795c-9.713 0-17.616 7.902-17.616 17.615v61.741h-19.821v-187.659c0-1.442 1.173-2.616 2.616-2.616h175.498c1.442 0 2.615 1.173 2.615 2.616v187.659zm34.882-79.946v-107.713c0-9.713-7.902-17.616-17.615-17.616h-54.707v-171.366h207.872v296.695z"/><path d="m353.834 148.458c-4.143 0-7.5 3.358-7.5 7.5v102.778c0 4.142 3.357 7.5 7.5 7.5s7.5-3.358 7.5-7.5v-102.778c0-4.142-3.357-7.5-7.5-7.5z"/><path d="m432.135 148.458c-4.143 0-7.5 3.358-7.5 7.5v229.883c0 4.142 3.357 7.5 7.5 7.5s7.5-3.358 7.5-7.5v-229.883c0-4.142-3.358-7.5-7.5-7.5z"/><path d="m209.835 334.539h-16.849c-4.142 0-7.5 3.358-7.5 7.5s3.358 7.5 7.5 7.5h16.849c4.142 0 7.5-3.358 7.5-7.5s-3.357-7.5-7.5-7.5z"/><path d="m264.424 334.539h-16.848c-4.142 0-7.5 3.358-7.5 7.5s3.358 7.5 7.5 7.5h16.848c4.143 0 7.5-3.358 7.5-7.5s-3.358-7.5-7.5-7.5z"/><path d="m319.013 334.539h-16.848c-4.143 0-7.5 3.358-7.5 7.5s3.357 7.5 7.5 7.5h16.848c4.143 0 7.5-3.358 7.5-7.5s-3.358-7.5-7.5-7.5z"/><path d="m209.835 372.666h-16.849c-4.142 0-7.5 3.358-7.5 7.5s3.358 7.5 7.5 7.5h16.849c4.142 0 7.5-3.358 7.5-7.5s-3.357-7.5-7.5-7.5z"/><path d="m264.424 372.666h-16.848c-4.142 0-7.5 3.358-7.5 7.5s3.358 7.5 7.5 7.5h16.848c4.143 0 7.5-3.358 7.5-7.5s-3.358-7.5-7.5-7.5z"/><path d="m319.013 372.666h-16.848c-4.143 0-7.5 3.358-7.5 7.5s3.357 7.5 7.5 7.5h16.848c4.143 0 7.5-3.358 7.5-7.5s-3.358-7.5-7.5-7.5z"/></g></g></svg>