<svg id="Capa_1" enable-background="new 0 0 511.511 511.511" height="512" viewBox="0 0 511.511 511.511" width="512" xmlns="http://www.w3.org/2000/svg"><g><g><g><g><path d="m141.974 193.264c-17.061-12.237-30.579-29.824-37.681-51.482-16.811-51.274 8.577-106.23 58.527-126.752 54.181-22.26 115.677 5.023 135.677 59.678 19.035 52.016-7.163 110.337-58.725 130.684-17.064 6.734-34.81 8.587-51.723 6.26l-25.698 26.294c-7.233 7.401-19.812 2.371-19.937-7.971z" fill="#6c7fd8"/></g><g><path d="m408.238 141.593c17.061 12.237 30.579 29.824 37.681 51.482 16.811 51.274-8.576 106.23-58.526 126.752-54.181 22.26-115.677-5.023-135.677-59.678-19.035-52.016 7.163-110.337 58.725-130.684 17.064-6.734 34.81-8.588 51.723-6.26l25.698-26.294c7.233-7.401 19.812-2.371 19.937 7.971z" fill="#f9f7f8"/><path d="m445.918 193.075c-7.101-21.658-20.619-39.245-37.681-51.482l-.441-36.712c-.124-10.343-12.703-15.372-19.937-7.971l-25.698 26.294c-11.247-1.547-22.862-1.234-34.4 1.122 9.446 2.109 28.681 7.372 40.475 17.266 19.358 16.24 30.579 29.824 37.68 51.482 16.812 51.274-8.576 106.23-58.526 126.752-6.317 2.596-12.735 4.509-19.174 5.792 19.15 3.817 39.637 2.234 59.174-5.792 49.952-20.52 75.34-75.477 58.528-126.751z" fill="#e5eef9"/></g></g><g><g><path d="m179.753 475.282c-19.917 3.266-41.017.728-60.694-8.614-50.097-23.784-72.295-83.78-49.748-134.406 23.129-51.932 83.975-75.119 135.751-52.038 51.196 22.823 74.74 83.229 52.408 134.6-7.3 16.794-18.528 30.622-32.121 40.914l.441 36.745c.124 10.342-12.331 15.672-19.74 8.446z" fill="#6fd7a3"/></g><path d="m205.062 280.224c-20.154-8.985-41.683-10.956-61.826-6.953 7.366 1.469 14.683 3.768 21.826 6.953 51.197 22.823 74.74 83.229 52.408 134.599-7.3 16.794-18.527 30.622-32.121 40.914 0 0-14.717 12.563-42.448 18.864 12.333 2.491 24.808 2.655 36.852.68l26.297 25.648c7.408 7.226 19.864 1.896 19.74-8.446l-.441-36.745c13.593-10.292 24.821-24.121 32.121-40.914 22.332-51.371-1.212-111.777-52.408-134.6z" fill="#3ec3a4"/></g></g><g><path d="m256.044 136.785-.522-53.987c-.04-4.117-3.39-7.427-7.498-7.427-.024 0-.05 0-.074 0-4.143.04-7.468 3.43-7.428 7.572l.313 32.383-25.311-36.616c-1.867-2.699-5.272-3.874-8.403-2.895-3.133.978-5.267 3.878-5.267 7.16v55.765c0 4.142 3.357 7.5 7.5 7.5s7.5-3.358 7.5-7.5v-31.726l24.077 34.831c2.185 3.151 5.837 4.49 9.3 3.405 3.532-1.104 5.813-4.398 5.813-8.465z"/><path d="m178.632 90.627c4.143 0 7.5-3.358 7.5-7.5s-3.357-7.5-7.5-7.5h-23.35c-4.143 0-7.5 3.358-7.5 7.5v55.359c0 4.142 3.357 7.5 7.5 7.5h23.35c4.143 0 7.5-3.358 7.5-7.5s-3.357-7.5-7.5-7.5h-15.85v-12.68h14.128c4.143 0 7.5-3.358 7.5-7.5s-3.357-7.5-7.5-7.5h-14.128v-12.68h15.85z"/><path d="m456.144 202.241c-.866-4.051-4.854-6.63-8.901-5.767-4.051.866-6.633 4.852-5.767 8.902 9.578 44.808-14.366 90.023-56.935 107.513-49.417 20.304-107.464-5.258-125.784-55.318-24.167-66.037 32.731-136.523 102.383-126.937 2.363.325 4.726-.489 6.387-2.188l25.696-26.294c2.546-2.603 7.03-.834 7.074 2.819l.441 36.712c.028 2.385 1.189 4.614 3.128 6.004 11.698 8.391 21.119 19.062 28.003 31.719 1.979 3.638 6.533 4.983 10.172 3.005 3.64-1.979 4.984-6.533 3.006-10.172-7.359-13.53-17.225-25.104-29.354-34.448l-.397-33c-.197-16.447-21.166-25.022-32.8-13.124l-23.114 23.651c-16.084-1.636-32.451.329-47.787 5.722 1.725-16.518-.303-33.191-6.055-48.91-21.203-57.945-88.37-87.54-145.57-64.039-52.709 21.655-80.587 81.785-62.803 136.026 6.956 21.216 19.832 39.446 37.353 52.947l.396 33c.197 16.447 21.15 25.043 32.799 13.124l23.123-23.66c15.628 1.526 32.527-.58 47.747-5.794-1.729 16.434.282 33.13 6.087 48.991 21.217 57.982 88.422 87.515 145.571 64.038 49.281-20.246 76.997-72.616 65.901-124.522zm-267.072 1.981c-2.357-.325-4.725.488-6.386 2.188l-25.698 26.294c-2.546 2.602-7.03.835-7.074-2.819l-.44-36.711c-.028-2.385-1.189-4.614-3.128-6.004-16.489-11.828-28.566-28.33-34.925-47.725-15.356-46.832 8.762-98.789 54.25-117.478 49.417-20.302 107.465 5.257 125.783 55.318 5.982 16.347 7.316 33.897 3.906 50.968-26.212 14.288-45.659 39.315-53.502 68.079-15.936 7.21-35.811 10.228-52.786 7.89z"/><path d="m329.234 205.641c4.143 0 7.5-3.358 7.5-7.5s-3.357-7.5-7.5-7.5h-22.46c-4.143 0-7.5 3.358-7.5 7.5v55.359c0 4.142 3.357 7.5 7.5 7.5s7.5-3.358 7.5-7.5v-20.704h13.176c4.143 0 7.5-3.358 7.5-7.5s-3.357-7.5-7.5-7.5h-13.176v-12.155z"/><path d="m397.323 212.634c0-12.127-10.241-21.993-22.829-21.993h-14.834c-.003 0-.006 0-.009 0s-.006 0-.009 0c-4.143 0-7.5 3.358-7.5 7.5v55.767c0 4.142 3.357 7.5 7.5 7.5s7.5-3.358 7.5-7.5v-14.399l17.054 19.357c1.483 1.683 3.552 2.542 5.631 2.542 1.761 0 3.53-.617 4.955-1.873 3.107-2.738 3.407-7.478.67-10.585l-13.644-15.487c9.01-2.944 15.515-11.165 15.515-20.829zm-22.861 6.994-7.32.032v-14.018h7.353c4.244 0 7.829 3.203 7.829 6.993s-3.586 6.993-7.862 6.993z"/><path d="m208.116 273.374c-54.933-24.488-121.245 1.023-145.657 55.837-13.901 31.214-12.532 66.537 3.756 96.909 1.958 3.651 6.502 5.023 10.154 3.065 3.65-1.958 5.022-6.503 3.064-10.154-14.08-26.256-15.272-56.771-3.271-83.718 21.082-47.339 78.471-69.358 125.847-48.239 47.49 21.171 69.285 77.138 48.584 124.759-6.522 15.003-16.817 28.118-29.771 37.925-1.897 1.437-3.001 3.689-2.972 6.069l.44 36.745c.043 3.652-4.398 5.53-7.004 2.987l-26.297-25.647c-1.706-1.663-4.101-2.414-6.45-2.032-19.177 3.145-38.634.382-56.264-7.988-9.942-4.72-18.892-11.062-26.601-18.85-2.915-2.945-7.664-2.967-10.606-.055-2.943 2.914-2.968 7.663-.054 10.606 8.937 9.029 19.309 16.38 30.827 21.849 19.239 9.134 40.358 12.496 61.328 9.796l23.644 23.06c11.76 11.47 32.676 2.749 32.475-13.905l-.396-33.045c13.587-11.065 24.421-25.354 31.455-41.535 23.97-55.137-1.255-119.932-56.231-144.439z"/><path d="m192.476 410.45c4.143 0 7.5-3.358 7.5-7.5v-48.641h8.081c4.143 0 7.5-3.358 7.5-7.5s-3.357-7.5-7.5-7.5h-31.037c-4.143 0-7.5 3.358-7.5 7.5s3.357 7.5 7.5 7.5h7.955v48.641c.001 4.142 3.358 7.5 7.501 7.5z"/><path d="m125.851 402.95v-16.918l8.147-.037c13.052 0 23.67-10.472 23.67-23.343s-10.618-23.343-23.67-23.343h-15.647c-4.143 0-7.5 3.358-7.5 7.5v56.141c0 4.142 3.357 7.5 7.5 7.5s7.5-3.358 7.5-7.5zm16.817-40.298c0 4.522-3.971 8.343-8.704 8.343l-8.113.037v-16.722h8.147c4.699-.001 8.67 3.82 8.67 8.342z"/></g></g></svg>