<svg id="Capa_1" enable-background="new 0 0 512 512" height="512" viewBox="0 0 512 512" width="512" xmlns="http://www.w3.org/2000/svg"><g><g><g><path d="m481.13 110.205c0-3.423-.265-6.786-.773-10.069l15.477-16.258c1.439-1.511 1.71-3.79.667-5.597l-12.461-21.59c-1.043-1.807-3.151-2.711-5.179-2.22l-21.549 5.215c-5.367-4.443-11.453-8.045-18.052-10.61l-6.339-21.544c-.589-2.002-2.426-3.376-4.512-3.376h-24.922c-2.086 0-3.923 1.375-4.512 3.376l-6.25 21.241c-6.635 2.48-12.762 6.006-18.184 10.376l-21.859-5.289c-2.028-.491-4.136.413-5.179 2.22l-12.461 21.59c-1.043 1.807-.771 4.086.667 5.597l15.263 16.033c-1.163 6.917-1.212 14.044-.139 20.975l-15.477 16.258c-1.439 1.511-1.71 3.79-.667 5.597l12.461 21.59c1.043 1.807 3.151 2.711 5.179 2.22l21.549-5.214c5.367 4.443 11.453 8.045 18.052 10.61l6.339 21.543c.589 2.002 2.426 3.376 4.512 3.376h24.922c2.086 0 3.923-1.375 4.512-3.376l6.25-21.241c6.635-2.48 12.763-6.006 18.184-10.376l21.859 5.29c2.028.491 4.136-.413 5.179-2.22l12.461-21.59c1.043-1.807.771-4.086-.667-5.597l-15.263-16.033c.596-3.549.912-7.192.912-10.907zm-32.923 0c0 18.016-14.601 32.621-32.612 32.621-18.011 0-32.612-14.605-32.612-32.621 0-18.016 14.601-32.621 32.612-32.621 18.011 0 32.612 14.605 32.612 32.621z" fill="#6c7fd8"/><g><path d="m287.304 174.991h-30v-50.968c0-3.372-2.747-6.115-6.124-6.115h-92.348c-3.376 0-6.123 2.743-6.123 6.115v50.968h-30v-50.968c0-19.914 16.205-36.115 36.123-36.115h92.348c19.919 0 36.124 16.201 36.124 36.115z" fill="#d5e3f4"/><g><path d="m374.96 430.361h-338.078c-16.227 0-29.382-13.155-29.382-29.382v-181.076h396.842v181.076c0 16.227-13.155 29.382-29.382 29.382z" fill="#bc7c63"/><path d="m364.499 183.038v217.941c0 16.227-13.155 29.382-29.382 29.382h40c16.227 0 29.382-13.155 29.382-29.382l-.157-171.076z" fill="#aa6a51"/><path d="m206.398 351.031c-12.541 0-22.707-10.166-22.707-22.707v-60.289h45.414v60.289c0 12.54-10.167 22.707-22.707 22.707z" fill="#e5eef9"/><path d="m7.5 183.196v50.627c0 9.992 6.826 18.661 16.46 20.903l172.45 40.131c6.564 1.528 13.394 1.454 19.924-.215l171.987-43.944c9.421-2.407 16.021-10.974 16.021-20.796v-46.707c0-16.315-13.085-29.54-29.225-29.54h-338.392c-16.14.001-29.225 13.226-29.225 29.541z" fill="#d1a08f"/><g fill="#c68d7a"><path d="m375.117 153.656h-40c16.141 0 29.226 13.226 29.226 29.54v73.63l23.979-6.127c9.421-2.407 16.021-10.974 16.021-20.796v-46.707c-.001-16.315-13.085-29.54-29.226-29.54z"/><path d="m203.441 295.867c.335.02.669.034 1.004.045z"/></g></g></g></g><g><path d="m494.385 487.845h-78.791l-31.84-10-31.84 10h-78.791c-5.586 0-10.115-4.529-10.115-10.115v-21.999c0-5.586 4.529-10.115 10.115-10.115h78.791l31.84 10 31.84-10h78.791c5.586 0 10.115 4.529 10.115 10.115v21.999c0 5.586-4.529 10.115-10.115 10.115z" fill="#6fd7a3"/><path d="m351.915 445.616h63.68v42.228h-63.68z" fill="#f9f7f8"/><path d="m494.385 403.388h-78.791l-31.32-10-32.36 10h-78.791c-5.586 0-10.115-4.529-10.115-10.115v-21.999c0-5.586 4.529-10.115 10.115-10.115h78.791l32.36 10 31.32-10h78.791c5.586 0 10.115 4.529 10.115 10.115v21.999c0 5.586-4.529 10.115-10.115 10.115z" fill="#6fd7a3"/><path d="m476.147 445.616h-78.791l-31.84-10-31.84 10h-78.791c-5.586 0-10.115-4.529-10.115-10.115v-21.999c0-5.586 4.529-10.115 10.115-10.115h78.791l31.84 10 31.84-10h78.791c5.586 0 10.115 4.529 10.115 10.115v21.999c0 5.587-4.529 10.115-10.115 10.115z" fill="#3ec3a4"/><path d="m351.915 361.159h63.68v42.228h-63.68z" fill="#f9f7f8"/><path d="m333.676 403.388h63.68v42.228h-63.68z" fill="#e5eef9"/></g></g><g><path d="m455.706 110.205c0-22.123-17.994-40.122-40.111-40.122s-40.111 17.999-40.111 40.122 17.994 40.121 40.111 40.121 40.111-17.998 40.111-40.121zm-65.223 0c0-13.852 11.265-25.122 25.111-25.122s25.111 11.27 25.111 25.122-11.265 25.121-25.111 25.121-25.111-11.269-25.111-25.121z"/><path d="m512 393.273v-21.999c0-9.713-7.901-17.615-17.614-17.615-27.514 0-55.029 0-82.543 0v-149.905h15.86c5.375 0 10.189-3.602 11.707-8.759l5.227-17.765c4.841-2.105 9.435-4.729 13.723-7.839l18.384 4.449c5.232 1.263 10.752-1.105 13.438-5.76l12.463-21.59c2.687-4.656 1.974-10.626-1.731-14.517l-12.764-13.407c.319-2.779.48-5.578.48-8.36 0-2.492-.128-4.996-.383-7.481l13.02-13.676c3.705-3.893 4.416-9.862 1.73-14.517l-12.461-21.59c-2.688-4.656-8.214-7.026-13.439-5.761l-18.019 4.36c-4.248-3.159-8.812-5.838-13.63-8.003l-5.332-18.122c-1.518-5.158-6.331-8.76-11.707-8.76h-24.923c-5.376 0-10.189 3.602-11.707 8.759l-5.227 17.765c-4.842 2.105-9.435 4.729-13.723 7.838l-18.386-4.449c-5.233-1.263-10.751 1.107-13.437 5.761l-12.463 21.59c-2.686 4.654-1.974 10.624 1.731 14.517l12.763 13.406c-.606 5.269-.64 10.573-.099 15.844l-13.018 13.674c-3.918 4.117-3.768 10.025-1.57 14.794h-33.549v-22.133c0-24.049-19.569-43.615-43.624-43.615h-92.348c-24.054 0-43.623 19.565-43.623 43.615v22.133h-22.206c-4.143 0-7.5 3.358-7.5 7.5s3.357 7.5 7.5 7.5h281.96c12.066 0 21.883 9.816 21.883 21.882v46.865c0 6.405-4.268 11.968-10.378 13.529l-171.988 43.944c-5.339 1.364-10.999 1.426-16.366.177l-172.451-40.131c-6.276-1.46-10.66-7.052-10.66-13.598v-50.785c0-12.066 9.816-21.882 21.883-21.882h23.117c4.143 0 7.5-3.358 7.5-7.5s-3.357-7.5-7.5-7.5h-23.117c-20.337 0-36.883 16.545-36.883 36.882v217.941c0 20.337 16.546 36.882 36.883 36.882h200.566c1.244 9.225 9.431 15.055 18.277 15.255-.128.856-.216 1.724-.216 2.615v21.999c0 9.713 7.901 17.615 17.614 17.615h170.985c4.143 0 7.5-3.358 7.5-7.5s-3.357-7.5-7.5-7.5h-21.015v-27.229h71.29c1.442 0 2.615 1.173 2.615 2.615v21.999c0 1.442-1.173 2.615-2.615 2.615h-20.639c-4.143 0-7.5 3.358-7.5 7.5s3.357 7.5 7.5 7.5h20.639c9.713 0 17.615-7.902 17.615-17.615v-21.999c0-9.713-7.902-17.615-17.615-17.615h-.839c.128-.856.216-1.724.216-2.615v-21.999c0-.891-.088-1.759-.216-2.615h.84c9.714.001 17.615-7.901 17.615-17.614zm-15-21.999v21.999c0 1.442-1.173 2.615-2.614 2.615h-71.291v-27.229h71.291c1.441 0 2.614 1.173 2.614 2.615zm-107.144 66.842h-48.68v-27.229h48.68zm-119.346-44.843v-21.999c0-1.442 1.173-2.615 2.614-2.615h71.291v27.229h-71.291c-1.441 0-2.614-1.173-2.614-2.615zm88.905 2.615v-27.229h48.68v27.229zm-109.611-249.732h-89.595v-20.748h89.595zm15 0v-22.133c0-7.507-6.111-13.615-13.624-13.615h-92.348c-7.512 0-13.623 6.107-13.623 13.615v22.133h-15v-22.133c0-15.778 12.84-28.615 28.623-28.615h92.348c15.783 0 28.624 12.836 28.624 28.615v22.133zm110.156 0h-29.288l-3.443-5.966 14.036-14.744c1.604-1.685 2.336-4.02 1.98-6.319-.955-6.167-.914-12.419.123-18.584.392-2.328-.337-4.705-1.964-6.415l-13.822-14.52 10.37-17.967 19.825 4.797c2.264.549 4.657.013 6.471-1.451 4.866-3.923 10.283-7.015 16.103-9.189 2.21-.826 3.903-2.645 4.569-4.908l5.659-19.234h20.737l5.748 19.537c.656 2.231 2.311 4.031 4.479 4.874 5.796 2.252 11.175 5.414 15.986 9.397 1.822 1.508 4.249 2.067 6.546 1.512l19.516-4.722 10.37 17.968-14.037 14.744c-1.604 1.685-2.335 4.019-1.979 6.318.455 2.94.686 5.942.686 8.923 0 3.222-.271 6.473-.809 9.662-.392 2.328.337 4.705 1.964 6.415l13.822 14.52-10.37 17.967-19.825-4.797c-2.261-.546-4.656-.012-6.471 1.451-4.867 3.924-10.284 7.016-16.103 9.19-2.21.826-3.903 2.645-4.569 4.908l-5.659 19.234h-13.768v-5.716c0-20.34-16.546-36.885-36.883-36.885zm-169.032 157.289c4.13 0 8.259-.512 12.263-1.536l3.414-.872v27.286c0 8.385-6.822 15.208-15.207 15.208s-15.207-6.822-15.207-15.208v-26.98l3.52.819c3.675.856 7.446 1.283 11.217 1.283zm-190.928 97.534v-141.719c2.241 1.22 4.669 2.168 7.26 2.771l153.931 35.822v30.47c0 16.656 13.551 30.208 30.207 30.208s30.207-13.551 30.207-30.208v-31.118l153.573-39.239c2.365-.604 4.597-1.496 6.665-2.628v98.321h-123.719c-9.713 0-17.614 7.902-17.614 17.615 0 7.962.216 24.614.216 24.614-9.685.09-18.454 7.484-18.454 17.615v9.359h-200.389c-12.067-.001-21.883-9.817-21.883-21.883zm237.271 34.522v-21.999c0-1.442 1.173-2.615 2.614-2.615h71.291v27.229h-71.291c-1.441 0-2.614-1.173-2.614-2.615zm18.239 42.229v-21.999c0-1.442 1.173-2.615 2.614-2.615h71.291v27.229h-71.291c-1.441 0-2.614-1.173-2.614-2.615zm137.585 2.615h-48.68v-27.229h48.68zm70.667-66.843v21.999c0 1.442-1.173 2.615-2.615 2.615h-71.29v-27.229h71.29c1.442.001 2.615 1.174 2.615 2.615z"/></g></g></svg>