<svg id="Capa_1" enable-background="new 0 0 511.774 511.774" height="512" viewBox="0 0 511.774 511.774" width="512" xmlns="http://www.w3.org/2000/svg"><g><g><g><path d="m348.186 310.532h49.315v124.397h-49.315z" fill="#d5e3f4" transform="matrix(.707 -.707 .707 .707 -154.357 372.676)"/><ellipse cx="197.392" cy="197.336" fill="#b3dafe" rx="189.892" ry="189.806"/><path d="m331.67 63.127c-42.173-42.157-99.249-60.326-154.278-54.534 41.735 4.393 82.293 22.562 114.278 54.535 74.155 74.126 74.152 194.305-.008 268.427-31.984 31.968-72.539 50.134-114.27 54.527 55.025 5.792 112.097-12.375 154.27-54.527 74.159-74.123 74.163-194.302.008-268.428z" fill="#8ac9fe"/><path d="m492.674 492.62c-15.767 15.759-41.331 15.759-57.097-.002l-70.333-70.412c-15.766-15.76-15.766-41.312.002-57.071 15.767-15.759 41.331-15.759 57.097.002l70.333 70.412c15.766 15.76 15.765 41.312-.002 57.071z" fill="#fd8087"/><path d="m492.676 435.549-70.333-70.412c-15.766-15.76-41.33-15.761-57.097-.002-2.958 2.957-5.361 6.258-7.209 9.774 14.459-5.603 31.493-2.581 43.163 9.084l70.333 70.412c12.809 12.804 15.211 32.069 7.208 47.297 5.076-1.967 9.837-4.988 13.934-9.082 15.766-15.759 15.767-41.311.001-57.071z" fill="#fe646f"/></g><g><path d="m292.75 291.947h-190.716c-14.331 0-25.948-11.617-25.948-25.948v-115.467c0-14.331 11.617-25.948 25.948-25.948h190.716c14.331 0 25.948 11.617 25.948 25.948v115.467c-.001 14.331-11.618 25.948-25.948 25.948z" fill="#bc7c63"/><path d="m197.683 250.01c-10.834 0-19.617-8.783-19.617-19.617v-51.319h39.234v51.319c0 10.834-8.783 19.617-19.617 19.617z" fill="#e5eef9"/><path d="m76.086 150.532v22.541c0 6.044 4.173 11.287 10.063 12.643l105.428 24.273c4.013.924 8.188.879 12.181-.13l105.145-26.579c5.759-1.456 9.794-6.638 9.794-12.578v-20.17c0-14.331-11.617-25.948-25.948-25.948h-190.715c-14.33 0-25.948 11.617-25.948 25.948z" fill="#d1a08f"/></g></g><g><path d="m497.982 430.249-38.097-38.14c-2.927-2.932-7.676-2.933-10.606-.006-2.931 2.927-2.933 7.676-.006 10.606l38.101 38.144c12.563 12.558 12.591 33.876-.001 46.462-12.818 12.812-33.674 12.811-46.489.002l-70.337-70.416c-12.563-12.558-12.591-33.877.001-46.462 12.818-12.812 33.674-12.812 46.489-.002l11.217 11.229c2.928 2.931 7.677 2.933 10.606.006 2.931-2.927 2.933-7.676.006-10.606l-11.221-11.233c-9.915-9.911-23.133-14.558-36.145-13.94l-33.635-33.607c23.973-33.289 36.918-73.119 36.919-114.944.002-52.703-20.529-102.252-57.812-139.519-62.812-62.789-160.48-75.881-237.509-31.837-3.596 2.056-4.844 6.638-2.788 10.233 2.055 3.596 6.638 4.844 10.233 2.788 71.173-40.694 161.419-28.594 219.459 29.424 34.447 34.434 53.417 80.215 53.416 128.91s-18.975 94.476-53.424 128.907c-35.559 35.541-82.261 53.31-128.968 53.309s-93.418-17.773-128.975-53.316c-34.447-34.434-53.417-80.215-53.416-128.91s18.975-94.476 53.424-128.907c4.667-4.665 9.684-9.158 14.911-13.355 3.229-2.593 3.746-7.314 1.152-10.544-2.593-3.23-7.314-3.746-10.544-1.152-5.649 4.536-11.074 9.395-16.124 14.442-37.283 37.264-57.818 86.812-57.819 139.515s20.53 102.252 57.812 139.52c38.485 38.47 89.026 57.703 139.58 57.7 40.368-.003 80.737-12.285 114.961-36.82l33.624 33.595c-.641 13.35 4.5 26.724 13.961 36.181l70.337 70.416c18.366 18.359 49.329 18.365 67.701.002 18.39-18.38 18.402-49.287.006-67.675zm-173.689-81.794c4.348-3.653 8.581-7.51 12.671-11.597 4.075-4.073 7.937-8.3 11.607-12.654l25.773 25.752c-10.745 4.762-19.503 13.503-24.291 24.237z"/><path d="m225.751 82.487h-56.719c-11.29 0-20.474 9.185-20.474 20.474v14.123h-46.524c-18.443 0-33.448 15.004-33.448 33.448v22.541 92.927c0 18.443 15.004 33.447 33.448 33.447h190.716c18.443 0 33.447-15.004 33.447-33.447v-95.297-20.17c0-18.443-15.004-33.448-33.447-33.448h-46.525v-14.123c0-11.29-9.184-20.475-20.474-20.475zm-62.192 20.474c0-3.019 2.456-5.474 5.474-5.474h56.719c3.018 0 5.474 2.456 5.474 5.474v14.123h-67.667zm129.191 181.486h-190.716c-10.172 0-18.448-8.275-18.448-18.447v-73.217c.293.081.581.173.88.242l86.1 19.823v17.546c0 14.952 12.165 27.117 27.117 27.117s27.117-12.165 27.117-27.117v-18.117l85.942-21.725c.155-.039.302-.093.456-.136v75.584c-.001 10.171-8.276 18.447-18.448 18.447zm-107.184-68.146c7.863 2.388 16.401 2.191 24.233-.233v14.325c0 6.681-5.436 12.117-12.117 12.117s-12.117-5.436-12.117-12.117v-14.092zm109.067-84.121c9.29.946 16.564 8.816 16.564 18.352v20.17c0 2.51-1.699 4.692-4.132 5.307l-105.146 26.58c-2.825.713-5.82.746-8.66.092l-105.427-24.274c-2.5-.576-4.246-2.769-4.246-5.334v-22.541c0-9.855 8.628-18.448 18.448-18.448h190.716c.636 0 1.264.033 1.883.096z"/></g></g></svg>