<svg id="Capa_1" enable-background="new 0 0 512.074 512.074" height="512" viewBox="0 0 512.074 512.074" width="512" xmlns="http://www.w3.org/2000/svg"><g><g><g><path d="m62.832 481.18h35.149c4.51 0 8.987.779 13.225 2.322 61.178 22.278 128.336 27.012 191.983 13.327 52.248-11.234 101.974-33.936 141.38-64.425 19.593-15.16 9.052-46.48-15.721-46.48h-195.862l77.3-.007c13.346-.014 24.136-10.991 24.039-24.455-.098-13.52-10.991-24.418-24.393-24.404 0 0-39.147.11-100.649.11-43.117 0-80.798 22.833-101.991 57.1-2.314 3.741-6.409 5.978-10.778 5.983l-34.636.067c-2.784.005-5.027 2.283-4.99 5.067l.943 70.863c.037 2.733 2.265 4.932 5.001 4.932z" fill="#ffdfcf"/><g fill="#ffcebf"><path d="m294.325 361.461c.097 13.464-10.693 24.441-24.039 24.455h40c13.346-.014 24.136-10.991 24.039-24.455-.098-13.52-10.991-24.418-24.393-24.404 0 0-13.928.039-38.216.071 12.57.904 22.515 11.419 22.609 24.333z"/><path d="m431.048 385.923h-40c24.427 0 32.894 31.484 13.57 46.442-39.414 30.509-89.159 53.224-141.429 64.464-17.325 3.725-34.912 6.075-52.566 7.088 30.967 1.772 62.167-.552 92.566-7.088 52.27-11.239 102.016-33.955 141.429-64.464 19.324-14.958 10.857-46.442-13.57-46.442z"/></g><g><g><path d="m256.04 7.5c-45.66 0-82.674 37.247-82.674 83.194v114.583c0 30.627 24.673 55.454 55.108 55.454h55.132c30.435 0 55.108-24.828 55.108-55.454v-114.583c-.001-45.947-37.015-83.194-82.674-83.194z" fill="#bc7c63"/><g><path d="m320.331 294.699h-128.583c-12.996 0-23.532-10.536-23.532-23.532v-22.945c0-48.503 39.32-87.823 87.823-87.823 48.503 0 87.823 39.32 87.823 87.823v22.945c.001 12.996-10.535 23.532-23.531 23.532z" fill="#685e68"/><g><path d="m220.36 160.399-.162 56.646c-.02 6.913 7.786 10.952 13.417 6.942l17.5-12.461c2.948-2.099 6.902-2.099 9.85 0l17.5 12.461c5.631 4.01 13.436-.03 13.417-6.942l-.162-56.646z" fill="#f9f7f8"/></g><g><path d="m256.039 77.671c-5.837 8.083-15.299 13.342-25.988 13.342h-14.189c-6.093 0-11.033 4.971-11.033 11.102v34.187c0 28.46 22.927 51.532 51.209 51.532 28.282 0 51.209-23.071 51.209-51.532v-34.187c0-6.132-4.94-11.102-11.033-11.102h-14.189c-10.686 0-20.149-5.26-25.986-13.342z" fill="#ffdfcf"/></g><path d="m296.216 91.013h-14.189c-10.688 0-20.151-5.26-25.988-13.342-4.719 6.535-11.809 11.221-20 12.778 1.94.369 3.941.565 5.988.565h14.189c6.093 0 11.033 4.971 11.033 11.102v34.187c0 21.319-12.866 39.612-31.209 47.452 6.145 2.626 12.903 4.08 20 4.08 28.282 0 51.209-23.071 51.209-51.532v-34.187c0-6.132-4.94-11.103-11.033-11.103z" fill="#ffcebf"/></g></g></g></g></g><g><path d="m378.735 177.56 22.969 13.263c3.793 1.966 7.208 1.051 10.246-2.745 2.071-3.587.842-8.174-2.745-10.246l-22.969-13.263c-3.587-2.07-8.174-.843-10.246 2.745-2.071 3.587-.842 8.174 2.745 10.246z"/><path d="m388.154 121.916c0 4.142 3.358 7.5 7.5 7.5h26.522c4.142 0 7.5-3.358 7.5-7.5s-3.358-7.5-7.5-7.5h-26.522c-4.142 0-7.5 3.358-7.5 7.5z"/><path d="m382.493 80.269c1.272 0 2.562-.325 3.744-1.006l22.968-13.263c3.587-2.071 4.816-6.658 2.745-10.246-2.071-3.587-6.659-4.814-10.246-2.745l-22.969 13.262c-3.587 2.071-4.816 6.658-2.745 10.246 1.39 2.406 3.911 3.752 6.503 3.752z"/><path d="m102.874 66 22.969 13.262c3.793 1.966 7.208 1.051 10.246-2.745 2.071-3.587.842-8.174-2.745-10.246l-22.969-13.261c-3.589-2.072-8.175-.843-10.246 2.745-2.071 3.587-.842 8.174 2.745 10.245z"/><path d="m89.903 129.416h26.522c4.142 0 7.5-3.358 7.5-7.5s-3.358-7.5-7.5-7.5h-26.522c-4.142 0-7.5 3.358-7.5 7.5s3.358 7.5 7.5 7.5z"/><path d="m125.843 164.569-22.969 13.263c-3.587 2.071-4.816 6.658-2.745 10.246 3.038 3.796 6.453 4.711 10.246 2.745l22.969-13.263c3.587-2.071 4.816-6.658 2.745-10.246-2.072-3.587-6.66-4.816-10.246-2.745z"/><path d="m460.913 399.75c-4.497-13.155-15.94-21.327-29.865-21.327h-93.971c3.137-5.054 4.792-10.905 4.748-17.016-.128-17.57-14.419-31.85-31.88-31.85-.011 0-.023 0-.034 0-.392.001-39.84.11-100.627.11-44.369 0-84.881 22.675-108.37 60.655-.925 1.496-2.613 2.426-4.413 2.428l-39.694.077c-4.142.008-7.493 3.373-7.485 7.515.008 4.137 3.364 7.485 7.5 7.485h.015l39.688-.077c7.049-.008 13.459-3.574 17.147-9.538 20.736-33.528 56.479-53.544 95.613-53.544 60.809 0 100.278-.109 100.656-.11h.018c9.234 0 16.799 7.604 16.867 16.958.066 9.095-7.377 16.891-16.54 16.901l-77.299.006c-4.142 0-7.5 3.358-7.5 7.5s3.358 7.5 7.5 7.5h198.061c7.42 0 13.278 4.179 15.671 11.179 2.076 6.075 1.57 15.438-6.691 21.833-11.165 8.642-23.331 16.747-36.161 24.091-3.595 2.058-4.841 6.64-2.783 10.235 3.029 3.807 6.441 4.735 10.235 2.783 13.43-7.688 26.178-16.182 37.89-25.248 11.767-9.109 16.471-24.599 11.704-38.546z"/><path d="m377.251 464.246c-24.123 11.149-49.571 19.645-75.64 25.25-62.511 13.441-127.445 8.938-187.782-13.021-5.097-1.855-10.429-2.795-15.849-2.795h-40.082c-4.142 0-7.5 3.358-7.5 7.5s3.358 7.5 7.5 7.5h40.083c3.665 0 7.271.636 10.719 1.891 39.278 14.295 80.417 21.503 121.656 21.503 24.897 0 49.835-2.629 74.409-7.913 27.149-5.838 53.654-14.686 78.779-26.299 3.76-1.738 5.399-6.195 3.662-9.955-1.737-3.759-6.193-5.399-9.955-3.661z"/><path d="m191.748 302.199h128.583c17.111 0 31.032-13.921 31.032-31.032v-22.945c0-11.582-2.057-22.787-5.902-33.209.01-.056.025-.11.033-.167.477-3.144.719-6.363.719-9.569v-114.584c0-50.008-40.452-90.693-90.174-90.693-11.997 0-23.652 2.333-34.64 6.935-3.821 1.6-5.621 5.995-4.021 9.815 1.6 3.821 5.995 5.621 9.815 4.021 9.144-3.83 18.849-5.771 28.846-5.771 41.451 0 75.173 33.956 75.173 75.693v98.782c-6.865-8.764-15.322-16.36-25.107-22.38 5.478-8.971 8.643-19.516 8.643-30.793v-34.187c0-10.257-8.314-18.603-18.533-18.603h-14.188c-7.839 0-15.281-3.825-19.907-10.233-4.054-4.146-8.107-4.146-12.161 0-4.626 6.408-12.068 10.233-19.907 10.233h-14.188c-10.219 0-18.533 8.345-18.533 18.603v34.187c0 11.276 3.165 21.821 8.643 30.793-9.785 6.02-18.242 13.616-25.107 22.38v-98.781c0-20.549 8.04-39.777 22.639-54.142 2.953-2.905 2.991-7.654.086-10.606-2.906-2.953-7.654-2.991-10.606-.086-17.487 17.207-27.118 40.232-27.118 64.834v114.583c0 3.26.263 6.519.757 9.725-3.848 10.426-5.907 21.634-5.907 33.221v22.945c-.002 17.11 13.919 31.031 31.03 31.031zm92.633-85.134c-.192.908-.714 1.179-1.566.812l-17.5-12.462c-5.547-3.948-13.001-3.95-18.551 0l-17.5 12.461c-.849.367-1.371.099-1.566-.803l.116-29.029c8.381 4.641 18.001 7.288 28.226 7.288s19.961-2.648 28.342-7.288v29.021zm-72.051-114.95c0-1.986 1.585-3.603 3.533-3.603h14.188c9.611 0 18.844-3.555 25.988-9.786 7.144 6.231 16.377 9.786 25.988 9.786h14.188c1.948 0 3.533 1.616 3.533 3.603v34.187c0 24.279-19.608 44.031-43.709 44.031s-43.709-19.752-43.709-44.031zm.513 78.36v36.549c-.036 12.573 14.863 20.378 25.122 13.073l17.499-12.461c.344-.244.807-.245 1.15 0l17.5 12.461c10.4 7.405 25.157-.614 25.121-13.082v-36.54c23.097 14.678 37.127 39.931 37.127 67.747v22.945c0 8.84-7.192 16.032-16.032 16.032h-128.582c-8.84 0-16.032-7.192-16.032-16.032v-22.945c0-10.18 1.89-20.012 5.405-29.112.177-.367.326-.748.442-1.142 6.173-15.28 16.99-28.411 31.28-37.493z"/></g></g></svg>