<svg id="Capa_1" enable-background="new 0 0 512.027 512.027" height="512" viewBox="0 0 512.027 512.027" width="512" xmlns="http://www.w3.org/2000/svg"><g><g><g><g><path d="m143.763 353.199c-9.733 0-17.624-8.996-17.624-20.094v4.47c0-11.098 7.891-20.094 17.624-20.094h342.905c9.863 0 17.859 7.996 17.859 17.859 0 9.863-7.996 17.859-17.859 17.859z" fill="#f9f7f8"/></g><path d="m486.668 317.481h-40c9.863 0 17.859 7.996 17.859 17.859 0 9.863-7.996 17.859-17.859 17.859h40c9.863 0 17.859-7.996 17.859-17.859 0-9.863-7.996-17.859-17.859-17.859z" fill="#e5eef9"/><g><path d="m131.93 388.918c-9.733 0-17.624-8.996-17.624-20.094v4.47c0-11.098 7.891-20.094 17.624-20.094h288.941c9.863 0 17.859 7.996 17.859 17.859 0 9.863-7.996 17.859-17.859 17.859z" fill="#b3dafe"/></g><path d="m420.871 353.199h-40c9.863 0 17.859 7.996 17.859 17.859s-7.996 17.859-17.859 17.859h40c9.863 0 17.859-7.996 17.859-17.859s-7.995-17.859-17.859-17.859z" fill="#8ac9fe"/><g><path d="m159.492 424.636c-9.733 0-17.624-8.996-17.624-20.094v4.47c0-11.098 7.891-20.094 17.624-20.094h173.953c9.863 0 17.859 7.996 17.859 17.859 0 9.863-7.996 17.859-17.859 17.859z" fill="#fd8087"/></g><path d="m333.445 388.918h-40c9.863 0 17.859 7.996 17.859 17.859 0 9.863-7.996 17.859-17.859 17.859h40c9.863 0 17.859-7.996 17.859-17.859 0-9.863-7.996-17.859-17.859-17.859z" fill="#fe646f"/></g><g><ellipse cx="101.786" cy="371.059" fill="#6fd7a3" rx="94.286" ry="94.259"/><g><g><path d="m101.819 430.609h-.067c-21.35 0-38.658-17.308-38.658-38.658v-20.862c0-21.35 17.308-38.658 38.658-38.658h.067c21.35 0 38.658 17.308 38.658 38.658v20.862c0 21.35-17.308 38.658-38.658 38.658z" fill="#ffdfcf"/><path d="m101.819 332.431h-.067c-.428 0-.851.018-1.276.032v59.487c0 14.043-7.489 26.336-18.691 33.106 5.828 3.523 12.66 5.551 19.967 5.551h.067c21.35 0 38.658-17.308 38.658-38.658v-20.862c0-21.348-17.308-38.656-38.658-38.656z" fill="#ffcebf"/><path d="m63.095 372.01 8.18-13.277c4.099-6.652 12.646-8.948 19.504-5.238 6.38 2.599 15.635 2.599 22.015 0 6.857-3.71 15.405-1.414 19.504 5.238l8.18 13.277v-21.639c0-21.464-17.323-38.863-38.691-38.863-21.368 0-38.691 17.4-38.691 38.863v21.639z" fill="#685e68"/></g></g></g><g><g><path d="m134.09 123.109c-9.733 0-17.624-8.996-17.624-20.094v4.47c0-11.098 7.891-20.094 17.624-20.094h220.087c9.863 0 17.859 7.996 17.859 17.859 0 9.863-7.996 17.859-17.859 17.859z" fill="#f9f7f8"/></g><path d="m354.177 87.391h-40c9.863 0 17.859 7.996 17.859 17.859s-7.996 17.859-17.859 17.859h40c9.863 0 17.859-7.996 17.859-17.859s-7.995-17.859-17.859-17.859z" fill="#e5eef9"/><g><path d="m90.215 158.828c-9.733 0-17.624-8.996-17.624-20.094v4.47c0-11.098 7.891-20.094 17.624-20.094h395.739c9.863 0 17.859 7.996 17.859 17.859 0 9.863-7.996 17.859-17.859 17.859z" fill="#b3dafe"/></g><path d="m485.953 123.109h-40c9.863 0 17.859 7.996 17.859 17.859 0 9.863-7.996 17.859-17.859 17.859h40c9.863 0 17.859-7.996 17.859-17.859 0-9.863-7.995-17.859-17.859-17.859z" fill="#8ac9fe"/><g><path d="m90.215 194.546c-9.733 0-17.624-8.996-17.624-20.094v4.47c0-11.098 7.891-20.094 17.624-20.094h173.953c9.863 0 17.859 7.996 17.859 17.859 0 9.863-7.996 17.859-17.859 17.859z" fill="#fd8087"/></g><path d="m264.168 158.828h-40c9.863 0 17.859 7.996 17.859 17.859s-7.996 17.859-17.859 17.859h40c9.863 0 17.859-7.996 17.859-17.859s-7.996-17.859-17.859-17.859z" fill="#fe646f"/></g><g><ellipse cx="101.786" cy="140.969" fill="#ffe177" rx="94.286" ry="94.259"/><g><path d="m99.591 200.508h-.067c-21.35 0-38.658-17.308-38.658-38.658v-20.862c0-21.35 17.308-38.658 38.658-38.658h38.724v59.52c.001 21.351-17.307 38.658-38.657 38.658z" fill="#ffdfcf"/><path d="m99.525 102.331c-.428 0-.851.018-1.276.032v59.487c0 14.043-7.489 26.336-18.691 33.106 5.828 3.523 12.66 5.551 19.967 5.551h.067c21.35 0 38.658-17.308 38.658-38.658v-59.52h-38.725z" fill="#ffcebf"/><path d="m60.867 141.91h39.591c23.332 0 42.247-18.999 42.247-42.435 0-9.978-8.053-18.066-17.986-18.066h-24.019c-21.999 0-39.833 17.913-39.833 40.01z" fill="#bc7c63"/></g></g></g><g><path d="m486.668 309.981h-37.654c-4.143 0-7.5 3.358-7.5 7.5s3.357 7.5 7.5 7.5h37.654c5.712 0 10.359 4.647 10.359 10.359s-4.647 10.36-10.359 10.36h-65.797-220.499c-1.867-7.248-4.516-14.186-7.849-20.719h228.49c4.143 0 7.5-3.358 7.5-7.5s-3.357-7.5-7.5-7.5h-237.867c-18.59-24.687-48.14-40.681-81.36-40.681-56.125 0-101.786 45.649-101.786 101.759s45.661 101.759 101.786 101.759c33.219 0 62.77-15.994 81.36-40.681h150.299c13.983 0 25.359-11.376 25.359-25.359 0-3.69-.799-7.194-2.221-10.359h64.288c13.983 0 25.359-11.376 25.359-25.359 0-3.689-.798-7.194-2.221-10.359h42.659c13.983 0 25.359-11.376 25.359-25.359s-11.376-25.361-25.359-25.361zm-384.882 147.836c-47.854 0-86.786-38.92-86.786-86.759s38.932-86.758 86.786-86.758 86.786 38.919 86.786 86.758-38.932 86.759-86.786 86.759zm242.019-51.04c0 5.712-4.647 10.359-10.359 10.359h-140.922c3.333-6.533 5.982-13.47 7.848-20.718h133.073c5.712 0 10.36 4.647 10.36 10.359zm87.425-35.718c0 5.712-4.647 10.359-10.359 10.359h-217.823c.346-3.407.524-6.863.524-10.359s-.178-6.952-.524-10.359h217.823c5.712 0 10.359 4.647 10.359 10.359z"/><path d="m101.786 304.009c-25.47 0-46.191 20.798-46.191 46.363v41.579c0 25.452 20.706 46.158 46.224 46.158 25.452 0 46.158-20.706 46.158-46.158 0-13.86 0-27.719 0-41.579 0-25.565-20.721-46.363-46.191-46.363zm0 15c16.59 0 30.196 13.089 31.139 29.538-6.724-4.938-15.874-5.668-23.263-1.878-4.492 1.71-11.26 1.71-15.752 0-7.662-3.931-16.659-2.972-23.263 1.877.944-16.446 14.55-29.537 31.139-29.537zm-.033 104.1c-17.181 0-31.158-13.977-31.158-31.158v-17.816l7.065-11.467c2.382-3.866 6.745-3.67 10.289-2.227 8.146 3.318 19.526 3.319 27.673 0 3.544-1.444 7.907-1.638 10.289 2.227l7.065 11.467v17.816c.001 17.181-13.976 31.158-31.223 31.158z"/><path d="m101.786 242.727c33.219 0 62.77-15.993 81.36-40.681h81.022c13.983 0 25.359-11.376 25.359-25.359 0-3.69-.799-7.194-2.221-10.359h198.647c13.983 0 25.359-11.376 25.359-25.359s-11.376-25.359-25.359-25.359h-108.638c1.423-3.165 2.221-6.67 2.221-10.359 0-13.983-11.376-25.359-25.358-25.359h-171.032c-18.59-24.687-48.141-40.681-81.36-40.681-13.729 0-27.052 2.688-39.6 7.99-3.815 1.612-5.602 6.012-3.989 9.828 1.612 3.815 6.013 5.6 9.828 3.989 10.69-4.517 22.049-6.808 33.761-6.808 47.854 0 86.786 38.92 86.786 86.759s-38.932 86.758-86.786 86.758-86.786-38.919-86.786-86.758c0-25.114 10.882-48.982 29.855-65.482 3.126-2.718 3.456-7.455.738-10.581s-7.456-3.456-10.581-.738c-22.251 19.351-35.012 47.343-35.012 76.801 0 56.11 45.661 101.758 101.786 101.758zm172.741-66.04c0 5.712-4.647 10.359-10.359 10.359h-71.644c3.333-6.533 5.982-13.47 7.849-20.719h63.795c5.712.001 10.359 4.648 10.359 10.36zm221.785-35.718c0 5.712-4.647 10.359-10.359 10.359h-221.785-61.119c.346-3.407.524-6.862.524-10.359s-.178-6.953-.524-10.359h282.905c5.711-.001 10.358 4.646 10.358 10.359zm-142.134-46.078c5.712 0 10.358 4.647 10.358 10.359s-4.646 10.359-10.358 10.359h-153.806c-1.867-7.248-4.516-14.185-7.848-20.718z"/><path d="m99.591 208.008c25.452 0 46.158-20.706 46.158-46.158v-41.759c2.853-6.29 4.456-13.267 4.456-20.617 0-14.097-11.433-25.566-25.486-25.566h-24.019c-26.099 0-47.333 21.313-47.333 47.51v40.433c0 25.451 20.706 46.157 46.224 46.157zm-.066-15c-17.18 0-31.158-13.977-31.158-31.158v-12.44h32.09c11.393 0 21.896-3.873 30.292-10.364v22.804c0 17.181-13.978 31.158-31.224 31.158zm-31.158-71.59c0-17.926 14.504-32.51 32.333-32.51h24.019c5.782 0 10.486 4.74 10.486 10.566 0 19.264-15.588 34.936-34.748 34.936h-32.09z"/></g></g></svg>