<svg id="Capa_1" enable-background="new 0 0 512 512" height="512" viewBox="0 0 512 512" width="512" xmlns="http://www.w3.org/2000/svg"><g><g><g><g><g><path d="m356.903 439.147-63.9 63.889c-.938.937-2.209 1.464-3.535 1.464h-135.077c-1.104 0-2-.895-2-2v-400.568c0-1.104.895-2 2-2h201.976c1.104 0 2 .895 2 2v333.68c0 1.326-.527 2.597-1.464 3.535z" fill="#f9f7f8"/><g><path d="m356.367 99.932h-40c1.104 0 2 .895 2 2v375.744l38.536-38.529c.938-.937 1.464-2.209 1.464-3.535v-333.681c0-1.104-.895-1.999-2-1.999z" fill="#e5eef9"/></g><path d="m165.049 504.5h-109.658c-1.657 0-3-1.343-3-3v-307.095c0-1.657 112.658-1.418 112.658-1.418z" fill="#fd8087"/><path d="m52.391 194.405h112.658v-94.473h-109.658c-1.657 0-3 1.343-3 3z" fill="#d5e3f4"/><path d="m140.611 194.405c.001-13.877-8.864-25.671-21.237-30.054-1.576-.558-1.874-2.675-.458-3.565 8.257-5.186 12.284-16.474 5.706-27.56-1.098-1.851-2.644-3.416-4.491-4.523-15.06-9.023-30.598 1.598-30.598 15.847 0 6.845 3.589 12.843 8.986 16.234 1.418.891 1.125 3.008-.453 3.567-12.374 4.382-21.239 16.176-21.238 30.054z" fill="#fff"/><g><path d="" fill="#f9f7f8"/></g><g><path d="" fill="#f9f7f8"/></g><g><path d="" fill="#f9f7f8"/></g></g><path d="m293.245 502.793 63.381-63.37c.63-.63.184-1.707-.707-1.707h-54.382c-5.522 0-9.999 4.476-9.999 9.998v54.372c.001.891 1.078 1.337 1.707.707z" fill="#d5e3f4"/></g><g><ellipse cx="356.921" cy="110.26" fill="#6fd7a3" rx="70.926" ry="70.923"/><path d="m356.921 39.337c-6.948 0-13.655 1.017-20 2.879 29.429 8.636 50.926 35.822 50.926 68.044s-21.497 59.408-50.926 68.044c6.345 1.862 13.052 2.879 20 2.879 39.171 0 70.926-31.753 70.926-70.923s-31.754-70.923-70.926-70.923z" fill="#3ec3a4"/></g></g></g><g><path d="m455.461 140.173c-3.864-1.492-8.206.433-9.697 4.297-9.393 24.338-28.613 43.995-52.733 53.931-3.83 1.578-5.656 5.961-4.078 9.791 1.487 3.61 6.217 5.549 9.791 4.078 27.908-11.496 50.147-34.24 61.015-62.4 1.49-3.864-.434-8.206-4.298-9.697z"/><path d="m356.921 0c-43.355 0-82.849 25.638-100.613 65.315-1.693 3.781-.001 8.217 3.78 9.91 3.778 1.692 8.218 0 9.909-3.78 15.353-34.289 49.473-56.445 86.924-56.445 52.487 0 95.188 42.733 95.188 95.26 0 4.142 3.357 7.5 7.5 7.5s7.5-3.358 7.5-7.5c0-60.798-49.43-110.26-110.188-110.26z"/><path d="m83.389 248.231h50.663c4.143 0 7.5-3.358 7.5-7.5s-3.357-7.5-7.5-7.5h-50.663c-4.143 0-7.5 3.358-7.5 7.5s3.357 7.5 7.5 7.5z"/><path d="m83.389 281.556h50.663c4.143 0 7.5-3.358 7.5-7.5s-3.357-7.5-7.5-7.5h-50.663c-4.143 0-7.5 3.358-7.5 7.5s3.357 7.5 7.5 7.5z"/><path d="m83.389 314.881h27.664c4.143 0 7.5-3.358 7.5-7.5s-3.357-7.5-7.5-7.5h-27.664c-4.143 0-7.5 3.358-7.5 7.5s3.357 7.5 7.5 7.5z"/><path d="m83.389 400.193h50.663c4.143 0 7.5-3.358 7.5-7.5s-3.357-7.5-7.5-7.5h-50.663c-4.143 0-7.5 3.358-7.5 7.5s3.357 7.5 7.5 7.5z"/><path d="m83.389 433.519h50.663c4.143 0 7.5-3.358 7.5-7.5s-3.357-7.5-7.5-7.5h-50.663c-4.143 0-7.5 3.358-7.5 7.5s3.357 7.5 7.5 7.5z"/><path d="m83.389 466.844h50.663c4.143 0 7.5-3.358 7.5-7.5s-3.357-7.5-7.5-7.5h-50.663c-4.143 0-7.5 3.358-7.5 7.5s3.357 7.5 7.5 7.5z"/><path d="m205.379 248.231h110.658c4.143 0 7.5-3.358 7.5-7.5s-3.357-7.5-7.5-7.5h-110.658c-4.143 0-7.5 3.358-7.5 7.5s3.357 7.5 7.5 7.5z"/><path d="m205.379 180.248h67.995c4.143 0 7.5-3.358 7.5-7.5s-3.357-7.5-7.5-7.5h-67.995c-4.143 0-7.5 3.358-7.5 7.5s3.357 7.5 7.5 7.5z"/><path d="m205.379 281.556h57.774c4.143 0 7.5-3.358 7.5-7.5s-3.357-7.5-7.5-7.5h-57.774c-4.143 0-7.5 3.358-7.5 7.5s3.357 7.5 7.5 7.5z"/><path d="m205.379 314.881h110.658c4.143 0 7.5-3.358 7.5-7.5s-3.357-7.5-7.5-7.5h-110.658c-4.143 0-7.5 3.358-7.5 7.5s3.357 7.5 7.5 7.5z"/><path d="m316.037 385.193h-76.661c-4.143 0-7.5 3.358-7.5 7.5s3.357 7.5 7.5 7.5h76.661c4.143 0 7.5-3.358 7.5-7.5s-3.357-7.5-7.5-7.5z"/><path d="m239.376 418.519c-4.143 0-7.5 3.358-7.5 7.5s3.357 7.5 7.5 7.5h23.777c4.143 0 7.5-3.358 7.5-7.5s-3.357-7.5-7.5-7.5z"/><path d="m263.153 451.844h-23.777c-4.143 0-7.5 3.358-7.5 7.5s3.357 7.5 7.5 7.5h23.777c4.143 0 7.5-3.358 7.5-7.5s-3.357-7.5-7.5-7.5z"/><path d="m205.379 348.873h80.66c4.143 0 7.5-3.358 7.5-7.5s-3.357-7.5-7.5-7.5h-80.66c-4.143 0-7.5 3.358-7.5 7.5s3.357 7.5 7.5 7.5z"/><path d="m212.3 389.82c-1.586-3.974-6.444-5.709-10.236-3.847-3.661 1.798-5.194 6.339-3.423 10 1.744 3.603 6.165 5.189 9.814 3.554 3.657-1.639 5.376-6.009 3.845-9.707z"/><path d="m203.91 418.67c-4.11.785-6.772 5.004-5.826 9.048.936 4.003 5.083 6.589 9.09 5.58 3.949-.994 6.472-5.104 5.484-9.078-.95-3.822-4.874-6.344-8.748-5.55z"/><path d="m212.3 456.48c-1.457-3.729-5.891-5.551-9.583-4.149-3.902 1.482-5.851 6.027-4.261 9.88 1.562 3.783 6.011 5.612 9.789 4.052 3.759-1.552 5.65-6.017 4.055-9.783z"/><path d="m435.348 110.26c0-11.991-2.644-23.511-7.857-34.238-1.81-3.726-6.297-5.279-10.023-3.467-3.726 1.811-5.277 6.298-3.467 10.024 4.212 8.667 6.348 17.98 6.348 27.681 0 34.972-28.453 63.423-63.427 63.423-34.973 0-63.426-28.451-63.426-63.423s28.453-63.423 63.426-63.423c14.855 0 29.306 5.25 40.688 14.781 3.176 2.66 7.906 2.241 10.565-.935s2.241-7.906-.935-10.565c-14.078-11.789-31.948-18.281-50.319-18.281-37.111 0-68.261 25.917-76.357 60.595h-225.173c-5.79 0-10.5 4.71-10.5 10.5v325.071c0 4.142 3.357 7.5 7.5 7.5s7.5-3.358 7.5-7.5v-226.098h97.658v295.095h-97.658v-39.002c0-4.142-3.357-7.5-7.5-7.5s-7.5 3.358-7.5 7.5v43.502c0 5.79 4.71 10.5 10.5 10.5h234.077c3.338 0 6.477-1.299 8.838-3.66 21.299-21.296 42.6-42.59 63.897-63.887 2.362-2.36 3.664-5.5 3.664-8.841v-247.455c39.046-4.456 69.481-37.681 69.481-77.897zm-349.834 76.645c2.3-7.088 7.785-12.909 15.058-15.485 7.338-2.6 8.565-12.822 1.938-16.986-7.356-4.623-7.132-15.757.462-20.06 2.311-1.308 7.11-2.95 13.306.763 6.945 4.159 4.546 15.595-1.349 19.298-6.63 4.164-5.394 14.386 1.941 16.986 7.271 2.575 12.757 8.396 15.056 15.484zm61.873 0c-2.078-10.673-8.511-20.048-17.682-25.83 8.87-11.184 7.052-31.156-5.719-38.806-9.153-5.485-19.775-5.838-28.409-.946-13.845 7.845-17.824 27.111-7.827 39.742-9.179 5.782-15.618 15.161-17.698 25.839h-10.161v-79.473h97.658v79.473h-10.162zm25.162-79.473h106.018c-.288 8.038.648 16.07 2.806 23.824h-75.994c-4.143 0-7.5 3.358-7.5 7.5s3.357 7.5 7.5 7.5h81.901c12.187 23.48 35.89 40.043 63.587 42.17v241.79h-49.329c-9.649 0-17.5 7.85-17.5 17.498v49.286h-111.489zm126.489 378.964v-38.682c0-1.377 1.121-2.498 2.5-2.498h38.686z"/><path d="m385.939 85.166-39.486 39.484-18.549-18.55c-2.93-2.929-7.678-2.929-10.607 0s-2.929 7.678 0 10.606l18.9 18.9c5.59 5.587 14.924 5.588 20.513-.001l39.835-39.833c2.93-2.929 2.93-7.677.001-10.606-2.93-2.93-7.679-2.93-10.607 0z"/></g></g></svg>