<svg id="Capa_1" enable-background="new 0 0 512 512" height="512" viewBox="0 0 512 512" width="512" xmlns="http://www.w3.org/2000/svg"><g><g><g><g><g><g><path d="m356.903 439.147-63.9 63.889c-.938.937-2.209 1.464-3.535 1.464h-125.077c-1.104 0-2-.895-2-2v-400.568c0-1.104.895-2 2-2h191.976c1.104 0 2 .895 2 2v333.68c0 1.326-.527 2.597-1.464 3.535z" fill="#f9f7f8"/><path d="m356.367 99.932h-40c1.104 0 2 .895 2 2v375.744l38.536-38.529c.938-.937 1.464-2.209 1.464-3.535v-333.681c0-1.104-.895-1.999-2-1.999z" fill="#e5eef9"/><path d="m165.049 504.5h-109.658c-1.657 0-3-1.343-3-3v-307.095l112.658-8.405z" fill="#ffe177"/><path d="m52.391 194.405h112.658v-94.473h-109.658c-1.657 0-3 1.343-3 3z" fill="#d5e3f4"/><path d="m140.611 194.405c.001-13.877-8.864-25.671-21.237-30.054-1.576-.558-1.874-2.675-.458-3.565 8.257-5.186 12.284-16.474 5.706-27.56-1.098-1.851-2.644-3.416-4.491-4.523-15.06-9.023-30.598 1.598-30.598 15.847 0 6.845 3.589 12.843 8.986 16.234 1.418.891 1.125 3.008-.453 3.567-12.374 4.382-21.239 16.176-21.238 30.054z" fill="#fff"/><g><path d="" fill="#685e68"/></g><g><path d="" fill="#685e68"/></g><g><path d="" fill="#685e68"/></g></g><path d="m293.245 502.793 63.381-63.37c.63-.63.184-1.707-.707-1.707h-54.382c-5.522 0-9.999 4.476-9.999 9.998v54.372c.001.891 1.078 1.337 1.707.707z" fill="#d5e3f4"/></g><g><ellipse cx="356.921" cy="110.26" fill="#fd8087" rx="70.926" ry="70.923"/></g><path d="m356.921 39.337c-6.948 0-13.655 1.017-20 2.879 29.429 8.636 50.926 35.822 50.926 68.044s-21.497 59.408-50.926 68.044c6.345 1.862 13.052 2.879 20 2.879 39.171 0 70.926-31.753 70.926-70.923s-31.754-70.923-70.926-70.923z" fill="#fe646f"/></g></g></g><g><path d="m455.461 140.173c-3.863-1.492-8.206.433-9.697 4.297-9.393 24.338-28.613 43.995-52.733 53.931-3.83 1.578-5.656 5.961-4.078 9.791 1.487 3.61 6.217 5.549 9.791 4.078 27.908-11.496 50.147-34.24 61.015-62.4 1.49-3.864-.434-8.206-4.298-9.697z"/><path d="m356.921 0c-43.355 0-82.849 25.638-100.613 65.315-1.693 3.781-.001 8.217 3.78 9.91 3.779 1.692 8.217 0 9.909-3.78 15.353-34.289 49.473-56.445 86.924-56.445 52.487 0 95.188 42.733 95.188 95.26 0 4.142 3.357 7.5 7.5 7.5s7.5-3.358 7.5-7.5c0-60.798-49.43-110.26-110.188-110.26z"/><path d="m83.389 248.231h50.663c4.143 0 7.5-3.358 7.5-7.5s-3.357-7.5-7.5-7.5h-50.663c-4.143 0-7.5 3.358-7.5 7.5s3.357 7.5 7.5 7.5z"/><path d="m83.389 281.556h50.663c4.143 0 7.5-3.358 7.5-7.5s-3.357-7.5-7.5-7.5h-50.663c-4.143 0-7.5 3.358-7.5 7.5s3.357 7.5 7.5 7.5z"/><path d="m83.389 314.881h27.664c4.143 0 7.5-3.358 7.5-7.5s-3.357-7.5-7.5-7.5h-27.664c-4.143 0-7.5 3.358-7.5 7.5s3.357 7.5 7.5 7.5z"/><path d="m83.389 400.193h50.663c4.143 0 7.5-3.358 7.5-7.5s-3.357-7.5-7.5-7.5h-50.663c-4.143 0-7.5 3.358-7.5 7.5s3.357 7.5 7.5 7.5z"/><path d="m83.389 433.519h50.663c4.143 0 7.5-3.358 7.5-7.5s-3.357-7.5-7.5-7.5h-50.663c-4.143 0-7.5 3.358-7.5 7.5s3.357 7.5 7.5 7.5z"/><path d="m83.389 466.844h50.663c4.143 0 7.5-3.358 7.5-7.5s-3.357-7.5-7.5-7.5h-50.663c-4.143 0-7.5 3.358-7.5 7.5s3.357 7.5 7.5 7.5z"/><path d="m197.879 240.731c0 4.142 3.357 7.5 7.5 7.5h110.658c4.143 0 7.5-3.358 7.5-7.5s-3.357-7.5-7.5-7.5h-110.658c-4.143 0-7.5 3.358-7.5 7.5z"/><path d="m205.379 180.248h67.995c4.143 0 7.5-3.358 7.5-7.5s-3.357-7.5-7.5-7.5h-67.995c-4.143 0-7.5 3.358-7.5 7.5s3.357 7.5 7.5 7.5z"/><path d="m205.379 281.556h57.774c4.143 0 7.5-3.358 7.5-7.5s-3.357-7.5-7.5-7.5h-57.774c-4.143 0-7.5 3.358-7.5 7.5s3.357 7.5 7.5 7.5z"/><path d="m316.037 299.881h-110.658c-4.143 0-7.5 3.358-7.5 7.5s3.357 7.5 7.5 7.5h110.658c4.143 0 7.5-3.358 7.5-7.5s-3.357-7.5-7.5-7.5z"/><path d="m316.037 385.193h-76.661c-4.143 0-7.5 3.358-7.5 7.5s3.357 7.5 7.5 7.5h76.661c4.143 0 7.5-3.358 7.5-7.5s-3.357-7.5-7.5-7.5z"/><path d="m263.153 418.519h-23.777c-4.143 0-7.5 3.358-7.5 7.5s3.357 7.5 7.5 7.5h23.777c4.143 0 7.5-3.358 7.5-7.5s-3.357-7.5-7.5-7.5z"/><path d="m263.153 451.844h-23.777c-4.143 0-7.5 3.358-7.5 7.5s3.357 7.5 7.5 7.5h23.777c4.143 0 7.5-3.358 7.5-7.5s-3.357-7.5-7.5-7.5z"/><path d="m205.379 348.873h80.66c4.143 0 7.5-3.358 7.5-7.5s-3.357-7.5-7.5-7.5h-80.66c-4.143 0-7.5 3.358-7.5 7.5s3.357 7.5 7.5 7.5z"/><path d="m209.54 386.46c-3.275-2.209-7.867-1.38-10.197 1.791-2.359 3.21-1.748 7.896 1.415 10.348 3.241 2.512 8.063 1.935 10.568-1.339 2.589-3.383 1.787-8.448-1.786-10.8z"/><path d="m212.3 423.15c-1.506-3.772-5.987-5.575-9.716-4.086-3.739 1.493-5.625 5.831-4.218 9.594 1.398 3.74 5.644 5.742 9.421 4.458 4.026-1.369 6.181-6.027 4.513-9.966z"/><path d="m212.3 456.48c-1.479-3.786-6.004-5.572-9.716-4.087-3.737 1.495-5.626 5.824-4.218 9.589 1.396 3.732 5.645 5.746 9.421 4.462 4.025-1.369 6.18-6.026 4.513-9.964z"/><path d="m435.348 110.26c0-15.485-4.52-30.472-13.069-43.34-2.292-3.45-6.948-4.388-10.397-2.096-3.45 2.292-4.389 6.947-2.097 10.397 6.911 10.4 10.563 22.516 10.563 35.039 0 34.972-28.453 63.423-63.427 63.423-34.973 0-63.426-28.451-63.426-63.423s28.453-63.423 63.426-63.423c11.885 0 23.481 3.319 33.536 9.597 3.512 2.194 8.141 1.125 10.334-2.389 2.194-3.514 1.125-8.14-2.389-10.334-12.44-7.769-26.784-11.875-41.481-11.875-37.111 0-68.261 25.917-76.357 60.595h-225.173c-5.79 0-10.5 4.71-10.5 10.5v327.105c0 4.142 3.357 7.5 7.5 7.5s7.5-3.358 7.5-7.5v-228.131h97.658v295.095h-97.658v-37.039c0-4.142-3.357-7.5-7.5-7.5s-7.5 3.358-7.5 7.5v41.539c0 5.79 4.71 10.5 10.5 10.5h234.077c3.338 0 6.477-1.299 8.838-3.66 21.299-21.296 42.6-42.59 63.897-63.887 2.362-2.36 3.664-5.5 3.664-8.841v-247.455c39.046-4.456 69.481-37.681 69.481-77.897zm-153.975 20.996h-75.994c-4.143 0-7.5 3.358-7.5 7.5s3.357 7.5 7.5 7.5h81.901c12.187 23.48 35.89 40.043 63.587 42.17v241.79h-49.329c-9.649 0-17.5 7.85-17.5 17.498v49.286h-111.489v-389.568h106.018c-.288 8.038.648 16.071 2.806 23.824zm17.665 355.14v-38.682c0-1.377 1.121-2.498 2.5-2.498h38.686zm-213.524-299.491c2.3-7.088 7.785-12.909 15.058-15.485 7.338-2.6 8.565-12.822 1.938-16.986-7.356-4.623-7.132-15.757.462-20.06 2.311-1.308 7.11-2.95 13.306.763 6.945 4.159 4.546 15.595-1.349 19.298-6.63 4.164-5.394 14.386 1.941 16.986 7.271 2.575 12.757 8.396 15.056 15.484zm61.873 0c-2.078-10.673-8.511-20.048-17.682-25.83 8.87-11.184 7.052-31.156-5.719-38.806-9.153-5.485-19.775-5.838-28.409-.946-13.845 7.845-17.824 27.111-7.827 39.742-9.179 5.782-15.618 15.161-17.698 25.839h-10.161v-79.473h97.658v79.473h-10.162z"/><path d="m389.579 77.603c-2.93-2.929-7.678-2.929-10.607 0l-22.05 22.05-22.05-22.05c-2.93-2.929-7.678-2.929-10.607 0s-2.929 7.678 0 10.606l22.051 22.051-22.051 22.051c-2.929 2.929-2.929 7.678 0 10.606 3.536 2.929 7.072 2.929 10.607 0l22.05-22.05 22.05 22.05c3.536 2.929 7.072 2.929 10.607 0 2.929-2.929 2.929-7.678 0-10.606l-22.051-22.051 22.051-22.051c2.929-2.929 2.929-7.678 0-10.606z"/></g></g></svg>