<svg id="Capa_1" enable-background="new 0 0 511.88 511.88" height="512" viewBox="0 0 511.88 511.88" width="512" xmlns="http://www.w3.org/2000/svg"><g><g><g><g><g><ellipse cx="392.129" cy="162.549" fill="#6fd7a3" rx="92.311" ry="92.284"/><g><g><path d="m392.162 220.852h-.065c-20.903 0-37.848-16.945-37.848-37.848v-20.425c0-20.903 16.945-37.848 37.848-37.848h.065c20.903 0 37.848 16.945 37.848 37.848v20.425c0 20.903-16.945 37.848-37.848 37.848z" fill="#ffdfcf"/><path d="m392.162 124.731h-.065c-.701 0-1.396.022-2.087.06v58.213c0 13.572-7.148 25.469-17.88 32.149 5.797 3.608 12.637 5.699 19.967 5.699h.065c20.903 0 37.848-16.945 37.848-37.848v-20.425c0-20.903-16.945-37.848-37.848-37.848z" fill="#ffcebf"/><path d="m354.249 163.481 8.009-12.998c4.013-6.513 12.381-8.761 19.095-5.129 6.246 2.544 15.308 2.544 21.554 0 6.714-3.632 15.082-1.385 19.095 5.129l8.009 12.998v-21.185c0-21.014-16.96-38.049-37.88-38.049-20.921 0-37.88 17.035-37.88 38.049v21.185z" fill="#685e68"/></g></g></g><g><g><ellipse cx="255.94" cy="267.299" fill="#f9f7f8" rx="92.311" ry="92.284"/></g><g><path d="m309.392 325.525v-62.661c0-29.703-23.931-53.782-53.452-53.782-29.521 0-53.452 24.079-53.452 53.782v62.661z" fill="#bc7c63"/><g><path d="m255.94 254.183c-3.261 4.516-8.549 7.455-14.522 7.455h-7.929c-3.405 0-6.165 2.777-6.165 6.203v28.892c0 15.901 12.812 28.792 28.615 28.792 15.804 0 28.615-12.891 28.615-28.792v-28.892c0-3.426-2.76-6.203-6.165-6.203h-7.929c-5.971 0-11.258-2.938-14.52-7.455z" fill="#ffdfcf"/></g><path d="m278.39 261.638h-7.929c-5.973 0-11.26-2.939-14.522-7.455-3.261 4.516-8.549 7.455-14.522 7.455h-3.028c3.405 0 6.165 2.777 6.165 6.203v28.892c0 8.068-3.302 15.356-8.615 20.584 5.159 5.076 12.214 8.208 20 8.208 15.804 0 28.615-12.891 28.615-28.792v-28.892c.001-3.426-2.759-6.203-6.164-6.203z" fill="#ffcebf"/></g></g></g><g><ellipse cx="119.751" cy="99.784" fill="#ffe177" rx="92.311" ry="92.284"/><g><path d="m117.602 158.076h-.065c-20.903 0-37.848-16.945-37.848-37.848v-20.424c0-20.903 16.945-37.848 37.848-37.848h37.913v58.273c0 20.902-16.945 37.847-37.848 37.847z" fill="#ffdfcf"/><path d="m117.537 61.956c-.701 0-1.396.022-2.087.06v58.213c0 13.572-7.148 25.469-17.88 32.149 5.797 3.608 12.637 5.699 19.967 5.699h.065c20.903 0 37.848-16.945 37.848-37.848v-58.273z" fill="#ffcebf"/><path d="m79.689 100.706h38.761c22.844 0 41.362-18.601 41.362-41.546 0-9.769-7.884-17.688-17.61-17.688h-23.516c-21.538 0-38.998 17.538-38.998 39.172v20.062z" fill="#bc7c63"/></g></g></g><g><g><path d="m117.696 328.042 105.406 103.649v62.796c0 7.556 8.059 12.383 14.72 8.816l44.797-23.987c3.251-1.741 5.28-5.129 5.28-8.816v-38.809l106.284-103.649z" fill="#685e68"/><g><path d="m354.184 328.042-106.284 103.649v61.994c0 1.761-.474 3.447-1.312 4.924l36.032-19.293c3.251-1.74 5.28-5.128 5.28-8.816v-38.809l106.284-103.649z" fill="#554e56"/></g></g><path d="m412.418 336.042h-312.955c-10.612 0-19.214-8.602-19.214-19.214 0-10.612 8.602-19.214 19.214-19.214h312.955c10.612 0 19.214 8.602 19.214 19.214 0 10.611-8.603 19.214-19.214 19.214z" fill="#d5e3f4"/></g></g><g><path d="m491.94 162.55c0-55.021-44.775-99.784-99.811-99.784s-99.811 44.763-99.811 99.784c0 4.068.26 8.116.747 12.128-11.482-4.616-24.011-7.163-37.125-7.163-55.036 0-99.811 44.763-99.811 99.784 0 7.733.898 15.371 2.64 22.814h-59.306c-14.73 0-26.714 11.983-26.714 26.714s11.984 26.715 26.714 26.715h23.3l92.839 91.292v59.652c0 12.67 14.399 21.511 25.761 15.428l44.797-23.987c5.699-3.052 9.239-8.964 9.239-15.428v-35.646l93.632-91.311h23.386c14.73 0 26.714-11.984 26.714-26.715s-11.984-26.714-26.714-26.714h-59.307c1.743-7.444 2.64-15.082 2.64-22.814 0-4.1-.254-8.142-.737-12.114 11.738 4.697 24.332 7.149 37.116 7.149 55.036-.001 99.811-44.764 99.811-99.784zm-67.808 154.277c0 6.46-5.255 11.715-11.714 11.715h-70.811c-4.142 0-7.5 3.357-7.5 7.5s3.358 7.5 7.5 7.5h25.941l-82.7 80.648h-28.908c-4.142 0-7.5 3.357-7.5 7.5s3.358 7.5 7.5 7.5h24.46v31.309c0 .924-.506 1.769-1.32 2.204l-44.797 23.987c-2.059.655-3.286-.079-3.68-2.204v-62.796c0-2.011-.808-3.938-2.241-5.348l-84.205-82.801h165.118c4.142 0 7.5-3.357 7.5-7.5s-3.358-7.5-7.5-7.5h-209.812c-6.459 0-11.714-5.255-11.714-11.715 0-6.459 5.255-11.714 11.714-11.714h312.955c6.459.001 11.714 5.256 11.714 11.715zm-122.24-26.714h-9.836v-22.271c0-7.557-6.13-13.704-13.665-13.704-5.173.914-13.1.182-16.37-4.346-4.053-4.145-8.107-4.145-12.16 0-3.352 4.641-11.049 5.109-16.37 4.346-7.535 0-13.665 6.147-13.665 13.704v22.271h-9.836v-27.249c0-25.521 20.614-46.282 45.952-46.282s45.952 20.762 45.952 46.282v27.249zm-24.837 0h-42.23v-20.976c7.342.404 14.877-.234 21.115-4.585 6.239 4.351 13.773 4.989 21.115 4.585zm39.837 0v-27.249c0-33.791-27.343-61.282-60.952-61.282s-60.952 27.491-60.952 61.282v27.249h-20.74c-2.062-7.394-3.119-15.046-3.119-22.814 0-46.75 38.046-84.784 84.811-84.784s84.811 38.034 84.811 84.784c0 7.769-1.057 15.421-3.118 22.814zm-6.99-106.722c-1.713-6.779-2.583-13.775-2.583-20.841 0-46.75 38.046-84.784 84.811-84.784s84.811 38.034 84.811 84.784-38.046 84.783-84.811 84.783c-14.467 0-28.648-3.676-41.192-10.654-7.156-22.133-21.844-40.909-41.036-53.288z"/><path d="m437.51 183.004c0-13.569 0-27.139 0-40.708 0-25.115-20.358-45.549-45.381-45.549s-45.38 20.434-45.38 45.549v40.708c0 25.005 20.343 45.348 45.413 45.348 25.005 0 45.348-20.343 45.348-45.348zm-45.38-71.257c16.047 0 29.229 12.574 30.309 28.44-6.482-4.608-15.211-5.478-22.662-1.661-4.363 1.658-10.931 1.658-15.294 0-7.451-3.815-16.178-2.948-22.662 1.661 1.08-15.865 14.261-28.44 30.309-28.44zm-30.381 71.257v-17.397l6.895-11.19c2.289-3.716 6.482-3.51 9.88-2.116 8.012 3.263 19.201 3.262 27.212 0 3.397-1.393 7.592-1.598 9.88 2.117l6.894 11.189v17.397c0 16.733-13.614 30.348-30.413 30.348-16.734 0-30.348-13.615-30.348-30.348z"/><path d="m219.562 99.784c0-55.021-44.775-99.784-99.811-99.784-12.924 0-25.52 2.446-37.437 7.271-3.839 1.555-5.692 5.928-4.137 9.767 1.555 3.84 5.926 5.691 9.766 4.138 10.12-4.099 20.822-6.176 31.808-6.176 46.765 0 84.811 38.034 84.811 84.784s-38.046 84.784-84.811 84.784-84.811-38.034-84.811-84.784c0-24.691 10.742-48.109 29.472-64.248 3.138-2.704 3.49-7.439.786-10.577-2.704-3.139-7.44-3.489-10.577-.786-22.04 18.991-34.681 46.551-34.681 75.611 0 55.021 44.775 99.784 99.811 99.784s99.811-44.762 99.811-99.784z"/><path d="m117.602 165.576c25.005 0 45.348-20.343 45.348-45.348v-40.85c2.793-6.17 4.363-13.012 4.363-20.219 0-13.889-11.264-25.188-25.109-25.188h-23.516c-25.639 0-46.498 20.937-46.498 46.671v39.586c-.001 25.005 20.342 45.348 45.412 45.348zm-.065-15c-16.734 0-30.348-13.614-30.348-30.348v-12.022h31.261c11.075 0 21.296-3.723 29.5-9.98v22.002c0 16.734-13.614 30.348-30.413 30.348zm-30.348-69.933c0-17.464 14.13-31.671 31.498-31.671h23.516c5.574 0 10.109 4.57 10.109 10.188 0 18.773-15.19 34.047-33.862 34.047h-31.261z"/></g></g></svg>