<svg id="Capa_1" enable-background="new 0 0 512.001 512.001" height="512" viewBox="0 0 512.001 512.001" width="512" xmlns="http://www.w3.org/2000/svg"><g><g><g><path d="m264.692 503.421h-217.192c-22.091 0-40-17.909-40-40v-417c0-22.091 17.909-40 40-40h217.192c22.091 0 40 17.909 40 40v417c0 22.091-17.908 40-40 40z" fill="#685e68"/><g><path d="m264.692 37.5h-62.466c-3.344 0-6.466 1.671-8.321 4.453l-7.507 11.261c-1.855 2.782-4.977 4.453-8.32 4.453h-43.963c-3.344 0-6.466-1.671-8.321-4.453l-7.507-11.261c-1.855-2.782-4.977-4.453-8.321-4.453h-62.465c-5.523 0-10 4.477-10 10v417c0 5.523 4.477 10 10 10h217.192c5.523 0 10-4.477 10-10v-417c-.001-5.523-4.478-10-10.001-10z" fill="#f9f7f8"/></g><g><path d="m264.692 37.5h-40c5.523 0 10 4.477 10 10v417c0 5.523-4.477 10-10 10h40c5.523 0 10-4.477 10-10v-417c0-5.523-4.477-10-10-10z" fill="#e5eef9"/></g><g><circle cx="95.955" cy="120.882" fill="#fd8087" r="22.228"/><circle cx="95.955" cy="194.093" fill="#ffe177" r="22.228"/><circle cx="95.955" cy="267.304" fill="#6fd7a3" r="22.228"/><circle cx="95.955" cy="340.515" fill="#b3dafe" r="22.228"/><circle cx="95.955" cy="413.726" fill="#fd8087" r="22.228"/></g></g><g><path d="m504.493 378.358c-.717-67.692-56.108-122.918-123.802-123.434-41.17-.314-77.765 19.318-100.716 49.805-1.848 2.455-4.722 3.921-7.795 3.921h-40.338c-7.162 0-10.749 8.659-5.685 13.724l27.837 27.837c2.243 2.243 3.225 5.435 2.696 8.563-1.42 8.392-2.006 17.067-1.656 25.942 2.667 67.638 59.621 121.148 127.298 119.757 68.157-1.4 122.889-57.451 122.161-126.115z" fill="#f9f7f8"/><path d="m504.493 378.358c-.717-67.692-56.108-122.918-123.802-123.434-41.17-.314-77.765 19.318-100.716 49.805-1.848 2.455-4.722 3.921-7.795 3.921h-40.338c-7.162 0-10.749 8.659-5.685 13.724l27.837 27.837c2.243 2.243 3.225 5.435 2.696 8.563-1.42 8.392-2.006 17.067-1.656 25.942 2.667 67.638 59.621 121.148 127.298 119.757 68.157-1.4 122.889-57.451 122.161-126.115z" fill="#f9f7f8"/><g><path d="m453.858 361.198v61.55c0 8.88-7.199 16.079-16.079 16.079h-118.178c-8.88 0-16.079-7.199-16.079-16.079v-61.55z" fill="#bc7c63"/><path d="m413.858 351.198v71.55c0 8.88-7.199 16.079-16.079 16.079h40c8.88 0 16.079-7.199 16.079-16.079v-59.051z" fill="#aa6a51"/><path d="m378.871 412.841c-6.713 0-12.156-5.442-12.156-12.156v-31.8h24.311v31.8c0 6.713-5.442 12.156-12.155 12.156z" fill="#e5eef9"/><path d="m303.523 351.198v13.968c0 3.745 2.586 6.994 6.236 7.834l65.329 15.041c2.487.573 5.074.545 7.548-.08l65.154-16.47c3.569-.902 6.069-4.113 6.069-7.794v-12.498c0-8.88-7.199-16.079-16.079-16.079h-118.179c-8.88 0-16.078 7.198-16.078 16.078z" fill="#d1a08f"/><path d="m437.779 335.12h-40c8.88 0 16.079 7.199 16.079 16.079v28.87l33.931-8.577c3.569-.902 6.069-4.113 6.069-7.794v-12.498c0-8.882-7.199-16.08-16.079-16.08z" fill="#c68d7a"/></g></g></g><g><path d="m95.955 91.154c-16.392 0-29.728 13.336-29.728 29.728 0 16.393 13.336 29.729 29.728 29.729 16.393 0 29.729-13.336 29.729-29.729 0-16.392-13.336-29.728-29.729-29.728zm0 44.456c-8.121 0-14.728-6.607-14.728-14.729s6.607-14.728 14.728-14.728 14.729 6.606 14.729 14.728-6.608 14.729-14.729 14.729z"/><path d="m234.466 99.236h-91.816c-4.142 0-7.5 3.357-7.5 7.5s3.358 7.5 7.5 7.5h91.816c4.142 0 7.5-3.357 7.5-7.5s-3.358-7.5-7.5-7.5z"/><path d="m142.65 142.528h38.432c4.142 0 7.5-3.357 7.5-7.5s-3.358-7.5-7.5-7.5h-38.432c-4.142 0-7.5 3.357-7.5 7.5s3.358 7.5 7.5 7.5z"/><path d="m234.466 127.528h-24.431c-4.142 0-7.5 3.357-7.5 7.5s3.358 7.5 7.5 7.5h24.431c4.142 0 7.5-3.357 7.5-7.5s-3.358-7.5-7.5-7.5z"/><path d="m95.955 164.365c-16.392 0-29.728 13.336-29.728 29.728 0 16.393 13.336 29.729 29.728 29.729 16.393 0 29.729-13.336 29.729-29.729 0-16.392-13.336-29.728-29.729-29.728zm0 44.456c-8.121 0-14.728-6.607-14.728-14.729s6.607-14.728 14.728-14.728 14.729 6.606 14.729 14.728-6.608 14.729-14.729 14.729z"/><path d="m234.466 172.447h-91.816c-4.142 0-7.5 3.357-7.5 7.5s3.358 7.5 7.5 7.5h91.816c4.142 0 7.5-3.357 7.5-7.5s-3.358-7.5-7.5-7.5z"/><path d="m142.65 215.739h38.432c4.142 0 7.5-3.357 7.5-7.5s-3.358-7.5-7.5-7.5h-38.432c-4.142 0-7.5 3.357-7.5 7.5s3.358 7.5 7.5 7.5z"/><path d="m234.466 200.739h-24.431c-4.142 0-7.5 3.357-7.5 7.5s3.358 7.5 7.5 7.5h24.431c4.142 0 7.5-3.357 7.5-7.5s-3.358-7.5-7.5-7.5z"/><path d="m95.955 237.576c-16.392 0-29.728 13.336-29.728 29.728 0 16.393 13.336 29.729 29.728 29.729 16.393 0 29.729-13.336 29.729-29.729 0-16.392-13.336-29.728-29.729-29.728zm0 44.456c-8.121 0-14.728-6.607-14.728-14.729s6.607-14.728 14.728-14.728 14.729 6.606 14.729 14.728-6.608 14.729-14.729 14.729z"/><path d="m234.466 245.658h-91.816c-4.142 0-7.5 3.357-7.5 7.5s3.358 7.5 7.5 7.5h91.816c4.142 0 7.5-3.357 7.5-7.5s-3.358-7.5-7.5-7.5z"/><path d="m181.082 273.95h-38.432c-4.142 0-7.5 3.357-7.5 7.5s3.358 7.5 7.5 7.5h38.432c4.142 0 7.5-3.357 7.5-7.5s-3.358-7.5-7.5-7.5z"/><path d="m95.955 310.786c-16.392 0-29.728 13.336-29.728 29.729s13.336 29.729 29.728 29.729c16.393 0 29.729-13.336 29.729-29.729s-13.336-29.729-29.729-29.729zm0 44.457c-8.121 0-14.728-6.607-14.728-14.729s6.607-14.729 14.728-14.729 14.729 6.607 14.729 14.729-6.608 14.729-14.729 14.729z"/><path d="m142.65 362.161h38.432c4.142 0 7.5-3.357 7.5-7.5s-3.358-7.5-7.5-7.5h-38.432c-4.142 0-7.5 3.357-7.5 7.5s3.358 7.5 7.5 7.5z"/><path d="m95.955 383.997c-16.392 0-29.728 13.336-29.728 29.729s13.336 29.729 29.728 29.729c16.393 0 29.729-13.336 29.729-29.729s-13.336-29.729-29.729-29.729zm0 44.457c-8.121 0-14.728-6.607-14.728-14.729s6.607-14.729 14.728-14.729 14.729 6.607 14.729 14.729-6.608 14.729-14.729 14.729z"/><path d="m135.15 399.579c0 4.143 3.358 7.5 7.5 7.5h91.816c4.142 0 7.5-3.357 7.5-7.5s-3.358-7.5-7.5-7.5h-91.816c-4.142 0-7.5 3.358-7.5 7.5z"/><path d="m181.082 420.372h-38.432c-4.142 0-7.5 3.357-7.5 7.5s3.358 7.5 7.5 7.5h38.432c4.142 0 7.5-3.357 7.5-7.5s-3.358-7.5-7.5-7.5z"/><path d="m234.466 273.95h-24.431c-4.142 0-7.5 3.357-7.5 7.5s3.358 7.5 7.5 7.5h24.431c4.142 0 7.5-3.357 7.5-7.5s-3.358-7.5-7.5-7.5z"/><path d="m234.466 420.372h-24.431c-4.142 0-7.5 3.357-7.5 7.5s3.358 7.5 7.5 7.5h24.431c4.142 0 7.5-3.357 7.5-7.5s-3.358-7.5-7.5-7.5z"/><path d="m380.748 247.424c-24.069-.227-47.879 6.208-68.556 18.534v-218.458c0-26.191-21.309-47.5-47.5-47.5h-217.191c-26.191 0-47.5 21.309-47.5 47.5v43.111c0 4.143 3.358 7.5 7.5 7.5s7.5-3.357 7.5-7.5v-43.111c0-17.921 14.58-32.5 32.5-32.5h217.192c17.92 0 32.5 14.579 32.5 32.5v228.856c-5.348 4.279-10.367 8.971-15 14.018v-242.874c0-9.649-7.851-17.5-17.5-17.5h-62.466c-5.865 0-11.308 2.913-14.561 7.793l-7.508 11.261c-.464.697-1.242 1.113-2.08 1.113h-43.963c-.837 0-1.615-.416-2.08-1.113l-7.507-11.261c-3.253-4.88-8.696-7.793-14.561-7.793h-62.466c-9.649 0-17.5 7.851-17.5 17.5v417c0 9.649 7.851 17.5 17.5 17.5h217.192c8.312 0 15.276-5.831 17.05-13.613 3.655 4.031 7.541 7.82 11.659 11.368-5.573 10.486-16.559 17.245-28.71 17.245h-217.191c-17.92 0-32.5-14.579-32.5-32.5v-342.414c0-4.143-3.358-7.5-7.5-7.5s-7.5 3.357-7.5 7.5v342.414c0 26.191 21.309 47.5 47.5 47.5h217.192c16.888 0 32.234-8.942 40.701-23.004 22.529 15.421 49.795 23.556 77.093 22.975 33.154-.681 64.628-13.69 88.624-36.633 2.994-2.862 3.1-7.61.238-10.604s-7.609-3.102-10.604-.238c-21.274 20.34-49.176 31.874-78.566 32.479-63.461 1.313-117.151-49.188-119.649-112.555-.322-8.178.202-16.386 1.557-24.396.936-5.531-.854-11.182-4.788-15.118l-27.837-27.837c-.283-.476-.155-.783.381-.92h40.338c5.35 0 10.559-2.623 13.787-6.911 22.283-29.599 57.554-47.139 94.667-46.815 63.489.484 115.688 52.528 116.36 116.014.244 23.043-6.19 45.414-18.608 64.693-2.243 3.482-1.238 8.124 2.244 10.367 3.482 2.241 8.123 1.236 10.366-2.244 14.012-21.755 21.272-46.989 20.997-72.975-.76-71.606-59.636-130.307-131.246-130.854zm-163.262 63.319c-1.091 2.634-1.411 5.434-1.031 8.125h-73.805c-4.142 0-7.5 3.357-7.5 7.5s3.358 7.5 7.5 7.5h84.395l21.646 21.645c.506.507.732 1.259.605 2.011-5.322 31.447 1.04 64.53 17.896 91.63v15.346c0 1.379-1.122 2.5-2.5 2.5h-217.191c-1.378 0-2.5-1.121-2.5-2.5v-417c0-1.379 1.122-2.5 2.5-2.5h62.466c.838 0 1.615.416 2.08 1.113l7.507 11.262c3.253 4.879 8.697 7.792 14.561 7.792h43.963c5.865 0 11.308-2.913 14.561-7.793l7.508-11.261c.464-.697 1.242-1.113 2.08-1.113h62.466c1.378 0 2.5 1.121 2.5 2.5v253.65h-35.35c-6.308 0-11.944 3.766-14.357 9.593z"/><path d="m396.263 304.237h-35.146c-8.568 0-15.54 6.971-15.54 15.539v7.844h-25.977c-13.001 0-23.579 10.577-23.579 23.578v71.55c0 13.002 10.577 23.579 23.579 23.579h118.178c13.001 0 23.579-10.577 23.579-23.579v-71.55c0-13.001-10.577-23.578-23.579-23.578h-25.977v-7.844c.001-8.568-6.969-15.539-15.538-15.539zm-35.685 15.539c0-.297.242-.539.54-.539h35.146c.297 0 .539.242.539.539v7.844h-36.225zm77.201 111.551h-118.178c-4.73 0-8.579-3.849-8.579-8.579v-41.761l48.192 11.096v8.603c0 10.838 8.817 19.655 19.656 19.655s19.656-8.817 19.656-19.655v-9.006l47.832-12.091v43.159c0 4.731-3.848 8.579-8.579 8.579zm-63.564-35.815c3.106.604 6.21.58 9.312-.072v5.246c0 2.567-2.088 4.655-4.656 4.655s-4.656-2.088-4.656-4.655zm72.143-44.314v12.499c0 .247-.167.462-.407.522l-65.153 16.47c-1.314.333-2.707.348-4.028.043l-65.33-15.041c-.246-.057-.417-.272-.417-.525v-13.968c0-4.73 3.848-8.578 8.579-8.578h118.178c4.73 0 8.578 3.848 8.578 8.578z"/></g></g></svg>