<svg id="Capa_1" enable-background="new 0 0 512.004 512.004" height="512" viewBox="0 0 512.004 512.004" width="512" xmlns="http://www.w3.org/2000/svg"><g><g><g><g><path d="m351.463 466.798h-340.557c-1.881 0-3.406-1.525-3.406-3.406v-452.484c0-1.881 1.525-3.406 3.406-3.406l265.743-.001c1.505 0 2.949.598 4.014 1.662l72.544 72.532c1.064 1.064 1.662 2.508 1.662 4.013v377.684c0 1.881-1.525 3.406-3.406 3.406z" fill="#f9f7f8"/><g><path d="m353.207 81.696-38.338-38.331v420.027c0 1.881-1.525 3.406-3.406 3.406h40c1.881 0 3.406-1.525 3.406-3.406v-377.683c0-1.505-.598-2.949-1.662-4.013z" fill="#e5eef9"/></g><path d="m280.938 9.44 71.955 71.943c.715.715.209 1.938-.803 1.938h-61.738c-6.27 0-11.352-5.082-11.352-11.35v-61.729c0-1.011 1.223-1.518 1.938-.802z" fill="#d5e3f4"/></g></g><g><path d="m289.84 490.946h195.693c9.718.03 18.137-7.277 18.911-16.965.874-10.936-8.046-19.896-18.564-20.155 10.253.034 18.539-8.251 18.506-18.503-.032-10.205-8.565-18.337-18.557-18.617-.003 0-.003-.002 0-.002 10.223-.001 18.473-8.272 18.441-18.503-.032-10.205-8.565-18.337-18.557-18.617-.003 0-.003-.002 0-.002 10.222-.001 18.473-8.272 18.441-18.503-.032-10.272-8.347-18.587-18.619-18.619l-54.188-.399 7.907-7.947c10.447-10.5 16.301-24.719 16.278-39.531-.008-4.811-.016-9.364-.016-12.916.03-9.718-7.277-18.137-16.965-18.911-10.937-.874-19.896 8.046-20.155 18.564v17.235c0 2.653-1.054 5.197-2.929 7.072 0 0-32.507 31.668-45.539 44.539-6.931 6.845-13.791 14.813-18.882 23.177-1.257 2.065-3.49 3.332-5.907 3.325h-22.265z" fill="#d1a08f"/><path d="m445.535 342.461c10.272.032 18.587 8.347 18.619 18.619.02 6.365-3.167 11.972-8.04 15.301-2.344 1.601-2.338 5.013-.003 6.626 4.863 3.358 8.139 8.879 8.159 15.195.02 6.365-3.167 11.972-8.04 15.301-2.344 1.601-2.338 5.013-.003 6.626 4.863 3.358 8.139 8.88 8.159 15.195.02 6.365-3.166 11.971-8.039 15.3-2.305 1.574-2.399 4.992-.094 6.565 5.304 3.619 8.748 9.802 8.19 16.794-.774 9.688-9.193 16.995-18.911 16.965h40c9.718.031 18.137-7.277 18.911-16.965.874-10.937-8.046-19.896-18.564-20.155 10.253.034 18.539-8.251 18.507-18.503-.032-10.205-8.565-18.336-18.557-18.617 0-.004 0 .002 0-.002 10.222-.001 18.472-8.272 18.44-18.502-.032-10.205-8.565-18.336-18.557-18.617 0-.004 0 .002 0-.002 10.222-.002 18.472-8.273 18.44-18.503-.032-10.272-8.347-18.587-18.619-18.619h-39.998z" fill="#c68d7a"/><g><path d="m254.07 365.182.416 132.879c.011 3.445 2.812 6.246 6.257 6.257l58.645.184c3.447.011 6.233-2.775 6.222-6.222l-.416-132.879c-.011-3.445-2.812-6.246-6.257-6.256l-58.645-.184c-3.447-.011-6.233 2.775-6.222 6.221z" fill="#b3dafe"/><g><path d="" fill="#ffe177"/></g></g></g></g><g><path d="m159.917 161.624c4.142 0 7.5-3.357 7.5-7.5s-3.358-7.5-7.5-7.5h-25.005c-4.142 0-7.5 3.357-7.5 7.5v61.694c0 4.143 3.358 7.5 7.5 7.5s7.5-3.357 7.5-7.5v-23.932h15.519c4.142 0 7.5-3.357 7.5-7.5s-3.358-7.5-7.5-7.5h-15.519v-15.263h17.505z"/><path d="m175.456 154.124v61.694c0 4.143 3.358 7.5 7.5 7.5s7.5-3.357 7.5-7.5v-23.932h15.519c4.142 0 7.5-3.357 7.5-7.5s-3.358-7.5-7.5-7.5h-15.519v-15.263h17.505c4.142 0 7.5-3.357 7.5-7.5s-3.358-7.5-7.5-7.5h-25.005c-4.142.001-7.5 3.358-7.5 7.501z"/><path d="m256.949 161.681c4.143 0 7.5-3.357 7.5-7.5s-3.357-7.5-7.5-7.5h-25.949c-4.142 0-7.5 3.357-7.5 7.5v61.582c0 4.143 3.358 7.5 7.5 7.5h25.948c4.143 0 7.5-3.357 7.5-7.5s-3.357-7.5-7.5-7.5h-18.448v-15.791h16.535c4.142 0 7.5-3.357 7.5-7.5s-3.357-7.5-7.5-7.5h-16.535v-15.791z"/><path d="m320.146 170.049c0-13.042-11.021-23.652-24.566-23.652h-16.515c-.003 0-.007 0-.01 0s-.007 0-.01 0c-4.143 0-7.5 3.357-7.5 7.5v62.149c0 4.143 3.357 7.5 7.5 7.5s7.5-3.357 7.5-7.5v-18.304l20.472 23.259c3.436 3.151 6.964 3.376 10.585.675 3.109-2.736 3.411-7.476.675-10.585l-16.08-18.269c10.34-2.789 17.949-11.939 17.949-22.773zm-24.599 8.651-8.895.039-.062-17.343h8.988c5.186 0 9.566 3.962 9.566 8.652.002 4.69-4.379 8.652-9.597 8.652z"/><path d="m80.798 223.546c21.27 0 38.575-17.305 38.575-38.574 0-21.271-17.305-38.575-38.575-38.575s-38.575 17.305-38.575 38.575c.001 21.269 17.305 38.574 38.575 38.574zm0-62.15c12.999 0 23.575 10.576 23.575 23.575s-10.576 23.574-23.575 23.574-23.575-10.575-23.575-23.574 10.576-23.575 23.575-23.575z"/><path d="m65.477 129.619c10.936 0 19.471-9.607 19.471-20.169v-50.311c0-4.143-3.358-7.5-7.5-7.5s-7.5 3.357-7.5 7.5v50.312c0 6.792-6.536 5.173-9.355 2.879 0 0-5.722-5.281-10.64.173-5.035 5.583 0 10.4 0 10.4 2.987 3.005 8.771 6.716 15.524 6.716z"/><path d="m210.337 51.639h-18.285c-4.142 0-7.5 3.357-7.5 7.5v62.949c0 3.725 3.729 7.5 7.526 7.5l21.452-.075c13.479 0 24.444-10.966 24.444-24.444 0-7.795-3.672-14.745-9.373-19.223 2.348-3.497 3.72-7.702 3.72-12.222.001-12.123-9.862-21.985-21.984-21.985zm0 15c3.851 0 6.984 3.133 6.984 6.984s-3.133 6.985-7.01 6.985c-3.586.016-7.173.021-10.759.017v-13.986zm3.167 47.874-13.952.049v-18.916c4.659-.02 9.319-.027 13.979-.021 5.208 0 9.444 4.236 9.444 9.443 0 5.208-4.237 9.445-9.471 9.445z"/><path d="m134.391 51.639c-21.491 0-38.975 17.484-38.975 38.975s17.484 38.975 38.975 38.975c21.49 0 38.974-17.484 38.974-38.975s-17.484-38.975-38.974-38.975zm0 62.949c-13.22 0-23.975-10.755-23.975-23.975s10.755-23.975 23.975-23.975c13.219 0 23.974 10.755 23.974 23.975s-10.755 23.975-23.974 23.975z"/><path d="m56.567 268.71c0 4.143 3.358 7.5 7.5 7.5h234.235c4.143 0 7.5-3.357 7.5-7.5s-3.357-7.5-7.5-7.5h-234.235c-4.142 0-7.5 3.357-7.5 7.5z"/><path d="m282.468 312.688c0-4.143-3.357-7.5-7.5-7.5h-210.901c-4.142 0-7.5 3.357-7.5 7.5s3.358 7.5 7.5 7.5h210.901c4.143 0 7.5-3.358 7.5-7.5z"/><path d="m64.067 364.164h119.761c4.142 0 7.5-3.357 7.5-7.5s-3.358-7.5-7.5-7.5h-119.761c-4.142 0-7.5 3.357-7.5 7.5s3.358 7.5 7.5 7.5z"/><path d="m64.067 408.142h156.31c4.142 0 7.5-3.357 7.5-7.5s-3.358-7.5-7.5-7.5h-156.31c-4.142 0-7.5 3.357-7.5 7.5s3.358 7.5 7.5 7.5z"/><path d="m505.31 455.21c-.395-.438-.803-.861-1.223-1.271 4.992-4.921 7.82-11.622 7.799-18.64-.022-7.154-3.066-13.71-7.936-18.463 5.012-4.898 7.841-11.651 7.819-18.659-.022-7.153-3.066-13.71-7.936-18.462 5.011-4.899 7.841-11.65 7.819-18.659-.045-14.345-11.752-26.321-26.064-26.366h-36.767c9.228-11.306 14.232-25.331 14.209-40.118-.009-4.293-.017-8.586-.017-12.879.044-13.738-10.439-25.34-23.867-26.412-14.685-1.174-28.253 11.223-28.253 26.04v17.235c0 .668-.261 1.296-.663 1.7-15.997 15.564-32.277 30.912-47.862 46.889v-261.436c0-3.519-1.371-6.827-3.86-9.316l-.307-.307c-.002-.002-.004-.005-.006-.007l-36.08-36.073-36.149-36.146c-2.489-2.488-5.798-3.858-9.317-3.858l-265.743.001c-6.013 0-10.906 4.892-10.906 10.905v48.23c0 4.143 3.358 7.5 7.5 7.5s7.5-3.357 7.5-7.5v-44.135l256.5-.001v56.968c0 10.394 8.457 18.85 18.853 18.85h57.018v274.416c-.896 1.316-1.762 2.629-2.563 3.935h-12.1l-.012-3.793c-.023-7.549-6.185-13.709-13.733-13.732l-58.646-.184c-.015 0-.029 0-.044 0-3.663 0-7.103 1.424-9.69 4.011-2.598 2.599-4.022 6.055-4.011 9.734l.295 94.092h-231.867v-368.686c0-4.143-3.358-7.5-7.5-7.5s-7.5 3.358-7.5 7.5v372.779c0 6.013 4.893 10.905 10.906 10.905h236.005l.074 23.787c.023 7.549 6.185 13.71 13.733 13.733l58.645.184h.044c3.663 0 7.104-1.424 9.691-4.012 2.553-2.553 3.965-5.937 4.002-9.544h74.643c4.143 0 7.5-3.357 7.5-7.5s-3.357-7.5-7.5-7.5h-74.681l-.311-99.276h12.361.046c4.983 0 9.69-2.651 12.291-6.925 4.861-7.986 11.118-15.195 17.747-21.742 12.863-12.705 45.176-44.186 45.571-44.57 3.306-3.307 5.126-7.701 5.126-12.376v-17.132c.192-6.009 5.617-11.713 12.059-11.19 5.661.451 10.081 5.464 10.062 11.435 0 4.309.008 8.618.017 12.927.028 17.511-9.928 30.68-22.001 42.177-4.596 4.62-1.254 12.742 5.262 12.79h54.219c6.125.02 11.123 5.416 11.143 11.541-.6 6.696-4.247 10.356-10.94 10.979-4.572.429-7.073 2.929-7.503 7.501 0 4.076 3.255 7.395 7.308 7.497 6.187.183 11.233 5.179 11.252 11.144-.599 6.697-4.246 10.357-10.94 10.979-4.572.429-7.073 2.929-7.503 7.501 0 4.079 3.258 7.397 7.312 7.499 6.186.184 11.229 5.179 11.248 11.143.019 5.798-5.411 10.735-11.007 10.979-4.099 0-7.44 3.293-7.498 7.395-.058 4.11 3.204 7.502 7.313 7.604 6.04.149 11.791 5.591 11.272 12.06-.451 5.649-5.443 10.063-11.397 10.063-.012 0-.024 0-.037 0h-43.664c-4.143 0-7.5 3.357-7.5 7.5s3.357 7.5 7.5 7.5h43.64.084c13.699-.001 25.256-10.47 26.327-23.869.568-7.127-1.78-14.005-6.611-19.369zm-218.81-383.24v-46.364l50.222 50.214h-46.369c-2.125-.001-3.853-1.727-3.853-3.85zm-24.518 424.852-.408-130.357 56.124.176.408 130.357z"/><path d="m303.952 387.832c-1.565-3.779-6.023-5.624-9.801-4.061-3.784 1.566-5.597 6.017-4.05 9.79 1.549 3.776 6.023 5.624 9.79 4.061 3.754-1.558 5.646-6.022 4.061-9.79z"/></g></g></svg>