<svg id="Capa_1" enable-background="new 0 0 512 512" height="512" viewBox="0 0 512 512" width="512" xmlns="http://www.w3.org/2000/svg"><g><g><g><g><g><g><g><path d="m159.23 60h144.251v-43.83c0-4.788-3.882-8.67-8.67-8.67h-126.911c-4.788 0-8.67 3.882-8.67 8.67z" fill="#685e68"/><path d="m144.492 433.471h173.728c4.788 0 8.67-3.882 8.67-8.67v-371.326c0-4.788-3.882-8.67-8.67-8.67h-173.728c-4.788 0-8.67 3.882-8.67 8.67v371.326c0 4.788 3.882 8.67 8.67 8.67z" fill="#f9f7f8"/></g><g><path d="m135.781 97.433h191.061v301.561h-191.061z" fill="#b3dafe" transform="matrix(-1 0 0 -1 462.623 496.426)"/></g></g><path d="m70.002 364.951h256.887v59.85c0 4.788-3.882 8.67-8.67 8.67h-120.463z" fill="#685e68"/><path d="m30 433.471h167.756v-267.268c0-4.788-3.882-8.67-8.67-8.67h-150.416c-4.788 0-8.67 3.882-8.67 8.67z" fill="#f9f7f8"/><path d="m189.086 157.533h-40c4.788 0 8.67 3.882 8.67 8.67v267.268h40v-267.268c0-4.788-3.881-8.67-8.67-8.67z" fill="#e5eef9"/></g><path d="m59.896 433.471h108.015v-59.345c0-4.788-3.882-8.67-8.67-8.67h-90.675c-4.788 0-8.67 3.882-8.67 8.67z" fill="#b3dafe"/></g></g><g><path d="m457 504.5h-175.197c-13.807 0-25-11.193-25-25v-34.569c0-62.186 50.412-112.598 112.598-112.598 62.186 0 112.598 50.412 112.598 112.598v34.569c.001 13.807-11.192 25-24.999 25z" fill="#f9f7f8"/><path d="m356.628 390.886-21.203 82.389c-.394 1.53-.33 3.142.184 4.636l9.15 26.59h48.208l9.167-26.639c.503-1.462.575-3.04.208-4.542l-20.166-82.433h-25.548z" fill="#fd8087"/><path d="m377.342 406.93h-15.882c-8.834 0-15.995-7.161-15.995-15.995v-32.172h47.871v32.172c.001 8.834-7.16 15.995-15.994 15.995z" fill="#fd8087"/><g><path d="m369.402 366.106c-40.875 0-74.011-33.136-74.011-74.011v-40.102c0-40.875 33.136-74.011 74.011-74.011h74.011v114.114c0 40.874-33.136 74.01-74.011 74.01z" fill="#ffdfcf"/><path d="m403.413 177.981v114.114c0 33.942-22.856 62.526-54.011 71.254 6.364 1.783 13.066 2.757 20 2.757 40.875 0 74.011-33.136 74.011-74.011v-114.114z" fill="#ffcebf"/><path d="m295.39 253.822h75.732c44.632 0 80.814-36.405 80.814-81.313 0-19.119-15.404-34.618-34.406-34.618h-45.945c-42.081 0-76.195 34.324-76.195 76.666z" fill="#bc7c63"/></g></g></g><g><path d="m153.471 301.728h14.44c4.143 0 7.5-3.357 7.5-7.5s-3.357-7.5-7.5-7.5h-14.44c-4.143 0-7.5 3.357-7.5 7.5s3.357 7.5 7.5 7.5z"/><path d="m106.684 301.728h14.44c4.143 0 7.5-3.357 7.5-7.5s-3.357-7.5-7.5-7.5h-14.44c-4.143 0-7.5 3.357-7.5 7.5s3.357 7.5 7.5 7.5z"/><path d="m74.337 286.728h-14.44c-4.143 0-7.5 3.357-7.5 7.5s3.357 7.5 7.5 7.5h14.44c4.143 0 7.5-3.357 7.5-7.5s-3.358-7.5-7.5-7.5z"/><path d="m153.471 334.405h14.44c4.143 0 7.5-3.357 7.5-7.5s-3.357-7.5-7.5-7.5h-14.44c-4.143 0-7.5 3.357-7.5 7.5s3.357 7.5 7.5 7.5z"/><path d="m106.684 334.405h14.44c4.143 0 7.5-3.357 7.5-7.5s-3.357-7.5-7.5-7.5h-14.44c-4.143 0-7.5 3.357-7.5 7.5s3.357 7.5 7.5 7.5z"/><path d="m74.337 319.405h-14.44c-4.143 0-7.5 3.357-7.5 7.5s3.357 7.5 7.5 7.5h14.44c4.143 0 7.5-3.357 7.5-7.5s-3.358-7.5-7.5-7.5z"/><path d="m153.471 269.05h14.44c4.143 0 7.5-3.357 7.5-7.5s-3.357-7.5-7.5-7.5h-14.44c-4.143 0-7.5 3.357-7.5 7.5s3.357 7.5 7.5 7.5z"/><path d="m106.684 269.05h14.44c4.143 0 7.5-3.357 7.5-7.5s-3.357-7.5-7.5-7.5h-14.44c-4.143 0-7.5 3.357-7.5 7.5s3.357 7.5 7.5 7.5z"/><path d="m74.337 254.05h-14.44c-4.143 0-7.5 3.357-7.5 7.5s3.357 7.5 7.5 7.5h14.44c4.143 0 7.5-3.357 7.5-7.5s-3.358-7.5-7.5-7.5z"/><path d="m153.471 236.372h14.44c4.143 0 7.5-3.357 7.5-7.5s-3.357-7.5-7.5-7.5h-14.44c-4.143 0-7.5 3.357-7.5 7.5s3.357 7.5 7.5 7.5z"/><path d="m106.684 236.372h14.44c4.143 0 7.5-3.357 7.5-7.5s-3.357-7.5-7.5-7.5h-14.44c-4.143 0-7.5 3.357-7.5 7.5s3.357 7.5 7.5 7.5z"/><path d="m74.337 221.372h-14.44c-4.143 0-7.5 3.357-7.5 7.5s3.357 7.5 7.5 7.5h14.44c4.143 0 7.5-3.357 7.5-7.5s-3.358-7.5-7.5-7.5z"/><path d="m153.471 203.693h14.44c4.143 0 7.5-3.357 7.5-7.5s-3.357-7.5-7.5-7.5h-14.44c-4.143 0-7.5 3.357-7.5 7.5s3.357 7.5 7.5 7.5z"/><path d="m106.684 203.693h14.44c4.143 0 7.5-3.357 7.5-7.5s-3.357-7.5-7.5-7.5h-14.44c-4.143 0-7.5 3.357-7.5 7.5s3.357 7.5 7.5 7.5z"/><path d="m74.337 188.693h-14.44c-4.143 0-7.5 3.357-7.5 7.5s3.357 7.5 7.5 7.5h14.44c4.143 0 7.5-3.357 7.5-7.5s-3.358-7.5-7.5-7.5z"/><path d="m230.025 198.617c1.919 0 3.839-.732 5.304-2.196l58.003-58.003c2.929-2.93 2.929-7.678 0-10.607-2.93-2.928-7.678-2.928-10.607 0l-58.003 58.003c-2.929 2.93-2.929 7.678 0 10.607 1.465 1.464 3.384 2.196 5.303 2.196z"/><path d="m259.39 208.831-33.33 33.328c-2.929 2.93-2.929 7.678 0 10.607 3.536 2.928 7.071 2.928 10.606 0l33.33-33.328c2.929-2.93 2.929-7.678 0-10.607-2.93-2.927-7.679-2.929-10.606 0z"/><path d="m474.865 387.432c-1.985-3.636-6.542-4.97-10.178-2.986-3.635 1.986-4.972 6.543-2.986 10.178 8.373 15.326 12.799 32.722 12.799 50.308v34.568c0 9.649-7.851 17.5-17.5 17.5h-53.521l5.747-16.7c.973-2.826 1.111-5.856.401-8.764l-15.66-64.015c4.243-4.253 6.87-10.118 6.87-16.586v-23.641c7.836-3.288 15.042-7.776 21.414-13.217 8.963 5.222 17.088 11.715 24.191 19.367 3.479 3.059 7.012 3.191 10.6.395 3.036-2.818 3.212-7.564.395-10.6-7.268-7.829-15.475-14.592-24.466-20.207 11.213-13.965 17.943-31.675 17.943-50.937v-81.543c5.461-11.538 8.523-24.437 8.523-38.043 0-23.225-18.799-42.119-41.906-42.119h-45.945c-13.356 0-25.982 3.179-37.195 8.799v-85.714c0-8.916-7.254-16.17-16.17-16.17h-7.239v-21.135c0-8.916-7.254-16.17-16.17-16.17h-126.912c-8.916 0-16.17 7.254-16.17 16.17v21.135h-7.238c-8.916 0-16.17 7.254-16.17 16.17v43.169c-.027.259-.042.522-.042.789s.015.529.042.789v51.812h-23.33c-4.143 0-7.5 3.357-7.5 7.5s3.357 7.5 7.5 7.5h84.094c.646 0 1.17.524 1.17 1.17v259.768h-14.845v-51.845c0-8.916-7.254-16.17-16.17-16.17h-90.675c-8.916 0-16.17 7.254-16.17 16.17v51.845h-14.896v-259.769c0-.646.524-1.17 1.17-1.17h36.378c4.143 0 7.5-3.357 7.5-7.5s-3.357-7.5-7.5-7.5h-36.378c-8.916 0-16.17 7.254-16.17 16.17v267.268c0 4.143 3.357 7.5 7.5 7.5h219.372c-.043 1.316-.068 2.636-.068 3.96v34.569c0 17.921 14.579 32.5 32.5 32.5h175.196c17.921 0 32.5-14.579 32.5-32.5v-34.569c0-20.092-5.061-39.975-14.635-57.499zm-79.823 87.988-7.426 21.58h-37.507l-7.409-21.529c-.036-.105-.04-.219-.012-.327l15.679-60.924c6.79.898 15.004.854 21.803.034l14.885 60.845c.027.107.022.218-.013.321zm-9.205-84.484c0 4.684-3.811 8.494-8.494 8.494h-15.882c-4.685 0-8.495-3.811-8.495-8.494v-18.995c5.31 1.092 10.807 1.666 16.436 1.666s11.125-.574 16.436-1.666v18.995zm50.076-98.841c0 36.675-29.837 66.512-66.512 66.512-36.674 0-66.511-29.837-66.511-66.512v-30.772h68.231c25.578 0 48.648-10.997 64.791-28.531v59.303zm-18.383-146.705c14.836 0 26.906 12.166 26.906 27.119 0 40.701-32.889 73.813-73.314 73.813h-68.231v-31.767c0-38.139 30.816-69.166 68.694-69.166h45.945zm-250.8-129.22c0-.646.524-1.17 1.17-1.17h126.91c.646 0 1.17.524 1.17 1.17v21.135h-129.25zm-22.238 36.135h173.728c.646 0 1.17.524 1.17 1.17v36.458h-176.068v-36.458c0-.646.525-1.17 1.17-1.17zm44.594 97.728h-45.764v-45.101h176.068v43.901c-19.18 15.436-31.499 39.153-31.499 65.722v77.539c0 19.26 6.729 36.969 17.94 50.933-6.786 4.23-13.07 9.061-18.778 14.422h-81.796v-191.246c-.001-8.916-7.255-16.17-16.171-16.17zm-121.69 224.093c0-.646.524-1.17 1.17-1.17h37.838v53.015h-39.008zm54.008 51.845v-53.015h37.837c.646 0 1.17.524 1.17 1.17v51.845zm83.852 0v-53.521h68.305c-11.773 15.552-19.643 33.883-22.752 53.521zm59.048 53.529v-34.569c0-37.684 19.898-72.031 52.251-90.852 6.371 5.44 13.577 9.928 21.411 13.215v23.641c0 6.372 2.553 12.156 6.686 16.392l-16.491 64.078c-.762 2.962-.639 6.055.355 8.944l5.73 16.651h-52.442c-9.65 0-17.5-7.851-17.5-17.5z"/></g></g></svg>