<svg id="Capa_1" enable-background="new 0 0 512 512" height="512" viewBox="0 0 512 512" width="512" xmlns="http://www.w3.org/2000/svg"><g><g><g><g><path d="m502.144 266.24c3.344-6.407 3.113-14.098-.595-20.301-21.691-36.287-105.1-158.36-245.549-158.36-103.811 0-198.715 67.305-246.144 158.18-3.344 6.407-3.113 14.098.595 20.301 21.691 36.287 105.1 158.36 245.549 158.36 103.811.001 198.715-67.304 246.144-158.18z" fill="#f9f7f8"/><ellipse cx="256" cy="256" fill="#b3dafe" rx="125.581" ry="125.799"/><path d="m256 130.201c-8.561 0-16.92.862-25 2.497 57.378 11.61 100.581 62.401 100.581 123.302s-43.203 111.691-100.581 123.303c8.08 1.635 16.439 2.497 25 2.497 69.356 0 125.581-56.322 125.581-125.799s-56.225-125.8-125.581-125.8z" fill="#8ac9fe"/></g><path d="m321.535 256c0-3.423-.265-6.786-.773-10.069l15.477-16.258c1.439-1.511 1.71-3.79.667-5.597l-12.461-21.59c-1.043-1.807-3.151-2.711-5.179-2.22l-21.549 5.215c-5.367-4.443-11.453-8.045-18.052-10.61l-6.339-21.544c-.589-2.002-2.426-3.376-4.512-3.376h-24.922c-2.086 0-3.923 1.375-4.512 3.376l-6.25 21.241c-6.635 2.48-12.762 6.006-18.184 10.376l-21.859-5.289c-2.028-.491-4.136.413-5.179 2.22l-12.461 21.59c-1.043 1.807-.771 4.086.667 5.597l15.263 16.033c-1.163 6.917-1.212 14.044-.139 20.975l-15.477 16.258c-1.439 1.511-1.71 3.79-.667 5.597l12.461 21.59c1.043 1.807 3.151 2.711 5.179 2.22l21.549-5.214c5.367 4.443 11.453 8.045 18.052 10.61l6.339 21.543c.589 2.002 2.426 3.376 4.512 3.376h24.922c2.086 0 3.923-1.375 4.512-3.376l6.25-21.241c6.635-2.48 12.763-6.006 18.184-10.376l21.859 5.29c2.028.491 4.136-.413 5.179-2.22l12.461-21.59c1.043-1.807.771-4.086-.667-5.597l-15.263-16.033c.596-3.549.912-7.192.912-10.907zm-32.923 0c0 18.016-14.601 32.621-32.612 32.621-18.011 0-32.612-14.605-32.612-32.621 0-18.016 14.601-32.621 32.612-32.621 18.011 0 32.612 14.605 32.612 32.621z" fill="#6c7fd8"/></g></g><g><path d="m185.661 438.652c-3.581-2.085-8.172-.872-10.255 2.708l-19.998 34.355c-2.084 3.58-.871 8.172 2.708 10.255 3.791 1.979 7.209 1.077 10.255-2.708l19.998-34.355c2.084-3.58.871-8.172-2.708-10.255z"/><path d="m256 457.33c-4.143 0-7.5 3.357-7.5 7.5v39.67c0 4.143 3.357 7.5 7.5 7.5s7.5-3.357 7.5-7.5v-39.67c0-4.142-3.357-7.5-7.5-7.5z"/><path d="m336.594 441.36c-2.084-3.579-6.674-4.794-10.255-2.708-3.579 2.083-4.792 6.675-2.708 10.255l19.998 34.355c3.046 3.785 6.464 4.687 10.255 2.708 3.579-2.083 4.792-6.675 2.708-10.255z"/><path d="m326.339 73.348c3.791 1.979 7.209 1.077 10.255-2.708l19.998-34.355c2.084-3.58.871-8.172-2.708-10.255-3.582-2.085-8.171-.872-10.255 2.708l-19.998 34.355c-2.084 3.58-.871 8.172 2.708 10.255z"/><path d="m256 54.67c4.143 0 7.5-3.357 7.5-7.5v-39.67c0-4.143-3.357-7.5-7.5-7.5s-7.5 3.357-7.5 7.5v39.67c0 4.142 3.357 7.5 7.5 7.5z"/><path d="m175.406 70.64c3.046 3.785 6.464 4.687 10.255 2.708 3.579-2.083 4.792-6.675 2.708-10.255l-19.998-34.355c-2.083-3.579-6.673-4.794-10.255-2.708-3.579 2.083-4.792 6.675-2.708 10.255z"/><path d="m507.986 242.091c-22.718-38.006-108.034-162.012-251.986-162.012-39.596 0-78.617 9.314-115.979 27.685-3.717 1.828-5.248 6.322-3.421 10.04 1.828 3.716 6.321 5.251 10.04 3.421 35.285-17.349 72.079-26.146 109.36-26.146 136.057 0 217.416 118.416 239.111 154.708 2.357 3.944 2.505 8.919.384 12.983-23.279 44.603-57.657 82.772-99.416 110.382-43.309 28.634-91.747 43.769-140.079 43.769-136.057 0-217.416-118.416-239.111-154.708-2.357-3.944-2.505-8.919-.383-12.983 24.03-46.045 61.302-86.509 104.947-113.938 3.508-2.204 4.563-6.834 2.36-10.342-2.206-3.507-6.834-4.56-10.342-2.359-45.862 28.822-85.021 71.332-110.263 119.698-4.516 8.65-4.207 19.233.806 27.62 22.718 38.006 108.034 162.012 251.986 162.012 51.283 0 102.582-15.995 148.352-46.256 43.874-29.008 79.989-69.104 104.44-115.954 4.516-8.65 4.207-19.233-.806-27.62z"/><path d="m256 389.299c73.381 0 133.081-59.798 133.081-133.299s-59.7-133.299-133.081-133.299-133.081 59.798-133.081 133.299 59.7 133.299 133.081 133.299zm0-251.598c65.11 0 118.081 53.068 118.081 118.299s-52.971 118.299-118.081 118.299-118.081-53.069-118.081-118.299 52.971-118.299 118.081-118.299z"/><path d="m194.498 319.024 18.018-4.36c4.248 3.158 8.811 5.837 13.631 8.003l5.332 18.122c1.518 5.158 6.331 8.761 11.707 8.761h24.923c5.376 0 10.189-3.603 11.707-8.76l5.227-17.765c4.841-2.104 9.435-4.729 13.723-7.838l18.383 4.447c5.229 1.269 10.752-1.104 13.44-5.761l12.461-21.59c2.685-4.652 1.975-10.621-1.73-14.518l-12.764-13.406c.606-5.279.639-10.559.098-15.842l13.021-13.676c3.704-3.894 4.415-9.862 1.729-14.516l-12.461-21.589c-2.687-4.657-8.217-7.022-13.439-5.763l-18.018 4.36c-4.248-3.158-8.811-5.837-13.631-8.003l-5.332-18.124c-1.518-5.157-6.332-8.759-11.707-8.759h-24.923c-5.375 0-10.189 3.602-11.707 8.759l-5.227 17.766c-4.841 2.104-9.435 4.729-13.723 7.838l-18.383-4.447c-5.226-1.27-10.752 1.104-13.44 5.761l-12.46 21.587c-2.688 4.654-1.978 10.624 1.729 14.519l12.763 13.407c-.606 5.269-.639 10.573-.098 15.844l-13.02 13.675c-3.704 3.894-4.415 9.862-1.729 14.516l12.461 21.589c2.686 4.656 8.216 7.023 13.439 5.763zm2.172-47.784c1.604-1.685 2.336-4.019 1.98-6.317-.954-6.167-.913-12.421.123-18.587.391-2.327-.337-4.704-1.965-6.413l-13.821-14.52 10.371-17.967 19.824 4.797c2.263.546 4.656.012 6.471-1.451 4.867-3.924 10.284-7.016 16.103-9.189 2.21-.826 3.903-2.645 4.569-4.908l5.659-19.234h20.737l5.748 19.537c.656 2.23 2.311 4.03 4.478 4.873 5.8 2.255 11.179 5.417 15.986 9.397 1.822 1.508 4.251 2.066 6.547 1.513l19.515-4.723 10.371 17.968-14.036 14.744c-1.604 1.685-2.336 4.019-1.98 6.317.953 6.199.912 12.394-.123 18.586-.392 2.328.337 4.705 1.965 6.415l13.821 14.518-10.371 17.968-19.824-4.797c-2.261-.545-4.655-.012-6.471 1.451-4.867 3.924-10.284 7.016-16.103 9.189-2.21.826-3.903 2.645-4.569 4.908l-5.659 19.234h-20.737l-5.748-19.537c-.656-2.23-2.311-4.03-4.478-4.873-5.8-2.255-11.179-5.417-15.986-9.397-1.821-1.508-4.251-2.066-6.547-1.513l-19.515 4.723-10.371-17.968z"/><path d="m256 296.121c4.143 0 7.5-3.357 7.5-7.5s-3.357-7.5-7.5-7.5c-13.847 0-25.111-11.27-25.111-25.121s11.265-25.121 25.111-25.121 25.111 11.27 25.111 25.121c0 5.209-1.586 10.209-4.585 14.46-2.388 3.385-1.581 8.064 1.804 10.452 3.387 2.389 8.065 1.58 10.452-1.804 4.795-6.795 7.329-14.785 7.329-23.108 0-22.123-17.994-40.121-40.111-40.121s-40.111 17.998-40.111 40.121 17.994 40.121 40.111 40.121z"/></g></g></svg>