<svg id="Capa_1" enable-background="new 0 0 512 512" height="512" viewBox="0 0 512 512" width="512" xmlns="http://www.w3.org/2000/svg"><g><g><g><g><path d="m351.172 194.267c0-4.974-.385-9.86-1.123-14.631l22.477-23.623c2.089-2.196 2.484-5.506.969-8.132l-18.097-31.37c-1.515-2.626-4.577-3.939-7.521-3.226l-31.295 7.577c-7.795-6.455-16.632-11.689-26.215-15.416l-9.206-31.303c-.855-2.909-3.523-4.906-6.552-4.906h-36.193c-3.03 0-5.697 1.997-6.552 4.906l-9.076 30.863c-9.635 3.603-18.534 8.726-26.407 15.077l-31.745-7.686c-2.945-.713-6.007.601-7.521 3.226l-18.097 31.37c-1.515 2.626-1.12 5.936.969 8.132l22.166 23.297c-1.689 10.05-1.76 20.406-.202 30.477l-22.477 23.623c-2.089 2.196-2.484 5.506-.969 8.132l18.097 31.37c1.515 2.626 4.577 3.939 7.521 3.226l31.294-7.577c7.795 6.455 16.632 11.689 26.216 15.417l9.206 31.303c.855 2.909 3.523 4.906 6.552 4.906h36.193c3.03 0 5.697-1.997 6.552-4.906l9.076-30.863c9.635-3.603 18.534-8.727 26.407-15.077l31.745 7.686c2.945.713 6.007-.601 7.521-3.226l18.097-31.37c1.515-2.626 1.12-5.936-.969-8.132l-22.166-23.297c.867-5.156 1.325-10.448 1.325-15.847zm-47.812 0c0 26.178-21.204 47.4-47.36 47.4-26.156 0-47.36-21.221-47.36-47.4 0-26.178 21.204-47.4 47.36-47.4 26.156.001 47.36 21.222 47.36 47.4z" fill="#6c7fd8"/></g><g><path d="m169.612 504.5h-127.749c-8.616 0-15.6-6.988-15.6-15.608 0-43.916 35.582-79.517 79.474-79.517 43.892 0 79.474 35.601 79.474 79.517.001 8.62-6.984 15.608-15.599 15.608z" fill="#ffe177"/><path d="m105.737 433.226c-28.851 0-52.239-23.388-52.239-52.239v-28.377c0-28.851 23.388-52.239 52.239-52.239 28.851 0 52.239 23.388 52.239 52.239v28.377c0 28.851-23.388 52.239-52.239 52.239z" fill="#ffdfcf"/><path d="m105.737 300.372c-7.086 0-13.839 1.417-20 3.974 18.925 7.851 32.239 26.5 32.239 48.265v28.377c0 21.765-13.314 40.414-32.239 48.265 6.161 2.556 12.914 3.974 20 3.974 28.851 0 52.239-23.388 52.239-52.239v-28.377c0-28.851-23.388-52.239-52.239-52.239z" fill="#ffcebf"/></g><g><path d="m470.137 504.5h-127.749c-8.616 0-15.6-6.988-15.6-15.608 0-43.916 35.582-79.517 79.474-79.517 43.892 0 79.474 35.601 79.474 79.517.001 8.62-6.983 15.608-15.599 15.608z" fill="#d5e3f4"/><path d="m406.263 433.226c-28.851 0-52.239-23.388-52.239-52.239v-28.377c0-28.851 23.388-52.239 52.239-52.239 28.851 0 52.239 23.388 52.239 52.239v28.377c-.001 28.851-23.389 52.239-52.239 52.239z" fill="#f9f7f8"/><path d="m406.263 300.372c-7.086 0-13.839 1.417-20 3.974 18.925 7.851 32.239 26.5 32.239 48.265v28.377c0 21.765-13.314 40.414-32.239 48.265 6.161 2.556 12.914 3.974 20 3.974 28.851 0 52.239-23.388 52.239-52.239v-28.377c-.001-28.851-23.389-52.239-52.239-52.239z" fill="#e5eef9"/></g><g><path d="m327.732 503.91h-143.464c-9.675 0-17.519-7.848-17.519-17.528 0-49.319 39.959-89.299 89.251-89.299 49.292 0 89.251 39.981 89.251 89.299 0 9.68-7.843 17.528-17.519 17.528z" fill="#fd8087"/><path d="m256 423.868c-32.4 0-58.665-26.265-58.665-58.665v-31.868c0-32.4 26.265-58.665 58.665-58.665 32.4 0 58.665 26.265 58.665 58.665v31.868c0 32.4-26.265 58.665-58.665 58.665z" fill="#ffdfcf"/><path d="m256 274.67c-7.024 0-13.758 1.238-20 3.502 22.552 8.178 38.665 29.787 38.665 55.163v31.868c0 25.376-16.113 46.985-38.665 55.163 6.242 2.264 12.976 3.502 20 3.502 32.4 0 58.665-26.265 58.665-58.665v-31.868c0-32.4-26.265-58.665-58.665-58.665z" fill="#ffcebf"/></g></g></g><g><path d="m310.86 194.268c0-30.272-24.61-54.9-54.86-54.9-4.765 0-9.516.621-14.119 1.846-4.003 1.065-6.385 5.174-5.32 9.177 1.066 4.003 5.173 6.384 9.176 5.319 3.346-.891 6.799-1.342 10.263-1.342 21.979 0 39.86 17.899 39.86 39.9s-17.881 39.899-39.86 39.899-39.86-17.898-39.86-39.899c0-9.231 3.064-17.9 8.861-25.071 2.604-3.221 2.104-7.943-1.117-10.547-3.221-2.603-7.943-2.106-10.548 1.117-7.865 9.728-12.196 21.98-12.196 34.501 0 30.271 24.61 54.899 54.86 54.899s54.86-24.628 54.86-54.899z"/><path d="m454.356 416.373c7.312-9.912 11.645-22.15 11.645-35.385v-28.376c0-27.421-18.578-50.571-43.803-57.564 18.462-30.327 28.169-64.933 28.169-100.78 0-41.062-12.662-80.313-36.616-113.513-2.423-3.358-7.111-4.119-10.47-1.693-3.359 2.424-4.118 7.111-1.694 10.471 22.099 30.628 33.78 66.845 33.78 104.735 0 35.319-10.21 69.328-29.558 98.616-31.51.237-57.285 24.988-59.164 56.089-7.847 4.602-16.037 8.614-24.48 11.967v-27.604c0-18.53-7.667-35.295-19.983-47.318 5.312-2.688 10.39-5.834 15.185-9.424l28.233 6.836c6.136 1.487 12.627-1.297 15.783-6.768l18.096-31.371c3.155-5.467 2.319-12.479-2.031-17.05l-19.643-20.645c1.097-8.419 1.15-16.967.161-25.398l19.995-21.015c4.35-4.571 5.185-11.582 2.032-17.05l-18.097-31.371c-3.156-5.47-9.646-8.253-15.782-6.767l-27.726 6.712c-6.74-5.176-14.06-9.478-21.84-12.834l-8.19-27.849c-1.782-6.059-7.435-10.289-13.748-10.289h-36.193c-6.312 0-11.966 4.23-13.748 10.289l-8.043 27.352c-7.813 3.257-15.185 7.469-21.992 12.565l-28.233-6.835c-6.14-1.489-12.626 1.296-15.783 6.767l-18.097 31.372c-3.154 5.468-2.318 12.479 2.032 17.049l19.642 20.644c-1.103 8.441-1.157 16.955-.161 25.401l-19.994 21.014c-4.349 4.571-5.185 11.582-2.031 17.05l18.097 31.369c3.155 5.472 9.644 8.255 15.783 6.769l27.726-6.713c5.087 3.906 10.511 7.305 16.209 10.186-12.318 12.023-19.987 28.79-19.987 47.322v27.6c-8.442-3.352-16.632-7.36-24.48-11.963-1.879-31.101-27.654-55.852-59.164-56.089-19.349-29.287-29.559-63.297-29.559-98.616-.002-98.849 80.462-179.268 179.366-179.268 37.508 0 73.428 11.447 103.878 33.104 3.376 2.402 8.058 1.611 10.459-1.765 2.401-3.375 1.61-8.058-1.765-10.458-33.004-23.474-71.93-35.881-112.572-35.881-107.175 0-194.368 87.148-194.368 194.268 0 35.847 9.707 70.453 28.169 100.78-25.225 6.993-43.803 30.142-43.803 57.564v28.376c0 13.235 4.333 25.473 11.645 35.385-24.193 16.034-38.881 43.046-38.881 72.519 0 12.742 10.362 23.108 23.1 23.108h378.309c4.142 0 7.5-3.357 7.5-7.5s-3.358-7.5-7.5-7.5h-69.79c1.517-3.226 2.37-6.823 2.37-10.618 0-12.701-2.48-25.01-7.075-36.366 5.9-9.196 13.763-16.903 23.062-22.592 10.264 8.311 23.32 13.302 37.525 13.302 14.206 0 27.263-4.993 37.527-13.305 21.37 13.055 34.447 36.168 34.447 61.47 0 4.471-3.633 8.108-8.1 8.108h-19.804c-4.142 0-7.5 3.357-7.5 7.5s3.358 7.5 7.5 7.5h19.804c12.737 0 23.1-10.366 23.1-23.108 0-29.472-14.688-56.484-38.881-72.518zm-116.605 70.009c0 5.529-4.495 10.028-10.019 10.028h-143.464c-5.524 0-10.019-4.499-10.019-10.028 0-11.811 2.518-23.198 7.159-33.549.098-.191.185-.386.266-.585 6.763-14.772 17.882-27.384 32.257-36.013 11.443 9.45 26.105 15.133 42.069 15.133 15.962 0 30.623-5.682 42.065-15.13 24.579 14.77 39.686 41.267 39.686 70.144zm-183.921-70.009c7.313-9.912 11.646-22.151 11.646-35.386v-14.776c8.225 4.333 16.757 8.07 25.502 11.173 1.925 10.297 6.233 19.761 12.343 27.793-12.007 7.786-21.947 17.984-29.333 29.772-5.696-7.215-12.487-13.482-20.158-18.576zm46.371-154.476c-1.822-1.51-4.251-2.069-6.548-1.513l-30.805 7.458-17.6-30.51 22.137-23.265c1.603-1.685 2.334-4.019 1.978-6.316-1.442-9.322-1.379-18.772.187-28.088.391-2.327-.336-4.703-1.963-6.413l-21.825-22.938 17.599-30.509 31.256 7.566c2.265.549 4.658.013 6.474-1.451 7.353-5.932 15.537-10.604 24.325-13.89 2.21-.827 3.903-2.646 4.569-4.909l8.936-30.385h35.189l9.065 30.825c.656 2.23 2.31 4.031 4.477 4.874 8.756 3.404 16.881 8.184 24.15 14.202 1.821 1.509 4.25 2.071 6.548 1.513l30.805-7.457 17.6 30.509-22.136 23.266c-1.603 1.685-2.333 4.018-1.979 6.316 1.438 9.294 1.373 18.812-.186 28.087-.391 2.328.336 4.703 1.963 6.413l21.825 22.938-17.6 30.51-31.255-7.567c-2.269-.551-4.659-.014-6.474 1.451-6.811 5.494-14.343 9.894-22.402 13.126-9.609-5.446-20.698-8.572-32.51-8.572-11.813 0-22.904 3.127-32.514 8.574-8.427-3.379-16.261-8.026-23.286-13.845zm4.634 71.438c0-28.213 22.953-51.165 51.165-51.165s51.165 22.952 51.165 51.165v31.868c0 28.213-22.953 51.165-51.165 51.165s-51.165-22.952-51.165-51.165zm-143.836 19.276c0-24.669 20.07-44.739 44.739-44.739s44.739 20.07 44.739 44.739v28.376c0 24.669-20.07 44.739-44.739 44.739s-44.739-20.07-44.739-44.739zm-27.236 136.281c0-25.301 13.076-48.414 34.447-61.47 10.265 8.312 23.321 13.305 37.528 13.305 14.205 0 27.261-4.992 37.525-13.302 9.29 5.683 17.147 13.382 23.045 22.567-4.588 11.35-7.059 23.662-7.059 36.391 0 3.795.853 7.393 2.37 10.618h-119.756c-4.467-.001-8.1-3.639-8.1-8.109zm304.231-53.921c-7.387-11.793-17.327-22-29.32-29.787 6.113-8.034 10.423-17.502 12.348-27.803 8.745-3.104 17.277-6.84 25.501-11.172v14.778c0 13.235 4.333 25.474 11.646 35.386-7.678 5.099-14.475 11.373-20.175 18.598zm23.53-53.984v-28.376c0-24.669 20.07-44.739 44.739-44.739s44.739 20.07 44.739 44.739v28.376c0 24.669-20.07 44.739-44.739 44.739s-44.739-20.07-44.739-44.739z"/><path d="m406.699 324.299c-12.919-.296-23.991 9.173-25.773 21.942-.572 4.103 2.289 7.893 6.392 8.465 4.104.579 7.893-2.289 8.465-6.391.723-5.179 5.173-9.022 10.399-9.022.071 0 .144.001.215.002 5.47.11 9.978 4.47 10.261 9.925-.325 6.693-3.819 10.381-10.481 11.064-4.142 0-7.5 3.357-7.5 7.5v12.818c0 4.143 3.358 7.5 7.5 7.5s7.5-3.357 7.5-7.5v-6.456c10.915-3.376 18.553-14.294 17.961-25.704-.69-13.271-11.644-23.876-24.939-24.143z"/><path d="m413.1 398.939c-1.597-3.866-6.21-5.682-10.015-3.958-3.712 1.682-5.424 6.18-3.742 9.9 1.647 3.643 5.995 5.383 9.697 3.849 3.757-1.558 5.654-6.022 4.06-9.791z"/></g></g></svg>