<svg id="Capa_1" enable-background="new 0 0 511.814 511.814" height="512" viewBox="0 0 511.814 511.814" width="512" xmlns="http://www.w3.org/2000/svg"><g><g><g><g><g><path d="m267.199 118.895h-30v-50.968c0-3.372-2.747-6.115-6.124-6.115h-88.348c-3.376 0-6.123 2.743-6.123 6.115v50.968h-30v-50.968c0-19.914 16.205-36.115 36.123-36.115h88.348c19.919 0 36.124 16.201 36.124 36.115z" fill="#d5e3f4"/><path d="m366.304 155.715v163.02c0 14.672-11.894 26.566-26.566 26.566h-305.672c-14.672 0-26.566-11.894-26.566-26.566v-163.02z" fill="#bc7c63"/><path d="m326.304 121.684v197.051c0 14.672-11.894 26.566-26.566 26.566h40c14.672 0 26.566-11.894 26.566-26.566v-197.051z" fill="#aa6a51"/><path d="m187.333 273.574c-11.339 0-20.531-9.192-20.531-20.531v-54.51h41.061v54.51c0 11.339-9.191 20.531-20.53 20.531z" fill="#e5eef9"/><path d="m7.5 121.827v45.775c0 9.035 6.172 16.873 14.882 18.9l155.92 36.285c5.935 1.381 12.11 1.315 18.015-.194l155.502-39.732c8.518-2.176 14.485-9.922 14.485-18.803v-42.23c0-14.751-11.83-26.709-26.424-26.709h-305.956c-14.594-.001-26.424 11.957-26.424 26.708z" fill="#d1a08f"/><g><path d="m339.88 95.118h-40c14.594 0 26.424 11.958 26.424 26.709v67.552l25.515-6.519c8.518-2.177 14.485-9.922 14.485-18.803v-42.23c0-14.751-11.831-26.709-26.424-26.709z" fill="#c68d7a"/></g></g><path d="m486.192 190.413h-70.497c-9.598 0-17.38 7.865-17.38 17.566 0 9.702 7.781 17.566 17.38 17.566h27.097l-157.162 158.561-58.088-58.713c-6.699-6.772-17.879-6.772-24.578 0l-147.547 149.086c-6.787 6.86-6.787 17.983 0 24.842 6.706 6.778 17.873 6.778 24.578 0l135.257-136.664 58.088 58.713c6.699 6.772 17.879 6.772 24.578 0l170.893-172.438v30.302c0 9.702 7.781 17.566 17.38 17.566s17.38-7.865 17.38-17.566v-71.254c.001-9.702-7.78-17.567-17.379-17.567z" fill="#6fd7a3"/></g><path d="m459.248 11.273 10.54 21.42c1.008 2.049 2.957 3.469 5.211 3.797l23.568 3.435c5.676.827 7.943 7.824 3.835 11.84l-17.054 16.673c-1.631 1.595-2.375 3.892-1.99 6.144l4.026 23.543c.97 5.67-4.964 9.994-10.041 7.317l-21.08-11.116c-2.016-1.063-4.425-1.063-6.441 0l-21.08 11.116c-5.077 2.677-11.011-1.647-10.041-7.317l4.026-23.543c.385-2.252-.359-4.549-1.99-6.144l-17.054-16.673c-4.107-4.016-1.841-11.012 3.835-11.84l23.568-3.435c2.254-.329 4.203-1.748 5.211-3.797l10.54-21.42c2.538-5.159 9.872-5.159 12.411 0z" fill="#ffe177"/></g></g><g><path d="m486.192 182.913h-70.498c-13.719 0-24.879 11.245-24.879 25.067 0 13.821 11.161 25.066 24.879 25.066h9.104l-50.995 51.448v-162.81c0-18.784-15.282-34.066-34.066-34.066h-65.039v-19.69c0-24.05-19.57-43.615-43.624-43.615h-88.348c-24.054 0-43.623 19.565-43.623 43.615v19.69h-19.436c-4.142 0-7.5 3.357-7.5 7.5s3.358 7.5 7.5 7.5h260.071c10.513 0 19.066 8.553 19.066 19.066v42.373c0 5.462-3.636 10.205-8.841 11.535l-155.503 39.733c-4.717 1.206-9.715 1.26-14.458.156l-155.919-36.285c-5.348-1.245-9.083-6.013-9.083-11.595v-45.917c0-10.514 8.553-19.066 19.066-19.066h13.934c4.142 0 7.5-3.357 7.5-7.5s-3.358-7.5-7.5-7.5h-13.934c-18.784 0-34.066 15.282-34.066 34.066v197.05c0 18.784 15.282 34.066 34.066 34.066h131.221l-115.202 116.403c-9.654 9.758-9.654 25.635 0 35.394 9.454 9.553 25.768 9.574 35.241 0l129.925-131.277 52.757 53.324c9.444 9.548 25.773 9.574 35.238.005l106.124-107.083c2.916-2.942 2.895-7.69-.048-10.606-2.942-2.915-7.691-2.894-10.606.048l-106.129 107.088c-4.638 3.805-9.277 3.805-13.915 0l-58.088-58.714c-1.409-1.423-3.328-2.225-5.331-2.225-1.926 0-3.703.741-5.331 2.225l-135.258 136.664c-4.638 3.811-9.277 3.811-13.916.001-3.899-3.941-3.899-10.353-.001-14.293l147.548-149.086c4.638-3.805 9.277-3.805 13.915 0l58.088 58.713c2.932 2.966 7.723 2.967 10.658.006l157.163-158.561c4.602-4.641 1.208-12.779-5.327-12.779h-27.098c-5.448 0-9.879-4.516-9.879-10.066s4.432-10.067 9.879-10.067h70.498c5.448 0 9.88 4.517 9.88 10.067v71.254c0 5.551-4.432 10.066-9.88 10.066s-9.88-4.516-9.88-10.066v-30.303c0-6.565-8.205-9.944-12.827-5.279l-43.846 44.242c-2.916 2.942-2.895 7.69.048 10.606 2.942 2.915 7.691 2.894 10.606-.048l31.019-31.299v12.08c0 13.821 11.161 25.066 24.88 25.066s24.88-11.245 24.88-25.066v-71.254c0-13.822-11.161-25.067-24.88-25.067zm-256.493-95.295h-85.595v-18.306h85.595zm15 0v-19.69c0-7.508-6.112-13.615-13.624-13.615h-88.348c-7.512 0-13.623 6.107-13.623 13.615v19.69h-15v-19.69c0-15.778 12.84-28.615 28.623-28.615h88.348c15.783 0 28.624 12.837 28.624 28.615v19.69zm-57.792 143.65c4.546 0 9.093-.707 13.456-1.97v23.745c0 7.185-5.846 13.03-13.031 13.03s-13.03-5.846-13.03-13.03v-23.489c4.089 1.028 8.486 1.714 12.605 1.714zm28.345 81.546c-6.704 0-12.961 2.595-17.619 7.304l-17.5 17.683h-146.067c-10.513 0-19.066-8.553-19.066-19.066v-126.967c1.784.87 3.677 1.571 5.682 2.037l138.62 32.259v26.979c0 15.456 12.574 28.03 28.03 28.03s28.031-12.574 28.031-28.03v-27.578l138.312-35.34c1.802-.46 3.509-1.118 5.129-1.912v111.415l-37.836 38.172h-70.6l-17.494-17.682c-4.66-4.71-10.918-7.304-17.622-7.304zm70.383 60.633-20.427-20.646h40.891z"/><path d="m415.286 73.598-3.978 23.263c-1.98 11.581 10.523 20.7 20.933 15.216l20.802-10.97 20.803 10.971c10.359 5.462 22.911-3.635 20.931-15.217l-3.978-23.263 16.847-16.47c8.374-8.187 3.33-22.973-7.997-24.625l-23.263-3.39-10.408-21.151c-5.195-10.555-20.676-10.555-25.871 0l-10.408 21.152-23.263 3.39c-11.294 1.647-16.349 16.459-7.997 24.625zm16.883-29.686c4.7-.686 8.758-3.643 10.856-7.907l10.017-20.356 10.016 20.355c2.099 4.266 6.157 7.223 10.859 7.909l22.444 3.271-16.256 15.893c-3.392 3.316-4.939 8.09-4.139 12.771l3.833 22.412-20.039-10.566c-4.206-2.216-9.228-2.219-13.436.001l-20.037 10.565 3.833-22.411c.801-4.68-.747-9.454-4.14-12.772l-16.256-15.892z"/><path d="m482.566 135.342c-4.142 0-7.5 3.357-7.5 7.5v18.333c0 4.143 3.358 7.5 7.5 7.5s7.5-3.357 7.5-7.5v-18.333c0-4.143-3.358-7.5-7.5-7.5z"/><path d="m445.542 126.842v34.333c0 4.143 3.358 7.5 7.5 7.5s7.5-3.357 7.5-7.5v-34.333c0-4.143-3.358-7.5-7.5-7.5s-7.5 3.357-7.5 7.5z"/><path d="m416.018 142.842v18.333c0 4.143 3.358 7.5 7.5 7.5s7.5-3.357 7.5-7.5v-18.333c0-4.143-3.358-7.5-7.5-7.5s-7.5 3.357-7.5 7.5z"/></g></g></svg>