<svg id="Capa_1" enable-background="new 0 0 512 512" height="512" viewBox="0 0 512 512" width="512" xmlns="http://www.w3.org/2000/svg"><g><g><g><g><g><g><path d="m444.5 385.53-188.403 20.705-188.597-20.705c-11.046 0-20-8.954-20-20v-241.091c0-11.046 8.954-20 20-20h377c11.046 0 20 8.954 20 20v241.091c0 11.045-8.954 20-20 20z" fill="#f9f7f8"/><path d="m483.795 426.939h-455.59c-11.435 0-20.705-9.27-20.705-20.705 0-11.435 9.27-20.705 20.705-20.705h455.591c11.435 0 20.705 9.27 20.705 20.705-.001 11.435-9.271 20.705-20.706 20.705z" fill="#d5e3f4"/><g><path d="m77.5 350.53v-211.091c0-2.761 2.239-5 5-5h347c2.761 0 5 2.239 5 5v211.091c0 2.761-2.239 5-5 5h-83.067l-87.933-48.671-92.997 48.671h-83.003c-2.761 0-5-2.239-5-5z" fill="#6c7fd8"/></g></g><g><path d="m228.207 355.53s-47.712-80.932-24.717-97.342c14.807-10.567 32.933-16.784 52.51-16.784 19.559 0 37.668 6.205 52.467 16.753 23.019 16.407-25.541 97.373-25.541 97.373z" fill="#f9f7f8"/><path d="m282.927 355.53-16.661-67.066h-20.532l-17.527 67.066z" fill="#b3dafe"/><path d="m262.382 301.359h-12.764c-7.1 0-12.855-5.755-12.855-12.855v-25.857h38.475v25.857c-.001 7.1-5.756 12.855-12.856 12.855z" fill="#b3dafe"/><g><path d="m256 268.549c-32.852 0-59.484-26.632-59.484-59.484v-32.231c0-32.852 26.632-59.484 59.484-59.484 32.852 0 59.484 26.632 59.484 59.484v32.231c0 32.852-26.632 59.484-59.484 59.484z" fill="#ffdfcf"/></g><path d="m275.073 120.492c.269 1.812.411 3.877.411 6.244v82.329c0 25.834-16.473 47.812-39.484 56.028 6.252 2.232 12.982 3.456 20 3.456 32.852 0 59.484-26.632 59.484-59.484v-32.231c0-26.179-16.918-48.391-40.411-56.342z" fill="#ffcebf"/></g><g fill="#685e68"><path d="m228.207 355.53h-62.704v-23.629s-3.336-43.437 37.987-73.713z"/><path d="m282.927 355.53h63.506v-23.629s3.336-43.437-37.987-73.713z"/></g></g><g><path d="m157.77 120.406c7.709-11.528 12.211-25.383 12.211-40.292 0-40.085-32.495-72.58-72.58-72.58s-72.58 32.495-72.58 72.58 32.495 72.58 72.58 72.58c12.472 0 24.207-3.149 34.459-8.69l23.522 11.037c6.621 3.107 13.693-3.342 11.208-10.22z" fill="#ffe177"/><path d="m157.77 120.406c7.709-11.528 12.211-25.383 12.211-40.292 0-40.085-32.495-72.58-72.58-72.58-6.94 0-13.644.995-20 2.813 30.354 8.687 52.58 36.622 52.58 69.767 0 29.994-23.228 61.369-52.549 69.776 6.347 1.813 13.04 2.805 19.968 2.805 12.472 0 24.207-3.149 34.459-8.69l23.522 11.037c6.621 3.107 13.693-3.342 11.208-10.22z" fill="#ffd15b"/></g></g><g><path d="m327.264 457.291c-10.277-15.368-16.279-33.838-16.279-53.714 0-53.438 43.32-96.757 96.757-96.757s96.757 43.319 96.757 96.757c0 53.437-43.32 96.757-96.757 96.757-16.626 0-32.27-4.198-45.938-11.585l-31.357 14.714c-8.826 4.142-18.254-4.455-14.941-13.625z" fill="#fd8087"/><g><path d="m407.743 306.82c-6.857 0-13.546.718-20 2.075 43.84 9.215 76.757 48.102 76.757 94.682 0 46.573-32.907 85.456-76.738 94.678 6.448 1.355 13.129 2.079 19.981 2.079 53.438 0 96.757-43.32 96.757-96.757s-43.32-96.757-96.757-96.757z" fill="#fe646f"/></g><g><g><path d="" fill="#fff"/></g><g><path d="" fill="#fff"/></g><g><path d="" fill="#fff"/></g></g></g></g><path d="m196.515 173.325 12.576-20.447c6.302-10.245 19.443-13.781 29.986-8.067 9.808 4.002 24.038 4.002 33.847 0 10.543-5.714 23.684-2.178 29.986 8.067l12.576 20.447v-33.325c0-33.056-26.632-59.853-59.485-59.853-32.853 0-59.485 26.797-59.485 59.853v33.325z" fill="#685e68"/></g><g><path d="m61.88 82.973c1.517 3.789 6.056 5.604 9.79 4.051 3.779-1.572 5.606-6.004 4.06-9.79-1.545-3.784-6.036-5.621-9.8-4.061-3.78 1.566-5.609 6.026-4.05 9.8z"/><path d="m91.17 84.263c2.257 3.428 6.996 4.307 10.39 2.07 3.417-2.251 4.323-7.004 2.08-10.4-2.254-3.411-7.016-4.319-10.4-2.069-3.377 2.244-4.373 7.029-2.07 10.399z"/><path d="m119.76 84.263c2.313 3.384 6.97 4.341 10.4 2.07 3.417-2.262 4.322-7.003 2.07-10.4-2.258-3.407-7-4.323-10.39-2.069-3.412 2.267-4.324 6.99-2.08 10.399z"/><path d="m472 321.531v-197.093c0-15.163-12.337-27.5-27.5-27.5h-137.04c-12.297-14.832-30.799-24.292-51.46-24.292-20.662 0-39.163 9.459-51.461 24.292h-28.841c1.175-5.49 1.783-11.123 1.783-16.825 0-44.156-35.924-80.08-80.08-80.08-9.907 0-19.612 1.809-28.846 5.376-3.864 1.493-5.786 5.835-4.293 9.699s5.835 5.782 9.699 4.293c7.502-2.898 15.388-4.368 23.439-4.368 35.885 0 65.08 29.194 65.08 65.08 0 12.925-3.785 25.416-10.945 36.124-1.325 1.981-1.629 4.475-.819 6.717l8.82 24.416c.07.725-.253 1.019-.968.881l-23.522-11.037c-2.154-1.009-4.659-.94-6.752.192-9.428 5.095-20.11 7.788-30.893 7.788-35.886 0-65.081-29.195-65.081-65.081 0-17.515 6.866-33.949 19.332-46.275 2.946-2.912 2.973-7.661.061-10.606-2.913-2.944-7.661-2.973-10.606-.06-15.339 15.165-23.787 35.388-23.787 56.941 0 21.662 8.659 41.328 22.68 55.759v229.657c0 4.5 1.093 8.747 3.018 12.5h-14.813c-15.553 0-28.205 12.653-28.205 28.205s12.652 28.204 28.205 28.204h279.944c2.574 8.313 6.184 16.301 10.803 23.788l-10.499 29.064c-5.391 14.922 10.595 29.805 25.181 22.963l28.015-13.146c14.255 7.027 30.108 10.726 46.095 10.726 18.954 0 37.518-5.143 53.685-14.872 3.549-2.136 4.694-6.744 2.559-10.293-2.136-3.55-6.746-4.695-10.293-2.559-13.832 8.324-29.722 12.724-45.95 12.724-14.79 0-29.441-3.693-42.371-10.682-2.094-1.132-4.599-1.2-6.752-.192l-31.357 14.714c-3.478.666-5.045-.763-4.702-4.287l11.758-32.548c.811-2.242.506-4.735-.819-6.717-9.821-14.686-15.013-31.818-15.013-49.545 0-49.217 40.04-89.257 89.257-89.257s89.254 40.041 89.254 89.258c0 21.719-7.897 42.652-22.237 58.944-2.736 3.109-2.435 7.848.675 10.585 3.108 2.734 7.848 2.436 10.585-.675 16.751-19.031 25.977-43.484 25.977-68.854 0-33.267-15.663-62.944-40-82.046zm-27.5-209.593c6.893 0 12.5 5.607 12.5 12.5v187.274c-4.789-2.578-9.802-4.79-15-6.603v-165.67c0-6.893-5.607-12.5-12.5-12.5h-107.79c-1.029-5.244-2.672-10.267-4.839-15h127.629zm-136.409 63.682c-.065.396-.107.8-.107 1.214v32.23c0 28.664-23.32 51.984-51.984 51.984s-51.984-23.32-51.984-51.984v-32.23c0-.415-.042-.819-.107-1.215l11.57-18.811c4.205-6.837 13.001-9.208 20.024-5.403.24.13.487.247.74.351 11.633 4.747 27.883 4.746 39.515 0 .253-.104.5-.221.74-.351 7.023-3.81 15.818-1.432 20.022 5.402zm-40.354 112.884c0 2.953-2.402 5.355-5.355 5.355h-12.764c-2.953 0-5.355-2.402-5.355-5.355v-13.506c3.814.677 7.732 1.051 11.737 1.051s7.923-.374 11.737-1.051zm-54.376-27.819c4.787 3.961 10.137 7.259 15.902 9.779v18.039c0 5.189 1.968 9.916 5.177 13.515l-6.128 23.447-16.248-63.988c.43-.266.861-.531 1.297-.792zm-14.248 10.738 19.452 76.607h-45.562v-16.128c0-23.319 9.644-45.025 26.11-60.479zm49.062 37.363c.479.034.956.073 1.443.073h12.764c.408 0 .806-.037 1.208-.061l9.746 39.231h-35.417zm29.229-6.595c3.301-3.62 5.333-8.415 5.333-13.687v-18.039c5.765-2.52 11.115-5.818 15.902-9.779.404.243.804.491 1.203.74l-16.721 63.782zm-21.404-214.545c28.665 0 51.985 23.485 51.985 52.354v6.989c-8.706-11.973-24.967-15.916-38.225-8.991-7.923 3.104-19.601 3.104-27.521 0-13.254-6.923-29.519-2.981-38.225 8.991v-6.989c.001-28.868 23.321-52.354 51.986-52.354zm-60.871 24.292c-2.167 4.733-3.81 9.756-4.839 15h-22.186l-2.031-5.623c1.821-3.028 3.429-6.161 4.824-9.377zm-63.137 40.413 20.204 9.479c12.73 5.975 26.098-7.054 21.327-19.892h15.492c0 22.407.001 44.718.001 67.126 0 15.238 5.124 29.297 13.727 40.564-27.811 17.978-44.74 48.705-44.74 82.273v16.128h-73.003v-188.799c4.043.631 8.184.964 12.401.964 11.974 0 23.852-2.702 34.591-7.843zm-76.992 213.178v-217.527c4.7 2.946 9.716 5.431 15 7.361v195.166c0 6.893 5.607 12.5 12.5 12.5h229.195c-2.045 4.826-3.732 9.838-5.037 15h-239.158c-6.893 0-12.5-5.607-12.5-12.5zm-26.795 53.909c-7.281 0-13.205-5.923-13.205-13.204s5.923-13.205 13.205-13.205h39.295 236.517c-.35 3.469-.531 6.988-.531 10.548 0 5.346.419 10.644 1.217 15.861zm291.351-71.409h-26.91l20.102-76.679c14.952 14.038 24.392 33.309 25.996 54.142-7.409 6.554-13.881 14.142-19.188 22.537zm33.002-32.865c-4.651-26.807-20.351-50.65-43.302-65.532 8.604-11.268 13.729-25.327 13.729-40.567 0-22.408.001-44.719.001-67.126h104.014v159.171c-6.243-1.171-12.679-1.79-19.257-1.79-20.252 0-39.17 5.811-55.185 15.844z"/><path d="m452.1 399.393c-2.251-3.417-7.013-4.315-10.399-2.069-3.411 2.262-4.314 7.004-2.07 10.399 2.26 3.42 7.006 4.316 10.4 2.07 3.42-2.263 4.311-7 2.069-10.4z"/><path d="m413.979 399.393c-2.251-3.417-7.015-4.314-10.399-2.069-3.42 2.268-4.312 6.996-2.07 10.399 2.255 3.424 7.007 4.314 10.4 2.07 3.416-2.259 4.309-7.005 2.069-10.4z"/><path d="m375.85 399.393c-2.145-3.257-6.622-4.256-9.983-2.326-3.63 2.085-4.807 6.902-2.615 10.448 2.129 3.445 6.778 4.551 10.24 2.465 3.626-2.186 4.677-7.07 2.358-10.587z"/></g></g></svg>