<svg id="Capa_1" enable-background="new 0 0 512 512" height="512" viewBox="0 0 512 512" width="512" xmlns="http://www.w3.org/2000/svg"><g><g><g><ellipse cx="256" cy="256" fill="#b3dafe" rx="248.49" ry="248.5"/></g><g><path d="m123.938 56.415c0-23.723-19.334-43.014-43.071-42.944-23.427.069-42.595 19.114-42.812 42.541-.165 17.86 10.632 33.265 26.057 39.887 1.268.544 2.334 1.473 3.024 2.668l10.204 17.675c1.624 2.814 5.685 2.814 7.31 0l10.205-17.677c.684-1.185 1.734-2.114 2.992-2.653 15.327-6.565 26.091-21.796 26.091-39.497z" fill="#ffe177"/></g><path d="m80.867 13.471c-7.156.021-13.91 1.82-19.853 4.967 13.62 7.209 22.924 21.524 22.924 37.977 0 16.461-9.313 30.783-22.943 37.988 1.017.537 2.055 1.039 3.117 1.495 1.268.544 2.334 1.473 3.024 2.668l10.204 17.675c1.624 2.814 5.686 2.814 7.31 0l10.206-17.677c.684-1.185 1.734-2.114 2.992-2.653 15.326-6.564 26.09-21.796 26.09-39.497 0-23.721-19.333-43.013-43.071-42.943z" fill="#ffd15b"/><g><path d="" fill="#fff"/></g><g><g><path d="m432.251 348.679c0-23.723-19.334-43.014-43.071-42.944-23.427.069-42.595 19.114-42.812 42.541-.165 17.86 10.632 33.265 26.057 39.887 1.268.544 2.334 1.473 3.024 2.668l10.204 17.675c1.624 2.814 5.685 2.814 7.31 0l10.205-17.677c.684-1.185 1.734-2.114 2.992-2.653 15.326-6.565 26.091-21.797 26.091-39.497z" fill="#fd8087"/></g><path d="m389.179 305.735c-7.156.021-13.91 1.82-19.853 4.967 13.62 7.209 22.924 21.524 22.924 37.977 0 16.461-9.313 30.783-22.943 37.988 1.017.537 2.055 1.039 3.117 1.495 1.268.544 2.334 1.473 3.024 2.668l10.204 17.675c1.625 2.814 5.686 2.814 7.31 0l10.205-17.677c.684-1.185 1.734-2.114 2.992-2.653 15.326-6.564 26.09-21.796 26.09-39.497.001-23.722-19.332-43.013-43.07-42.943z" fill="#fe646f"/><g><path d="" fill="#fff"/></g></g><g><g><path d="m138.619 259.64c0-24.816-21.158-44.784-46.381-42.809-21.435 1.678-38.434 19.25-39.454 40.727-.886 18.653 10.202 34.883 26.225 41.657 1.158.489 2.11 1.365 2.738 2.454l10.65 18.447c1.458 2.525 5.103 2.525 6.561 0l10.616-18.389c.642-1.111 1.606-2.018 2.787-2.518 15.414-6.525 26.258-21.804 26.258-39.569z" fill="#f9f7f8"/></g><path d="m92.237 216.831c-5.949.466-11.555 2.16-16.574 4.818 13.636 7.204 22.955 21.526 22.955 37.991 0 16.461-9.313 30.781-22.943 37.987 1.085.574 2.195 1.107 3.332 1.588 1.158.49 2.11 1.365 2.738 2.454l10.65 18.447c1.458 2.525 5.103 2.525 6.561 0l10.616-18.389c.642-1.111 1.606-2.018 2.788-2.518 15.415-6.525 26.258-21.803 26.258-39.568.001-24.817-21.157-44.785-46.381-42.81z" fill="#e5eef9"/><g><path d="" fill="#fff"/></g></g><g><g><path d="m330.971 149.829c0-24.816-21.158-44.784-46.382-42.809-21.435 1.678-38.434 19.25-39.454 40.727-.886 18.653 10.202 34.883 26.225 41.657 1.158.489 2.11 1.365 2.738 2.454l10.65 18.447c1.458 2.525 5.103 2.525 6.561 0l10.616-18.389c.642-1.111 1.606-2.018 2.787-2.518 15.415-6.525 26.259-21.804 26.259-39.569z" fill="#6fd7a3"/></g><path d="m284.589 107.02c-5.949.466-11.555 2.16-16.574 4.818 13.636 7.204 22.955 21.526 22.955 37.992 0 16.461-9.313 30.781-22.943 37.986 1.085.574 2.195 1.108 3.332 1.589 1.158.489 2.11 1.365 2.738 2.454l10.65 18.447c1.458 2.525 5.103 2.525 6.561 0l10.616-18.389c.642-1.111 1.606-2.018 2.787-2.518 15.415-6.525 26.258-21.803 26.258-39.568.001-24.818-21.156-44.785-46.38-42.811z" fill="#3ec3a4"/><g><path d="" fill="#fff"/></g></g></g><g><path d="m437.012 74.98c-48.35-48.351-112.634-74.98-181.012-74.98-45.661 0-90.194 12.09-129.309 35.024-8.291-17.648-26.398-29.053-45.846-29.053-6.335.019-12.538 1.221-18.437 3.575-3.848 1.534-5.723 5.897-4.188 9.744 1.534 3.848 5.897 5.725 9.744 4.188 4.138-1.65 8.486-2.493 12.925-2.507 19.229 0 35.549 16.198 35.549 35.444 0 14.2-8.456 26.997-21.54 32.602-2.729 1.168-5.051 3.226-6.537 5.798l-7.365 12.758-7.365-12.757c-1.48-2.564-3.809-4.627-6.56-5.809-13.203-5.667-21.648-18.592-21.515-32.927.053-5.763 1.467-11.264 4.203-16.349 1.963-3.647.598-8.195-3.05-10.158s-8.196-.599-10.159 3.051c-3.847 7.148-5.92 15.212-5.994 23.318-.163 17.612 8.771 33.721 23.296 42.981-34.759 44.711-53.841 100.263-53.841 157.077 0 68.38 26.627 132.667 74.978 181.02 48.349 48.351 112.633 74.98 181.011 74.98 56.374 0 109.844-17.969 154.628-51.964 3.3-2.504 3.944-7.209 1.439-10.508-2.505-3.3-7.209-3.944-10.508-1.439-26.541 20.146-56.325 34.306-87.992 42.037 23.564-18.934 43.962-49.561 58.874-89.504l6.717 11.633c4.43 7.678 15.869 7.678 20.3.001l10.011-17.34c12.995-5.683 22.726-16.38 27.33-29.241h33.955c-11.85 23.136-27.552 44.443-46.79 63.146-2.971 2.888-3.037 7.636-.15 10.605 3.515 2.979 7.05 3.029 10.605.15 24.28-23.604 43.364-51.27 56.725-82.228 13.832-32.055 20.846-66.153 20.846-101.349-.001-68.379-26.628-132.666-74.978-181.019zm-10.607 10.607c18.104 18.105 32.96 38.589 44.303 60.738h-87.273c-6.585-25.462-15.503-48.971-26.563-69.587-12.586-23.462-27.261-41.916-43.315-54.848 42.363 10.335 81.227 32.075 112.848 63.697zm-44.597 170.413c0 14.5-.687 28.991-2.039 43.161-24.02 4.658-41.814 27.072-40.857 51.514h-75.412v-156.79c1.412.79 2.865 1.523 4.366 2.18l10.387 17.989c4.268 7.393 15.283 7.393 19.551 0l10.385-17.988c14.816-6.477 25.387-19.449 28.956-34.741h34.503c6.659 29.541 10.16 61.588 10.16 94.675zm-133.308 240.55c-44.816-5.203-84.353-56.66-104.393-130.875h104.393zm-108.105-145.875c-3.974-17.613-6.881-36.331-8.552-55.875 8.987-9.235 14.276-21.744 14.276-35.159 0-13.344-5.379-26.221-14.805-35.654 1.525-21.724 4.601-42.778 9.087-62.661h98.548c1.713 7.227 4.994 13.972 9.552 19.752v169.597zm-22.882-118.924c7.541 6.083 13.605 15.006 13.605 27.89 0 14.266-8.511 27.086-21.681 32.66-2.631 1.113-4.889 3.129-6.359 5.676l-7.401 12.821-7.437-12.88c-1.45-2.512-3.692-4.505-6.312-5.611-13.654-5.772-22.356-19.595-21.654-34.394.887-18.674 16.77-33.718 35.426-33.718 7.984 0 15.618 2.558 21.813 7.556zm184.279-49.262c-2.632 1.113-4.892 3.129-6.362 5.677l-7.401 12.82-7.434-12.875c-1.449-2.512-3.691-4.506-6.313-5.615-13.655-5.772-22.357-19.595-21.655-34.393.845-17.772 14.837-32.22 32.548-33.605 20.343-1.606 38.297 14.951 38.297 35.331-.001 14.267-8.512 27.087-21.68 32.66zm-53.292-167.037v102.9c0 .051.007.1.008.15-6.157 7.761-10.07 17.365-10.788 27.823h-93.607c7.235-26.796 17.127-51.076 29.312-71.465 21.153-35.394 47.568-56.194 75.075-59.408zm89.832 130.873c-1.943-27.54-26.808-48.916-54.328-46.782-7.407.58-14.35 2.772-20.504 6.207v-90.303c29.948 3.44 58.171 27.403 80.153 68.382 9.965 18.575 18.115 39.657 24.287 62.496zm-257.335-20.472c4.174-.001 8.062-2.246 10.148-5.86l10.011-17.34c20.283-8.869 32.668-30.812 29.854-52.741 21.029-12.781 43.792-22.183 67.516-27.99-13.84 11.126-26.673 26.328-37.978 45.243-13.464 22.528-24.26 49.47-31.938 79.16h-87.18c6.606-12.949 14.397-25.318 23.299-36.928l6.118 10.596c2.087 3.614 5.976 5.86 10.15 5.86zm-46.587 35.472h90.636c-3.66 16.874-6.343 34.503-7.975 52.611-7.81-3.677-16.49-5.277-25.419-4.582-25.229 1.975-45.159 22.545-46.36 47.849-.99 20.842 11.132 40.321 30.224 48.675l10.384 17.987c4.268 7.393 15.284 7.393 19.552 0l10.386-17.988c.646-.282 1.281-.58 1.91-.886 1.657 15.677 4.111 30.968 7.306 45.684h-90.792c-12.614-29.534-19.251-61.592-19.251-94.675 0-32.69 6.712-64.933 19.399-94.675zm51.185 265.088c-18.104-18.105-32.96-38.589-44.303-60.738h87.328c7.966 30.785 19.273 58.604 33.376 81.549 10.978 17.859 23.368 32.275 36.684 42.942-42.455-10.311-81.406-32.072-113.085-63.753zm230.794 40.562c-16.306 17.301-34.45 27.413-52.889 29.58v-130.88h78.309c3.488 9.764 9.934 18.271 18.536 24.294-11.233 31.799-26.364 58.34-43.956 77.006zm86.819-85.694c-2.731 1.169-5.052 3.229-6.534 5.797l-7.366 12.758-7.362-12.753c-1.48-2.566-3.811-4.631-6.562-5.812-13.203-5.667-21.648-18.592-21.516-32.926.179-19.303 16.029-35.053 35.334-35.109 19.229 0 35.55 16.196 35.55 35.443-.001 14.2-8.457 26.997-21.544 32.602zm74.574-30.606h-38.072c1.022-25.941-18.94-49.287-44.826-52.125 1.272-13.994 1.924-28.268 1.924-42.55 0-32.947-3.379-64.953-9.816-94.675h90.746c12.614 29.534 19.251 61.592 19.251 94.675 0 33.136-6.613 65.176-19.207 94.675z"/><path d="m74.729 61.54c2.246 3.406 7.014 4.338 10.4 2.08 3.405-2.27 4.317-7.003 2.07-10.4-2.258-3.414-7.01-4.325-10.4-2.07-3.386 2.251-4.346 7.008-2.07 10.39z"/><path d="m396.229 345.53c-1.587-3.977-6.435-5.714-10.236-3.857-3.667 1.792-5.192 6.351-3.423 10.005 1.741 3.595 6.168 5.196 9.81 3.557 3.633-1.635 5.413-6.016 3.849-9.705z"/><path d="m94.21 251.09c-3.995.828-6.691 4.794-5.891 8.82.813 4.09 4.999 6.798 9.059 5.833 3.918-.931 6.486-4.917 5.628-8.871-.857-3.952-4.822-6.563-8.796-5.782z"/><path d="m294.95 145.77c-1.493-3.802-6.065-5.605-9.79-4.06-3.867 1.604-5.673 6.201-3.959 10.015 1.636 3.641 6.009 5.364 9.691 3.836 3.759-1.559 5.645-6.022 4.058-9.791z"/></g></g></svg>