<svg id="Capa_1" enable-background="new 0 0 511.977 511.977" height="512" viewBox="0 0 511.977 511.977" width="512" xmlns="http://www.w3.org/2000/svg"><g><g><g><g><g><path d="m427.507 388.439h-392.761c-15.048 0-27.246-12.199-27.246-27.246v-284.699h447.254v284.699c0 15.048-12.199 27.246-27.247 27.246z" fill="#f9f7f8"/><path d="m414.754 76.494v284.699c0 15.048-12.198 27.246-27.246 27.246h40c15.048 0 27.246-12.199 27.246-27.246v-284.699z" fill="#e5eef9"/><g fill="#6fd7a3"><path d="m72.903 262.014h-.044c-12.719 0-23.031-10.311-23.031-23.031v-.012c0-12.719 10.311-23.031 23.031-23.031h.044c12.719 0 23.031 10.311 23.031 23.031v.012c-.001 12.72-10.312 23.031-23.031 23.031z"/><path d="m72.903 338.386h-.044c-12.719 0-23.031-10.311-23.031-23.031v-.012c0-12.719 10.311-23.031 23.031-23.031h.044c12.719 0 23.031 10.311 23.031 23.031v.012c-.001 12.72-10.312 23.031-23.031 23.031z"/><path d="m152.026 185.642h-.044c-12.719 0-23.031-10.311-23.031-23.031v-.011c0-12.719 10.311-23.031 23.031-23.031h.044c12.719 0 23.031 10.311 23.031 23.031v.011c-.001 12.72-10.312 23.031-23.031 23.031z"/><path d="m72.903 185.642h-.044c-12.719 0-23.031-10.311-23.031-23.031v-.011c0-12.719 10.311-23.031 23.031-23.031h.044c12.719 0 23.031 10.311 23.031 23.031v.011c-.001 12.72-10.312 23.031-23.031 23.031z"/><path d="m152.026 262.014h-.044c-12.719 0-23.031-10.311-23.031-23.031v-.012c0-12.719 10.311-23.031 23.031-23.031h.044c12.719 0 23.031 10.311 23.031 23.031v.012c-.001 12.72-10.312 23.031-23.031 23.031z"/><path d="m152.026 338.386h-.044c-12.719 0-23.031-10.311-23.031-23.031v-.012c0-12.719 10.311-23.031 23.031-23.031h.044c12.719 0 23.031 10.311 23.031 23.031v.012c-.001 12.72-10.312 23.031-23.031 23.031z"/><path d="m231.149 185.642h-.044c-12.719 0-23.031-10.311-23.031-23.031v-.011c0-12.719 10.311-23.031 23.031-23.031h.044c12.719 0 23.031 10.311 23.031 23.031v.011c0 12.72-10.312 23.031-23.031 23.031z"/><path d="m231.149 262.014h-.044c-12.719 0-23.031-10.311-23.031-23.031v-.012c0-12.719 10.311-23.031 23.031-23.031h.044c12.719 0 23.031 10.311 23.031 23.031v.012c0 12.72-10.312 23.031-23.031 23.031z"/><path d="m310.272 185.642h-.044c-12.719 0-23.031-10.311-23.031-23.031v-.011c0-12.719 10.311-23.031 23.031-23.031h.044c12.719 0 23.031 10.311 23.031 23.031v.011c0 12.72-10.311 23.031-23.031 23.031z"/><path d="m389.395 185.642h-.044c-12.719 0-23.031-10.311-23.031-23.031v-.011c0-12.719 10.311-23.031 23.031-23.031h.044c12.719 0 23.031 10.311 23.031 23.031v.011c0 12.72-10.311 23.031-23.031 23.031z"/></g></g><g><path d="m430.609 21.922h-25.956c-5.652 0-10.235 4.579-10.235 10.227v1.435c0 2.656 1.017 5.226 2.889 7.111 3.387 3.411 5.479 8.106 5.479 13.291 0 11.144-9.664 20.033-21.075 18.753-8.713-.977-15.714-8.054-16.603-16.771-.605-5.93 1.54-11.372 5.314-15.209 1.885-1.917 2.952-4.488 2.952-7.175v-1.435c0-5.648-4.582-10.227-10.235-10.227h-23.855c-5.652 0-10.235 4.579-10.235 10.227v1.435c0 2.656 1.017 5.225 2.889 7.111 3.386 3.411 5.479 8.106 5.479 13.291 0 11.143-9.663 20.032-21.072 18.753-8.714-.976-15.716-8.054-16.605-16.771-.605-5.93 1.54-11.372 5.314-15.209 1.885-1.917 2.952-4.488 2.952-7.175v-1.435c0-5.648-4.582-10.227-10.235-10.227h-133.291c-5.652 0-10.235 4.579-10.235 10.227v1.435c0 2.656 1.017 5.226 2.889 7.111 3.386 3.411 5.479 8.106 5.479 13.291 0 11.145-9.666 20.034-21.077 18.753-8.713-.978-15.712-8.055-16.601-16.771-.605-5.93 1.54-11.371 5.314-15.209 1.885-1.917 2.952-4.488 2.952-7.175v-1.435c0-5.648-4.582-10.227-10.235-10.227h-23.853c-5.652 0-10.235 4.579-10.235 10.227v1.435c0 2.656 1.017 5.226 2.889 7.111 3.386 3.411 5.479 8.106 5.479 13.291 0 11.145-9.666 20.034-21.077 18.753-8.713-.978-15.712-8.055-16.601-16.771-.605-5.93 1.54-11.371 5.314-15.209 1.885-1.917 2.952-4.488 2.952-7.175v-1.435c0-5.648-4.582-10.227-10.235-10.227h-25.954c-13.335 0-24.145 10.742-24.145 23.992v49.444h447.254v-49.444c0-13.25-10.81-23.992-24.145-23.992z" fill="#fd8087"/></g><g><path d="m430.609 21.922h-25.956c-2.001 0-3.862.583-5.439 1.575 9.084 3.445 15.54 12.18 15.54 22.417v49.444h40v-49.444c0-13.25-10.81-23.992-24.145-23.992z" fill="#fd8087"/></g></g></g><g><g><g><path d="m271.559 304.972c24.325-9.968 52.652-2.184 68.337 19.018 1.982 2.679 5.553 3.613 8.592 2.246 12.356-5.558 36.076-30.55 48.511-27.314 12.435 3.235 13.586 34.697 21.623 45.561 1.981 2.678 5.551 3.615 8.589 2.248 24.214-10.894 52.716-3.236 68.961 16.878 1.904 2.358 5.677 1.421 6.24-1.558 11.7-61.909-26.849-123.318-89.291-139.66-61.362-16.059-126.005 18.816-146.268 78.171-.984 2.886 1.884 5.566 4.706 4.41z" fill="#ffe177"/><g><path d="m413.122 222.391c-.649-.17-1.3-.326-1.95-.485 40.179 22.818 57.38 73.093 53.673 121.68 12.119 3.088 23.242 10.01 31.328 20.022 1.905 2.358 5.677 1.421 6.24-1.558 11.7-61.909-26.849-123.318-89.291-139.659z" fill="#ffd15b"/></g><path d="m413.123 222.391c28.746 7.523 19.702 81.739 10.166 121.566-.491 2.05-3.159 2.592-4.4.888-16.103-22.125-45.878-29.871-70.812-18.42-1.915.88-3.975-.9-3.402-2.929 11.563-40.931 39.643-108.644 68.448-101.105z" fill="#fd8087"/></g></g><path d="m274.806 449.615c3.341-.76 6.032-3.117 7.39-6.264 4.448-10.311 14.702-17.53 26.645-17.53h115.35c13.933 0 25.567 9.824 28.365 22.922 16.511 1.353 30.019 12.593 35.402 27.253 2.504 6.819-2.495 14.059-9.759 14.059h-223.367c-7.264 0-12.264-7.24-9.759-14.059 4.752-12.943 15.842-23.221 29.733-26.381z" fill="#ffdfcf"/><path d="m487.958 475.996c-5.383-14.659-18.891-25.9-35.402-27.253-2.798-13.098-14.432-22.922-28.365-22.922h-40c13.933 0 25.567 9.824 28.365 22.922 16.511 1.353 30.019 12.593 35.402 27.253 2.504 6.819-2.495 14.059-9.76 14.059h40c7.265 0 12.264-7.24 9.76-14.059z" fill="#ffcebf"/></g></g><g><path d="m72.858 269.514h.044c16.835 0 30.531-13.696 30.531-30.542 0-16.834-13.696-30.53-30.575-30.53-16.834 0-30.53 13.696-30.53 30.542 0 16.833 13.696 30.53 30.53 30.53zm.044-46.073c8.564 0 15.531 6.967 15.531 15.542 0 8.563-6.967 15.53-15.531 15.53h-.044c-8.563 0-15.53-6.967-15.53-15.542 0-8.563 6.967-15.53 15.574-15.53z"/><path d="m72.858 345.886h.044c16.835 0 30.531-13.696 30.531-30.542 0-16.834-13.696-30.53-30.575-30.53-16.834 0-30.53 13.696-30.53 30.542 0 16.834 13.696 30.53 30.53 30.53zm.044-46.072c8.564 0 15.531 6.967 15.531 15.542 0 8.563-6.967 15.53-15.531 15.53h-.044c-8.563 0-15.53-6.967-15.53-15.542 0-8.564 6.967-15.53 15.574-15.53z"/><path d="m151.981 193.142h.044c16.835 0 30.531-13.696 30.531-30.542 0-16.834-13.696-30.53-30.575-30.53-16.834 0-30.53 13.696-30.53 30.542 0 16.833 13.696 30.53 30.53 30.53zm.044-46.073c8.564 0 15.531 6.967 15.531 15.542 0 8.563-6.967 15.53-15.531 15.53h-.044c-8.563 0-15.53-6.967-15.53-15.542 0-8.563 6.967-15.53 15.574-15.53z"/><path d="m72.858 193.142h.044c16.835 0 30.531-13.696 30.531-30.542 0-16.834-13.696-30.53-30.575-30.53-16.834 0-30.53 13.696-30.53 30.542 0 16.833 13.696 30.53 30.53 30.53zm.044-46.073c8.564 0 15.531 6.967 15.531 15.542 0 8.563-6.967 15.53-15.531 15.53h-.044c-8.563 0-15.53-6.967-15.53-15.542 0-8.563 6.967-15.53 15.574-15.53z"/><path d="m151.981 269.514h.044c16.835 0 30.531-13.696 30.531-30.542 0-16.834-13.696-30.53-30.575-30.53-16.834 0-30.53 13.696-30.53 30.542 0 16.833 13.696 30.53 30.53 30.53zm.044-46.073c8.564 0 15.531 6.967 15.531 15.542 0 8.563-6.967 15.53-15.531 15.53h-.044c-8.563 0-15.53-6.967-15.53-15.542 0-8.563 6.967-15.53 15.574-15.53z"/><path d="m151.981 345.886h.044c16.835 0 30.531-13.696 30.531-30.542 0-16.834-13.696-30.53-30.575-30.53-16.834 0-30.53 13.696-30.53 30.542 0 16.834 13.696 30.53 30.53 30.53zm.044-46.072c8.564 0 15.531 6.967 15.531 15.542 0 8.563-6.967 15.53-15.531 15.53h-.044c-8.563 0-15.53-6.967-15.53-15.542 0-8.564 6.967-15.53 15.574-15.53z"/><path d="m231.104 193.142h.045c16.834 0 30.53-13.696 30.53-30.542 0-16.834-13.696-30.53-30.575-30.53-16.834 0-30.53 13.696-30.53 30.542 0 16.833 13.697 30.53 30.53 30.53zm.045-46.073c8.563 0 15.53 6.967 15.53 15.542 0 8.563-6.967 15.53-15.53 15.53h-.045c-8.563 0-15.53-6.967-15.53-15.542 0-8.563 6.967-15.53 15.575-15.53z"/><path d="m231.104 269.514h.045c16.834 0 30.53-13.696 30.53-30.542 0-16.834-13.696-30.53-30.575-30.53-16.834 0-30.53 13.696-30.53 30.542 0 16.833 13.697 30.53 30.53 30.53zm.045-46.073c8.563 0 15.53 6.967 15.53 15.542 0 8.563-6.967 15.53-15.53 15.53h-.045c-8.563 0-15.53-6.967-15.53-15.542 0-8.563 6.967-15.53 15.575-15.53z"/><path d="m310.272 193.142c16.834 0 30.53-13.696 30.53-30.542 0-16.834-13.696-30.53-30.575-30.53-16.834 0-30.53 13.696-30.53 30.542 0 16.834 13.696 30.53 30.53 30.53zm-15.575-30.542c0-8.563 6.967-15.53 15.575-15.53 8.563 0 15.53 6.967 15.53 15.542 0 8.563-6.967 15.53-15.53 15.53h-.045c-8.563 0-15.53-6.967-15.53-15.542z"/><path d="m389.396 193.142c16.834 0 30.53-13.696 30.53-30.542 0-16.834-13.696-30.53-30.575-30.53-16.834 0-30.53 13.696-30.53 30.542 0 16.834 13.696 30.53 30.53 30.53zm-15.576-30.542c0-8.563 6.967-15.53 15.575-15.53 8.563 0 15.53 6.967 15.53 15.542 0 8.563-6.967 15.53-15.53 15.53h-.045c-8.563 0-15.53-6.967-15.53-15.542z"/><path d="m506.399 302.562c-1.214-3.961-5.414-6.187-9.368-4.974-3.961 1.214-6.188 5.408-4.974 9.368 4.521 14.751 5.943 30.388 4.199 45.676-17.001-16.304-41.358-22.338-63.683-15.839 3.05-14.536 7.631-40.649 7.488-65.776-.072-12.653-1.377-23.213-3.891-31.67 18.315 9.684 33.701 24.158 44.585 42.264 2.133 3.551 6.741 4.699 10.292 2.563 3.55-2.134 4.698-6.741 2.563-10.292-8.313-13.832-18.95-25.788-31.357-35.467v-192.5c0-17.365-14.196-31.492-31.646-31.492h-25.955c-15.845 0-23.567 20.581-12.669 31.558 2.129 2.145 3.302 4.988 3.302 8.007 0 6.766-6.06 12.049-12.739 11.3-5.16-.578-9.45-4.911-9.978-10.078-.348-3.418.818-6.767 3.201-9.19 10.827-11.01 3.346-31.596-12.63-31.596h-23.854c-15.845 0-23.566 20.582-12.668 31.558 2.129 2.144 3.301 4.987 3.301 8.007 0 6.762-6.058 12.05-12.737 11.3-5.162-.578-9.452-4.911-9.979-10.078-.348-3.418.818-6.768 3.2-9.188 10.83-11.01 3.346-31.598-12.629-31.598h-133.293c-15.843 0-23.567 20.581-12.669 31.557 2.129 2.146 3.302 4.989 3.302 8.008 0 6.768-6.06 12.046-12.74 11.3-5.16-.579-9.449-4.912-9.977-10.078-.348-3.418.818-6.768 3.201-9.19 10.827-11.01 3.346-31.596-12.63-31.596h-23.854c-10.615 0-17.71 9.219-17.734 19.162 0 4.702 1.799 9.104 5.066 12.396 2.129 2.144 3.301 4.987 3.301 8.007 0 6.765-6.059 12.051-12.739 11.3-5.16-.579-9.45-4.912-9.978-10.078-.348-3.418.818-6.767 3.201-9.19 10.827-11.01 3.346-31.596-12.63-31.596h-25.955c-17.45-.005-31.645 14.122-31.645 31.487v93.655c0 4.143 3.357 7.5 7.5 7.5s7.5-3.357 7.5-7.5v-36.711h432.254v125.461c-9.978-5.741-20.788-10.188-32.219-13.18-.005-.001-.009-.003-.014-.004-.004-.001-.009-.002-.013-.003-31.461-8.229-64.837-4.164-93.975 11.454-29.085 15.589-50.847 41-61.276 71.553-3.009 8.816 6.024 17.303 14.646 13.773 21.341-8.745 45.793-1.943 59.466 16.54 4.048 5.471 11.49 7.414 17.698 4.624 8.308-3.738 17.253-5.013 25.905-4.087l-13.596 51.951h-329.13c-10.888 0-19.746-8.859-19.746-19.747v-192.946c0-4.143-3.357-7.5-7.5-7.5s-7.5 3.357-7.5 7.5v192.946c0 19.159 15.587 34.746 34.746 34.746h325.204l-5.858 22.382h-45.252c-14.59 0-27.752 8.659-33.531 22.06-.434 1.006-1.224 1.706-2.166 1.921-15.942 3.626-29.396 15.546-35.111 31.108-4.209 11.462 4.775 24.145 16.8 24.145h223.367c11.997 0 20.993-12.726 16.799-24.144-5.987-16.308-20.044-28.2-36.632-31.427-5.279-13.982-18.891-23.663-34.176-23.663h-54.592l5.858-22.382h52.052c19.159 0 34.746-15.587 34.746-34.746v-10.436c10.798 2.573 20.836 8.589 28.084 17.562 5.692 7.049 17.726 4.219 19.444-4.876 3.812-20.168 2.642-41.22-3.383-60.881zm-491.399-256.648c0-9.094 7.467-16.492 16.645-16.492h25.956c3.016 0 3.441 4.547 1.935 6.079-5.523 5.616-8.23 13.354-7.428 21.229 1.247 12.224 11.016 22.091 23.226 23.462 15.294 1.714 29.413-10.731 29.413-26.206 0-7.006-2.719-13.603-7.656-18.575-1.547-1.557-.715-5.989 2.023-5.989h23.854c3.013 0 3.442 4.546 1.936 6.078-5.524 5.616-8.232 13.354-7.429 21.23 1.247 12.224 11.015 22.091 23.225 23.462 15.294 1.71 29.414-10.728 29.414-26.206 0-7.004-2.719-13.601-7.656-18.575-1.547-1.557-.715-5.989 2.023-5.989h133.293c3.013 0 3.442 4.546 1.936 6.078-5.524 5.616-8.232 13.354-7.429 21.23 1.248 12.228 11.019 22.095 23.231 23.462 15.291 1.723 29.407-10.743 29.407-26.206 0-7.006-2.719-13.603-7.656-18.575-1.547-1.557-.715-5.989 2.023-5.989h23.854c3.016 0 3.441 4.547 1.935 6.079-5.523 5.616-8.23 13.354-7.428 21.229 1.248 12.227 11.018 22.094 23.229 23.462 15.292 1.724 29.41-10.741 29.41-26.206 0-7.005-2.72-13.602-7.657-18.575-1.547-1.557-.714-5.989 2.024-5.989h25.955c9.179 0 16.646 7.398 16.646 16.492v41.944h-432.254zm430.223 404.397c.691 3.236 3.423 5.638 6.722 5.907 13.003 1.065 24.376 9.844 28.974 22.363.472 2.284-.434 3.609-2.719 3.974h-223.368c-2.285-.364-3.192-1.689-2.72-3.975 3.982-10.844 13.315-19.141 24.357-21.651.001 0 .001-.001.002-.001 5.58-1.271 10.294-5.235 12.611-10.606 3.406-7.897 11.161-13 19.758-13h115.35c10.083-.001 18.928 7.144 21.033 16.989zm-168.319-155.025c10.034-23.517 27.976-43.023 51.215-55.48 17.597-9.433 36.926-14.105 56.258-13.815-6.196 6.034-12.356 14.387-18.455 25.053-9.398 16.435-18.813 38.959-25.854 61.629-16.354-16.703-40.487-23.364-63.164-17.387zm77.819 20.769c6.683-21.294 15.479-42.276 24.222-57.565 11.785-20.614 23.544-31.136 32.279-28.844 17.269 4.519 16.956 55.121 6.937 102.909-16.442-16.24-41.167-22.644-63.438-16.5zm72.785 64.885h-48.126l12.609-48.18c8.012 3.403 15.194 8.872 20.604 16.184 4.052 5.474 11.493 7.417 17.695 4.627 5.416-2.437 11.168-3.783 16.965-4.132v11.755c-.001 10.887-8.859 19.746-19.747 19.746z"/></g></g></svg>