<svg id="Capa_1" enable-background="new 0 0 512 512" height="512" viewBox="0 0 512 512" width="512" xmlns="http://www.w3.org/2000/svg"><g><g><g><path d="m483.935 7.5h-108.936c-11.358 0-20.565 9.207-20.565 20.565v34.51c0 2.001-1.193 3.809-3.032 4.597l-26.43 11.314c-4.043 1.731-4.043 7.462 0 9.193l26.43 11.314c1.839.787 3.032 2.596 3.032 4.597v380.345c0 11.358 9.207 20.565 20.565 20.565h108.937c11.358 0 20.565-9.207 20.565-20.565v-455.87c-.001-11.358-9.208-20.565-20.566-20.565z" fill="#6c7fd8"/><path d="m483.935 7.5h-40c11.358 0 20.565 9.207 20.565 20.565v455.87c0 11.358-9.207 20.565-20.565 20.565h40c11.358 0 20.565-9.207 20.565-20.565v-455.87c0-11.358-9.207-20.565-20.565-20.565z" fill="#4f66d0"/><g><g><path d="m433.954 273.1 8.896 17.993c.851 1.721 2.495 2.914 4.398 3.19l19.891 2.885c4.791.695 6.704 6.572 3.237 9.945l-14.393 14.006c-1.377 1.34-2.005 3.269-1.68 5.161l3.398 19.776c.818 4.763-4.19 8.395-8.475 6.147l-17.791-9.337c-1.702-.893-3.734-.893-5.436 0l-17.791 9.337c-4.285 2.249-9.293-1.383-8.475-6.147l3.398-19.776c.325-1.891-.303-3.821-1.68-5.161l-14.393-14.006c-3.467-3.373-1.554-9.25 3.237-9.945l19.891-2.885c1.902-.276 3.547-1.469 4.398-3.19l8.896-17.993c2.142-4.333 8.332-4.333 10.474 0z" fill="#ffe177"/><path d="m433.954 162.364 8.896 17.993c.851 1.721 2.495 2.914 4.398 3.19l19.891 2.885c4.791.695 6.704 6.572 3.237 9.945l-14.393 14.006c-1.377 1.34-2.005 3.269-1.68 5.161l3.398 19.776c.818 4.763-4.19 8.395-8.475 6.147l-17.791-9.337c-1.702-.893-3.734-.893-5.436 0l-17.791 9.337c-4.285 2.249-9.293-1.383-8.475-6.147l3.398-19.776c.325-1.891-.303-3.821-1.68-5.161l-14.393-14.006c-3.467-3.373-1.554-9.25 3.237-9.945l19.891-2.885c1.902-.276 3.547-1.469 4.398-3.19l8.896-17.993c2.142-4.333 8.332-4.333 10.474 0z" fill="#ffe177"/><path d="m433.954 51.629 8.896 17.993c.851 1.721 2.495 2.914 4.398 3.19l19.891 2.885c4.791.695 6.704 6.572 3.237 9.945l-14.393 14.006c-1.377 1.34-2.005 3.269-1.68 5.161l3.398 19.776c.818 4.763-4.19 8.395-8.475 6.147l-17.791-9.337c-1.702-.893-3.734-.893-5.436 0l-17.791 9.337c-4.285 2.249-9.293-1.383-8.475-6.147l3.398-19.776c.325-1.891-.303-3.821-1.68-5.161l-14.393-14.006c-3.467-3.373-1.554-9.25 3.237-9.945l19.891-2.885c1.902-.276 3.547-1.469 4.398-3.19l8.896-17.993c2.142-4.334 8.332-4.334 10.474 0z" fill="#f9f7f8"/><path d="m433.954 383.836 8.896 17.993c.851 1.721 2.495 2.914 4.398 3.19l19.891 2.885c4.791.695 6.704 6.572 3.237 9.945l-14.393 14.006c-1.377 1.34-2.005 3.269-1.68 5.161l3.398 19.776c.818 4.763-4.19 8.395-8.475 6.147l-17.791-9.337c-1.702-.893-3.734-.893-5.436 0l-17.791 9.337c-4.285 2.249-9.293-1.383-8.475-6.147l3.398-19.776c.325-1.891-.303-3.821-1.68-5.161l-14.393-14.006c-3.467-3.373-1.554-9.25 3.237-9.945l19.891-2.885c1.902-.276 3.547-1.469 4.398-3.19l8.896-17.993c2.142-4.333 8.332-4.333 10.474 0z" fill="#ffe177"/></g></g></g><g><g><g><path d="m280.263 504.5h-238.791c-18.762 0-33.972-15.21-33.972-33.972v-46.424c0-84.503 68.503-153.006 153.006-153.006h.723c84.503 0 153.006 68.503 153.006 153.006v46.424c-.001 18.762-15.21 33.972-33.972 33.972z" fill="#f9f7f8"/><path d="m143.468 350.477-28.881 111.692c-.536 2.074-.449 4.26.251 6.285l12.463 36.047h65.662l12.486-36.114c.685-1.982.784-4.121.283-6.158l-27.468-111.751h-34.796z" fill="#fd8087"/><path d="m171.734 372.228h-21.734c-12.004 0-21.735-9.731-21.735-21.735v-43.564h65.204v43.564c0 12.004-9.731 21.735-21.735 21.735z" fill="#fd8087"/><g><path d="m161.105 316.885h-.475c-55.544 0-100.571-45.027-100.571-100.571v-53.892c0-55.544 45.027-100.571 100.571-100.571h101.046v154.463c0 55.543-45.027 100.571-100.571 100.571z" fill="#ffdfcf"/><path d="m221.676 61.851v154.463c0 48.779-34.729 89.442-80.809 98.625 6.391 1.273 12.998 1.946 19.762 1.946h.475c55.544 0 100.571-45.027 100.571-100.571v-154.463z" fill="#ffcebf"/><path d="m60.058 164.665h103.153c60.792 0 110.075-49.353 110.075-110.234 0-25.919-20.981-46.931-46.863-46.931h-62.581c-57.318 0-103.783 46.532-103.783 103.933v53.232z" fill="#bc7c63"/></g></g></g></g></g><g><path d="m504.5 404.527c4.142 0 7.5-3.357 7.5-7.5v-368.963c0-15.474-12.59-28.064-28.065-28.064h-108.936c-15.475 0-28.065 12.59-28.065 28.064v32.861l-24.913 10.666c-4.605 1.971-7.581 6.481-7.581 11.49 0 5.01 2.976 9.521 7.581 11.491l24.914 10.666v378.696c0 15.475 12.59 28.064 28.065 28.064h108.937c15.473.002 28.063-12.588 28.063-28.062v-56.961c0-4.143-3.358-7.5-7.5-7.5s-7.5 3.357-7.5 7.5v56.961c0 7.204-5.861 13.064-13.065 13.064h-108.936c-7.204 0-13.065-5.86-13.065-13.064v-380.346c0-5.008-2.975-9.518-7.581-11.491l-21.061-9.017 21.062-9.017c4.604-1.973 7.579-6.482 7.579-11.49v-34.511c0-7.204 5.861-13.064 13.065-13.064h108.937c7.204 0 13.065 5.86 13.065 13.064v368.963c0 4.143 3.358 7.5 7.5 7.5z"/><path d="m478.99 298.826c-1.579-4.865-5.707-8.345-10.774-9.08l-19.03-2.761-8.508-17.209c-4.811-9.73-19.111-9.73-23.922 0l-8.508 17.209-19.03 2.761c-10.75 1.56-15.181 15.162-7.391 22.742l13.763 13.392-3.249 18.906c-1.841 10.711 9.788 19.078 19.352 14.058l17.024-8.934 17.023 8.934c9.611 5.044 21.192-3.35 19.352-14.058l-3.249-18.906 13.762-13.392c3.666-3.565 4.962-8.8 3.385-13.662zm-28.239 16.919c-3.147 3.063-4.583 7.477-3.84 11.806l2.827 16.451-14.815-7.775c-3.885-2.04-8.523-2.041-12.409-.001l-14.818 7.776 2.827-16.451c.744-4.328-.691-8.741-3.841-11.807l-11.961-11.64 16.544-2.399c4.345-.631 8.099-3.355 10.042-7.287l7.41-14.989 7.41 14.988c1.944 3.933 5.698 6.657 10.045 7.288l16.542 2.399z"/><path d="m478.989 188.09c-1.58-4.866-5.708-8.346-10.773-9.079l-19.03-2.761-8.508-17.21c-4.812-9.73-19.11-9.73-23.922 0l-8.508 17.21-19.029 2.76c-10.752 1.559-15.182 15.162-7.392 22.743l13.762 13.392-3.248 18.906c-1.84 10.711 9.788 19.077 19.352 14.057l17.024-8.934 17.023 8.934c9.612 5.046 21.191-3.351 19.352-14.058l-3.248-18.905 13.762-13.391c3.665-3.566 4.961-8.802 3.383-13.664zm-28.236 16.918c-3.149 3.063-4.585 7.477-3.842 11.807l2.827 16.451-14.819-7.777c-3.883-2.037-8.52-2.038-12.405.001l-14.818 7.776 2.827-16.45c.745-4.329-.691-8.743-3.841-11.807l-11.962-11.64 16.541-2.399c4.346-.629 8.101-3.354 10.046-7.288l7.41-14.989 7.41 14.988c1.945 3.936 5.701 6.66 10.044 7.288l16.543 2.4z"/><path d="m478.99 77.354c-1.579-4.865-5.707-8.345-10.774-9.08l-19.03-2.761-8.508-17.209c-4.811-9.73-19.111-9.73-23.922 0l-8.508 17.209-19.03 2.761c-10.75 1.56-15.181 15.162-7.391 22.742l13.763 13.392-3.249 18.906c-1.841 10.711 9.788 19.078 19.352 14.058l17.024-8.934 17.023 8.934c9.611 5.044 21.192-3.35 19.352-14.058l-3.249-18.906 13.762-13.392c3.666-3.565 4.962-8.799 3.385-13.662zm-28.239 16.919c-3.147 3.063-4.583 7.477-3.84 11.806l2.827 16.451-14.815-7.775c-3.885-2.04-8.523-2.041-12.409-.001l-14.818 7.776 2.827-16.451c.744-4.328-.691-8.741-3.841-11.807l-11.961-11.64 16.544-2.399c4.345-.631 8.099-3.355 10.042-7.287l7.41-14.989 7.41 14.988c1.944 3.933 5.698 6.657 10.045 7.288l16.542 2.399z"/><path d="m478.989 409.562c-1.58-4.866-5.708-8.346-10.773-9.079l-19.03-2.761-8.508-17.21c-4.812-9.73-19.11-9.73-23.922 0l-8.508 17.21-19.029 2.76c-10.752 1.559-15.182 15.162-7.392 22.743l13.762 13.392-3.248 18.906c-1.84 10.711 9.788 19.077 19.352 14.057l17.024-8.934 17.023 8.934c9.612 5.044 21.191-3.349 19.352-14.058l-3.248-18.905 13.762-13.392c3.665-3.566 4.961-8.801 3.383-13.663zm-28.236 16.917c-3.149 3.063-4.585 7.477-3.842 11.806l2.827 16.452-14.819-7.777c-3.883-2.037-8.52-2.038-12.405.001l-14.818 7.776 2.827-16.45c.745-4.329-.691-8.743-3.841-11.807l-11.962-11.64 16.541-2.399c4.346-.629 8.101-3.354 10.046-7.288l7.41-14.989 7.41 14.988c1.945 3.936 5.701 6.66 10.044 7.288l16.543 2.4z"/><path d="m243.435 286.237c16.043-18.862 25.74-43.279 25.74-69.923v-110.89c7.438-15.437 11.61-32.736 11.61-50.993.001-30.013-24.387-54.431-54.363-54.431h-62.581c-20.805 0-41.103 5.794-58.699 16.755-3.516 2.19-4.591 6.816-2.4 10.332s6.816 4.592 10.331 2.4c15.215-9.477 32.77-14.487 50.768-14.487h62.581c21.705 0 39.363 17.688 39.363 39.431 0 56.647-46.015 102.734-102.575 102.734h-95.651v-45.731c0-23.707 8.674-46.499 24.425-64.177 2.756-3.093 2.482-7.834-.61-10.589-3.092-2.756-7.833-2.483-10.589.61-18.202 20.429-28.226 46.765-28.226 74.155v104.88c0 26.644 9.697 51.061 25.74 69.923-48.53 28.921-78.299 80.883-78.299 137.868v46.424c0 22.868 18.604 41.472 41.472 41.472h238.791c22.868 0 41.472-18.604 41.472-41.472v-46.424c-.001-56.986-29.769-108.947-78.3-137.867zm-175.876-114.072h95.652c36.623 0 69.385-16.857 90.965-43.226v87.374c0 51.319-41.751 93.071-93.071 93.071h-.475c-51.319 0-93.071-41.752-93.071-93.071zm130.803 293.77-10.74 31.065h-54.977l-10.717-30.997c-.218-.633-.246-1.31-.078-1.956l21.974-84.982c9.903 2.138 23.841 2.098 33.764.073l20.863 84.879c.156.636.125 1.299-.089 1.918zm-12.393-115.442c0 7.849-6.386 14.234-14.235 14.234h-21.734c-7.849 0-14.235-6.386-14.235-14.234v-29c7.986 1.888 16.31 2.891 24.864 2.891h.475c8.555 0 16.879-1.004 24.865-2.892zm-170.969 120.035v-46.424c0-52.883 28.271-101.008 74.129-126.829 9.272 8.198 19.954 14.835 31.636 19.487v33.73c0 8.473 3.626 16.111 9.404 21.456l-22.843 88.343c-.908 3.513-.762 7.182.424 10.612l9.023 26.097h-75.301c-14.597 0-26.472-11.875-26.472-26.472zm291.734 0c0 14.597-11.875 26.472-26.472 26.472h-76.769l9.046-26.163c1.16-3.354 1.325-6.95.478-10.398l-21.695-88.264c5.92-5.354 9.647-13.09 9.647-21.682v-33.73c11.682-4.652 22.364-11.289 31.636-19.487 45.858 25.819 74.129 73.944 74.129 126.828z"/></g></g></svg>