<svg id="Capa_1" enable-background="new 0 0 512.001 512.001" height="512" viewBox="0 0 512.001 512.001" width="512" xmlns="http://www.w3.org/2000/svg"><g><g><g><path d="m83.975 7.548c-2.896-.385-5.558 1.664-5.945 4.577l-8.698 65.484-33.353 251.09c-.155 1.169.662 2.243 1.825 2.397l421.821 56.031c1.163.154 2.231-.668 2.387-1.837l42.47-319.731c.155-1.169-.662-2.243-1.825-2.397z" fill="#d5e3f4"/></g><g><path d="m40.404 99.083c-2.922 0-5.291 2.382-5.291 5.32v66.06 253.296c0 1.18.951 2.136 2.124 2.136h425.526c1.173 0 2.124-.956 2.124-2.136v-322.54c0-1.18-.951-2.136-2.124-2.136z" fill="#f9f7f8"/></g><path d="m462.763 99.083h-40c1.173 0 2.124.956 2.124 2.136v322.54c0 1.179-.951 2.136-2.124 2.136h40c1.173 0 2.124-.956 2.124-2.136v-322.54c.001-1.18-.95-2.136-2.124-2.136z" fill="#e5eef9"/><g><path d="m137.272 182.31-35.441-35.506c-3.916-3.923-9.226-6.126-14.764-6.126h-58.687c-11.531 0-20.879 9.365-20.879 20.917v321.99c0 11.552 9.348 20.917 20.879 20.917h455.242c11.531 0 20.879-9.365 20.879-20.917v-274.232c0-11.552-9.348-20.917-20.879-20.917h-331.586c-5.538 0-10.849-2.204-14.764-6.126z" fill="#ffe177"/><g fill="#ffd15b"><path d="m97.272 182.31c3.916 3.923 9.226 6.126 14.764 6.126h40c-5.538 0-10.848-2.204-14.764-6.126l-35.441-35.506c-3.916-3.923-9.226-6.126-14.764-6.126h-40c5.537 0 10.848 2.204 14.764 6.126z"/><path d="m483.621 188.436h-40c11.531 0 20.879 9.365 20.879 20.917v274.231c0 11.552-9.348 20.917-20.879 20.917h40c11.531 0 20.879-9.365 20.879-20.917v-274.231c0-11.552-9.347-20.917-20.879-20.917z"/></g><g><g><path d="m321.906 224.09h132.705c6.661 0 12.06 5.409 12.06 12.082v162.271c0 6.673-5.4 12.082-12.06 12.082h-132.705c-6.661 0-12.06-5.409-12.06-12.082v-162.27c-.001-6.673 5.399-12.083 12.06-12.083z" fill="#f9f7f8"/><g><g><path d="m438.999 410.526c0-28.074-22.717-50.832-50.74-50.832-28.023 0-50.74 22.758-50.74 50.832z" fill="#b3dafe"/></g><path d="m388.258 374.847c-18.42 0-33.352-14.932-33.352-33.352v-17.704c0-18.42 14.932-33.352 33.352-33.352h33.352v51.055c0 18.421-14.932 33.353-33.352 33.353z" fill="#ffdfcf"/><path d="m354.906 324.468h34.127c20.113 0 36.417-16.334 36.417-36.483 0-8.578-6.942-15.532-15.504-15.532h-20.704c-18.963 0-34.336 15.401-34.336 34.398z" fill="#bc7c63"/></g></g></g></g></g><g><path d="m496.321 183.952 15.595-117.405c.699-5.264-3.009-10.117-8.272-10.819l-57.722-7.667c-4.108-.558-7.877 2.341-8.422 6.447-.545 4.105 2.341 7.877 6.447 8.422l52.393 6.959-14.75 111.048h-9.203v-79.717c0-5.313-4.317-9.636-9.625-9.636h-387.721l10.136-76.31 325.383 43.22c4.106.554 7.876-2.341 8.422-6.447.545-4.105-2.341-7.877-6.447-8.422l-327.572-43.512c-3.393-.451-6.759.452-9.476 2.543-2.705 2.082-4.442 5.094-4.892 8.48l-10.685 80.447h-19.506c-7.053 0-12.791 5.751-12.791 12.819v28.794c-15.294.41-27.613 12.986-27.613 28.398v264.433c0 4.143 3.358 7.5 7.5 7.5s7.5-3.357 7.5-7.5v-264.433c0-7.398 6.002-13.417 13.379-13.417h58.687c3.571 0 6.929 1.395 9.456 3.926l35.441 35.506c5.36 5.37 12.488 8.327 20.072 8.327h176.26v20.654h-6.39c-10.786 0-19.56 8.784-19.56 19.582v162.271c0 10.798 8.774 19.582 19.56 19.582h132.705c10.786 0 19.56-8.784 19.56-19.582v-162.271c0-10.798-8.774-19.582-19.56-19.582h-79.893v-4.354c0-4.143-3.358-7.5-7.5-7.5s-7.5 3.357-7.5 7.5v4.354h-16.422v-20.654h140.325c7.377 0 13.379 6.019 13.379 13.417v274.231c0 7.398-6.002 13.417-13.379 13.417h-455.24c-7.377 0-13.379-6.019-13.379-13.417v-27.61c0-4.143-3.358-7.5-7.5-7.5s-7.5 3.357-7.5 7.5v27.61c0 15.669 12.731 28.417 28.379 28.417h455.241c15.648 0 28.379-12.748 28.379-28.417v-274.231c0-11.099-6.391-20.726-15.679-25.401zm-107.287 133.016h-26.627v-10.118c0-14.831 12.039-26.897 26.836-26.897h20.705c4.414 0 8.004 3.604 8.004 8.032-.001 15.981-12.973 28.983-28.918 28.983zm0 15c9.318 0 17.96-2.93 25.076-7.906v17.433c0 14.255-11.597 25.852-25.852 25.852s-25.852-11.597-25.852-25.852v-9.527zm-24.795 42.543c6.747 4.922 15.047 7.836 24.019 7.836s17.272-2.914 24.019-7.836c9.874 6.604 16.53 16.888 18.551 28.515h-85.135c2.032-11.587 8.696-21.909 18.546-28.515zm90.372-142.921c2.515 0 4.56 2.056 4.56 4.582v162.271c0 2.526-2.045 4.582-4.56 4.582h-8.596c-2.032-15.886-10.461-30.139-23.34-39.564 4.066-6.348 6.435-13.883 6.435-21.966v-35.556c2.461-5.487 3.841-11.561 3.841-17.955 0-12.7-10.32-23.032-23.004-23.032h-20.705c-23.068 0-41.836 18.795-41.836 41.897v34.646c0 8.083 2.37 15.619 6.437 21.968-12.853 9.434-21.293 23.74-23.338 39.562h-8.6c-2.515 0-4.56-2.056-4.56-4.582v-162.271c0-2.526 2.045-4.582 4.56-4.582h6.39v15.159c0 12.814 10.413 23.239 23.211 23.239s23.211-10.425 23.211-23.239v-15.159zm-94.893 0v15.159c0 4.543-3.684 8.239-8.211 8.239s-8.211-3.696-8.211-8.239v-15.159zm-217.138-54.579-35.441-35.506c-5.361-5.37-12.49-8.328-20.072-8.328h-44.454v-26.594h23.86c.005 0 .01.001.015.001.007 0 .014-.001.021-.001h390.878v74.353h-63.434c-2.877-15.875-17.518-27.128-33.487-26.452-15.774 0-28.923 11.431-31.645 26.452h-176.785c-3.572 0-6.93-1.394-9.456-3.925zm235.889 3.925h-34.162c2.372-6.663 8.71-11.452 16.16-11.452 7.86-.493 15.309 3.889 18.002 11.452z"/><path d="m52.209 465.065h79c4.142 0 7.5-3.357 7.5-7.5s-3.358-7.5-7.5-7.5h-79c-4.142 0-7.5 3.357-7.5 7.5s3.358 7.5 7.5 7.5z"/><path d="m52.209 427.275h125.979c4.142 0 7.5-3.357 7.5-7.5s-3.358-7.5-7.5-7.5h-125.979c-4.142 0-7.5 3.357-7.5 7.5s3.358 7.5 7.5 7.5z"/><path d="m52.209 389.486h125.979c4.142 0 7.5-3.357 7.5-7.5s-3.358-7.5-7.5-7.5h-125.979c-4.142 0-7.5 3.357-7.5 7.5s3.358 7.5 7.5 7.5z"/></g></g></svg>