<svg id="Capa_1" enable-background="new 0 0 512 512" height="512" viewBox="0 0 512 512" width="512" xmlns="http://www.w3.org/2000/svg"><g><g><g><path d="m121.315 256c0-72.203 57.203-131.299 128.671-134.345 3.232-.138 5.798-2.758 5.798-5.993v-78.593c0-3.373-2.782-6.096-6.154-6.006-121.43 3.26-218.866 102.72-218.866 224.937 0 62.137 25.186 118.392 65.907 159.113l64.074-64.074c-24.349-24.349-39.43-57.966-39.43-95.039z" fill="#6fd7a3"/><g><path d="m411.023 101.194-55.616 55.616c-2.289 2.289-2.325 5.957-.136 8.342 22.612 24.635 36.18 57.699 35.381 93.872-1.58 71.61-59.802 129.831-131.413 131.411-38.266.844-73.053-14.387-98.061-39.396l-64.074 64.074c40.721 40.721 96.976 65.907 159.113 65.907 124.641 0 225.019-100.378 225.019-225.02 0-59.922-23.422-114.373-61.611-154.698-2.321-2.452-6.215-2.495-8.602-.108z" fill="#ffe177"/></g><g><path d="m419.625 101.301c-2.321-2.451-6.215-2.495-8.602-.108l-16.956 16.956c29.561 38.083 47.169 85.908 47.169 137.85 0 117.883-89.792 214.045-204.975 224.129 6.577.578 13.229.891 19.956.891 124.642 0 225.019-100.378 225.019-225.02 0-59.921-23.422-114.373-61.611-154.698z" fill="#ffd15b"/></g><g><g><path d="m269.488 353.632h-26.783c8.854.98 17.836.992 26.783 0z" fill="#b3dafe"/><path d="m256 263.262c-34.279 0-62.067 27.788-62.067 62.067.062 7.491 2.28 13.724 11.108 17.843 11.891 5.548 24.649 9.018 37.664 10.459h26.783c12.729-1.412 25.678-4.259 37.476-10.465 8.823-4.641 10.923-10.325 11.103-17.838 0-34.277-27.788-62.066-62.067-62.066z" fill="#f9f7f8"/></g><g fill="#fd8087"><path d="m249.256 295.34-11.688 41.185c-.217.838-.182 1.722.102 2.54l5.044 14.567c8.78.959 17.799 1.121 26.573 0l5.053-14.594c.277-.801.317-1.665.115-2.488l-11.116-41.209h-14.083z"/><path d="m260.701 306.194h-8.809c-4.854 0-8.79-3.935-8.79-8.79v-17.598h26.388v17.598c.001 4.854-3.934 8.79-8.789 8.79z"/></g><path d="m256 281.765c-22.532 0-40.797-18.265-40.797-40.797v-21.468c0-22.531 18.265-40.797 40.797-40.797h40.797v62.265c0 22.532-18.266 40.797-40.797 40.797z" fill="#ffdfcf"/><path d="m256.797 178.703v62.265c0 15.262-8.386 28.558-20.797 35.554 5.911 3.332 12.731 5.242 20 5.242 22.531 0 40.797-18.265 40.797-40.797v-62.265h-40z" fill="#ffcebf"/><path d="m215.203 220.251h41.745c24.602 0 44.547-19.944 44.547-44.547 0-10.474-8.491-18.965-18.965-18.965h-25.326c-23.196 0-42.001 18.804-42.001 42z" fill="#bc7c63"/></g></g><circle cx="125" cy="77.35" fill="#6c7fd8" r="18.621"/><g><circle cx="392.868" cy="434.65" fill="#6c7fd8" r="18.621"/></g><g><path d="m288 14.21v79.568c0 2.859 2.022 5.309 4.825 5.874 17.366 3.5 33.531 10.354 47.788 19.858 2.384 1.59 5.552 1.292 7.579-.735l56.292-56.293c2.55-2.55 2.302-6.772-.548-8.981-30.976-24.003-68.389-40.092-109.209-45.253-3.573-.452-6.727 2.36-6.727 5.962z" fill="#fd8087"/></g></g><g><path d="m468.166 352.036c13.649-30.205 20.57-62.517 20.57-96.036 0-59.732-22.61-116.504-63.666-159.855-5.122-5.41-14.09-5.514-19.352-.255l-55.617 55.618c-5.126 5.128-5.282 13.35-.356 18.715 22.27 24.262 34.135 55.74 33.408 88.636-1.474 66.773-57.302 122.606-124.08 124.078-70.204 1.592-130.258-56.602-130.258-126.937 0-32.903 12.587-64.124 35.443-87.91 22.791-23.718 53.35-37.548 86.047-38.941 7.278-.311 12.978-6.234 12.978-13.486v-78.594c0-7.491-6.352-13.719-13.855-13.503-39.021 1.048-77.202 11.936-110.766 31.532-1.906-1.175-3.975-2.11-6.163-2.767v-44.831c0-4.143-3.358-7.5-7.5-7.5s-7.5 3.357-7.5 7.5v44.832c-10.758 3.231-18.621 13.222-18.621 25.018 0 2.19.274 4.316.785 6.35-48.613 44.076-76.399 106.567-76.399 172.3 0 126.893 106.144 232.52 232.953 232.52 42.745 0 84.248-11.539 120.439-33.412 2.56 2.033 5.506 3.597 8.712 4.56v44.832c0 4.143 3.357 7.5 7.5 7.5s7.5-3.357 7.5-7.5v-44.832c10.758-3.231 18.62-13.222 18.62-25.018 0-3.651-.756-7.129-2.115-10.288 21.698-20.683 38.939-44.987 51.293-72.326zm-343.166-285.807c6.132 0 11.121 4.989 11.121 11.121s-4.989 11.12-11.121 11.12-11.121-4.988-11.121-11.12 4.989-11.121 11.121-11.121zm-17.414 30.569c4.625 4.145 10.729 6.672 17.414 6.672 14.403 0 26.121-11.718 26.121-26.12 0-3.84-.84-7.486-2.334-10.773 30.318-17.146 64.522-26.781 99.497-27.97v75.62c-36.05 1.886-69.685 17.289-94.841 43.47-25.554 26.594-39.627 61.505-39.627 98.303 0 35.359 12.894 68.776 36.459 94.902l-53.515 53.515c-37.78-40.411-58.496-92.822-58.496-148.417 0-60.513 25.178-118.087 69.322-159.202zm.213 318.225 53.514-53.513c26.971 24.345 61.514 37.254 98.091 36.422 36.575-.807 71.061-15.594 97.105-41.639s40.833-60.53 41.64-97.104c.803-36.324-12.125-71.104-36.427-98.09l53.516-53.516c37.736 40.409 58.498 93.052 58.498 148.416 0 58.78-24.126 116.061-66.528 156.834-4.12-2.717-9.047-4.305-14.341-4.305-14.402 0-26.12 11.718-26.12 26.12 0 2.839.461 5.571 1.303 8.132-33.649 20.127-72.166 30.738-111.834 30.738-55.593.002-108.005-20.715-148.417-58.495zm285.069 30.748c-6.132 0-11.12-4.989-11.12-11.121s4.988-11.12 11.12-11.12 11.12 4.988 11.12 11.12-4.988 11.121-11.12 11.121z"/><path d="m197.006 304.573c-4.044-.893-8.048 1.663-8.939 5.709-1.084 4.912-1.633 9.975-1.633 15.109.097 11.735 5.146 19.775 15.437 24.578 32.781 15.293 75.994 16.979 108.584-.165 13.04-6.858 14.925-16.586 15.11-24.295.001-.061.002-.12.002-.181 0-23.02-11.205-44.145-29.755-57.06 5.346-7.772 8.485-17.175 8.485-27.301v-43.696c3.008-6.576 4.698-13.876 4.698-21.568 0-14.594-11.872-26.466-26.465-26.466h-25.326c-27.295 0-49.501 22.206-49.501 49.501v42.229c0 10.138 3.147 19.552 8.506 27.33-5.527 3.87-10.532 8.531-14.715 13.799-2.576 3.244-2.034 7.962 1.209 10.538 3.679 2.516 7.191 2.112 10.538-1.21 3.757-4.732 8.352-8.847 13.447-12.109 2.754 2.111 5.741 3.93 8.915 5.415v12.672c0 3.323 1.005 6.413 2.719 8.992l-7.969 28.082c-.853 3-.096 6.791 1.154 9.712-8.102-1.766-15.905-4.365-23.294-7.812-5.083-2.373-6.73-5.072-6.78-11.048 0-3.987.431-7.963 1.281-11.816.892-4.044-1.663-8.046-5.708-8.939zm51.205 42.015-3.134-9.051 6.767-23.846c.016 0 .032.002.048.002h8.629l6.418 23.796-3.155 9.112c-5.18.349-10.389.345-15.573-.013zm-25.508-105.619v-13.218h34.246c12.219 0 23.458-4.243 32.348-11.318v24.536c0 18.36-14.937 33.297-33.297 33.297s-33.297-14.937-33.297-33.297zm87.864 84.269c-.139 5.299-1.215 8.198-7.095 11.291-6.716 3.533-14.212 6.095-23.047 7.855 1.266-2.934 2.07-6.759 1.27-9.788l-7.554-28.006c1.795-2.617 2.85-5.78 2.85-9.186v-12.945c2.96-1.435 5.747-3.169 8.334-5.153 15.658 9.967 25.212 27.14 25.242 45.932zm-87.864-126.498c0-19.023 15.477-34.501 34.501-34.501h25.326c6.321 0 11.465 5.144 11.465 11.466 0 20.427-16.619 37.046-37.046 37.046h-34.246zm33.297 90.526c2.03 0 4.026-.141 5.991-.385v8.524c0 .711-.579 1.289-1.29 1.289h-8.809c-.711 0-1.29-.578-1.29-1.289v-8.448c1.774.198 3.573.309 5.398.309z"/><path d="m7.5 15h61.5c4.142 0 7.5-3.357 7.5-7.5s-3.358-7.5-7.5-7.5h-61.5c-4.142 0-7.5 3.357-7.5 7.5s3.358 7.5 7.5 7.5z"/><path d="m55 39c0-4.143-3.358-7.5-7.5-7.5h-40c-4.142 0-7.5 3.357-7.5 7.5s3.358 7.5 7.5 7.5h40c4.142 0 7.5-3.357 7.5-7.5z"/><path d="m504.5 465.5h-61.5c-4.143 0-7.5 3.357-7.5 7.5s3.357 7.5 7.5 7.5h61.5c4.143 0 7.5-3.357 7.5-7.5s-3.357-7.5-7.5-7.5z"/><path d="m483 497h-40c-4.143 0-7.5 3.357-7.5 7.5s3.357 7.5 7.5 7.5h40c4.143 0 7.5-3.357 7.5-7.5s-3.357-7.5-7.5-7.5z"/><path d="m291.344 107.005c16.157 3.256 31.334 9.563 45.108 18.745 5.201 3.467 12.682 2.688 17.043-1.671l56.292-56.293c5.661-5.663 5.077-15.302-1.258-20.213-5.167-4.004-10.604-7.856-16.158-11.451-3.475-2.248-8.12-1.256-10.371 2.223-2.25 3.478-1.255 8.12 2.223 10.371 4.712 3.05 9.332 6.297 13.755 9.666l-54.218 54.219c-14.796-9.686-31.021-16.428-48.26-20.055v-76.634c21.942 2.951 43.213 9.224 63.25 18.653 3.746 1.76 8.215.156 9.979-3.593 1.764-3.748.155-8.216-3.593-9.979-21.983-10.346-45.356-17.138-69.47-20.186-7.946-1.011-15.166 5.408-15.166 13.403v79.567c0 6.398 4.56 11.96 10.844 13.228z"/></g></g></svg>