<svg id="Capa_1" enable-background="new 0 0 512 512" height="512" viewBox="0 0 512 512" width="512" xmlns="http://www.w3.org/2000/svg"><g><g><g><path d="m406.673 18.561c-79.642-31.724-169.921 7.118-201.643 86.756-19.567 49.124-12.274 102.289 14.872 143.269l-20.851 52.346c-3.297 8.277 5.059 16.407 13.243 12.886l50.851-21.88c8.835 5.875 18.403 10.934 28.653 15.017 79.642 31.724 169.921-7.118 201.643-86.756s-7.126-169.914-86.768-201.638z" fill="#f9f7f8"/><g><path d="m422.551 234.176h-147c-11.046 0-20-8.954-20-20v-71.626h187v71.626c0 11.046-8.954 20-20 20z" fill="#bc7c63"/><path d="m402.551 142.55v71.626c0 11.046-8.954 20-20 20h40c11.046 0 20-8.954 20-20v-71.626z" fill="#aa6a51"/><path d="m349.275 201.852c-8.351 0-15.12-6.77-15.12-15.12v-39.556h30.24v39.556c.001 8.35-6.769 15.12-15.12 15.12z" fill="#e5eef9"/><path d="m255.551 125.176v17.374c0 4.658 3.217 8.7 7.756 9.745l81.262 18.709c3.093.712 6.311.678 9.389-.1l81.044-20.487c4.439-1.122 7.549-5.116 7.549-9.695v-15.547c0-11.046-8.954-20-20-20h-147c-11.046.001-20 8.955-20 20.001z" fill="#d1a08f"/><path d="m422.551 105.176h-40c11.046 0 20 8.954 20 20l-.832 33.655 33.283-8.413c4.439-1.122 7.549-5.116 7.549-9.695v-15.547c0-11.046-8.954-20-20-20z" fill="#c68d7a"/></g></g><g><path d="m276.384 369.387-37.61 37.61c-49.165 49.165-182.003-85.611-133.807-133.807l37.61-37.61-85.669-85.67-18.108 18.108c-79.999 79.999 12.605 189.985 63.883 241.263 51.497 51.497 161.265 143.881 241.263 63.883l18.108-18.108z" fill="#685e68"/><path d="m131.97 257.609-96.276-96.276c-5.407-5.407-5.407-14.174 0-19.582 14.783-14.783 38.75-14.783 53.532 0l62.325 62.325c14.783 14.783 14.783 38.75 0 53.532-5.407 5.408-14.174 5.408-19.581.001z" fill="#d5e3f4"/><path d="m151.552 204.076-17.668-17.668c12.036 14.866 11.144 36.724-2.682 50.55-5.407 5.407-14.174 5.407-19.582 0l20.35 20.65c5.407 5.407 14.174 5.407 19.582 0 14.782-14.782 14.782-38.749 0-53.532z" fill="#b3ceec"/><path d="m254.355 379.993 96.276 96.276c5.407 5.407 14.174 5.407 19.582 0 14.783-14.783 14.783-38.75 0-53.532l-62.325-62.325c-14.783-14.783-38.75-14.783-53.532 0-5.409 5.407-5.409 14.174-.001 19.581z" fill="#d5e3f4"/><path d="m370.212 422.737-21.702-21.298c14.782 14.783 14.782 38.75 0 53.532-4.727 4.726-12.019 5.321-17.392 1.784l19.513 19.513c5.407 5.407 14.174 5.407 19.582 0 14.782-14.781 14.782-38.749-.001-53.531z" fill="#b3ceec"/></g></g><g><path d="m498.299 97.625c-1.658-3.794-6.074-5.526-9.873-3.87-3.795 1.658-5.528 6.078-3.87 9.873 15.914 36.437 16.579 76.839 1.871 113.763-14.598 36.649-42.595 65.419-78.833 81.01-36.238 15.592-76.379 16.14-113.031 1.539-9.563-3.81-18.738-8.618-27.269-14.291-2.111-1.404-4.785-1.645-7.117-.644l-50.841 21.877c-2.538.401-3.641-.673-3.31-3.221l20.847-52.336c.909-2.283.642-4.867-.715-6.916-26.77-40.411-32.061-91.375-14.155-136.328 30.133-75.655 116.203-112.688 191.863-82.55 27.175 10.825 50.287 29.223 66.836 53.206 2.352 3.409 7.021 4.266 10.431 1.913 3.409-2.352 4.265-7.022 1.913-10.431-18.235-26.426-43.696-46.697-73.629-58.621-83.342-33.196-178.151 7.596-211.347 90.932-19.237 48.294-14.173 102.878 13.439 146.835l-19.416 48.745c-5.57 13.986 9.169 28.566 23.171 22.548l47.166-20.296c25.81 16.238 56.316 25.15 86.823 25.149 21.819-.001 43.623-4.45 64.27-13.334 39.919-17.175 70.758-48.865 86.839-89.236 16.198-40.675 15.467-85.18-2.063-125.316z"/><path d="m370.885 71.004h-43.71c-9.648 0-17.497 7.849-17.497 17.497v9.164h-34.135c-15.16 0-27.495 12.335-27.495 27.495v88.984c0 15.16 12.335 27.495 27.495 27.495h146.973c15.16 0 27.495-12.335 27.495-27.495v-88.984c0-15.16-12.335-27.495-27.495-27.495h-34.134v-9.164c0-9.648-7.85-17.497-17.497-17.497zm-46.21 17.497c0-1.379 1.121-2.5 2.5-2.5h43.71c1.379 0 2.5 1.121 2.5 2.5v9.164h-48.709v-9.164zm97.841 138.141h-146.973c-6.891 0-12.498-5.606-12.498-12.498v-54.234l63.593 14.642v12.153c0 12.47 10.146 22.616 22.616 22.616s22.616-10.146 22.616-22.616v-12.623l63.144-15.962v56.024c0 6.891-5.607 12.498-12.498 12.498zm-80.881-48.638c4.996 1.329 10.261 1.287 15.237-.132v8.832c0 4.201-3.417 7.619-7.619 7.619s-7.619-3.417-7.619-7.619v-8.7zm93.379-52.844v15.544c0 1.146-.775 2.143-1.886 2.423l-81.03 20.483c-1.914.483-3.943.506-5.866.062l-81.247-18.706c-1.141-.263-1.939-1.264-1.939-2.436v-17.37c0-6.891 5.606-12.498 12.498-12.498h146.973c6.89 0 12.497 5.607 12.497 12.498z"/><path d="m313.175 355.052c-8.565-8.565-19.951-13.283-32.065-13.283-12.112 0-23.499 4.718-32.064 13.282-8.689 8.691-7.386 22.028.408 30.591l-15.986 15.986c-20.484 20.486-61.933.472-92.291-29.887-18.543-18.543-57.43-66.747-30.886-93.291l15.985-15.985c8.408 7.959 22.042 8.955 30.591.407 17.679-17.679 17.679-46.447 0-64.128l-62.314-62.314c-8.565-8.564-19.952-13.281-32.064-13.281-12.112.001-23.499 4.718-32.063 13.282-8.115 8.114-8.244 21.545-.326 29.825-17.803 19.138-27.799 41.107-29.717 65.374-5.582 70.625 50.567 136.435 97.017 182.888 46.471 46.469 112.245 102.685 182.927 97.047 24.242-1.935 46.199-11.94 65.336-29.746 8.28 7.918 21.71 7.788 29.825-.326 17.678-17.679 17.678-46.448 0-64.128zm-34.04 141.562c-65.769 5.26-128.058-49.634-171.127-92.703-43.088-43.088-97.867-105.341-92.672-171.101 1.63-20.619 10.162-39.409 25.365-55.923l6.218 6.218c2.929 2.927 7.676 2.927 10.605 0 2.928-2.929 2.928-7.676 0-10.605l-16.492-16.492c-2.479-2.991-2.479-5.982 0-8.973 11.833-11.835 31.086-11.833 42.917 0l62.314 62.313c11.833 11.834 11.833 31.086 0 42.918-2.991 2.479-5.982 2.479-8.973 0l-58.828-58.828c-2.929-2.927-7.676-2.927-10.605 0-2.928 2.929-2.928 7.676 0 10.605l47.816 47.816-15.985 15.985c-28.724 28.725-4.125 79.489 30.886 114.501 25.617 25.617 79.657 63.729 113.502 29.888l15.986-15.986 74.972 74.972c-16.518 15.207-35.299 23.75-55.899 25.395zm85.749-25.727c-2.991 2.479-5.981 2.479-8.972 0l-96.259-96.259c-2.479-2.991-2.479-5.982 0-8.973 5.731-5.731 13.352-8.889 21.458-8.889 8.107 0 15.728 3.158 21.459 8.89l62.314 62.312c11.832 11.833 11.832 31.087 0 42.919z"/></g></g></svg>