<svg id="Capa_1" enable-background="new 0 0 512 512" height="512" viewBox="0 0 512 512" width="512" xmlns="http://www.w3.org/2000/svg"><g><g><g><path d="m243.558 84.227-198.408 123.161c-6.875 4.268-11.053 11.758-11.053 19.817v253.933c0 12.902 10.519 23.362 23.495 23.362h396.815c12.976 0 23.495-10.459 23.495-23.362v-253.933c0-8.059-4.177-15.549-11.053-19.817l-198.407-123.161c-7.614-4.727-17.27-4.727-24.884 0z" fill="#fe646f"/><path d="m421.625 472.394h-331.25v-453.18c0-6.47 5.245-11.714 11.714-11.714h307.822c6.47 0 11.714 5.245 11.714 11.714z" fill="#f9f7f8"/><path d="m409.911 7.5h-40c6.469 0 11.714 5.245 11.714 11.714v453.18h40v-453.18c0-6.469-5.245-11.714-11.714-11.714z" fill="#e5eef9"/><path d="m468.918 238.602-200.476 124.446c-7.614 4.726-17.271 4.726-24.884 0l-200.476-124.446c-3.912-2.429-8.984.368-8.984 4.954v237.582c0 12.902 10.519 23.362 23.495 23.362h396.815c12.976 0 23.495-10.459 23.495-23.362v-237.582c0-4.586-5.072-7.382-8.985-4.954z" fill="#fd8087"/></g><g><path d="m322.396 193.566h-132.792c-9.978 0-18.067-8.089-18.067-18.067v-80.397c0-9.978 8.089-18.067 18.067-18.067h132.791c9.978 0 18.067 8.089 18.067 18.067v80.397c0 9.978-8.088 18.067-18.066 18.067z" fill="#bc7c63"/><path d="m256.203 164.367c-7.543 0-13.659-6.115-13.659-13.659v-35.732h27.317v35.732c0 7.543-6.115 13.659-13.658 13.659z" fill="#e5eef9"/><path d="m171.538 95.102v15.695c0 4.208 2.906 7.859 7.007 8.803l73.407 16.901c2.794.643 5.701.612 8.481-.09l73.21-18.506c4.01-1.014 6.82-4.622 6.82-8.758v-14.045c0-9.978-8.089-18.067-18.067-18.067h-132.792c-9.978 0-18.066 8.089-18.066 18.067z" fill="#d1a08f"/></g><path d="m51.873 491.148 192.001-144.22c7.303-5.485 17.353-5.481 24.65.011l191.641 144.214c5.692 4.284 2.663 13.348-4.461 13.348h-399.375c-7.128-.001-10.155-9.072-4.456-13.353z" fill="#fe646f"/></g><g><path d="m470.806 201.017-41.681-25.874v-155.929c0-10.595-8.62-19.214-19.214-19.214h-307.822c-10.594 0-19.214 8.619-19.214 19.214v38.684c0 4.143 3.358 7.5 7.5 7.5s7.5-3.357 7.5-7.5v-38.684c0-2.323 1.891-4.214 4.214-4.214h307.821c2.324 0 4.214 1.891 4.214 4.214v244.574l-133.501 82.87-7.591-5.712c-9.907-7.459-23.75-7.463-33.665-.016l-7.792 5.853-133.7-82.995v-174.006c0-4.143-3.358-7.5-7.5-7.5s-7.5 3.357-7.5 7.5v85.36l-41.681 25.874c-9.14 5.674-14.597 15.464-14.597 26.188v253.934c0 15.763 13.471 30.861 29.731 30.861h305.338c4.142 0 7.5-3.357 7.5-7.5s-3.358-7.5-7.5-7.5l-304.171-.005c-.29-.002-.575-.026-.861-.043l191.744-144.027c4.605-3.459 11.034-3.458 15.636.007l191.375 144.019c-.326.02-.65.049-.981.049h-61.188c-4.142 0-7.5 3.357-7.5 7.5s3.358 7.5 7.5 7.5h62.484c16.249 0 29.699-15.124 29.699-30.861v-253.933c0-10.725-5.457-20.515-14.597-26.188zm-427.066 288.017c-1.355-2.328-2.143-5.02-2.143-7.896v-234.63l177.111 109.942-171.34 128.701c-1.473 1.107-2.683 2.427-3.628 3.883zm5.365-275.273 33.77-20.963v61.679l-35.837-22.247c-1.681-1.043-3.54-1.675-5.44-1.907-.606-6.436 1.774-13.004 7.507-16.562zm380.02-20.963 33.77 20.963c5.733 3.558 8.114 10.126 7.508 16.562-1.9.232-3.759.864-5.44 1.907l-35.838 22.246zm41.278 53.71v234.63c0 2.865-.781 5.548-2.127 7.87-.941-1.443-2.141-2.751-3.601-3.85l-171.194-128.825z"/><path d="m275.746 43.261h-39.492c-9.116 0-16.533 7.417-16.533 16.533v9.741h-30.116c-14.098 0-25.567 11.469-25.567 25.566v80.397c0 14.098 11.469 25.567 25.567 25.567h132.791c14.098 0 25.567-11.47 25.567-25.567v-80.396c0-14.098-11.469-25.566-25.567-25.566h-30.116v-9.741c-.001-9.117-7.418-16.534-16.534-16.534zm-41.025 16.533c0-.846.688-1.533 1.533-1.533h39.492c.845 0 1.533.688 1.533 1.533v9.741h-42.559v-9.741zm87.675 126.272h-132.792c-5.827 0-10.567-4.74-10.567-10.567v-48.09l56.006 12.896v10.403c0 11.667 9.492 21.158 21.159 21.158s21.159-9.491 21.159-21.158v-10.841l55.601-14.055v49.688c0 5.826-4.74 10.566-10.566 10.566zm-72.352-42.308c4.102.963 8.222.93 12.317-.1v7.049c0 3.396-2.763 6.158-6.159 6.158s-6.159-2.763-6.159-6.158v-6.949zm82.918-48.656v14.044c0 .703-.476 1.314-1.157 1.486l-73.212 18.507c-1.618.408-3.334.427-4.959.054l-73.406-16.901c-.701-.161-1.19-.775-1.19-1.494v-15.696c0-5.826 4.74-10.566 10.567-10.566h132.791c5.826-.001 10.566 4.739 10.566 10.566z"/><path d="m146.5 243.667c0 4.143 3.358 7.5 7.5 7.5h204c4.142 0 7.5-3.357 7.5-7.5s-3.358-7.5-7.5-7.5h-204c-4.142 0-7.5 3.357-7.5 7.5z"/><path d="m200.167 281.5c-4.142 0-7.5 3.357-7.5 7.5s3.358 7.5 7.5 7.5h111.667c4.142 0 7.5-3.357 7.5-7.5s-3.358-7.5-7.5-7.5z"/></g></g></svg>