<svg id="Capa_1" enable-background="new 0 0 511.999 511.999" height="512" viewBox="0 0 511.999 511.999" width="512" xmlns="http://www.w3.org/2000/svg"><g><g><g><path d="m230.123 144.976c0-3.448-.267-6.835-.779-10.142l15.588-16.375c1.449-1.522 1.722-3.817.672-5.637l-12.551-21.745c-1.051-1.82-3.174-2.731-5.216-2.236l-21.704 5.252c-5.406-4.474-11.535-8.103-18.181-10.686l-6.385-21.698c-.593-2.016-2.443-3.401-4.544-3.401h-25.101c-2.101 0-3.951 1.384-4.544 3.401l-6.295 21.393c-6.683 2.497-12.854 6.049-18.314 10.451l-22.016-5.327c-2.042-.494-4.166.416-5.216 2.236l-12.551 21.745c-1.051 1.82-.777 4.115.672 5.637l15.373 16.148c-1.171 6.966-1.22 14.145-.14 21.126l-15.588 16.375c-1.449 1.522-1.722 3.817-.672 5.637l12.551 21.745c1.051 1.82 3.174 2.731 5.216 2.236l21.704-5.252c5.406 4.474 11.535 8.103 18.181 10.686l6.385 21.698c.593 2.016 2.443 3.401 4.544 3.401h25.101c2.101 0 3.951-1.384 4.544-3.401l6.295-21.393c6.682-2.497 12.854-6.049 18.314-10.451l22.016 5.327c2.042.494 4.166-.416 5.216-2.236l12.551-21.745c1.051-1.82.777-4.115-.672-5.637l-15.373-16.148c.601-3.574.919-7.243.919-10.984zm-33.159 0c0 18.146-14.706 32.855-32.846 32.855-18.14 0-32.846-14.71-32.846-32.855 0-18.145 14.705-32.855 32.846-32.855 18.14-.001 32.846 14.709 32.846 32.855z" fill="#6c7fd8"/><g><g><g><path d="m461.146 504.5c-3.014 0-6.055-.905-8.696-2.788l-86.542-61.705-86.542 61.705c-6.746 4.81-16.112 3.241-20.922-3.505-4.81-6.745-3.24-16.112 3.505-20.921l95.25-67.915c5.211-3.717 12.206-3.717 17.417 0l95.25 67.915c6.745 4.809 8.314 14.176 3.505 20.921-2.926 4.104-7.541 6.293-12.225 6.293z" fill="#bc7c63"/><path d="m365.909 7.5c-8.284 0-15 6.716-15 15v466.999c0 8.284 6.716 15 15 15s15-6.716 15-15v-466.999c0-8.284-6.716-15-15-15z" fill="#d1a08f"/></g></g><g><path d="m499.191 371.177h-266.564c-2.928 0-5.301-2.373-5.301-5.301v-321.075c0-2.928 2.373-5.301 5.301-5.301h266.564c2.928 0 5.301 2.373 5.301 5.301v321.074c0 2.929-2.374 5.302-5.301 5.302z" fill="#f9f7f8"/><path d="m499.191 39.5h-40c2.928 0 5.301 2.374 5.301 5.301v321.074c0 2.928-2.373 5.301-5.301 5.301h40c2.928 0 5.301-2.374 5.301-5.301v-321.074c0-2.927-2.374-5.301-5.301-5.301z" fill="#e5eef9"/><path d="m432.612 388.938h-133.406c-2.928 0-5.301-2.373-5.301-5.301v-25.498c0-2.928 2.373-5.301 5.301-5.301h133.407c2.928 0 5.301 2.373 5.301 5.301v25.498c-.001 2.928-2.374 5.301-5.302 5.301z" fill="#bc7c63"/><g><g><path d="m345.186 299.883h-41.445v-65.926c0-2.209 1.791-4 4-4h37.445z" fill="#fd8087"/><path d="m386.632 299.883h-41.445v-143.125c0-2.209 1.791-4 4-4h33.445c2.209 0 4 1.791 4 4z" fill="#ffe177"/><path d="m428.077 299.883h-41.445v-106.411h37.445c2.209 0 4 1.791 4 4z" fill="#6fd7a3"/></g></g></g></g></g><path d="m155.618 325.976c0-3.448-.267-6.835-.779-10.142l15.588-16.375c1.449-1.522 1.722-3.817.672-5.637l-12.551-21.745c-1.051-1.82-3.174-2.731-5.216-2.236l-21.704 5.252c-5.406-4.474-11.535-8.103-18.181-10.686l-6.385-21.698c-.593-2.016-2.443-3.401-4.544-3.401h-25.1c-2.101 0-3.951 1.384-4.544 3.401l-6.295 21.393c-6.683 2.497-12.854 6.049-18.314 10.451l-22.016-5.327c-2.042-.494-4.166.416-5.216 2.236l-12.551 21.744c-1.051 1.82-.777 4.115.672 5.637l15.373 16.148c-1.171 6.966-1.22 14.145-.14 21.126l-15.588 16.375c-1.449 1.522-1.722 3.817-.672 5.637l12.551 21.745c1.051 1.82 3.174 2.731 5.216 2.236l21.704-5.252c5.406 4.474 11.535 8.103 18.181 10.686l6.385 21.698c.593 2.016 2.443 3.401 4.544 3.401h25.101c2.101 0 3.951-1.384 4.544-3.401l6.295-21.393c6.682-2.497 12.854-6.049 18.314-10.451l22.016 5.327c2.042.494 4.166-.416 5.216-2.236l12.551-21.745c1.051-1.82.777-4.115-.672-5.637l-15.373-16.147c.601-3.574.918-7.243.918-10.984zm-33.159 0c0 18.146-14.706 32.855-32.846 32.855-18.14 0-32.846-14.71-32.846-32.855 0-18.146 14.705-32.855 32.846-32.855 18.141-.001 32.846 14.709 32.846 32.855z" fill="#d5e3f4"/></g><g><path d="m164.118 104.62c-22.247 0-40.345 18.104-40.345 40.355s18.099 40.355 40.346 40.355 40.345-18.104 40.345-40.355-18.1-40.355-40.346-40.355zm0 65.711c-13.976 0-25.345-11.374-25.345-25.355s11.37-25.355 25.346-25.355 25.345 11.374 25.345 25.355-11.371 25.355-25.346 25.355z"/><path d="m499.191 32h-32.528c-4.142 0-7.5 3.357-7.5 7.5s3.358 7.5 7.5 7.5h30.33v316.677h-51.579v-5.538c0-7.059-5.743-12.801-12.801-12.801h-133.407c-7.059 0-12.801 5.742-12.801 12.801v5.538h-51.579v-316.677h201.087c4.142 0 7.5-3.357 7.5-7.5s-3.358-7.5-7.5-7.5h-47.504v-9.5c0-12.406-10.093-22.5-22.5-22.5s-22.5 10.094-22.5 22.5v9.5h-110.782c-7.059 0-12.801 5.743-12.801 12.802v38.529l-11.862 2.664c-4.307-3.212-8.934-5.932-13.822-8.126l-5.378-18.277c-1.522-5.172-6.35-8.783-11.739-8.783h-25.101c-5.39 0-10.217 3.611-11.739 8.783l-5.272 17.916c-4.889 2.124-9.527 4.773-13.854 7.914l-18.54-4.486c-5.239-1.265-10.781 1.107-13.476 5.777l-12.55 21.744c-2.694 4.667-1.981 10.654 1.735 14.558l12.872 13.521c-.614 5.32-.647 10.675-.099 15.996l-13.126 13.788c-3.718 3.903-4.432 9.89-1.737 14.559l12.55 21.745c2.695 4.668 8.235 7.038 13.476 5.776l18.171-4.397c4.289 3.191 8.896 5.896 13.761 8.08l5.378 18.277c1.522 5.172 6.35 8.783 11.739 8.783h25.101c5.39 0 10.217-3.611 11.739-8.783l5.271-17.917c4.887-2.123 9.525-4.772 13.854-7.913l12.647 3.06v158.286c0 7.059 5.743 12.801 12.801 12.801h53.777v4.96c0 7.059 5.743 12.802 12.801 12.802h44.203v13.555l-85.812 61.185c-9.797 6.985-12.307 21.497-5.258 31.382 7.02 9.846 21.551 12.268 31.383 5.258l59.688-42.558v24.238c0 12.406 10.093 22.5 22.5 22.5s22.5-10.094 22.5-22.5v-24.238l59.688 42.558c10.135 7.256 22.707 4.177 30.77-4.506 8.567-9.226 4.938-25.301-4.645-32.133l-85.812-61.186v-13.556h44.203c7.059 0 12.801-5.743 12.801-12.802v-4.96h53.777c7.059 0 12.801-5.742 12.801-12.801v-321.073c.001-7.059-5.742-12.802-12.8-12.802zm-140.782-9.5c0-4.136 3.364-7.5 7.5-7.5s7.5 3.364 7.5 7.5v9.5h-15zm-151.179 166.608c-2.266-.546-4.657-.012-6.47 1.451-4.908 3.956-10.37 7.072-16.233 9.264-2.211.826-3.904 2.645-4.57 4.908l-5.711 19.411h-20.966l-5.802-19.716c-.656-2.23-2.311-4.031-4.478-4.873-5.843-2.271-11.265-5.459-16.116-9.474-1.821-1.508-4.245-2.067-6.546-1.513l-19.693 4.766-10.485-18.165 14.165-14.88c1.604-1.685 2.335-4.019 1.979-6.318-.962-6.216-.92-12.52.125-18.735.391-2.328-.336-4.705-1.964-6.414l-13.949-14.652 10.484-18.166 20.006 4.841c2.266.546 4.657.012 6.471-1.451 4.904-3.954 10.366-7.071 16.233-9.265 2.21-.826 3.902-2.645 4.568-4.908l5.712-19.41h20.966l5.801 19.716c.656 2.23 2.311 4.031 4.478 4.873 5.842 2.271 11.264 5.458 16.116 9.474 1.789 1.48 4.163 2.051 6.425 1.539l12.048-2.706v93.452zm67.783 306.497c-3.368 2.401-8.06 1.615-10.461-1.753-2.304-3.971-1.72-7.457 1.752-10.46l77.104-54.977v18.423zm190.501-12.211c3.347 2.877 4.011 6.243 1.994 10.099-4.343 4.484-7.331 4.149-10.905 1.969l-68.193-48.622v-18.423zm-92.105 6.105c0 4.136-3.364 7.5-7.5 7.5s-7.5-3.364-7.5-7.5v-93.061h15zm57.004-108.061h-129.009v-21.101h129.009z"/><path d="m268.9 97.282h57.624c4.142 0 7.5-3.357 7.5-7.5s-3.358-7.5-7.5-7.5h-57.624c-4.142 0-7.5 3.357-7.5 7.5s3.357 7.5 7.5 7.5z"/><path d="m268.9 125.863h33.127c4.142 0 7.5-3.357 7.5-7.5s-3.358-7.5-7.5-7.5h-33.127c-4.142 0-7.5 3.357-7.5 7.5s3.357 7.5 7.5 7.5z"/><path d="m268.9 307.384h194.019c4.142 0 7.5-3.357 7.5-7.5s-3.358-7.5-7.5-7.5h-27.341v-98.912c0-4.143-3.358-7.5-7.5-7.5h-33.945v-33.214c0-4.143-3.358-7.5-7.5-7.5h-41.445c-4.142 0-7.5 3.357-7.5 7.5v69.699h-33.948c-4.142 0-7.5 3.357-7.5 7.5v62.427h-27.34c-4.142 0-7.5 3.357-7.5 7.5s3.357 7.5 7.5 7.5zm151.677-106.412v91.412h-26.445v-91.412zm-67.891-40.714h26.445v33.214 98.912h-26.445v-62.427zm-41.446 77.199h26.446v54.927h-26.446z"/><path d="m177.596 290.073-12.551-21.745c-2.695-4.668-8.236-7.042-13.476-5.776l-18.172 4.397c-4.289-3.191-8.896-5.896-13.76-8.08l-5.378-18.277c-1.522-5.172-6.35-8.783-11.739-8.783h-25.102c-5.389 0-10.216 3.611-11.739 8.783l-5.272 17.916c-4.888 2.124-9.526 4.773-13.854 7.914l-18.54-4.486c-5.242-1.268-10.782 1.108-13.476 5.777l-12.551 21.744c-2.694 4.667-1.981 10.652 1.735 14.559l12.872 13.52c-.615 5.319-.648 10.675-.1 15.995l-13.126 13.789c-3.717 3.903-4.431 9.89-1.736 14.558l12.55 21.743c2.694 4.672 8.237 7.045 13.476 5.778l18.172-4.397c4.289 3.191 8.896 5.896 13.761 8.08l5.378 18.277c1.522 5.172 6.35 8.783 11.739 8.783h25.101c5.39 0 10.217-3.611 11.739-8.783l5.272-17.917c4.887-2.123 9.525-4.772 13.854-7.913l18.54 4.486c5.24 1.267 10.781-1.108 13.476-5.777l12.55-21.744c2.695-4.668 1.981-10.653-1.735-14.558l-12.873-13.522c.613-5.329.647-10.66.1-15.992l13.128-13.791c3.717-3.902 4.431-9.889 1.737-14.558zm-28.189 20.59c-1.604 1.685-2.335 4.02-1.979 6.319.96 6.248.919 12.492-.125 18.733-.391 2.328.336 4.704 1.964 6.414l13.949 14.653-10.485 18.166-20.006-4.841c-2.267-.546-4.656-.012-6.471 1.451-4.907 3.955-10.368 7.072-16.232 9.264-2.21.826-3.903 2.645-4.569 4.908l-5.712 19.411h-20.966l-5.801-19.716c-.656-2.23-2.311-4.031-4.478-4.873-5.842-2.271-11.265-5.458-16.116-9.474-1.821-1.508-4.247-2.066-6.546-1.513l-19.694 4.766-10.485-18.165 14.165-14.88c1.604-1.685 2.335-4.019 1.979-6.318-.962-6.217-.92-12.52.125-18.735.392-2.328-.336-4.705-1.964-6.415l-13.95-14.651 10.486-18.166 20.006 4.841c2.267.547 4.657.012 6.471-1.451 4.905-3.955 10.367-7.072 16.233-9.265 2.21-.826 3.903-2.645 4.569-4.908l5.711-19.41h20.966l5.802 19.716c.656 2.23 2.311 4.031 4.478 4.873 5.842 2.271 11.264 5.458 16.116 9.474 1.822 1.507 4.247 2.067 6.546 1.513l19.693-4.766 10.485 18.165z"/><path d="m89.613 285.62c-22.247 0-40.346 18.104-40.346 40.355 0 6.556 1.616 13.075 4.674 18.854 1.938 3.66 6.475 5.059 10.137 3.121 3.662-1.937 5.059-6.476 3.122-10.137-1.946-3.678-2.933-7.661-2.933-11.839 0-13.981 11.37-25.355 25.346-25.355 13.925 0 25.264 11.292 25.345 25.204-.68 14.818-14.132 27.543-29.251 25.208-4.087-.629-7.924 2.175-8.556 6.269s2.176 7.925 6.27 8.556c23.423 3.615 46.538-16.016 46.538-39.881 0-22.251-18.099-40.355-40.346-40.355z"/></g></g></svg>