<svg id="Capa_1" enable-background="new 0 0 512 512" height="512" viewBox="0 0 512 512" width="512" xmlns="http://www.w3.org/2000/svg"><g><g><path d="m422.441 393.822h-359.244v-376.3c0-5.535 4.487-10.022 10.022-10.022h339.2c5.535 0 10.022 4.487 10.022 10.022z" fill="#f9f7f8"/><path d="m412.419 7.5h-40c5.535 0 10.022 4.487 10.022 10.022v376.3h40v-376.3c0-5.535-4.487-10.022-10.022-10.022z" fill="#e5eef9"/><g><path d="m108.793 504.5h-39.871c-3.162 0-5.725-2.563-5.725-5.725v-121.929h51.32v121.929c.001 3.162-2.562 5.725-5.724 5.725z" fill="#fd8087"/><path d="m160.114 504.5h-39.871c-3.162 0-5.725-2.563-5.725-5.725v-121.929h51.32v121.929c0 3.162-2.563 5.725-5.724 5.725z" fill="#fe646f"/><path d="m211.434 504.5h-39.871c-3.162 0-5.725-2.563-5.725-5.725v-121.929h51.32v121.929c0 3.162-2.563 5.725-5.724 5.725z" fill="#fd8087"/><path d="m262.754 504.5h-39.871c-3.162 0-5.725-2.563-5.725-5.725v-121.929h51.32v121.929c.001 3.162-2.562 5.725-5.724 5.725z" fill="#fe646f"/><path d="m314.075 504.5h-39.871c-3.162 0-5.725-2.563-5.725-5.725v-121.929h51.32v121.929c0 3.162-2.563 5.725-5.724 5.725z" fill="#fd8087"/><path d="m365.395 504.5h-39.871c-3.162 0-5.725-2.563-5.725-5.725v-121.929h51.32v121.929c.001 3.162-2.562 5.725-5.724 5.725z" fill="#fe646f"/><path d="m371.12 376.846h51.32v86.202h-51.32z" fill="#fd8087"/></g></g><path d="m422.089 463.048h-48.401l27.573-37.995c1.077-1.484 2.8-2.362 4.633-2.362h37.174c4.676 0 7.38 5.302 4.633 9.086l-20.979 28.908c-1.076 1.485-2.799 2.363-4.633 2.363z" fill="#fe646f"/><g><path d="m454.85 422.408c-2.27-4.451-6.784-7.217-11.781-7.217h-13.129l.001-397.67c0-9.661-7.861-17.521-17.522-17.521h-43.149c-4.143 0-7.5 3.357-7.5 7.5s3.357 7.5 7.5 7.5h43.149c1.391 0 2.521 1.131 2.521 2.521v351.825c-114.748 0-229.495-.001-344.243-.001v-351.824c0-1.391 1.131-2.521 2.521-2.521h267.603c4.143 0 7.5-3.357 7.5-7.5s-3.357-7.5-7.5-7.5h-267.602c-9.662 0-17.521 7.86-17.521 17.521v415.489c0 4.143 3.358 7.5 7.5 7.5s7.5-3.357 7.5-7.5v-48.664h36.32v112.654h-36.32v-34.011c0-4.143-3.358-7.5-7.5-7.5s-7.5 3.357-7.5 7.5v35.786c0 7.292 5.933 13.225 13.225 13.225h39.871c2.052 0 3.99-.484 5.725-1.322 1.735.838 3.672 1.322 5.725 1.322h39.871c2.052 0 3.99-.484 5.725-1.322 1.735.838 3.672 1.322 5.725 1.322h39.871c2.052 0 3.99-.484 5.725-1.322 1.735.838 3.672 1.322 5.725 1.322h39.871c2.052 0 3.99-.484 5.725-1.322 1.735.838 3.672 1.322 5.725 1.322h39.871c2.052 0 3.99-.484 5.725-1.322 1.735.838 3.672 1.322 5.725 1.322h39.871c7.292 0 13.225-5.933 13.225-13.225v-28.228h43.47c4.223 0 8.225-2.04 10.704-5.457l20.979-28.908c2.929-4.044 3.342-9.322 1.073-13.774zm-39.91-7.217h-9.045c-.543 0-1.082.036-1.615.103v-4.56c0-4.143-3.357-7.5-7.5-7.5s-7.5 3.357-7.5 7.5v18.059l-10.66 14.689v-59.136h36.32zm-292.922-30.844h36.32v112.653h-36.32zm51.32 0h36.32v112.653h-36.32zm51.321 0h36.32v112.653h-36.32zm51.32 0h36.32v112.653h-36.32zm87.64 112.653h-36.32v-112.653h36.32v78.701zm57.566-41.452h-32.787l18.401-25.356h32.786z"/><path d="m96.358 470.611v-59.877c0-4.143-3.358-7.5-7.5-7.5s-7.5 3.357-7.5 7.5v59.877c0 4.143 3.358 7.5 7.5 7.5s7.5-3.357 7.5-7.5z"/><path d="m140.178 403.234c-4.142 0-7.5 3.357-7.5 7.5v59.877c0 4.143 3.358 7.5 7.5 7.5s7.5-3.357 7.5-7.5v-59.877c0-4.142-3.358-7.5-7.5-7.5z"/><path d="m191.498 403.234c-4.142 0-7.5 3.357-7.5 7.5v59.877c0 4.143 3.358 7.5 7.5 7.5s7.5-3.357 7.5-7.5v-59.877c0-4.142-3.358-7.5-7.5-7.5z"/><path d="m242.819 403.234c-4.142 0-7.5 3.357-7.5 7.5v59.877c0 4.143 3.358 7.5 7.5 7.5s7.5-3.357 7.5-7.5v-59.877c0-4.142-3.358-7.5-7.5-7.5z"/><path d="m294.139 403.234c-4.143 0-7.5 3.357-7.5 7.5v59.877c0 4.143 3.357 7.5 7.5 7.5s7.5-3.357 7.5-7.5v-59.877c0-4.142-3.357-7.5-7.5-7.5z"/><path d="m345.459 403.234c-4.143 0-7.5 3.357-7.5 7.5v59.877c0 4.143 3.357 7.5 7.5 7.5s7.5-3.357 7.5-7.5v-59.877c0-4.142-3.357-7.5-7.5-7.5z"/><path d="m167.135 147.304c6.784-3.766 10.998-11.002 10.998-18.885v-55.452c0-4.143-3.358-7.5-7.5-7.5s-7.5 3.357-7.5 7.5v55.452c0 7.401-8.068 7.11-11.671 3.664-2.924-2.892-7.637-2.889-10.558.015-2.938 2.92-2.953 7.669-.034 10.606 6.735 6.778 17.716 9.347 26.265 4.6z"/><path d="m317.115 65.467h-20.155c-4.143 0-7.5 3.357-7.5 7.5v31.948.052 37.381c0 3.725 3.729 7.5 7.526 7.5l23.648-.082c14.434 0 26.177-11.742 26.177-26.176 0-8.608-4.178-16.256-10.612-21.03 2.754-3.845 4.382-8.549 4.382-13.628-.001-12.939-10.527-23.465-23.466-23.465zm0 15c4.668 0 8.466 3.797 8.466 8.465s-3.798 8.465-8.492 8.465c-4.21.018-8.419.024-12.629.019v-16.949zm3.493 54.299-16.148.056v-22.381c5.392-.025 10.783-.033 16.175-.026 6.163 0 11.177 5.013 11.177 11.175s-5.015 11.176-11.204 11.176z"/><path d="m275.594 107.657c0-23.264-18.928-42.19-42.194-42.19s-42.193 18.927-42.193 42.19 18.928 42.19 42.193 42.19 42.194-18.926 42.194-42.19zm-69.387 0c0-14.993 12.199-27.19 27.193-27.19s27.194 12.197 27.194 27.19-12.199 27.19-27.194 27.19-27.193-12.197-27.193-27.19z"/><path d="m117.743 241.494h223.079c4.143 0 7.5-3.357 7.5-7.5s-3.357-7.5-7.5-7.5h-223.079c-4.142 0-7.5 3.357-7.5 7.5s3.357 7.5 7.5 7.5z"/><path d="m372.325 273.778c0-4.143-3.357-7.5-7.5-7.5h-247.082c-4.142 0-7.5 3.357-7.5 7.5s3.358 7.5 7.5 7.5h247.082c4.142 0 7.5-3.357 7.5-7.5z"/><path d="m117.743 306.063c-4.142 0-7.5 3.357-7.5 7.5s3.358 7.5 7.5 7.5h149.525c4.143 0 7.5-3.357 7.5-7.5s-3.357-7.5-7.5-7.5z"/><path d="m364.825 185.86h-247.082c-4.142 0-7.5 3.357-7.5 7.5s3.358 7.5 7.5 7.5h247.082c4.143 0 7.5-3.357 7.5-7.5s-3.358-7.5-7.5-7.5z"/></g></g></svg>