<svg id="Capa_1" enable-background="new 0 0 511.746 511.746" height="512" viewBox="0 0 511.746 511.746" width="512" xmlns="http://www.w3.org/2000/svg"><g><g><g><path d="m272.078 94.583h-30v-50.968c0-3.372-2.747-6.115-6.124-6.115h-88.348c-3.376 0-6.123 2.743-6.123 6.115v50.968h-30v-50.968c0-19.914 16.205-36.115 36.123-36.115h88.348c19.919 0 36.124 16.201 36.124 36.115z" fill="#d5e3f4"/><path d="m344.617 320.988h-305.672c-14.672 0-26.566-11.894-26.566-26.566v-162.672h358.804v162.672c0 14.672-11.894 26.566-26.566 26.566z" fill="#bc7c63"/><path d="m331.183 131.75v162.672c0 14.672-11.894 26.566-26.566 26.566h40c14.672 0 26.566-11.894 26.566-26.566v-162.672z" fill="#aa6a51"/><path d="m192.212 249.262c-11.339 0-20.531-9.192-20.531-20.531v-54.51h41.061v54.51c0 11.339-9.192 20.531-20.53 20.531z" fill="#e5eef9"/><path d="m12.379 97.514v45.775c0 9.035 6.172 16.873 14.882 18.9l155.92 36.285c5.935 1.381 12.11 1.315 18.015-.194l155.502-39.732c8.518-2.176 14.485-9.922 14.485-18.803v-42.23c0-14.751-11.831-26.709-26.424-26.709h-305.956c-14.594 0-26.424 11.957-26.424 26.708z" fill="#d1a08f"/><path d="m344.759 70.805h-40c14.594 0 26.424 11.958 26.424 26.709v67.552l25.515-6.519c8.518-2.177 14.485-9.922 14.485-18.803v-42.23c0-14.751-11.831-26.709-26.424-26.709z" fill="#c68d7a"/></g><g><g><path d="m320.446 492.666-15.434-53.378c-3.719-12.86-13.78-22.915-26.649-26.631l-53.425-15.427c-9.155-2.644-15.816 8.644-9.075 15.38l44.598 44.568 44.604 44.574c6.742 6.739 18.029.071 15.381-9.086z" fill="#685e68"/><path d="m498.843 443.825-38.275-132.374c-7.585-26.234-28.11-46.744-54.361-54.325l-132.466-38.25c-12.428-3.589-21.469 11.734-12.319 20.878l108.265 108.192 108.283 108.21c9.15 9.143 24.466.095 20.873-12.331z" fill="#685e68"/><path d="m498.843 443.825-38.275-132.374c-7.586-26.234-46.409-34.75-40-12.585l38.275 132.374c.624 2.157.667 4.208.282 6.084l18.845 18.832c9.149 9.143 24.466.095 20.873-12.331z" fill="#554e56"/><path d="m419.493 350.708c-72.541 72.498-174.616 150.991-189.135 136.483-14.519-14.507 64.018-116.521 136.558-189.019 6.562-6.558 12.851-12.651 18.872-18.297 8.858-8.306 31.034-1.105 38.757-7.543 10.311-8.596 5.732-30.126 14.105-35.655 28.212-18.63 45.708-20.712 54.401-12.026s6.611 26.17-12.029 54.364c-5.411 8.184-22.93 5.841-31.273 15.877-6.581 7.917-3.406 27.854-11.97 36.975-5.642 6.013-11.731 12.29-18.286 18.841z" fill="#f9f7f8"/></g><g><path d="m438.653 236.681c-14.644 9.67-32.176 23.799-52.863 43.196l51.989 51.989c19.41-20.675 33.549-38.196 43.227-52.832l-.011-.037c-6.183-20.278-22.06-36.145-42.342-42.316z" fill="#b3dafe"/></g></g></g><path d="m506.048 441.742-38.275-132.374c-.009-.03-.021-.057-.03-.087 12.197-14.834 21.49-28.134 27.778-39.786 12.324-22.84 13.277-39.712 2.832-50.148-17.247-17.232-48.771-.046-64.159 11.313-8.004 5.296-16.613 11.72-25.826 19.288-.028-.008-.053-.02-.081-.028l-29.604-8.548v-144c0-18.784-15.281-34.065-34.065-34.065h-65.039v-19.69c-.001-24.052-19.57-43.617-43.625-43.617h-88.348c-24.054 0-43.623 19.565-43.623 43.615v19.69h-18.104c-4.143 0-7.5 3.357-7.5 7.5s3.357 7.5 7.5 7.5h258.738c10.513 0 19.065 8.553 19.065 19.065v42.374c0 5.462-3.636 10.205-8.841 11.535l-155.501 39.734c-4.718 1.205-9.717 1.258-14.459.155l-155.919-36.284c-5.348-1.245-9.083-6.013-9.083-11.595v-45.918c0-10.513 8.553-19.065 19.066-19.065h14.934c4.143 0 7.5-3.357 7.5-7.5s-3.357-7.5-7.5-7.5h-14.934c-18.784 0-34.066 15.281-34.066 34.065v197.051c0 18.784 15.282 34.066 34.066 34.066h288.663c-22.118 24.206-43.462 49.594-61.211 72.908l-39.378-11.371c-15.934-4.594-28.443 15.914-16.458 27.891l26.157 26.14c-6.447 10.584-23.864 36.248-11.661 48.441 12.225 12.213 37.843-5.2 48.464-11.662l26.242 26.223c11.669 11.662 32.602-.169 27.888-16.475l-11.404-39.442c25.332-19.267 53.109-42.769 79.158-66.891l37.073 37.047c3.536 2.928 7.071 2.927 10.606-.003 2.929-2.931 2.927-7.679-.003-10.606l-36.732-36.707c6.312-6.002 12.484-12.009 18.446-17.968 11.668-11.662 22.102-22.696 31.285-33.079l35.558 122.974c.975 3.372-1.261 5.119-2.268 5.714-1.006.595-3.618 1.708-6.099-.771l-18.14-18.128c-2.931-2.929-7.68-2.927-10.606.003-2.929 2.93-2.927 7.679.003 10.606l18.14 18.129c6.493 6.488 16.521 7.688 24.332 3.074 7.989-4.719 11.625-13.879 9.048-22.793zm-271.47-378.436h-85.595v-18.306h85.595zm15 0v-19.69c0-7.508-6.111-13.615-13.624-13.615h-88.348c-7.512 0-13.623 6.107-13.623 13.615v19.69h-15v-19.69c0-15.778 12.84-28.615 28.623-28.615h88.348c15.783 0 28.624 12.837 28.624 28.615v19.69zm230.165 163.954c3.648 0 6.298.989 8.008 2.698 4.979 4.976 3 16.79-5.432 32.414-.057.106-.12.215-.177.322-6.378-11.362-15.755-20.743-27.114-27.127 10.843-5.877 19.007-8.307 24.715-8.307zm-39.961 17.717c15.237 5.687 27.224 17.67 32.935 32.959-8.706 12.717-20.445 27.128-35.134 43.128l-40.981-40.981c7.325-6.712 14.335-12.829 20.977-18.294 8.142-6.699 15.527-12.251 22.203-16.812zm-96.149 66.33-76.91-76.857c-2.482-2.481-1.368-5.091-.774-6.099.595-1.006 2.342-3.242 5.711-2.269l123.043 35.529c-10.398 9.189-21.474 19.651-33.087 31.257-5.965 5.96-11.977 12.13-17.983 18.439zm-151.845-104.351c4.545 0 9.092-.707 13.454-1.97v23.745c0 7.185-5.846 13.03-13.03 13.03-7.186 0-13.031-5.846-13.031-13.03v-23.489c4.089 1.027 8.489 1.714 12.607 1.714zm-171.909 87.466v-126.966c1.784.87 3.678 1.571 5.683 2.037l138.619 32.258v26.98c0 15.456 12.575 28.03 28.031 28.03s28.03-12.574 28.03-28.03v-27.578l138.313-35.34c1.802-.46 3.508-1.118 5.128-1.912v73.139l-87.861-25.37c-8.914-2.578-18.074 1.064-22.791 9.057-4.717 7.992-3.476 17.771 3.089 24.331l68.477 68.43h-285.652c-10.514 0-19.066-8.552-19.066-19.066zm201.286 112.884c-.919-1.831-.355-2.787 1.692-2.868l33.97 9.809c-4.319 5.939-8.262 11.572-11.822 16.885zm91.297 89.407c-1.149.679-1.836-.008-2.095-.265l-23.913-23.896c5.331-3.568 10.982-7.52 16.943-11.85l9.844 34.047c.102.352.371 1.284-.779 1.964zm101.729-151.31c-33.774 33.755-75.073 69.796-110.474 96.41-41.781 31.412-61.717 39.562-67.666 39.683.125-5.948 8.283-25.872 39.71-67.624 26.629-35.376 62.688-76.645 96.457-110.395 4.569-4.566 9.046-8.942 13.43-13.133l41.663 41.663c-4.176 4.361-8.545 8.825-13.12 13.396z"/></g></svg>