<svg id="Capa_1" enable-background="new 0 0 512 512" height="512" viewBox="0 0 512 512" width="512" xmlns="http://www.w3.org/2000/svg"><g><g><g><path d="m452.187 319.492-32.12-33.467c-1.814-1.89-2.669-4.506-2.298-7.097 2.079-14.504 2.177-29.322.284-43.85-.333-2.557.526-5.124 2.313-6.985l32.701-34.072c2.703-2.817 3.159-7.102 1.108-10.423l-37.16-60.162c-1.946-3.15-5.698-4.696-9.302-3.831l-43.614 10.468c-2.537.609-5.212.029-7.268-1.575-11.545-9.006-24.339-16.501-38.077-22.19-2.382-.987-4.189-2.996-4.922-5.465l-12.81-43.183c-1.079-3.637-4.424-6.131-8.222-6.131h-71.839c-3.798 0-7.143 2.495-8.222 6.131l-12.569 42.369c-.744 2.507-2.594 4.536-5.025 5.507-13.812 5.519-26.693 12.859-38.344 21.718-2.045 1.555-4.682 2.108-7.181 1.508l-44.452-10.669c-3.604-.865-7.356.68-9.302 3.831l-37.16 60.162c-2.051 3.321-1.596 7.606 1.108 10.423l32.119 33.466c1.82 1.896 2.667 4.521 2.294 7.122-1.074 7.484-1.637 15.13-1.637 22.904 0 7.084.462 14.062 1.355 20.909.334 2.562-.521 5.134-2.311 6.999l-32.701 34.071c-2.703 2.817-3.159 7.102-1.108 10.423l37.16 60.162c1.946 3.15 5.698 4.696 9.302 3.831l43.615-10.468c2.537-.609 5.212-.029 7.268 1.575 11.545 9.006 24.339 16.501 38.076 22.19 2.382.987 4.189 2.996 4.922 5.465l12.81 43.183c1.079 3.637 4.424 6.131 8.222 6.131h71.839c3.798 0 7.143-2.495 8.222-6.131l12.569-42.369c.744-2.507 2.594-4.536 5.025-5.507 13.812-5.519 26.693-12.859 38.344-21.718 2.045-1.555 4.682-2.108 7.181-1.508l44.452 10.669c3.604.865 7.356-.68 9.302-3.831l37.16-60.162c2.051-3.321 1.596-7.606-1.107-10.423zm-277.504-63.492c0-44.559 36.407-80.68 81.317-80.68 44.91 0 81.317 36.122 81.317 80.68 0 44.559-36.407 80.68-81.317 80.68-44.91 0-81.317-36.122-81.317-80.68z" fill="#6c7fd8"/><g><g><ellipse cx="256" cy="256" fill="#ffe177" rx="132.402" ry="132.235"/></g><path d="m256 123.765c-6.799 0-13.477.514-20 1.501 63.634 9.63 112.402 64.493 112.402 130.734s-48.768 121.104-112.402 130.734c6.523.987 13.201 1.501 20 1.501 73.124 0 132.402-59.204 132.402-132.235s-59.278-132.235-132.402-132.235z" fill="#ffd15b"/><g><g><ellipse cx="256" cy="256" fill="#f9f7f8" rx="102.231" ry="102.102"/></g><circle cx="256" cy="256" fill="#bc7c63" r="17.784"/></g></g></g></g><g><path d="m437.02 74.991c-48.353-48.349-112.64-74.976-181.02-74.976-4.143 0-7.5 3.357-7.5 7.5s3.357 7.5 7.5 7.5c64.374 0 124.895 25.067 170.413 70.583 45.519 45.516 70.587 106.033 70.587 170.402s-25.068 124.886-70.587 170.402c-45.518 45.516-106.039 70.583-170.413 70.583s-124.895-25.067-170.413-70.583c-45.519-45.516-70.587-106.033-70.587-170.402 0-4.143-3.357-7.5-7.5-7.5s-7.5 3.357-7.5 7.5c0 68.376 26.629 132.66 74.98 181.009 48.353 48.35 112.64 74.977 181.02 74.977s132.667-26.627 181.02-74.977c48.351-48.349 74.98-112.633 74.98-181.009s-26.629-132.66-74.98-181.009z"/><path d="m53.522 312.786c-5.072 5.285-5.927 13.328-2.077 19.558l37.159 60.163c3.658 5.92 10.667 8.804 17.433 7.181l43.614-10.468c.322-.075.648-.004.905.195 12.174 9.496 25.57 17.304 39.821 23.206.291.12.51.364.6.669l12.811 43.184c2.009 6.77 8.347 11.497 15.413 11.497h71.838c7.065 0 13.403-4.728 15.412-11.498l12.569-42.369c.092-.309.316-.555.617-.675 14.305-5.716 27.797-13.357 40.103-22.714.252-.192.575-.261.89-.184l44.451 10.669c6.769 1.625 13.776-1.263 17.435-7.183l37.159-60.161c3.849-6.23 2.995-14.273-2.077-19.558l-32.121-33.468c-.221-.229-.326-.543-.284-.839 2.182-15.216 2.281-30.653.298-45.883-.038-.29.069-.599.286-.824l32.702-34.072c5.071-5.286 5.925-13.328 2.076-19.557l-37.159-60.163c-3.658-5.921-10.669-8.807-17.433-7.181l-43.613 10.469c-.318.073-.649.005-.906-.195-12.177-9.499-25.573-17.306-39.818-23.205-.293-.121-.513-.365-.603-.67l-12.811-43.184c-2.009-6.77-8.347-11.497-15.413-11.497h-71.838c-7.065 0-13.403 4.728-15.412 11.498l-12.569 42.369c-.092.309-.316.555-.617.675-14.305 5.716-27.797 13.357-40.099 22.711-.255.194-.58.263-.894.187l-44.451-10.669c-6.772-1.624-13.777 1.261-17.435 7.183l-12.013 19.449c-2.177 3.524-1.084 8.146 2.439 10.322 3.524 2.176 8.146 1.084 10.322-2.439l12.013-19.449c.245-.396.708-.593 1.172-.479l44.452 10.669c4.707 1.129 9.617.099 13.471-2.83 11.228-8.537 23.537-15.51 36.589-20.725 4.589-1.834 8.026-5.603 9.431-10.338l12.569-42.368c.133-.45.558-.765 1.031-.765h71.838c.481 0 .896.308 1.032.764l12.811 43.183c1.382 4.66 4.751 8.401 9.243 10.263 12.997 5.383 25.222 12.506 36.332 21.173 3.878 3.025 8.849 4.102 13.632 2.955l43.615-10.468c.459-.11.926.084 1.17.479l37.16 60.163c.253.409.195.939-.139 1.287l-32.701 34.072c-3.386 3.527-4.967 8.319-4.339 13.147 1.809 13.88 1.717 27.948-.271 41.817-.702 4.902.869 9.771 4.311 13.354l32.12 33.467c.334.349.391.878.138 1.288l-37.159 60.161c-.245.396-.712.589-1.172.479l-44.452-10.669c-4.711-1.128-9.621-.098-13.47 2.83-11.229 8.537-23.538 15.51-36.59 20.725-4.589 1.834-8.026 5.603-9.431 10.338l-12.569 42.368c-.133.45-.558.765-1.031.765h-71.838c-.481 0-.896-.308-1.032-.764l-12.811-43.183c-1.383-4.663-4.752-8.403-9.242-10.262-13.001-5.385-25.226-12.509-36.332-21.173-3.877-3.027-8.845-4.105-13.632-2.956l-43.616 10.468c-.455.11-.925-.084-1.17-.479l-37.16-60.163c-.253-.409-.196-.938.139-1.287l32.701-34.071c3.387-3.528 4.967-8.326 4.337-13.163-.858-6.578-1.293-13.286-1.293-19.938 0-7.278.525-14.625 1.562-21.84.705-4.916-.865-9.793-4.308-13.38l-32.119-33.466c-.334-.349-.391-.878-.138-1.288l9.57-15.495c2.177-3.524 1.084-8.146-2.439-10.322-3.525-2.179-8.146-1.085-10.322 2.439l-9.57 15.495c-3.849 6.23-2.995 14.273 2.077 19.558l32.119 33.466c.225.233.327.549.282.862-1.138 7.916-1.714 15.981-1.714 23.971 0 7.299.478 14.659 1.418 21.878.04.302-.063.607-.284.837z"/><path d="m373.692 317.097c3.779 1.703 8.218.021 9.921-3.753 8.154-18.079 12.289-37.373 12.289-57.344 0-77.05-62.76-139.734-139.902-139.734s-139.902 62.684-139.902 139.734 62.759 139.734 139.902 139.734c44.332 0 85.079-20.309 111.794-55.72 2.494-3.307 1.836-8.009-1.471-10.504-3.31-2.497-8.01-1.835-10.504 1.471-23.853 31.619-60.236 49.753-99.819 49.753-68.871 0-124.902-55.956-124.902-124.734s56.031-124.734 124.902-124.734 124.902 55.956 124.902 124.734c0 17.83-3.688 35.049-10.963 51.176-1.703 3.776-.022 8.218 3.753 9.921z"/><path d="m256 146.397c-60.506 0-109.731 49.168-109.731 109.603s49.225 109.603 109.731 109.603 109.731-49.168 109.731-109.603-49.225-109.603-109.731-109.603zm0 204.206c-52.235 0-94.731-42.438-94.731-94.603s42.496-94.603 94.731-94.603 94.731 42.438 94.731 94.603-42.496 94.603-94.731 94.603z"/><path d="m256 192.973c4.143 0 7.5-3.357 7.5-7.5v-7.26c0-4.143-3.357-7.5-7.5-7.5s-7.5 3.357-7.5 7.5v7.26c0 4.142 3.357 7.5 7.5 7.5z"/><path d="m223.551 184.882c-2.073-3.586-6.66-4.814-10.246-2.74-3.586 2.072-4.813 6.66-2.74 10.246l3.634 6.287c3.038 3.794 6.454 4.708 10.246 2.74 3.586-2.072 4.813-6.66 2.74-10.246z"/><path d="m198.591 214.239-6.295-3.63c-3.586-2.069-8.174-.839-10.243 2.751-2.069 3.588-.838 8.174 2.751 10.243l6.295 3.63c3.793 1.964 7.207 1.047 10.243-2.751 2.069-3.587.838-8.173-2.751-10.243z"/><path d="m192.884 256c0-4.143-3.357-7.5-7.5-7.5h-7.27c-4.143 0-7.5 3.357-7.5 7.5s3.357 7.5 7.5 7.5h7.27c4.142 0 7.5-3.357 7.5-7.5z"/><path d="m191.099 284.767-6.295 3.63c-3.589 2.069-4.82 6.655-2.751 10.243 3.036 3.798 6.45 4.715 10.243 2.751l6.295-3.63c3.589-2.069 4.82-6.655 2.751-10.243-2.07-3.59-6.656-4.821-10.243-2.751z"/><path d="m224.444 310.585c-3.586-2.074-8.173-.847-10.246 2.74l-3.634 6.287c-2.073 3.586-.846 8.174 2.74 10.246 3.792 1.968 7.208 1.054 10.246-2.74l3.634-6.287c2.074-3.586.846-8.174-2.74-10.246z"/><path d="m256 319.027c-4.143 0-7.5 3.357-7.5 7.5v7.26c0 4.143 3.357 7.5 7.5 7.5s7.5-3.357 7.5-7.5v-7.26c0-4.142-3.357-7.5-7.5-7.5z"/><path d="m297.802 313.325c-2.073-3.587-6.661-4.814-10.246-2.74-3.586 2.072-4.813 6.66-2.74 10.246l3.634 6.287c3.038 3.794 6.454 4.708 10.246 2.74 3.586-2.072 4.813-6.66 2.74-10.246z"/><path d="m319.116 256c0 4.143 3.357 7.5 7.5 7.5h7.27c4.143 0 7.5-3.357 7.5-7.5s-3.357-7.5-7.5-7.5h-7.27c-4.142 0-7.5 3.357-7.5 7.5z"/><path d="m313.409 214.239c-3.589 2.069-4.82 6.655-2.751 10.243 3.036 3.798 6.45 4.715 10.243 2.751l6.295-3.63c3.589-2.069 4.82-6.655 2.751-10.243-2.068-3.59-6.656-4.819-10.243-2.751z"/><path d="m287.556 201.415c3.792 1.968 7.208 1.054 10.246-2.74l3.634-6.287c2.073-3.586.846-8.174-2.74-10.246-3.585-2.074-8.174-.846-10.246 2.74l-3.634 6.287c-2.074 3.586-.846 8.174 2.74 10.246z"/><path d="m327.196 288.396c-15.512-8.945-31.024-17.889-46.536-26.834.404-1.791.624-3.651.624-5.563 0-11.331-7.493-20.945-17.784-24.148v-23.197c0-4.143-3.357-7.5-7.5-7.5s-7.5 3.357-7.5 7.5v23.197c-10.291 3.203-17.784 12.817-17.784 24.148 0 13.941 11.343 25.284 25.284 25.284 6.617 0 12.646-2.558 17.157-6.734l46.547 26.84c3.793 1.964 7.207 1.047 10.243-2.751 2.07-3.586.838-8.172-2.751-10.242zm-71.196-22.112c-5.671 0-10.284-4.613-10.284-10.284s4.613-10.284 10.284-10.284 10.284 4.613 10.284 10.284-4.613 10.284-10.284 10.284z"/><path d="m4.35 215.72c1.627 3.847 6.178 5.673 10.001 3.965 3.645-1.628 5.395-6.019 3.849-9.706-1.509-3.598-5.628-5.48-9.334-4.233-4.062 1.366-6.141 6.029-4.516 9.974z"/><path d="m18.319 177.24c3.451 2.268 8.216 1.322 10.464-2.169 2.179-3.383 1.243-8.071-2.134-10.302-3.398-2.245-8.133-1.344-10.399 2.07-2.247 3.386-1.337 8.15 2.069 10.401z"/><path d="m36.63 137.979c3.469 2.37 8.436 1.242 10.579-2.354 2.03-3.405 1.041-7.947-2.29-10.13-3.356-2.2-8.018-1.335-10.3 1.998-2.321 3.391-1.448 8.213 2.011 10.486z"/><path d="m65.64 103.77c4.086 0 7.487-3.43 7.5-7.5.013-4.071-3.427-7.514-7.501-7.502-4.26.013-7.747 3.694-7.485 7.956.24 3.904 3.571 7.046 7.486 7.046z"/><path d="m89.34 68.51c1.591 3.761 6.01 5.625 9.8 4.05 3.7-1.539 5.54-5.818 4.137-9.562-1.432-3.822-5.827-5.825-9.649-4.375-3.908 1.483-5.893 6.012-4.288 9.887z"/><path d="m124.819 43.66c1.67 3.939 6.388 5.75 10.246 3.856 3.722-1.827 5.257-6.541 3.323-10.208-1.826-3.462-6.14-4.961-9.713-3.354-3.676 1.654-5.338 5.992-3.856 9.706z"/><path d="m164.08 25.35c1.559 3.785 6.022 5.631 9.8 4.061 3.865-1.607 5.668-6.208 3.95-10.015-1.633-3.618-5.933-5.33-9.611-3.862-3.8 1.515-5.744 6.021-4.139 9.816z"/><path d="m205.92 14.149c1.548 3.678 5.842 5.561 9.584 4.138 3.818-1.452 5.792-5.828 4.354-9.65-1.437-3.819-5.823-5.828-9.65-4.375-3.963 1.505-5.812 5.986-4.288 9.887z"/></g></g></svg>